  0
SECTION
  2
HEADER
  9
$ACADVER
  1
AC1014
  9
$ACADMAINTVER
 70
     9
  9
$DWGCODEPAGE
  3
ANSI_1252
  9
$INSBASE
 10
0.0
 20
0.0
 30
0.0
  9
$EXTMIN
 10
0.0
 20
0.0
 30
0.0
  9
$EXTMAX
 10
2440.0
 20
1220.0
 30
0.0
  9
$LIMMIN
 10
0.0
 20
0.0
  9
$LIMMAX
 10
2440.0
 20
1220.0
  9
$ORTHOMODE
 70
     0
  9
$REGENMODE
 70
     1
  9
$FILLMODE
 70
     1
  9
$QTEXTMODE
 70
     0
  9
$MIRRTEXT
 70
     1
  9
$DRAGMODE
 70
     2
  9
$LTSCALE
 40
1.0
  9
$OSMODE
 70
    37
  9
$ATTMODE
 70
     1
  9
$TEXTSIZE
 40
3.5
  9
$TRACEWID
 40
1.0
  9
$TEXTSTYLE
  7
STANDARD
  9
$CLAYER
  8
0
  9
$CELTYPE
  6
BYLAYER
  9
$CECOLOR
 62
   256
  9
$CELTSCALE
 40
1.0
  9
$DELOBJ
 70
     1
  9
$DISPSILH
 70
     0
  9
$DIMSCALE
 40
1.0
  9
$DIMASZ
 40
3.302
  9
$DIMEXO
 40
1.0
  9
$DIMDLI
 40
3.75
  9
$DIMRND
 40
0.0
  9
$DIMDLE
 40
0.0
  9
$DIMEXE
 40
1.0
  9
$DIMTP
 40
0.0
  9
$DIMTM
 40
0.0
  9
$DIMTXT
 40
4.5861111111
  9
$DIMCEN
 40
2.5
  9
$DIMTSZ
 40
0.0
  9
$DIMTOL
 70
     0
  9
$DIMLIM
 70
     0
  9
$DIMTIH
 70
     1
  9
$DIMTOH
 70
     1
  9
$DIMSE1
 70
     0
  9
$DIMSE2
 70
     0
  9
$DIMTAD
 70
     1
  9
$DIMZIN
 70
     0
  9
$DIMBLK
  1

  9
$DIMASO
 70
     1
  9
$DIMSHO
 70
     1
  9
$DIMPOST
  1

  9
$DIMAPOST
  1

  9
$DIMALT
 70
     0
  9
$DIMALTD
 70
     3
  9
$DIMALTF
 40
0.0393700787
  9
$DIMLFAC
 40
1.0
  9
$DIMTOFL
 70
     1
  9
$DIMTVP
 40
0.0
  9
$DIMTIX
 70
     0
  9
$DIMSOXD
 70
     0
  9
$DIMSAH
 70
     0
  9
$DIMBLK1
  1

  9
$DIMBLK2
  1

  9
$DIMSTYLE
  2
ISO-25
  9
$DIMCLRD
 70
     0
  9
$DIMCLRE
 70
     0
  9
$DIMCLRT
 70
     0
  9
$DIMTFAC
 40
1.0
  9
$DIMGAP
 40
1.524
  9
$DIMJUST
 70
     0
  9
$DIMSD1
 70
     0
  9
$DIMSD2
 70
     0
  9
$DIMTOLJ
 70
     0
  9
$DIMTZIN
 70
     0
  9
$DIMALTZ
 70
     0
  9
$DIMALTTZ
 70
     0
  9
$DIMFIT
 70
     3
  9
$DIMUPT
 70
     0
  9
$DIMUNIT
 70
     2
  9
$DIMDEC
 70
     2
  9
$DIMTDEC
 70
     2
  9
$DIMALTU
 70
     2
  9
$DIMALTTD
 70
     3
  9
$DIMTXSTY
  7
STANDARD
  9
$DIMAUNIT
 70
     0
  9
$LUNITS
 70
     2
  9
$LUPREC
 70
     2
  9
$SKETCHINC
 40
1.0
  9
$FILLETRAD
 40
10.0
  9
$AUNITS
 70
     0
  9
$AUPREC
 70
     2
  9
$MENU
  1
.
  9
$ELEVATION
 40
0.0
  9
$PELEVATION
 40
0.0
  9
$THICKNESS
 40
0.0
  9
$LIMCHECK
 70
     0
  9
$CHAMFERA
 40
0.0
  9
$CHAMFERB
 40
0.0
  9
$CHAMFERC
 40
0.0
  9
$CHAMFERD
 40
0.0
  9
$SKPOLY
 70
     0
  9
$TDCREATE
 40
2457722.412406748
  9
$TDUPDATE
 40
2457722.412407106
  9
$TDINDWG
 40
0.0000000116
  9
$TDUSRTIMER
 40
0.0000000116
  9
$USRTIMER
 70
     1
  9
$ANGBASE
 50
0.0
  9
$ANGDIR
 70
     0
  9
$PDMODE
 70
     0
  9
$PDSIZE
 40
-1.0
  9
$PLINEWID
 40
0.0
  9
$COORDS
 70
     1
  9
$SPLFRAME
 70
     0
  9
$SPLINETYPE
 70
     6
  9
$SPLINESEGS
 70
     8
  9
$ATTDIA
 70
     0
  9
$ATTREQ
 70
     1
  9
$HANDLING
 70
     1
  9
$HANDSEED
  5
395
  9
$SURFTAB1
 70
     6
  9
$SURFTAB2
 70
     6
  9
$SURFTYPE
 70
     6
  9
$SURFU
 70
     6
  9
$SURFV
 70
     6
  9
$UCSNAME
  2

  9
$UCSORG
 10
0.0
 20
0.0
 30
0.0
  9
$UCSXDIR
 10
1.0
 20
0.0
 30
0.0
  9
$UCSYDIR
 10
0.0
 20
1.0
 30
0.0
  9
$PUCSNAME
  2

  9
$PUCSORG
 10
0.0
 20
0.0
 30
0.0
  9
$PUCSXDIR
 10
1.0
 20
0.0
 30
0.0
  9
$PUCSYDIR
 10
0.0
 20
1.0
 30
0.0
  9
$USERI1
 70
     0
  9
$USERI2
 70
     0
  9
$USERI3
 70
     0
  9
$USERI4
 70
     0
  9
$USERI5
 70
     0
  9
$USERR1
 40
0.0
  9
$USERR2
 40
0.0
  9
$USERR3
 40
0.0
  9
$USERR4
 40
0.0
  9
$USERR5
 40
0.0
  9
$WORLDVIEW
 70
     1
  9
$SHADEDGE
 70
     3
  9
$SHADEDIF
 70
    70
  9
$TILEMODE
 70
     1
  9
$MAXACTVP
 70
    64
  9
$PINSBASE
 10
0.0
 20
0.0
 30
0.0
  9
$PLIMCHECK
 70
     0
  9
$PEXTMIN
 10
1.0000000000E+20
 20
1.0000000000E+20
 30
1.0000000000E+20
  9
$PEXTMAX
 10
-1.0000000000E+20
 20
-1.0000000000E+20
 30
-1.0000000000E+20
  9
$PLIMMIN
 10
0.0
 20
0.0
  9
$PLIMMAX
 10
420.0
 20
297.0
  9
$UNITMODE
 70
     0
  9
$VISRETAIN
 70
     1
  9
$PLINEGEN
 70
     0
  9
$PSLTSCALE
 70
     1
  9
$TREEDEPTH
 70
  3020
  9
$PICKSTYLE
 70
     1
  9
$CMLSTYLE
  2
STANDARD
  9
$CMLJUST
 70
     0
  9
$CMLSCALE
 40
20.0
  9
$PROXYGRAPHICS
 70
     1
  9
$MEASUREMENT
 70
     1
  0
ENDSEC
  0
SECTION
  2
CLASSES
  0
CLASS
  1
ACDBDICTIONARYWDFLT
  2
AcDbDictionaryWithDefault
  3
ObjectDBX Classes
 90
        0
280
     0
281
     0
  0
CLASS
  1
VISUALSTYLE
  2
AcDbVisualStyle
  3
ObjectDBX Classes
 90
     4095
280
     0
281
     0
  0
CLASS
  1
MATERIAL
  2
AcDbMaterial
  3
ObjectDBX Classes
 90
     1153
280
     0
281
     0
  0
CLASS
  1
SCALE
  2
AcDbScale
  3
ObjectDBX Classes
 90
     1153
280
     0
281
     0
  0
CLASS
  1
TABLESTYLE
  2
AcDbTableStyle
  3
ObjectDBX Classes
 90
     4095
280
     0
281
     0
  0
CLASS
  1
MLEADERSTYLE
  2
AcDbMLeaderStyle
  3
ACDB_MLEADERSTYLE_CLASS
 90
     4095
280
     0
281
     0
  0
CLASS
  1
SUN
  2
AcDbSun
  3
SCENEOE
 90
     1153
280
     0
281
     0
  0
CLASS
  1
XRECORD
  2
AcDbXrecord
  3
ObjectDBX Classes
 90
        0
280
     0
281
     0
  0
CLASS
  1
LWPOLYLINE
  2
AcDbPolyline
  3
ObjectDBX Classes
 90
        0
280
     0
281
     1
  0
CLASS
  1
HATCH
  2
AcDbHatch
  3
ObjectDBX Classes
 90
        0
280
     0
281
     1
  0
ENDSEC
  0
SECTION
  2
TABLES
  0
TABLE
  2
VPORT
  5
8
330
0
100
AcDbSymbolTable
 70
     1
  0
VPORT
  5
29
330
8
100
AcDbSymbolTableRecord
100
AcDbViewportTableRecord
  2
*ACTIVE
 70
     0
 10
0.0
 20
0.0
 11
1.0
 21
1.0
 12
1220.0
 22
610.0
 13
0.0
 23
0.0
 14
10.0
 24
10.0
 15
10.0
 25
10.0
 16
0.0
 26
0.0
 36
1.0
 17
0.0
 27
0.0
 37
0.0
 40
1220.0
 41
2.0
 42
50.0
 43
0.0
 44
0.0
 50
0.0
 51
0.0
 71
     0
 72
  2000
 73
     1
 74
     3
 75
     0
 76
     0
 77
     0
 78
     0
  0
ENDTAB
  0
TABLE
  2
LTYPE
  5
5
330
0
100
AcDbSymbolTable
 70
     6
  0
LTYPE
  5
14
330
5
100
AcDbSymbolTableRecord
100
AcDbLinetypeTableRecord
  2
BYBLOCK
 70
     0
  3

 72
    65
 73
     0
 40
0.0
  0
LTYPE
  5
15
330
5
100
AcDbSymbolTableRecord
100
AcDbLinetypeTableRecord
  2
BYLAYER
 70
     0
  3

 72
    65
 73
     0
 40
0.0
  0
LTYPE
  5
16
330
5
100
AcDbSymbolTableRecord
100
AcDbLinetypeTableRecord
  2
CONTINUOUS
 70
     0
  3
Solid line
 72
    65
 73
     0
 40
0.0
  0
LTYPE
  5
6E
330
5
100
AcDbSymbolTableRecord
100
AcDbLinetypeTableRecord
  2
HIDDEN
 70
     0
  3
Hidden __ __ __ __ __ __ __ __ __ __ __ __ __ __
 72
    65
 73
     2
 40
1.905
 49
1.27
 74
     0
 49
-0.635
 74
     0
  0
LTYPE
  5
6F
330
5
100
AcDbSymbolTableRecord
100
AcDbLinetypeTableRecord
  2
PHANTOM
 70
     0
  3
Phantom ______  __  __  ______  __  __  ______
 72
    65
 73
     6
 40
12.7
 49
6.35
 74
     0
 49
-1.27
 74
     0
 49
1.27
 74
     0
 49
-1.27
 74
     0
 49
1.27
 74
     0
 49
-1.27
 74
     0
  0
LTYPE
  5
70
330
5
100
AcDbSymbolTableRecord
100
AcDbLinetypeTableRecord
  2
CENTER
 70
     0
  3
Center ____ _ ____ _ ____ _ ____ _ ____ _ ____
 72
    65
 73
     4
 40
10.16
 49
6.35
 74
     0
 49
-1.27
 74
     0
 49
1.27
 74
     0
 49
-1.27
 74
     0
  0
LTYPE
  5
71
330
5
100
AcDbSymbolTableRecord
100
AcDbLinetypeTableRecord
  2
CENTERX2
 70
     0
  3
Center (2x) ________  __  ________  __  _____
 72
    65
 73
     4
 40
20.32
 49
12.7
 74
     0
 49
-2.54
 74
     0
 49
2.54
 74
     0
 49
-2.54
 74
     0
  0
LTYPE
  5
72
330
5
100
AcDbSymbolTableRecord
100
AcDbLinetypeTableRecord
  2
DOT2
 70
     0
  3
Dot (.5x) ........................................
 72
    65
 73
     2
 40
0.635
 49
0.0
 74
     0
 49
-0.635
 74
     0
  0
ENDTAB
  0
TABLE
  2
LAYER
  5
2
330
0
100
AcDbSymbolTable
 70
     6
  0
LAYER
  5
10
330
2
100
AcDbSymbolTableRecord
100
AcDbLayerTableRecord
  2
0
 70
     0
 62
     7
  6
CONTINUOUS
  0
LAYER
  5
73
330
2
100
AcDbSymbolTableRecord
100
AcDbLayerTableRecord
  2
BOX_STOCK
 70
     0
 62
     1
  6
CONTINUOUS
  0
LAYER
  5
74
330
2
100
AcDbSymbolTableRecord
100
AcDbLayerTableRecord
  2
HOLES
 70
     0
 62
    30
  6
CONTINUOUS
  0
LAYER
  5
75
330
2
100
AcDbSymbolTableRecord
100
AcDbLayerTableRecord
  2
POCKETS
 70
     0
 62
   171
  6
CONTINUOUS
  0
LAYER
  5
76
330
2
100
AcDbSymbolTableRecord
100
AcDbLayerTableRecord
  2
PROFILES_OUTSIDE
 70
     0
 62
     6
  6
CONTINUOUS
  0
LAYER
  5
77
330
2
100
AcDbSymbolTableRecord
100
AcDbLayerTableRecord
  2
PROFILES_INSIDE
 70
     0
 62
     4
  6
CONTINUOUS
  0
ENDTAB
  0
TABLE
  2
STYLE
  5
3
330
0
100
AcDbSymbolTable
 70
     1
  0
STYLE
  5
11
330
3
100
AcDbSymbolTableRecord
100
AcDbTextStyleTableRecord
  2
STANDARD
 70
     0
 40
0.0
 41
1.0
 50
0.0
 71
     0
 42
3.5
  3
txt
  4

  0
ENDTAB
  0
TABLE
  2
VIEW
  5
6
330
0
100
AcDbSymbolTable
 70
     0
  0
ENDTAB
  0
TABLE
  2
UCS
  5
7
330
0
100
AcDbSymbolTable
 70
     0
  0
ENDTAB
  0
TABLE
  2
APPID
  5
9
330
0
100
AcDbSymbolTable
 70
     1
  0
APPID
  5
12
330
9
100
AcDbSymbolTableRecord
100
AcDbRegAppTableRecord
  2
ACAD
 70
     0
  0
ENDTAB
  0
TABLE
  2
DIMSTYLE
  5
A
330
0
100
AcDbSymbolTable
 70
     1
  0
DIMSTYLE
105
27
330
A
100
AcDbSymbolTableRecord
100
AcDbDimStyleTableRecord
  2
ISO-25
 70
     0
  3

  4

  5

  6

  7

 40
1.0
 41
2.5
 42
0.625
 43
3.75
 44
1.25
 45
0.0
 46
0.0
 47
0.0
 48
0.0
140
2.5
141
2.5
142
0.0
143
0.0393700787
144
1.0
145
0.0
146
1.0
147
0.625
 71
     0
 72
     0
 73
     0
 74
     0
 75
     0
 76
     0
 77
     1
 78
     8
170
     0
171
     3
172
     1
173
     0
174
     0
175
     0
176
     0
177
     0
178
     0
270
     2
271
     2
272
     2
273
     2
274
     3
340
11
275
     0
280
     0
281
     0
282
     0
283
     0
284
     8
285
     0
286
     0
287
     3
288
     0
  0
ENDTAB
  0
TABLE
  2
BLOCK_RECORD
  5
1
330
0
100
AcDbSymbolTable
 70
     1
  0
BLOCK_RECORD
  5
1F
330
1
100
AcDbSymbolTableRecord
100
AcDbBlockTableRecord
  2
*MODEL_SPACE
  0
BLOCK_RECORD
  5
1B
330
1
100
AcDbSymbolTableRecord
100
AcDbBlockTableRecord
  2
*PAPER_SPACE
  0
BLOCK_RECORD
  5
23
330
1
100
AcDbSymbolTableRecord
100
AcDbBlockTableRecord
  2
*PAPER_SPACE0
  0
ENDTAB
  0
ENDSEC
  0
SECTION
  2
BLOCKS
  0
BLOCK
  5
20
330
1F
100
AcDbEntity
  8
0
100
AcDbBlockBegin
  2
*MODEL_SPACE
 70
     0
 10
0.0
 20
0.0
 30
0.0
  3
*MODEL_SPACE
  1

  0
ENDBLK
  5
21
330
1F
100
AcDbEntity
  8
0
100
AcDbBlockEnd
  0
BLOCK
  5
1C
330
1B
100
AcDbEntity
 67
     1
  8
0
100
AcDbBlockBegin
  2
*PAPER_SPACE
 70
     0
 10
0.0
 20
0.0
 30
0.0
  3
*PAPER_SPACE
  1

  0
ENDBLK
  5
1D
330
1B
100
AcDbEntity
 67
     1
  8
0
100
AcDbBlockEnd
  0
BLOCK
  5
24
330
23
100
AcDbEntity
  8
0
100
AcDbBlockBegin
  2
*PAPER_SPACE0
 70
     0
 10
0.0
 20
0.0
 30
0.0
  3
*PAPER_SPACE0
  1

  0
ENDBLK
  5
25
330
23
100
AcDbEntity
  8
0
100
AcDbBlockEnd
  0
ENDSEC
  0
SECTION
  2
ENTITIES
  0
LINE
  5
78
330
1F
100
AcDbEntity
  8
0
  6
CONTINUOUS
 62
     7
100
AcDbLine
 10
814.9082875084
 20
652.0712687195
 30
0.0
 11
652.9082870315
 21
652.0712687195
 31
0.0
  0
LINE
  5
79
330
1F
100
AcDbEntity
  8
0
  6
CONTINUOUS
 62
     7
100
AcDbLine
 10
814.9082875084
 20
30.0712617606
 30
0.0
 11
814.9082875084
 21
652.0712687195
 31
0.0
  0
LINE
  5
7A
330
1F
100
AcDbEntity
  8
0
  6
CONTINUOUS
 62
     7
100
AcDbLine
 10
652.9082870315
 20
652.0712687195
 30
0.0
 11
652.9082870315
 21
30.0712617606
 31
0.0
  0
LINE
  5
7B
330
1F
100
AcDbEntity
  8
0
  6
CONTINUOUS
 62
     7
100
AcDbLine
 10
652.9082870315
 20
30.0712617606
 30
0.0
 11
814.9082875084
 21
30.0712617606
 31
0.0
  0
ARC
  5
7C
330
1F
100
AcDbEntity
  8
0
  6
CONTINUOUS
 62
     7
100
AcDbCircle
 10
301.9482800697
 20
61.6782482379
 30
0.0
 40
6.0
100
AcDbArc
 50
275.0
 51
0.0
  0
LINE
  5
7D
330
1F
100
AcDbEntity
  8
0
  6
CONTINUOUS
 62
     7
100
AcDbLine
 10
302.4712121319
 20
55.7010783375
 30
0.0
 11
32.4712163042
 21
32.0791410774
 31
0.0
  0
ARC
  5
7E
330
1F
100
AcDbEntity
  8
0
  6
CONTINUOUS
 62
     7
100
AcDbCircle
 10
31.9482800697
 20
38.0563090859
 30
0.0
 40
6.000000000000227
100
AcDbArc
 50
180.0
 51
275.0
  0
LINE
  5
7F
330
1F
100
AcDbEntity
  8
0
  6
CONTINUOUS
 62
     7
100
AcDbLine
 10
25.9482795577
 20
38.056307894
 30
0.0
 11
25.9482795577
 21
58.2702955723
 31
0.0
  0
LINE
  5
80
330
1F
100
AcDbEntity
  8
0
  6
CONTINUOUS
 62
     7
100
AcDbLine
 10
63.7322208117
 20
61.575961721
 30
0.0
 11
25.9482795577
 21
58.2702955723
 31
0.0
  0
ARC
  5
81
330
1F
100
AcDbEntity
  8
0
  6
CONTINUOUS
 62
     7
100
AcDbCircle
 10
68.90134037
 20
61.6711683616
 30
0.0
 40
5.169998737984844
100
AcDbArc
 50
181.0551794268
 51
209.8878203283
  0
ARC
  5
82
330
1F
100
AcDbEntity
  8
0
  6
CONTINUOUS
 62
     7
100
AcDbCircle
 10
63.5519375046
 20
58.5966382546
 30
0.0
 40
0.9999981800218506
100
AcDbArc
 50
5.0
 51
29.8878203283
  0
LINE
  5
83
330
1F
100
AcDbEntity
  8
0
  6
CONTINUOUS
 62
     7
100
AcDbLine
 10
65.0201207231
 20
53.2889491439
 30
0.0
 11
64.5481338929
 21
58.6837953449
 31
0.0
  0
ARC
  5
84
330
1F
100
AcDbEntity
  8
0
  6
CONTINUOUS
 62
     7
100
AcDbCircle
 10
64.0239253816
 20
53.201792135
 30
0.0
 40
1.000000000000019
100
AcDbArc
 50
340.1121232274
 51
5.0
  0
ARC
  5
85
330
1F
100
AcDbEntity
  8
0
  6
CONTINUOUS
 62
     7
100
AcDbCircle
 10
69.8259473648
 20
51.1028779144
 30
0.0
 40
5.170000000000011
100
AcDbArc
 50
160.1121232273
 51
347.3995467073
  0
ARC
  5
86
330
1F
100
AcDbEntity
  8
0
  6
CONTINUOUS
 62
     7
100
AcDbCircle
 10
75.8473431374
 20
49.756886477
 30
0.0
 40
1.000000000000038
100
AcDbArc
 50
95.0000647817
 51
167.3995467073
  0
LINE
  5
87
330
1F
100
AcDbEntity
  8
0
  6
CONTINUOUS
 62
     7
100
AcDbLine
 10
79.7884380649
 20
51.1055117965
 30
0.0
 11
75.7601848077
 21
50.7530807078
 31
0.0
  0
ARC
  5
88
330
1F
100
AcDbEntity
  8
0
  6
CONTINUOUS
 62
     7
100
AcDbCircle
 10
79.8755922009
 20
50.1093171933
 30
0.0
 40
0.9999999999999304
100
AcDbArc
 50
22.600480279
 51
95.0000647817
  0
ARC
  5
89
330
1F
100
AcDbEntity
  8
0
  6
CONTINUOUS
 62
     7
100
AcDbCircle
 10
85.5717793647
 20
52.4804670822
 30
0.0
 40
5.170000000000141
100
AcDbArc
 50
202.600480279
 51
29.8879072801
  0
ARC
  5
8A
330
1F
100
AcDbEntity
  8
0
  6
CONTINUOUS
 62
     7
100
AcDbCircle
 10
90.9211813304
 20
55.5550074721
 30
0.0
 40
1.000000000000009
100
AcDbArc
 50
185.0
 51
209.8879072801
  0
LINE
  5
8B
330
1F
100
AcDbEntity
  8
0
  6
CONTINUOUS
 62
     7
100
AcDbLine
 10
89.4530033897
 20
60.8626766622
 30
0.0
 11
89.9249902199
 21
55.467852813
 31
0.0
  0
ARC
  5
8C
330
1F
100
AcDbEntity
  8
0
  6
CONTINUOUS
 62
     7
100
AcDbCircle
 10
90.4492418516
 20
60.9498371028
 30
0.0
 40
1.000046776821469
100
AcDbArc
 50
160.1122190803
 51
185.0
  0
ARC
  5
8D
330
1F
100
AcDbEntity
  8
0
  6
CONTINUOUS
 62
     7
100
AcDbCircle
 10
84.6471723698
 20
63.0487575294
 30
0.0
 40
5.170000000000002
100
AcDbArc
 50
340.1122190803
 51
8.944738049
  0
LINE
  5
8E
330
1F
100
AcDbEntity
  8
0
  6
CONTINUOUS
 62
     7
100
AcDbLine
 10
254.9467301201
 20
78.3050669849
 30
0.0
 11
89.7542974185
 21
63.8525983811
 31
0.0
  0
ARC
  5
8F
330
1F
100
AcDbEntity
  8
0
  6
CONTINUOUS
 62
     7
100
AcDbCircle
 10
260.1158654224
 20
78.4002716052
 30
0.0
 40
5.169998737984731
100
AcDbArc
 50
181.0551794268
 51
209.8878203283
  0
ARC
  5
90
330
1F
100
AcDbEntity
  8
0
  6
CONTINUOUS
 62
     7
100
AcDbCircle
 10
254.766462557
 20
75.3257414982
 30
0.0
 40
0.9999981800219347
100
AcDbArc
 50
5.0
 51
29.8878203283
  0
LINE
  5
91
330
1F
100
AcDbEntity
  8
0
  6
CONTINUOUS
 62
     7
100
AcDbLine
 10
256.234637482
 20
70.0180544079
 30
0.0
 11
255.7626581024
 21
75.4129006088
 31
0.0
  0
ARC
  5
92
330
1F
100
AcDbEntity
  8
0
  6
CONTINUOUS
 62
     7
100
AcDbCircle
 10
255.238450434
 20
69.9308953786
 30
0.0
 40
1.000000000000122
100
AcDbArc
 50
340.1121232273
 51
5.0
  0
ARC
  5
93
330
1F
100
AcDbEntity
  8
0
  6
CONTINUOUS
 62
     7
100
AcDbCircle
 10
261.0404724173
 20
67.831981158
 30
0.0
 40
5.170000000000092
100
AcDbArc
 50
160.1121232273
 51
347.3995467073
  0
ARC
  5
94
330
1F
100
AcDbEntity
  8
0
  6
CONTINUOUS
 62
     7
100
AcDbCircle
 10
267.0618681899
 20
66.4859897205
 30
0.0
 40
0.999999999999941
100
AcDbArc
 50
95.0000647817
 51
167.3995467073
  0
LINE
  5
95
330
1F
100
AcDbEntity
  8
0
  6
CONTINUOUS
 62
     7
100
AcDbLine
 10
271.002969725
 20
67.8346170605
 30
0.0
 11
266.9747090172
 21
67.4821822465
 31
0.0
  0
ARC
  5
96
330
1F
100
AcDbEntity
  8
0
  6
CONTINUOUS
 62
     7
100
AcDbCircle
 10
271.0901172533
 20
66.8384204369
 30
0.0
 40
0.9999999999999268
100
AcDbArc
 50
22.600480279
 51
95.0000647817
  0
ARC
  5
97
330
1F
100
AcDbEntity
  8
0
  6
CONTINUOUS
 62
     7
100
AcDbCircle
 10
276.7863044171
 20
69.2095703258
 30
0.0
 40
5.170000000000067
100
AcDbArc
 50
202.600480279
 51
29.8879072801
  0
ARC
  5
98
330
1F
100
AcDbEntity
  8
0
  6
CONTINUOUS
 62
     7
100
AcDbCircle
 10
282.1357063828
 20
72.2841107157
 30
0.0
 40
1.000000000000009
100
AcDbArc
 50
185.0
 51
209.8879072801
  0
LINE
  5
99
330
1F
100
AcDbEntity
  8
0
  6
CONTINUOUS
 62
     7
100
AcDbLine
 10
280.6675350498
 20
77.5917782009
 30
0.0
 11
281.1395144294
 21
72.1969543517
 31
0.0
  0
ARC
  5
9A
330
1F
100
AcDbEntity
  8
0
  6
CONTINUOUS
 62
     7
100
AcDbCircle
 10
281.663766904
 20
77.6789403464
 30
0.0
 40
1.00004677682148
100
AcDbArc
 50
160.1122190803
 51
185.0
  0
ARC
  5
9B
330
1F
100
AcDbEntity
  8
0
  6
CONTINUOUS
 62
     7
100
AcDbCircle
 10
275.8616974222
 20
79.777860773
 30
0.0
 40
5.1700000000001
100
AcDbArc
 50
340.1122190803
 51
8.944738049
  0
LINE
  5
9C
330
1F
100
AcDbEntity
  8
0
  6
CONTINUOUS
 62
     7
100
AcDbLine
 10
307.9482829403
 20
82.9420997322
 30
0.0
 11
280.9688365291
 21
80.581703645
 31
0.0
  0
LINE
  5
9D
330
1F
100
AcDbEntity
  8
0
  6
CONTINUOUS
 62
     7
100
AcDbLine
 10
307.9482829403
 20
82.9420997322
 30
0.0
 11
307.9482829403
 21
61.6782470167
 31
0.0
  0
ARC
  5
9E
330
1F
100
AcDbEntity
  8
0
  6
CONTINUOUS
 62
     7
100
AcDbCircle
 10
301.9482800697
 20
660.4139853025
 30
0.0
 40
6.0
100
AcDbArc
 50
280.0
 51
0.0
  0
LINE
  5
9F
330
1F
100
AcDbEntity
  8
0
  6
CONTINUOUS
 62
     7
100
AcDbLine
 10
292.9063951801
 20
652.7270986259
 30
0.0
 11
302.9901599716
 21
654.5051647842
 31
0.0
  0
ARC
  5
A0
330
1F
100
AcDbEntity
  8
0
  6
CONTINUOUS
 62
     7
100
AcDbCircle
 10
293.9482800697
 20
646.8182501142
 30
0.0
 40
6.0000000000001
100
AcDbArc
 50
100.0
 51
180.0
  0
LINE
  5
A1
330
1F
100
AcDbEntity
  8
0
  6
CONTINUOUS
 62
     7
100
AcDbLine
 10
287.9482722114
 20
144.7414024294
 30
0.0
 11
287.9482722114
 21
646.8182517708
 31
0.0
  0
ARC
  5
A2
330
1F
100
AcDbEntity
  8
0
  6
CONTINUOUS
 62
     7
100
AcDbCircle
 10
293.9482800697
 20
144.741398595
 30
0.0
 40
6.0
100
AcDbArc
 50
180.0
 51
260.0
  0
LINE
  5
A3
330
1F
100
AcDbEntity
  8
0
  6
CONTINUOUS
 62
     7
100
AcDbLine
 10
302.9901599716
 20
137.0545043171
 30
0.0
 11
292.9063951801
 21
138.8325555742
 31
0.0
  0
ARC
  5
A4
330
1F
100
AcDbEntity
  8
0
  6
CONTINUOUS
 62
     7
100
AcDbCircle
 10
301.9482800697
 20
131.1456634067
 30
0.0
 40
6.0
100
AcDbArc
 50
0.0
 51
80.0
  0
LINE
  5
A5
330
1F
100
AcDbEntity
  8
0
  6
CONTINUOUS
 62
     7
100
AcDbLine
 10
267.9482912849
 20
92.170984906
 30
0.0
 11
307.9482829403
 21
95.6705300629
 31
0.0
  0
LINE
  5
A6
330
1F
100
AcDbEntity
  8
0
  6
CONTINUOUS
 62
     7
100
AcDbLine
 10
267.9482912849
 20
699.388654393
 30
0.0
 11
267.9482912849
 21
92.170984906
 31
0.0
  0
LINE
  5
A7
330
1F
100
AcDbEntity
  8
0
  6
CONTINUOUS
 62
     7
100
AcDbLine
 10
307.9482829403
 20
695.8890868843
 30
0.0
 11
267.9482912849
 21
699.388654393
 31
0.0
  0
LINE
  5
A8
330
1F
100
AcDbEntity
  8
0
  6
CONTINUOUS
 62
     7
100
AcDbLine
 10
307.9482829403
 20
695.8890868843
 30
0.0
 11
307.9482829403
 21
660.4140116394
 31
0.0
  0
LINE
  5
A9
330
1F
100
AcDbEntity
  8
0
  6
CONTINUOUS
 62
     7
100
AcDbLine
 10
307.9482829403
 20
131.1456574619
 30
0.0
 11
307.9482829403
 21
95.6705300629
 31
0.0
  0
ARC
  5
AA
330
1F
100
AcDbEntity
  8
0
  6
CONTINUOUS
 62
     7
100
AcDbCircle
 10
31.9482800697
 20
753.5033396234
 30
0.0
 40
6.000000000000056
100
AcDbArc
 50
85.0
 51
180.0
  0
LINE
  5
AB
330
1F
100
AcDbEntity
  8
0
  6
CONTINUOUS
 62
     7
100
AcDbLine
 10
32.4712163042
 20
759.4805075348
 30
0.0
 11
302.4712121319
 21
735.8585907638
 31
0.0
  0
LINE
  5
AC
330
1F
100
AcDbEntity
  8
0
  6
CONTINUOUS
 62
     7
100
AcDbLine
 10
307.9482829403
 20
729.8813773811
 30
0.0
 11
307.9482829403
 21
708.6175395668
 31
0.0
  0
LINE
  5
AD
330
1F
100
AcDbEntity
  8
0
  6
CONTINUOUS
 62
     7
100
AcDbLine
 10
280.9688365291
 20
710.9779431045
 30
0.0
 11
307.9482829403
 21
708.6175395668
 31
0.0
  0
ARC
  5
AE
330
1F
100
AcDbEntity
  8
0
  6
CONTINUOUS
 62
     7
100
AcDbCircle
 10
275.8616994395
 20
711.7817951298
 30
0.0
 40
5.170000000000105
100
AcDbArc
 50
351.0551803913
 51
19.8879072801
  0
ARC
  5
AF
330
1F
100
AcDbEntity
  8
0
  6
CONTINUOUS
 62
     7
100
AcDbCircle
 10
281.6637203052
 20
713.8807124397
 30
0.0
 40
1.000000000000046
100
AcDbArc
 50
175.0
 51
199.8879072801
  0
LINE
  5
B0
330
1F
100
AcDbEntity
  8
0
  6
CONTINUOUS
 62
     7
100
AcDbLine
 10
281.1395144294
 20
719.362707299
 30
0.0
 11
280.6675350498
 21
713.9678909004
 31
0.0
  0
ARC
  5
B1
330
1F
100
AcDbEntity
  8
0
  6
CONTINUOUS
 62
     7
100
AcDbCircle
 10
282.1357529816
 20
719.2755339167
 30
0.0
 40
1.000046776821469
100
AcDbArc
 50
150.1122190803
 51
175.0
  0
ARC
  5
B2
330
1F
100
AcDbEntity
  8
0
  6
CONTINUOUS
 62
     7
100
AcDbCircle
 10
276.7863036797
 20
722.350085818
 30
0.0
 40
5.169999999999966
100
AcDbArc
 50
330.1122190803
 51
157.3995467073
  0
ARC
  5
B3
330
1F
100
AcDbEntity
  8
0
  6
CONTINUOUS
 62
     7
100
AcDbCircle
 10
271.0901153991
 20
724.721233024
 30
0.0
 40
1.000000000000012
100
AcDbArc
 50
265.0000647817
 51
337.3995467073
  0
LINE
  5
B4
330
1F
100
AcDbEntity
  8
0
  6
CONTINUOUS
 62
     7
100
AcDbLine
 10
266.9747090172
 20
724.0774347008
 30
0.0
 11
271.002969725
 21
723.7250520409
 31
0.0
  0
ARC
  5
B5
330
1F
100
AcDbEntity
  8
0
  6
CONTINUOUS
 62
     7
100
AcDbCircle
 10
267.0618655387
 20
725.0736546312
 30
0.0
 40
1.000001262015164
100
AcDbArc
 50
192.600480279
 51
265.0000647817
  0
ARC
  5
B6
330
1F
100
AcDbEntity
  8
0
  6
CONTINUOUS
 62
     7
100
AcDbCircle
 10
261.0404704
 20
723.7276603577
 30
0.0
 40
5.169998737984751
100
AcDbArc
 50
12.600480279
 51
199.8878203283
  0
ARC
  5
B7
330
1F
100
AcDbEntity
  8
0
  6
CONTINUOUS
 62
     7
100
AcDbCircle
 10
255.238450434
 20
721.6287533306
 30
0.0
 40
0.9999981800219927
100
AcDbArc
 50
355.0
 51
19.8878203283
  0
LINE
  5
B8
330
1F
100
AcDbEntity
  8
0
  6
CONTINUOUS
 62
     7
100
AcDbLine
 10
255.7626581024
 20
716.1467386902
 30
0.0
 11
256.234637482
 21
721.5416146934
 31
0.0
  0
ARC
  5
B9
330
1F
100
AcDbEntity
  8
0
  6
CONTINUOUS
 62
     7
100
AcDbCircle
 10
254.766462557
 20
716.233907211
 30
0.0
 40
1.000000000000123
100
AcDbArc
 50
330.1121232273
 51
355.0
  0
ARC
  5
BA
330
1F
100
AcDbEntity
  8
0
  6
CONTINUOUS
 62
     7
100
AcDbCircle
 10
260.1158661598
 20
713.1593696695
 30
0.0
 40
5.170000000000067
100
AcDbArc
 50
150.1121232273
 51
178.944738049
  0
LINE
  5
BB
330
1F
100
AcDbEntity
  8
0
  6
CONTINUOUS
 62
     7
100
AcDbLine
 10
89.7542974185
 20
727.7070595444
 30
0.0
 11
254.9467301201
 21
713.2546021164
 31
0.0
  0
ARC
  5
BC
330
1F
100
AcDbEntity
  8
0
  6
CONTINUOUS
 62
     7
100
AcDbCircle
 10
84.647174387
 20
728.5108983734
 30
0.0
 40
5.170000000000003
100
AcDbArc
 50
351.0551803913
 51
19.8879072801
  0
ARC
  5
BD
330
1F
100
AcDbEntity
  8
0
  6
CONTINUOUS
 62
     7
100
AcDbCircle
 10
90.4491952527
 20
730.6098156833
 30
0.0
 40
1.000000000000058
100
AcDbArc
 50
175.0
 51
199.8879072801
  0
LINE
  5
BE
330
1F
100
AcDbEntity
  8
0
  6
CONTINUOUS
 62
     7
100
AcDbLine
 10
89.9249902199
 20
736.0918237388
 30
0.0
 11
89.4530033897
 21
730.6969477356
 31
0.0
  0
ARC
  5
BF
330
1F
100
AcDbEntity
  8
0
  6
CONTINUOUS
 62
     7
100
AcDbCircle
 10
90.9212279292
 20
736.0046371603
 30
0.0
 40
1.000046776821388
100
AcDbArc
 50
150.1122190803
 51
175.0
  0
ARC
  5
C0
330
1F
100
AcDbEntity
  8
0
  6
CONTINUOUS
 62
     7
100
AcDbCircle
 10
85.5717786272
 20
739.0791890616
 30
0.0
 40
5.170000000000034
100
AcDbArc
 50
330.1122190803
 51
157.3995467073
  0
ARC
  5
C1
330
1F
100
AcDbEntity
  8
0
  6
CONTINUOUS
 62
     7
100
AcDbCircle
 10
79.8755903467
 20
741.4503362676
 30
0.0
 40
1.000000000000081
100
AcDbArc
 50
265.0000647817
 51
337.3995467073
  0
LINE
  5
C2
330
1F
100
AcDbEntity
  8
0
  6
CONTINUOUS
 62
     7
100
AcDbLine
 10
75.7601848077
 20
740.8065511406
 30
0.0
 11
79.7884380649
 21
740.4541684807
 31
0.0
  0
ARC
  5
C3
330
1F
100
AcDbEntity
  8
0
  6
CONTINUOUS
 62
     7
100
AcDbCircle
 10
75.8473404863
 20
741.8027578748
 30
0.0
 40
1.000001262015164
100
AcDbArc
 50
192.600480279
 51
265.0000647817
  0
ARC
  5
C4
330
1F
100
AcDbEntity
  8
0
  6
CONTINUOUS
 62
     7
100
AcDbCircle
 10
69.8259453476
 20
740.4567636013
 30
0.0
 40
5.169998737984804
100
AcDbArc
 50
12.600480279
 51
199.8878203283
  0
ARC
  5
C5
330
1F
100
AcDbEntity
  8
0
  6
CONTINUOUS
 62
     7
100
AcDbCircle
 10
64.0239253816
 20
738.3578565742
 30
0.0
 40
0.9999981800218369
100
AcDbArc
 50
355.0
 51
19.8878203283
  0
LINE
  5
C6
330
1F
100
AcDbEntity
  8
0
  6
CONTINUOUS
 62
     7
100
AcDbLine
 10
64.5481338929
 20
732.87585513
 30
0.0
 11
65.0201207231
 21
738.2706715286
 31
0.0
  0
ARC
  5
C7
330
1F
100
AcDbEntity
  8
0
  6
CONTINUOUS
 62
     7
100
AcDbCircle
 10
63.5519375046
 20
732.9630104546
 30
0.0
 40
1.00000000000001
100
AcDbArc
 50
330.1121232273
 51
355.0
  0
ARC
  5
C8
330
1F
100
AcDbEntity
  8
0
  6
CONTINUOUS
 62
     7
100
AcDbCircle
 10
68.9013411074
 20
729.8884729131
 30
0.0
 40
5.17000000000008
100
AcDbArc
 50
150.1121232273
 51
178.944738049
  0
LINE
  5
C9
330
1F
100
AcDbEntity
  8
0
  6
CONTINUOUS
 62
     7
100
AcDbLine
 10
25.9482795577
 20
733.2893325508
 30
0.0
 11
63.7322208117
 21
729.9836589516
 31
0.0
  0
LINE
  5
CA
330
1F
100
AcDbEntity
  8
0
  6
CONTINUOUS
 62
     7
100
AcDbLine
 10
25.9482795577
 20
733.2893325508
 30
0.0
 11
25.9482795577
 21
753.5033537567
 31
0.0
  0
ARC
  5
CB
330
1F
100
AcDbEntity
  8
0
  6
CONTINUOUS
 62
     7
100
AcDbCircle
 10
301.9482800697
 20
729.8814004714
 30
0.0
 40
6.0
100
AcDbArc
 50
0.0
 51
85.0
  0
LINE
  5
CC
330
1F
100
AcDbEntity
  8
0
  6
CONTINUOUS
 62
     7
100
AcDbLine
 10
25.9482795577
 20
70.9987296284
 30
0.0
 11
255.6082820724
 21
91.0913734258
 31
0.0
  0
LINE
  5
CD
330
1F
100
AcDbEntity
  8
0
  6
CONTINUOUS
 62
     7
100
AcDbLine
 10
25.9482795577
 20
70.9987296284
 30
0.0
 11
25.9482795577
 21
720.5609394729
 31
0.0
  0
LINE
  5
CE
330
1F
100
AcDbEntity
  8
0
  6
CONTINUOUS
 62
     7
100
AcDbLine
 10
255.6082820724
 20
700.4682733238
 30
0.0
 11
25.9482795577
 21
720.5609394729
 31
0.0
  0
LINE
  5
CF
330
1F
100
AcDbEntity
  8
0
  6
CONTINUOUS
 62
     7
100
AcDbLine
 10
255.6082820724
 20
91.0913734258
 30
0.0
 11
255.6082820724
 21
700.4682733238
 31
0.0
  0
ARC
  5
D0
330
1F
100
AcDbEntity
  8
0
  6
CONTINUOUS
 62
     7
100
AcDbCircle
 10
269.8403016496
 20
81.1238522104
 30
0.0
 40
0.999999999999931
100
AcDbArc
 50
275.0000647817
 51
347.3995467073
  0
LINE
  5
D1
330
1F
100
AcDbEntity
  8
0
  6
CONTINUOUS
 62
     7
100
AcDbLine
 10
269.9274635147
 20
80.1276578129
 30
0.0
 11
265.8992028068
 21
79.7752304495
 31
0.0
  0
ARC
  5
D2
330
1F
100
AcDbEntity
  8
0
  6
CONTINUOUS
 62
     7
100
AcDbCircle
 10
265.8120525862
 20
80.7714214941
 30
0.0
 40
1.000000000000054
100
AcDbArc
 50
202.600480279
 51
275.0000647817
  0
ARC
  5
D3
330
1F
100
AcDbEntity
  8
0
  6
CONTINUOUS
 62
     7
100
AcDbCircle
 10
78.6257765972
 20
64.3947489669
 30
0.0
 40
0.999999999999941
100
AcDbArc
 50
275.0000647817
 51
347.3995467073
  0
LINE
  5
D4
330
1F
100
AcDbEntity
  8
0
  6
CONTINUOUS
 62
     7
100
AcDbLine
 10
78.7129318546
 20
63.3985525489
 30
0.0
 11
74.6846860479
 21
63.0461251855
 31
0.0
  0
ARC
  5
D5
330
1F
100
AcDbEntity
  8
0
  6
CONTINUOUS
 62
     7
100
AcDbCircle
 10
74.5975275337
 20
64.0423182505
 30
0.0
 40
1.000000000000092
100
AcDbArc
 50
202.600480279
 51
275.0000647817
  0
ARC
  5
D6
330
1F
100
AcDbEntity
  8
0
  6
CONTINUOUS
 62
     7
100
AcDbCircle
 10
74.597529388
 20
727.5173257071
 30
0.0
 40
1.00000000000003
100
AcDbArc
 50
85.0000647817
 51
157.3995467073
  0
LINE
  5
D7
330
1F
100
AcDbEntity
  8
0
  6
CONTINUOUS
 62
     7
100
AcDbLine
 10
74.6846860479
 20
728.5135103882
 30
0.0
 11
78.7129318546
 21
728.1611277283
 31
0.0
  0
ARC
  5
D8
330
1F
100
AcDbEntity
  8
0
  6
CONTINUOUS
 62
     7
100
AcDbCircle
 10
78.6257792484
 20
727.1649040998
 30
0.0
 40
1.000000000000089
100
AcDbArc
 50
12.600480279
 51
85.0000647817
  0
ARC
  5
D9
330
1F
100
AcDbEntity
  8
0
  6
CONTINUOUS
 62
     7
100
AcDbCircle
 10
265.8120544404
 20
710.7882224635
 30
0.0
 40
1.000000000000078
100
AcDbArc
 50
85.0000647817
 51
157.3995467073
  0
LINE
  5
DA
330
1F
100
AcDbEntity
  8
0
  6
CONTINUOUS
 62
     7
100
AcDbLine
 10
265.8992028068
 20
711.7843939484
 30
0.0
 11
269.9274635147
 21
711.4320112884
 31
0.0
  0
ARC
  5
DB
330
1F
100
AcDbEntity
  8
0
  6
CONTINUOUS
 62
     7
100
AcDbCircle
 10
269.8403043008
 20
710.4358008563
 30
0.0
 40
1.000000000000076
100
AcDbArc
 50
12.600480279
 51
85.0000647817
  0
LINE
  5
DC
330
1F
100
AcDbEntity
  8
0
  6
CONTINUOUS
 62
     7
100
AcDbLine
 10
25.9482795577
 20
70.9987296284
 30
0.0
 11
25.9482795577
 21
58.2702955723
 31
0.0
  0
LINE
  5
DD
330
1F
100
AcDbEntity
  8
0
  6
CONTINUOUS
 62
     7
100
AcDbLine
 10
25.9482795577
 20
733.2893325508
 30
0.0
 11
25.9482795577
 21
720.5609394729
 31
0.0
  0
ARC
  5
DE
330
1F
100
AcDbEntity
  8
0
  6
CONTINUOUS
 62
     7
100
AcDbCircle
 10
68.9013411074
 20
729.8884729131
 30
0.0
 40
5.170000000000122
100
AcDbArc
 50
178.944738049
 51
337.3995467073
  0
ARC
  5
DF
330
1F
100
AcDbEntity
  8
0
  6
CONTINUOUS
 62
     7
100
AcDbCircle
 10
68.90134037
 20
61.6711683616
 30
0.0
 40
5.169999999999887
100
AcDbArc
 50
22.600480279
 51
181.0551794268
  0
ARC
  5
E0
330
1F
100
AcDbEntity
  8
0
  6
CONTINUOUS
 62
     7
100
AcDbCircle
 10
84.647174387
 20
728.5108983734
 30
0.0
 40
5.170000000000025
100
AcDbArc
 50
192.600480279
 51
351.0551803914
  0
ARC
  5
E1
330
1F
100
AcDbEntity
  8
0
  6
CONTINUOUS
 62
     7
100
AcDbCircle
 10
84.6471723698
 20
63.0487575294
 30
0.0
 40
5.170000000000091
100
AcDbArc
 50
8.944738049
 51
167.3995467073
  0
ARC
  5
E2
330
1F
100
AcDbEntity
  8
0
  6
CONTINUOUS
 62
     7
100
AcDbCircle
 10
260.1158654224
 20
78.4002716052
 30
0.0
 40
5.170000000000032
100
AcDbArc
 50
22.600480279
 51
181.0551794269
  0
ARC
  5
E3
330
1F
100
AcDbEntity
  8
0
  6
CONTINUOUS
 62
     7
100
AcDbCircle
 10
260.1158661598
 20
713.1593696695
 30
0.0
 40
5.170000000000055
100
AcDbArc
 50
178.9447380488
 51
337.3995467073
  0
ARC
  5
E4
330
1F
100
AcDbEntity
  8
0
  6
CONTINUOUS
 62
     7
100
AcDbCircle
 10
275.8616974222
 20
79.777860773
 30
0.0
 40
5.170000000000076
100
AcDbArc
 50
8.944738049
 51
167.3995467073
  0
ARC
  5
E5
330
1F
100
AcDbEntity
  8
0
  6
CONTINUOUS
 62
     7
100
AcDbCircle
 10
275.8616994395
 20
711.7817951298
 30
0.0
 40
5.170000000000103
100
AcDbArc
 50
192.600480279
 51
351.0551803915
  0
LINE
  5
E6
330
1F
100
AcDbEntity
  8
0
  6
CONTINUOUS
 62
     7
100
AcDbLine
 10
307.9482829403
 20
695.8890868843
 30
0.0
 11
307.9482829403
 21
708.6175395668
 31
0.0
  0
LINE
  5
E7
330
1F
100
AcDbEntity
  8
0
  6
CONTINUOUS
 62
     7
100
AcDbLine
 10
307.9482829403
 20
82.9420997322
 30
0.0
 11
307.9482829403
 21
95.6705300629
 31
0.0
  0
LINE
  5
E8
330
1F
100
AcDbEntity
  8
0
  6
CONTINUOUS
 62
     7
100
AcDbLine
 10
846.3883018326
 20
30.0712617606
 30
0.0
 11
1008.3883023094
 21
30.0712617606
 31
0.0
  0
LINE
  5
E9
330
1F
100
AcDbEntity
  8
0
  6
CONTINUOUS
 62
     7
100
AcDbLine
 10
846.3883018326
 20
69.1741941989
 30
0.0
 11
846.3883018326
 21
30.0712617606
 31
0.0
  0
LINE
  5
EA
330
1F
100
AcDbEntity
  8
0
  6
CONTINUOUS
 62
     7
100
AcDbLine
 10
1008.3883023094
 20
69.1741941989
 30
0.0
 11
846.3883018326
 21
69.1741941989
 31
0.0
  0
LINE
  5
EB
330
1F
100
AcDbEntity
  8
0
  6
CONTINUOUS
 62
     7
100
AcDbLine
 10
1008.3883023094
 20
30.0712617606
 30
0.0
 11
1008.3883023094
 21
69.1741941989
 31
0.0
  0
LINE
  5
EC
330
1F
100
AcDbEntity
  8
0
  6
CONTINUOUS
 62
     7
100
AcDbLine
 10
1008.3883023094
 20
312.0985938728
 30
0.0
 11
846.3883018326
 21
312.0985938728
 31
0.0
  0
LINE
  5
ED
330
1F
100
AcDbEntity
  8
0
  6
CONTINUOUS
 62
     7
100
AcDbLine
 10
846.3883018326
 20
81.3900320351
 30
0.0
 11
1008.3883023094
 21
81.3900320351
 31
0.0
  0
LINE
  5
EE
330
1F
100
AcDbEntity
  8
0
  6
CONTINUOUS
 62
     7
100
AcDbLine
 10
846.3883018326
 20
312.0985938728
 30
0.0
 11
846.3883018326
 21
81.3900320351
 31
0.0
  0
LINE
  5
EF
330
1F
100
AcDbEntity
  8
0
  6
CONTINUOUS
 62
     7
100
AcDbLine
 10
1008.3883023094
 20
81.3900320351
 30
0.0
 11
1008.3883023094
 21
312.0985938728
 31
0.0
  0
LINE
  5
F0
330
1F
100
AcDbEntity
  8
0
  6
CONTINUOUS
 62
     7
100
AcDbLine
 10
846.3883018326
 20
69.1741941989
 30
0.0
 11
846.3883018326
 21
81.3900320351
 31
0.0
  0
LINE
  5
F1
330
1F
100
AcDbEntity
  8
0
  6
CONTINUOUS
 62
     7
100
AcDbLine
 10
1008.3883023094
 20
81.3900320351
 30
0.0
 11
1008.3883023094
 21
69.1741941989
 31
0.0
  0
ARC
  5
F2
330
1F
100
AcDbEntity
  8
0
  6
CONTINUOUS
 62
     7
100
AcDbCircle
 10
1045.8682800697
 20
49.0732622726
 30
0.0
 40
6.000000000000007
100
AcDbArc
 50
90.0
 51
180.0
  0
LINE
  5
F3
330
1F
100
AcDbEntity
  8
0
  6
CONTINUOUS
 62
     7
100
AcDbLine
 10
1098.3432745765
 20
55.073262614
 30
0.0
 11
1045.8682989906
 21
55.073262614
 31
0.0
  0
ARC
  5
F4
330
1F
100
AcDbEntity
  8
0
  6
CONTINUOUS
 62
     7
100
AcDbCircle
 10
1098.3432800697
 20
67.0732622726
 30
0.0
 40
12.0
100
AcDbArc
 50
270.0
 51
0.0
  0
LINE
  5
F5
330
1F
100
AcDbEntity
  8
0
  6
CONTINUOUS
 62
     7
100
AcDbLine
 10
1110.3432392906
 20
114.7209046901
 30
0.0
 11
1110.3432392906
 21
67.073264581
 31
0.0
  0
ARC
  5
F6
330
1F
100
AcDbEntity
  8
0
  6
CONTINUOUS
 62
     7
100
AcDbCircle
 10
1119.8682800697
 20
114.720906764
 30
0.0
 40
9.524999999999869
100
AcDbArc
 50
120.0
 51
180.0
  0
ARC
  5
F7
330
1F
100
AcDbEntity
  8
0
  6
CONTINUOUS
 62
     7
100
AcDbCircle
 10
1110.3432800697
 20
131.2186907061
 30
0.0
 40
9.524999999999983
100
AcDbArc
 50
300.0
 51
0.0
  0
LINE
  5
F8
330
1F
100
AcDbEntity
  8
0
  6
CONTINUOUS
 62
     7
100
AcDbLine
 10
1119.8682999443
 20
170.8727641523
 30
0.0
 11
1119.8682999443
 21
131.2186880529
 31
0.0
  0
ARC
  5
F9
330
1F
100
AcDbEntity
  8
0
  6
CONTINUOUS
 62
     7
100
AcDbCircle
 10
1110.3432800697
 20
170.8727673132
 30
0.0
 40
9.525000000000032
100
AcDbArc
 50
0.0
 51
60.0
  0
ARC
  5
FA
330
1F
100
AcDbEntity
  8
0
  6
CONTINUOUS
 62
     7
100
AcDbCircle
 10
1119.8682800697
 20
187.3705512553
 30
0.0
 40
9.524999999999869
100
AcDbArc
 50
180.0
 51
240.0
  0
LINE
  5
FB
330
1F
100
AcDbEntity
  8
0
  6
CONTINUOUS
 62
     7
100
AcDbLine
 10
1110.3432392906
 20
235.0181950748
 30
0.0
 11
1110.3432392906
 21
187.3705549658
 31
0.0
  0
ARC
  5
FC
330
1F
100
AcDbEntity
  8
0
  6
CONTINUOUS
 62
     7
100
AcDbCircle
 10
1098.3432800697
 20
235.0181957467
 30
0.0
 40
11.99999999999994
100
AcDbArc
 50
0.0
 51
90.0
  0
LINE
  5
FD
330
1F
100
AcDbEntity
  8
0
  6
CONTINUOUS
 62
     7
100
AcDbLine
 10
1045.8682989906
 20
247.0181895912
 30
0.0
 11
1098.3432745765
 21
247.0181895912
 31
0.0
  0
ARC
  5
FE
330
1F
100
AcDbEntity
  8
0
  6
CONTINUOUS
 62
     7
100
AcDbCircle
 10
1045.8682800697
 20
253.0181957467
 30
0.0
 40
6.0
100
AcDbArc
 50
180.0
 51
270.0
  0
LINE
  5
FF
330
1F
100
AcDbEntity
  8
0
  6
CONTINUOUS
 62
     7
100
AcDbLine
 10
1039.8682570289
 20
264.7681845844
 30
0.0
 11
1039.8682570289
 21
253.0182017506
 31
0.0
  0
ARC
  5
100
330
1F
100
AcDbEntity
  8
0
  6
CONTINUOUS
 62
     7
100
AcDbCircle
 10
1040.8682800697
 20
264.7681957467
 30
0.0
 40
1.0
100
AcDbArc
 50
90.0
 51
180.0
  0
LINE
  5
101
330
1F
100
AcDbEntity
  8
0
  6
CONTINUOUS
 62
     7
100
AcDbLine
 10
1040.868303759
 20
265.7682015121
 30
0.0
 11
1052.1283364128
 21
265.7682015121
 31
0.0
  0
LINE
  5
102
330
1F
100
AcDbEntity
  8
0
  6
CONTINUOUS
 62
     7
100
AcDbLine
 10
1052.1283364128
 20
265.7682015121
 30
0.0
 11
1052.4683213066
 21
260.4543282211
 31
0.0
  0
ARC
  5
103
330
1F
100
AcDbEntity
  8
0
  6
CONTINUOUS
 62
     7
100
AcDbCircle
 10
1053.4663259768
 20
260.5181957467
 30
0.0
 40
1.0
100
AcDbArc
 50
183.6619355755
 51
270.0
  0
LINE
  5
104
330
1F
100
AcDbEntity
  8
0
  6
CONTINUOUS
 62
     7
100
AcDbLine
 10
1053.4663414787
 20
259.5182074726
 30
0.0
 11
1061.4060377906
 21
259.5182074726
 31
0.0
  0
ARC
  5
105
330
1F
100
AcDbEntity
  8
0
  6
CONTINUOUS
 62
     7
100
AcDbCircle
 10
1061.4060016863
 20
258.5181957467
 30
0.0
 40
0.9999999999999432
100
AcDbArc
 50
65.1121079736
 51
90.0
  0
ARC
  5
106
330
1F
100
AcDbEntity
  8
0
  6
CONTINUOUS
 62
     7
100
AcDbCircle
 10
1064.0026099301
 20
264.1152061655
 30
0.0
 40
5.170000000000028
100
AcDbArc
 50
245.1121079736
 51
72.3995332141
  0
ARC
  5
107
330
1F
100
AcDbEntity
  8
0
  6
CONTINUOUS
 62
     7
100
AcDbCircle
 10
1065.8682800697
 20
269.9963773864
 30
0.0
 40
1.000000000000227
100
AcDbArc
 50
180.0
 51
252.3995332141
  0
LINE
  5
108
330
1F
100
AcDbEntity
  8
0
  6
CONTINUOUS
 62
     7
100
AcDbLine
 10
1064.8682331871
 20
272.0201923073
 30
0.0
 11
1064.8682331871
 21
269.9963761986
 31
0.0
  0
LINE
  5
109
330
1F
100
AcDbEntity
  8
0
  6
CONTINUOUS
 62
     7
100
AcDbLine
 10
1107.8683352302
 20
272.0201923073
 30
0.0
 11
1064.8682331871
 21
272.0201923073
 31
0.0
  0
ARC
  5
10A
330
1F
100
AcDbEntity
  8
0
  6
CONTINUOUS
 62
     7
100
AcDbCircle
 10
1107.8682800697
 20
260.0201957467
 30
0.0
 40
12.0
100
AcDbArc
 50
0.0
 51
90.0
  0
LINE
  5
10B
330
1F
100
AcDbEntity
  8
0
  6
CONTINUOUS
 62
     7
100
AcDbLine
 10
1119.8682999443
 20
199.3705494821
 30
0.0
 11
1119.8682999443
 21
260.0201977909
 31
0.0
  0
ARC
  5
10C
330
1F
100
AcDbEntity
  8
0
  6
CONTINUOUS
 62
     7
100
AcDbCircle
 10
1131.8682800697
 20
199.3705512553
 30
0.0
 40
12.0
100
AcDbArc
 50
180.0
 51
270.0
  0
LINE
  5
10D
330
1F
100
AcDbEntity
  8
0
  6
CONTINUOUS
 62
     7
100
AcDbLine
 10
1147.8682970833
 20
187.3705549658
 30
0.0
 11
1131.8682646583
 21
187.3705549658
 31
0.0
  0
ARC
  5
10E
330
1F
100
AcDbEntity
  8
0
  6
CONTINUOUS
 62
     7
100
AcDbCircle
 10
1147.8682800697
 20
199.3705512553
 30
0.0
 40
12.0
100
AcDbArc
 50
270.0
 51
0.0
  0
LINE
  5
10F
330
1F
100
AcDbEntity
  8
0
  6
CONTINUOUS
 62
     7
100
AcDbLine
 10
1159.8682617973
 20
260.0201977909
 30
0.0
 11
1159.8682617973
 21
199.3705494821
 31
0.0
  0
ARC
  5
110
330
1F
100
AcDbEntity
  8
0
  6
CONTINUOUS
 62
     7
100
AcDbCircle
 10
1171.8682800697
 20
260.0201957467
 30
0.0
 40
12.0
100
AcDbArc
 50
90.0
 51
180.0
  0
LINE
  5
111
330
1F
100
AcDbEntity
  8
0
  6
CONTINUOUS
 62
     7
100
AcDbLine
 10
1214.8683285545
 20
272.0201923073
 30
0.0
 11
1171.8682265114
 21
272.0201923073
 31
0.0
  0
LINE
  5
112
330
1F
100
AcDbEntity
  8
0
  6
CONTINUOUS
 62
     7
100
AcDbLine
 10
1214.8683285545
 20
269.9963761986
 30
0.0
 11
1214.8683285545
 21
272.0201923073
 31
0.0
  0
ARC
  5
113
330
1F
100
AcDbEntity
  8
0
  6
CONTINUOUS
 62
     7
100
AcDbCircle
 10
1213.8682800697
 20
269.9963773864
 30
0.0
 40
1.000000000000227
100
AcDbArc
 50
287.6004667859
 51
0.0
  0
ARC
  5
114
330
1F
100
AcDbEntity
  8
0
  6
CONTINUOUS
 62
     7
100
AcDbCircle
 10
1215.7339502093
 20
264.1152061655
 30
0.0
 40
5.17000000000008
100
AcDbArc
 50
107.6004667859
 51
294.8878920264
  0
ARC
  5
115
330
1F
100
AcDbEntity
  8
0
  6
CONTINUOUS
 62
     7
100
AcDbCircle
 10
1218.3305584531
 20
258.5181957467
 30
0.0
 40
0.9999999999999432
100
AcDbArc
 50
90.0
 51
114.8878920264
  0
LINE
  5
116
330
1F
100
AcDbEntity
  8
0
  6
CONTINUOUS
 62
     7
100
AcDbLine
 10
1218.3305239509
 20
259.5182074726
 30
0.0
 11
1226.2702202629
 21
259.5182074726
 31
0.0
  0
ARC
  5
117
330
1F
100
AcDbEntity
  8
0
  6
CONTINUOUS
 62
     7
100
AcDbCircle
 10
1226.2702341626
 20
260.5181957467
 30
0.0
 40
1.00000000000016
100
AcDbArc
 50
270.0
 51
356.3380644245
  0
LINE
  5
118
330
1F
100
AcDbEntity
  8
0
  6
CONTINUOUS
 62
     7
100
AcDbLine
 10
1227.268240435
 20
260.4543282211
 30
0.0
 11
1227.6082253288
 21
265.7682015121
 31
0.0
  0
LINE
  5
119
330
1F
100
AcDbEntity
  8
0
  6
CONTINUOUS
 62
     7
100
AcDbLine
 10
1227.6082253288
 20
265.7682015121
 30
0.0
 11
1238.8682579826
 21
265.7682015121
 31
0.0
  0
ARC
  5
11A
330
1F
100
AcDbEntity
  8
0
  6
CONTINUOUS
 62
     7
100
AcDbCircle
 10
1238.8682800697
 20
264.7681957467
 30
0.0
 40
1.0
100
AcDbArc
 50
0.0
 51
90.0
  0
LINE
  5
11B
330
1F
100
AcDbEntity
  8
0
  6
CONTINUOUS
 62
     7
100
AcDbLine
 10
1239.8683047126
 20
253.0182017506
 30
0.0
 11
1239.8683047126
 21
264.7681845844
 31
0.0
  0
ARC
  5
11C
330
1F
100
AcDbEntity
  8
0
  6
CONTINUOUS
 62
     7
100
AcDbCircle
 10
1233.8682800697
 20
253.0181957467
 30
0.0
 40
6.0
100
AcDbArc
 50
270.0
 51
0.0
  0
LINE
  5
11D
330
1F
100
AcDbEntity
  8
0
  6
CONTINUOUS
 62
     7
100
AcDbLine
 10
1181.393287165
 20
247.0181895912
 30
0.0
 11
1233.868262751
 21
247.0181895912
 31
0.0
  0
ARC
  5
11E
330
1F
100
AcDbEntity
  8
0
  6
CONTINUOUS
 62
     7
100
AcDbCircle
 10
1181.3932800697
 20
235.0181957467
 30
0.0
 40
12.00000000000006
100
AcDbArc
 50
90.0
 51
180.0
  0
LINE
  5
11F
330
1F
100
AcDbEntity
  8
0
  6
CONTINUOUS
 62
     7
100
AcDbLine
 10
1169.393322451
 20
187.3705549658
 30
0.0
 11
1169.393322451
 21
235.0181950748
 31
0.0
  0
ARC
  5
120
330
1F
100
AcDbEntity
  8
0
  6
CONTINUOUS
 62
     7
100
AcDbCircle
 10
1159.8682800697
 20
187.3705512553
 30
0.0
 40
9.525000000000091
100
AcDbArc
 50
300.0
 51
0.0
  0
ARC
  5
121
330
1F
100
AcDbEntity
  8
0
  6
CONTINUOUS
 62
     7
100
AcDbCircle
 10
1169.3932800697
 20
170.8727673132
 30
0.0
 40
9.525000000000091
100
AcDbArc
 50
120.0
 51
180.0
  0
LINE
  5
122
330
1F
100
AcDbEntity
  8
0
  6
CONTINUOUS
 62
     7
100
AcDbLine
 10
1159.8682617973
 20
131.2186880529
 30
0.0
 11
1159.8682617973
 21
170.8727641523
 31
0.0
  0
ARC
  5
123
330
1F
100
AcDbEntity
  8
0
  6
CONTINUOUS
 62
     7
100
AcDbCircle
 10
1169.3932800697
 20
131.2186907061
 30
0.0
 40
9.525000000000091
100
AcDbArc
 50
180.0
 51
240.0
  0
ARC
  5
124
330
1F
100
AcDbEntity
  8
0
  6
CONTINUOUS
 62
     7
100
AcDbCircle
 10
1159.8682800697
 20
114.720906764
 30
0.0
 40
9.525000000000091
100
AcDbArc
 50
0.0
 51
60.0
  0
LINE
  5
125
330
1F
100
AcDbEntity
  8
0
  6
CONTINUOUS
 62
     7
100
AcDbLine
 10
1169.393322451
 20
67.073264581
 30
0.0
 11
1169.393322451
 21
114.7209046901
 31
0.0
  0
ARC
  5
126
330
1F
100
AcDbEntity
  8
0
  6
CONTINUOUS
 62
     7
100
AcDbCircle
 10
1181.3932800697
 20
67.0732622726
 30
0.0
 40
12.00000000000012
100
AcDbArc
 50
180.0
 51
270.0
  0
LINE
  5
127
330
1F
100
AcDbEntity
  8
0
  6
CONTINUOUS
 62
     7
100
AcDbLine
 10
1233.868262751
 20
55.073262614
 30
0.0
 11
1181.393287165
 21
55.073262614
 31
0.0
  0
ARC
  5
128
330
1F
100
AcDbEntity
  8
0
  6
CONTINUOUS
 62
     7
100
AcDbCircle
 10
1233.8682800697
 20
49.0732622726
 30
0.0
 40
6.000000000000007
100
AcDbArc
 50
0.0
 51
90.0
  0
LINE
  5
129
330
1F
100
AcDbEntity
  8
0
  6
CONTINUOUS
 62
     7
100
AcDbLine
 10
1239.8683047126
 20
37.3232638955
 30
0.0
 11
1239.8683047126
 21
49.0732616306
 31
0.0
  0
ARC
  5
12A
330
1F
100
AcDbEntity
  8
0
  6
CONTINUOUS
 62
     7
100
AcDbCircle
 10
1238.8682800697
 20
37.3232622726
 30
0.0
 40
1.0
100
AcDbArc
 50
270.0
 51
0.0
  0
LINE
  5
12B
330
1F
100
AcDbEntity
  8
0
  6
CONTINUOUS
 62
     7
100
AcDbLine
 10
1238.8682579826
 20
36.323261869
 30
0.0
 11
1227.6082253288
 21
36.323261869
 31
0.0
  0
LINE
  5
12C
330
1F
100
AcDbEntity
  8
0
  6
CONTINUOUS
 62
     7
100
AcDbLine
 10
1227.6082253288
 20
36.323261869
 30
0.0
 11
1227.268240435
 21
41.6371314347
 31
0.0
  0
ARC
  5
12D
330
1F
100
AcDbEntity
  8
0
  6
CONTINUOUS
 62
     7
100
AcDbCircle
 10
1226.2702341626
 20
41.5732622726
 30
0.0
 40
1.00000000000016
100
AcDbArc
 50
3.6619355755
 51
90.0
  0
LINE
  5
12E
330
1F
100
AcDbEntity
  8
0
  6
CONTINUOUS
 62
     7
100
AcDbLine
 10
1226.2702202629
 20
42.5732633591
 30
0.0
 11
1218.3305239509
 21
42.5732633591
 31
0.0
  0
ARC
  5
12F
330
1F
100
AcDbEntity
  8
0
  6
CONTINUOUS
 62
     7
100
AcDbCircle
 10
1218.3305584531
 20
43.5732622726
 30
0.0
 40
1.000000000000114
100
AcDbArc
 50
245.1121079736
 51
270.0
  0
ARC
  5
130
330
1F
100
AcDbEntity
  8
0
  6
CONTINUOUS
 62
     7
100
AcDbCircle
 10
1215.7339502093
 20
37.9762518538
 30
0.0
 40
5.170000000000017
100
AcDbArc
 50
65.1121079736
 51
252.3995332141
  0
ARC
  5
131
330
1F
100
AcDbEntity
  8
0
  6
CONTINUOUS
 62
     7
100
AcDbCircle
 10
1213.8682800697
 20
32.0950806329
 30
0.0
 40
1.000000000000033
100
AcDbArc
 50
0.0
 51
72.3995332141
  0
LINE
  5
132
330
1F
100
AcDbEntity
  8
0
  6
CONTINUOUS
 62
     7
100
AcDbLine
 10
1171.8682265114
 20
30.0712617606
 30
0.0
 11
1214.8683285545
 21
30.0712617606
 31
0.0
  0
LINE
  5
133
330
1F
100
AcDbEntity
  8
0
  6
CONTINUOUS
 62
     7
100
AcDbLine
 10
1159.8682617973
 20
102.7209101737
 30
0.0
 11
1159.8682617973
 21
42.0712618649
 31
0.0
  0
ARC
  5
134
330
1F
100
AcDbEntity
  8
0
  6
CONTINUOUS
 62
     7
100
AcDbCircle
 10
1147.8682800697
 20
102.720906764
 30
0.0
 40
12.0
100
AcDbArc
 50
0.0
 51
90.0
  0
LINE
  5
135
330
1F
100
AcDbEntity
  8
0
  6
CONTINUOUS
 62
     7
100
AcDbLine
 10
1131.8682646583
 20
114.7209046901
 30
0.0
 11
1147.8682970833
 21
114.7209046901
 31
0.0
  0
ARC
  5
136
330
1F
100
AcDbEntity
  8
0
  6
CONTINUOUS
 62
     7
100
AcDbCircle
 10
1131.8682800697
 20
102.720906764
 30
0.0
 40
12.0
100
AcDbArc
 50
90.0
 51
180.0
  0
LINE
  5
137
330
1F
100
AcDbEntity
  8
0
  6
CONTINUOUS
 62
     7
100
AcDbLine
 10
1119.8682999443
 20
42.0712618649
 30
0.0
 11
1119.8682999443
 21
102.7209101737
 31
0.0
  0
ARC
  5
138
330
1F
100
AcDbEntity
  8
0
  6
CONTINUOUS
 62
     7
100
AcDbCircle
 10
1107.8682800697
 20
42.0712622726
 30
0.0
 40
11.9999999999999
100
AcDbArc
 50
270.0
 51
0.0
  0
LINE
  5
139
330
1F
100
AcDbEntity
  8
0
  6
CONTINUOUS
 62
     7
100
AcDbLine
 10
1064.8682331871
 20
32.095079732
 30
0.0
 11
1064.8682331871
 21
30.0712617606
 31
0.0
  0
ARC
  5
13A
330
1F
100
AcDbEntity
  8
0
  6
CONTINUOUS
 62
     7
100
AcDbCircle
 10
1065.8682800697
 20
32.0950806329
 30
0.0
 40
1.0
100
AcDbArc
 50
107.6004667859
 51
180.0
  0
ARC
  5
13B
330
1F
100
AcDbEntity
  8
0
  6
CONTINUOUS
 62
     7
100
AcDbCircle
 10
1064.0026099301
 20
37.9762518538
 30
0.0
 40
5.170000000000017
100
AcDbArc
 50
287.6004667859
 51
114.8878920264
  0
ARC
  5
13C
330
1F
100
AcDbEntity
  8
0
  6
CONTINUOUS
 62
     7
100
AcDbCircle
 10
1061.4060016863
 20
43.5732622726
 30
0.0
 40
1.000000000000082
100
AcDbArc
 50
270.0
 51
294.8878920264
  0
LINE
  5
13D
330
1F
100
AcDbEntity
  8
0
  6
CONTINUOUS
 62
     7
100
AcDbLine
 10
1061.4060377906
 20
42.5732633591
 30
0.0
 11
1053.4663414787
 21
42.5732633591
 31
0.0
  0
ARC
  5
13E
330
1F
100
AcDbEntity
  8
0
  6
CONTINUOUS
 62
     7
100
AcDbCircle
 10
1053.4663259768
 20
41.5732622726
 30
0.0
 40
1.0
100
AcDbArc
 50
90.0
 51
176.3380644245
  0
LINE
  5
13F
330
1F
100
AcDbEntity
  8
0
  6
CONTINUOUS
 62
     7
100
AcDbLine
 10
1052.4683213066
 20
41.6371314347
 30
0.0
 11
1052.1283364128
 21
36.323261869
 31
0.0
  0
LINE
  5
140
330
1F
100
AcDbEntity
  8
0
  6
CONTINUOUS
 62
     7
100
AcDbLine
 10
1052.1283364128
 20
36.323261869
 30
0.0
 11
1040.868303759
 21
36.323261869
 31
0.0
  0
ARC
  5
141
330
1F
100
AcDbEntity
  8
0
  6
CONTINUOUS
 62
     7
100
AcDbCircle
 10
1040.8682800697
 20
37.3232622726
 30
0.0
 40
1.0
100
AcDbArc
 50
180.0
 51
270.0
  0
LINE
  5
142
330
1F
100
AcDbEntity
  8
0
  6
CONTINUOUS
 62
     7
100
AcDbLine
 10
1039.8682570289
 20
49.0732616306
 30
0.0
 11
1039.8682570289
 21
37.3232638955
 31
0.0
  0
ARC
  5
143
330
1F
100
AcDbEntity
  8
0
  6
CONTINUOUS
 62
     7
100
AcDbCircle
 10
1171.8682800697
 20
42.0712622726
 30
0.0
 40
12.00000000000001
100
AcDbArc
 50
180.0
 51
270.0
  0
LINE
  5
144
330
1F
100
AcDbEntity
  8
0
  6
CONTINUOUS
 62
     7
100
AcDbLine
 10
1064.8682331871
 20
30.0712617606
 30
0.0
 11
1107.8683352302
 21
30.0712617606
 31
0.0
  0
LINE
  5
145
330
1F
100
AcDbEntity
  8
0
  6
CONTINUOUS
 62
     7
100
AcDbLine
 10
1214.8683285545
 20
30.0712617606
 30
0.0
 11
1214.8683285545
 21
32.095079732
 31
0.0
  0
ARC
  5
146
330
1F
100
AcDbEntity
  8
0
  6
CONTINUOUS
 62
     7
100
AcDbCircle
 10
1233.8682800697
 20
526.4431292207
 30
0.0
 40
6.0
100
AcDbArc
 50
270.0
 51
0.0
  0
LINE
  5
147
330
1F
100
AcDbEntity
  8
0
  6
CONTINUOUS
 62
     7
100
AcDbLine
 10
1181.393287165
 20
520.4431130112
 30
0.0
 11
1233.868262751
 21
520.4431130112
 31
0.0
  0
ARC
  5
148
330
1F
100
AcDbEntity
  8
0
  6
CONTINUOUS
 62
     7
100
AcDbCircle
 10
1181.3932800697
 20
508.4431292207
 30
0.0
 40
12.0
100
AcDbArc
 50
90.0
 51
180.0
  0
LINE
  5
149
330
1F
100
AcDbEntity
  8
0
  6
CONTINUOUS
 62
     7
100
AcDbLine
 10
1169.393322451
 20
460.7954932869
 30
0.0
 11
1169.393322451
 21
508.4431482971
 31
0.0
  0
ARC
  5
14A
330
1F
100
AcDbEntity
  8
0
  6
CONTINUOUS
 62
     7
100
AcDbCircle
 10
1159.8682800697
 20
460.7954847294
 30
0.0
 40
9.525000000000091
100
AcDbArc
 50
300.0
 51
0.0
  0
ARC
  5
14B
330
1F
100
AcDbEntity
  8
0
  6
CONTINUOUS
 62
     7
100
AcDbCircle
 10
1169.3932800697
 20
444.2977007873
 30
0.0
 40
9.525000000000091
100
AcDbArc
 50
120.0
 51
180.0
  0
LINE
  5
14C
330
1F
100
AcDbEntity
  8
0
  6
CONTINUOUS
 62
     7
100
AcDbLine
 10
1159.8682617973
 20
404.643626374
 30
0.0
 11
1159.8682617973
 21
444.2977024734
 31
0.0
  0
ARC
  5
14D
330
1F
100
AcDbEntity
  8
0
  6
CONTINUOUS
 62
     7
100
AcDbCircle
 10
1169.3932800697
 20
404.6436241801
 30
0.0
 40
9.525000000000091
100
AcDbArc
 50
180.0
 51
240.0
  0
ARC
  5
14E
330
1F
100
AcDbEntity
  8
0
  6
CONTINUOUS
 62
     7
100
AcDbCircle
 10
1159.8682800697
 20
388.145840238
 30
0.0
 40
9.524999999999894
100
AcDbArc
 50
0.0
 51
60.0
  0
LINE
  5
14F
330
1F
100
AcDbEntity
  8
0
  6
CONTINUOUS
 62
     7
100
AcDbLine
 10
1169.393322451
 20
340.4982103527
 30
0.0
 11
1169.393322451
 21
388.1458355606
 31
0.0
  0
ARC
  5
150
330
1F
100
AcDbEntity
  8
0
  6
CONTINUOUS
 62
     7
100
AcDbCircle
 10
1181.3932800697
 20
340.4981957467
 30
0.0
 40
12.0
100
AcDbArc
 50
180.0
 51
270.0
  0
LINE
  5
151
330
1F
100
AcDbEntity
  8
0
  6
CONTINUOUS
 62
     7
100
AcDbLine
 10
1233.868262751
 20
328.498186034
 30
0.0
 11
1181.393287165
 21
328.498186034
 31
0.0
  0
ARC
  5
152
330
1F
100
AcDbEntity
  8
0
  6
CONTINUOUS
 62
     7
100
AcDbCircle
 10
1233.8682800697
 20
322.4981957467
 30
0.0
 40
6.0
100
AcDbArc
 50
0.0
 51
90.0
  0
LINE
  5
153
330
1F
100
AcDbEntity
  8
0
  6
CONTINUOUS
 62
     7
100
AcDbLine
 10
1239.8683047126
 20
310.7481910408
 30
0.0
 11
1239.8683047126
 21
322.498203677
 31
0.0
  0
ARC
  5
154
330
1F
100
AcDbEntity
  8
0
  6
CONTINUOUS
 62
     7
100
AcDbCircle
 10
1238.8682800697
 20
310.7481957467
 30
0.0
 40
1.0
100
AcDbArc
 50
270.0
 51
0.0
  0
LINE
  5
155
330
1F
100
AcDbEntity
  8
0
  6
CONTINUOUS
 62
     7
100
AcDbLine
 10
1238.8682579826
 20
309.7482039154
 30
0.0
 11
1227.6082253288
 21
309.7482039154
 31
0.0
  0
LINE
  5
156
330
1F
100
AcDbEntity
  8
0
  6
CONTINUOUS
 62
     7
100
AcDbLine
 10
1227.6082253288
 20
309.7482039154
 30
0.0
 11
1227.268240435
 21
315.0620772064
 31
0.0
  0
ARC
  5
157
330
1F
100
AcDbEntity
  8
0
  6
CONTINUOUS
 62
     7
100
AcDbCircle
 10
1226.2702341626
 20
314.9981957467
 30
0.0
 40
1.00000000000016
100
AcDbArc
 50
3.6619355755
 51
90.0
  0
LINE
  5
158
330
1F
100
AcDbEntity
  8
0
  6
CONTINUOUS
 62
     7
100
AcDbLine
 10
1226.2702202629
 20
315.9981979549
 30
0.0
 11
1218.3305239509
 21
315.9981979549
 31
0.0
  0
ARC
  5
159
330
1F
100
AcDbEntity
  8
0
  6
CONTINUOUS
 62
     7
100
AcDbCircle
 10
1218.3305584531
 20
316.9981957467
 30
0.0
 40
0.9999999999999432
100
AcDbArc
 50
245.1121079736
 51
270.0
  0
ARC
  5
15A
330
1F
100
AcDbEntity
  8
0
  6
CONTINUOUS
 62
     7
100
AcDbCircle
 10
1215.7339502093
 20
311.4011853279
 30
0.0
 40
5.170000000000016
100
AcDbArc
 50
65.1121079736
 51
252.3995332141
  0
ARC
  5
15B
330
1F
100
AcDbEntity
  8
0
  6
CONTINUOUS
 62
     7
100
AcDbCircle
 10
1213.8682800697
 20
305.5200141069
 30
0.0
 40
1.000000000000227
100
AcDbArc
 50
0.0
 51
72.3995332141
  0
LINE
  5
15C
330
1F
100
AcDbEntity
  8
0
  6
CONTINUOUS
 62
     7
100
AcDbLine
 10
1214.8683285545
 20
303.4961833179
 30
0.0
 11
1214.8683285545
 21
305.5199994266
 31
0.0
  0
LINE
  5
15D
330
1F
100
AcDbEntity
  8
0
  6
CONTINUOUS
 62
     7
100
AcDbLine
 10
1171.8682265114
 20
303.4961833179
 30
0.0
 11
1214.8683285545
 21
303.4961833179
 31
0.0
  0
ARC
  5
15E
330
1F
100
AcDbEntity
  8
0
  6
CONTINUOUS
 62
     7
100
AcDbCircle
 10
1171.8682800697
 20
315.4961957467
 30
0.0
 40
12.0
100
AcDbArc
 50
180.0
 51
270.0
  0
LINE
  5
15F
330
1F
100
AcDbEntity
  8
0
  6
CONTINUOUS
 62
     7
100
AcDbLine
 10
1159.8682617973
 20
376.1458410442
 30
0.0
 11
1159.8682617973
 21
315.4962076366
 31
0.0
  0
ARC
  5
160
330
1F
100
AcDbEntity
  8
0
  6
CONTINUOUS
 62
     7
100
AcDbCircle
 10
1147.8682800697
 20
376.145840238
 30
0.0
 40
12.0
100
AcDbArc
 50
0.0
 51
90.0
  0
LINE
  5
161
330
1F
100
AcDbEntity
  8
0
  6
CONTINUOUS
 62
     7
100
AcDbLine
 10
1131.8682646583
 20
388.1458355606
 30
0.0
 11
1147.8682970833
 21
388.1458355606
 31
0.0
  0
ARC
  5
162
330
1F
100
AcDbEntity
  8
0
  6
CONTINUOUS
 62
     7
100
AcDbCircle
 10
1131.8682800697
 20
376.145840238
 30
0.0
 40
12.0
100
AcDbArc
 50
90.0
 51
180.0
  0
LINE
  5
163
330
1F
100
AcDbEntity
  8
0
  6
CONTINUOUS
 62
     7
100
AcDbLine
 10
1119.8682999443
 20
315.4962076366
 30
0.0
 11
1119.8682999443
 21
376.1458410442
 31
0.0
  0
ARC
  5
164
330
1F
100
AcDbEntity
  8
0
  6
CONTINUOUS
 62
     7
100
AcDbCircle
 10
1107.8682800697
 20
315.4961957467
 30
0.0
 40
12.0
100
AcDbArc
 50
270.0
 51
0.0
  0
LINE
  5
165
330
1F
100
AcDbEntity
  8
0
  6
CONTINUOUS
 62
     7
100
AcDbLine
 10
1064.8682331871
 20
303.4961833179
 30
0.0
 11
1107.8683352302
 21
303.4961833179
 31
0.0
  0
LINE
  5
166
330
1F
100
AcDbEntity
  8
0
  6
CONTINUOUS
 62
     7
100
AcDbLine
 10
1064.8682331871
 20
305.5199994266
 30
0.0
 11
1064.8682331871
 21
303.4961833179
 31
0.0
  0
ARC
  5
167
330
1F
100
AcDbEntity
  8
0
  6
CONTINUOUS
 62
     7
100
AcDbCircle
 10
1065.8682800697
 20
305.5200141069
 30
0.0
 40
1.000000000000227
100
AcDbArc
 50
107.6004667859
 51
180.0
  0
ARC
  5
168
330
1F
100
AcDbEntity
  8
0
  6
CONTINUOUS
 62
     7
100
AcDbCircle
 10
1064.0026099301
 20
311.4011853279
 30
0.0
 40
5.170000000000028
100
AcDbArc
 50
287.6004667859
 51
114.8878920264
  0
ARC
  5
169
330
1F
100
AcDbEntity
  8
0
  6
CONTINUOUS
 62
     7
100
AcDbCircle
 10
1061.4060016863
 20
316.9981957467
 30
0.0
 40
0.9999999999999432
100
AcDbArc
 50
270.0
 51
294.8878920264
  0
LINE
  5
16A
330
1F
100
AcDbEntity
  8
0
  6
CONTINUOUS
 62
     7
100
AcDbLine
 10
1061.4060377906
 20
315.9981979549
 30
0.0
 11
1053.4663414787
 21
315.9981979549
 31
0.0
  0
ARC
  5
16B
330
1F
100
AcDbEntity
  8
0
  6
CONTINUOUS
 62
     7
100
AcDbCircle
 10
1053.4663259768
 20
314.9981957467
 30
0.0
 40
1.0
100
AcDbArc
 50
90.0
 51
176.3380644245
  0
LINE
  5
16C
330
1F
100
AcDbEntity
  8
0
  6
CONTINUOUS
 62
     7
100
AcDbLine
 10
1052.4683213066
 20
315.0620772064
 30
0.0
 11
1052.1283364128
 21
309.7482039154
 31
0.0
  0
LINE
  5
16D
330
1F
100
AcDbEntity
  8
0
  6
CONTINUOUS
 62
     7
100
AcDbLine
 10
1052.1283364128
 20
309.7482039154
 30
0.0
 11
1040.868303759
 21
309.7482039154
 31
0.0
  0
ARC
  5
16E
330
1F
100
AcDbEntity
  8
0
  6
CONTINUOUS
 62
     7
100
AcDbCircle
 10
1040.8682800697
 20
310.7481957467
 30
0.0
 40
1.0
100
AcDbArc
 50
180.0
 51
270.0
  0
LINE
  5
16F
330
1F
100
AcDbEntity
  8
0
  6
CONTINUOUS
 62
     7
100
AcDbLine
 10
1039.8682570289
 20
322.498203677
 30
0.0
 11
1039.8682570289
 21
310.7481910408
 31
0.0
  0
ARC
  5
170
330
1F
100
AcDbEntity
  8
0
  6
CONTINUOUS
 62
     7
100
AcDbCircle
 10
1045.8682800697
 20
322.4981957467
 30
0.0
 40
6.0
100
AcDbArc
 50
90.0
 51
180.0
  0
LINE
  5
171
330
1F
100
AcDbEntity
  8
0
  6
CONTINUOUS
 62
     7
100
AcDbLine
 10
1098.3432745765
 20
328.498186034
 30
0.0
 11
1045.8682989906
 21
328.498186034
 31
0.0
  0
ARC
  5
172
330
1F
100
AcDbEntity
  8
0
  6
CONTINUOUS
 62
     7
100
AcDbCircle
 10
1098.3432800697
 20
340.4981957467
 30
0.0
 40
12.0
100
AcDbArc
 50
270.0
 51
0.0
  0
LINE
  5
173
330
1F
100
AcDbEntity
  8
0
  6
CONTINUOUS
 62
     7
100
AcDbLine
 10
1110.3432392906
 20
388.1458355606
 30
0.0
 11
1110.3432392906
 21
340.4982103527
 31
0.0
  0
ARC
  5
174
330
1F
100
AcDbEntity
  8
0
  6
CONTINUOUS
 62
     7
100
AcDbCircle
 10
1119.8682800697
 20
388.145840238
 30
0.0
 40
9.525000000000091
100
AcDbArc
 50
120.0
 51
180.0
  0
ARC
  5
175
330
1F
100
AcDbEntity
  8
0
  6
CONTINUOUS
 62
     7
100
AcDbCircle
 10
1110.3432800697
 20
404.6436241801
 30
0.0
 40
9.525000000000091
100
AcDbArc
 50
300.0
 51
0.0
  0
LINE
  5
176
330
1F
100
AcDbEntity
  8
0
  6
CONTINUOUS
 62
     7
100
AcDbLine
 10
1119.8682999443
 20
444.2977024734
 30
0.0
 11
1119.8682999443
 21
404.643626374
 31
0.0
  0
ARC
  5
177
330
1F
100
AcDbEntity
  8
0
  6
CONTINUOUS
 62
     7
100
AcDbCircle
 10
1110.3432800697
 20
444.2977007873
 30
0.0
 40
9.525000000000091
100
AcDbArc
 50
0.0
 51
60.0
  0
ARC
  5
178
330
1F
100
AcDbEntity
  8
0
  6
CONTINUOUS
 62
     7
100
AcDbCircle
 10
1119.8682800697
 20
460.7954847294
 30
0.0
 40
9.525000000000091
100
AcDbArc
 50
180.0
 51
240.0
  0
LINE
  5
179
330
1F
100
AcDbEntity
  8
0
  6
CONTINUOUS
 62
     7
100
AcDbLine
 10
1110.3432392906
 20
508.4431482971
 30
0.0
 11
1110.3432392906
 21
460.7954932869
 31
0.0
  0
ARC
  5
17A
330
1F
100
AcDbEntity
  8
0
  6
CONTINUOUS
 62
     7
100
AcDbCircle
 10
1098.3432800697
 20
508.4431292207
 30
0.0
 40
12.00000000000011
100
AcDbArc
 50
0.0
 51
90.0
  0
LINE
  5
17B
330
1F
100
AcDbEntity
  8
0
  6
CONTINUOUS
 62
     7
100
AcDbLine
 10
1045.8682989906
 20
520.4431130112
 30
0.0
 11
1098.3432745765
 21
520.4431130112
 31
0.0
  0
ARC
  5
17C
330
1F
100
AcDbEntity
  8
0
  6
CONTINUOUS
 62
     7
100
AcDbCircle
 10
1045.8682800697
 20
526.4431292207
 30
0.0
 40
6.0
100
AcDbArc
 50
180.0
 51
270.0
  0
LINE
  5
17D
330
1F
100
AcDbEntity
  8
0
  6
CONTINUOUS
 62
     7
100
AcDbLine
 10
1039.8682570289
 20
538.1931378067
 30
0.0
 11
1039.8682570289
 21
526.4431549728
 31
0.0
  0
ARC
  5
17E
330
1F
100
AcDbEntity
  8
0
  6
CONTINUOUS
 62
     7
100
AcDbCircle
 10
1040.8682800697
 20
538.1931292207
 30
0.0
 40
1.0
100
AcDbArc
 50
90.0
 51
180.0
  0
LINE
  5
17F
330
1F
100
AcDbEntity
  8
0
  6
CONTINUOUS
 62
     7
100
AcDbLine
 10
1040.868303759
 20
539.1931249321
 30
0.0
 11
1052.1283364128
 21
539.1931249321
 31
0.0
  0
LINE
  5
180
330
1F
100
AcDbEntity
  8
0
  6
CONTINUOUS
 62
     7
100
AcDbLine
 10
1052.1283364128
 20
539.1931249321
 30
0.0
 11
1052.4683213066
 21
533.8792516411
 31
0.0
  0
ARC
  5
181
330
1F
100
AcDbEntity
  8
0
  6
CONTINUOUS
 62
     7
100
AcDbCircle
 10
1053.4663259768
 20
533.9431292207
 30
0.0
 40
1.0
100
AcDbArc
 50
183.6619355755
 51
270.0
  0
LINE
  5
182
330
1F
100
AcDbEntity
  8
0
  6
CONTINUOUS
 62
     7
100
AcDbLine
 10
1053.4663414787
 20
532.9431010902
 30
0.0
 11
1061.4060377906
 21
532.9431010902
 31
0.0
  0
ARC
  5
183
330
1F
100
AcDbEntity
  8
0
  6
CONTINUOUS
 62
     7
100
AcDbCircle
 10
1061.4060016863
 20
531.9431292207
 30
0.0
 40
1.000000000000114
100
AcDbArc
 50
65.1121079736
 51
90.0
  0
ARC
  5
184
330
1F
100
AcDbEntity
  8
0
  6
CONTINUOUS
 62
     7
100
AcDbCircle
 10
1064.0026099301
 20
537.5401396395
 30
0.0
 40
5.170000000000036
100
AcDbArc
 50
245.1121079736
 51
72.3995332141
  0
ARC
  5
185
330
1F
100
AcDbEntity
  8
0
  6
CONTINUOUS
 62
     7
100
AcDbCircle
 10
1065.8682800697
 20
543.4213108605
 30
0.0
 40
1.0
100
AcDbArc
 50
180.0
 51
252.3995332141
  0
LINE
  5
186
330
1F
100
AcDbEntity
  8
0
  6
CONTINUOUS
 62
     7
100
AcDbLine
 10
1064.8682331871
 20
545.4451157272
 30
0.0
 11
1064.8682331871
 21
543.4212996185
 31
0.0
  0
LINE
  5
187
330
1F
100
AcDbEntity
  8
0
  6
CONTINUOUS
 62
     7
100
AcDbLine
 10
1107.8683352302
 20
545.4451157272
 30
0.0
 11
1064.8682331871
 21
545.4451157272
 31
0.0
  0
ARC
  5
188
330
1F
100
AcDbEntity
  8
0
  6
CONTINUOUS
 62
     7
100
AcDbCircle
 10
1107.8682800697
 20
533.4451292207
 30
0.0
 40
12.0
100
AcDbArc
 50
0.0
 51
90.0
  0
LINE
  5
189
330
1F
100
AcDbEntity
  8
0
  6
CONTINUOUS
 62
     7
100
AcDbLine
 10
1119.8682999443
 20
472.7954878033
 30
0.0
 11
1119.8682999443
 21
533.4451510132
 31
0.0
  0
ARC
  5
18A
330
1F
100
AcDbEntity
  8
0
  6
CONTINUOUS
 62
     7
100
AcDbCircle
 10
1131.8682800697
 20
472.7954847294
 30
0.0
 40
12.0
100
AcDbArc
 50
180.0
 51
270.0
  0
LINE
  5
18B
330
1F
100
AcDbEntity
  8
0
  6
CONTINUOUS
 62
     7
100
AcDbLine
 10
1147.8682970833
 20
460.7954932869
 30
0.0
 11
1131.8682646583
 21
460.7954932869
 31
0.0
  0
ARC
  5
18C
330
1F
100
AcDbEntity
  8
0
  6
CONTINUOUS
 62
     7
100
AcDbCircle
 10
1147.8682800697
 20
472.7954847294
 30
0.0
 40
11.99999999999994
100
AcDbArc
 50
270.0
 51
0.0
  0
LINE
  5
18D
330
1F
100
AcDbEntity
  8
0
  6
CONTINUOUS
 62
     7
100
AcDbLine
 10
1159.8682617973
 20
533.4451510132
 30
0.0
 11
1159.8682617973
 21
472.7954878033
 31
0.0
  0
ARC
  5
18E
330
1F
100
AcDbEntity
  8
0
  6
CONTINUOUS
 62
     7
100
AcDbCircle
 10
1171.8682800697
 20
533.4451292207
 30
0.0
 40
12.0
100
AcDbArc
 50
90.0
 51
180.0
  0
LINE
  5
18F
330
1F
100
AcDbEntity
  8
0
  6
CONTINUOUS
 62
     7
100
AcDbLine
 10
1214.8683285545
 20
545.4451157272
 30
0.0
 11
1171.8682265114
 21
545.4451157272
 31
0.0
  0
LINE
  5
190
330
1F
100
AcDbEntity
  8
0
  6
CONTINUOUS
 62
     7
100
AcDbLine
 10
1214.8683285545
 20
543.4212996185
 30
0.0
 11
1214.8683285545
 21
545.4451157272
 31
0.0
  0
ARC
  5
191
330
1F
100
AcDbEntity
  8
0
  6
CONTINUOUS
 62
     7
100
AcDbCircle
 10
1213.8682800697
 20
543.4213108605
 30
0.0
 40
1.0
100
AcDbArc
 50
287.6004667859
 51
0.0
  0
ARC
  5
192
330
1F
100
AcDbEntity
  8
0
  6
CONTINUOUS
 62
     7
100
AcDbCircle
 10
1215.7339502093
 20
537.5401396395
 30
0.0
 40
5.170000000000131
100
AcDbArc
 50
107.6004667859
 51
294.8878920264
  0
ARC
  5
193
330
1F
100
AcDbEntity
  8
0
  6
CONTINUOUS
 62
     7
100
AcDbCircle
 10
1218.3305584531
 20
531.9431292207
 30
0.0
 40
1.0
100
AcDbArc
 50
90.0
 51
114.8878920264
  0
LINE
  5
194
330
1F
100
AcDbEntity
  8
0
  6
CONTINUOUS
 62
     7
100
AcDbLine
 10
1218.3305239509
 20
532.9431010902
 30
0.0
 11
1226.2702202629
 21
532.9431010902
 31
0.0
  0
ARC
  5
195
330
1F
100
AcDbEntity
  8
0
  6
CONTINUOUS
 62
     7
100
AcDbCircle
 10
1226.2702341626
 20
533.9431292207
 30
0.0
 40
1.000000000000163
100
AcDbArc
 50
270.0
 51
356.3380644245
  0
LINE
  5
196
330
1F
100
AcDbEntity
  8
0
  6
CONTINUOUS
 62
     7
100
AcDbLine
 10
1227.268240435
 20
533.8792516411
 30
0.0
 11
1227.6082253288
 21
539.1931249321
 31
0.0
  0
LINE
  5
197
330
1F
100
AcDbEntity
  8
0
  6
CONTINUOUS
 62
     7
100
AcDbLine
 10
1227.6082253288
 20
539.1931249321
 30
0.0
 11
1238.8682579826
 21
539.1931249321
 31
0.0
  0
ARC
  5
198
330
1F
100
AcDbEntity
  8
0
  6
CONTINUOUS
 62
     7
100
AcDbCircle
 10
1238.8682800697
 20
538.1931292207
 30
0.0
 40
1.0
100
AcDbArc
 50
0.0
 51
90.0
  0
LINE
  5
199
330
1F
100
AcDbEntity
  8
0
  6
CONTINUOUS
 62
     7
100
AcDbLine
 10
1239.8683047126
 20
526.4431549728
 30
0.0
 11
1239.8683047126
 21
538.1931378067
 31
0.0
  0
ARC
  5
19A
330
1F
100
AcDbEntity
  8
0
  6
CONTINUOUS
 62
     7
100
AcDbCircle
 10
589.3416994395
 20
711.7817951298
 30
0.0
 40
5.170000000000075
100
AcDbArc
 50
351.0551803913
 51
19.8879072801
  0
ARC
  5
19B
330
1F
100
AcDbEntity
  8
0
  6
CONTINUOUS
 62
     7
100
AcDbCircle
 10
595.1437203052
 20
713.8807124397
 30
0.0
 40
0.9999999999999634
100
AcDbArc
 50
175.0
 51
199.8879072801
  0
LINE
  5
19C
330
1F
100
AcDbEntity
  8
0
  6
CONTINUOUS
 62
     7
100
AcDbLine
 10
594.6195339988
 20
719.362707299
 30
0.0
 11
594.1475248169
 21
713.9678909004
 31
0.0
  0
ARC
  5
19D
330
1F
100
AcDbEntity
  8
0
  6
CONTINUOUS
 62
     7
100
AcDbCircle
 10
595.6157529816
 20
719.2755339167
 30
0.0
 40
1.000046776821427
100
AcDbArc
 50
150.1122190803
 51
175.0
  0
ARC
  5
19E
330
1F
100
AcDbEntity
  8
0
  6
CONTINUOUS
 62
     7
100
AcDbCircle
 10
590.2663036797
 20
722.350085818
 30
0.0
 40
5.170000000000076
100
AcDbArc
 50
330.1122190803
 51
157.3995467073
  0
ARC
  5
19F
330
1F
100
AcDbEntity
  8
0
  6
CONTINUOUS
 62
     7
100
AcDbCircle
 10
584.5701153991
 20
724.721233024
 30
0.0
 40
0.9999999999999603
100
AcDbArc
 50
265.0000647817
 51
337.3995467073
  0
LINE
  5
1A0
330
1F
100
AcDbEntity
  8
0
  6
CONTINUOUS
 62
     7
100
AcDbLine
 10
580.4547285865
 20
724.0774347008
 30
0.0
 11
584.4829892944
 21
723.7250520409
 31
0.0
  0
ARC
  5
1A1
330
1F
100
AcDbEntity
  8
0
  6
CONTINUOUS
 62
     7
100
AcDbCircle
 10
580.5418655387
 20
725.0736546312
 30
0.0
 40
1.000001262015133
100
AcDbArc
 50
192.600480279
 51
265.0000647817
  0
ARC
  5
1A2
330
1F
100
AcDbEntity
  8
0
  6
CONTINUOUS
 62
     7
100
AcDbCircle
 10
574.5204704
 20
723.7276603577
 30
0.0
 40
5.169998737984807
100
AcDbArc
 50
12.600480279
 51
199.8878203283
  0
ARC
  5
1A3
330
1F
100
AcDbEntity
  8
0
  6
CONTINUOUS
 62
     7
100
AcDbCircle
 10
568.718450434
 20
721.6287533306
 30
0.0
 40
0.9999981800218227
100
AcDbArc
 50
355.0
 51
19.8878203283
  0
LINE
  5
1A4
330
1F
100
AcDbEntity
  8
0
  6
CONTINUOUS
 62
     7
100
AcDbLine
 10
569.2426776718
 20
716.1467386902
 30
0.0
 11
569.7146272491
 21
721.5416146934
 31
0.0
  0
ARC
  5
1A5
330
1F
100
AcDbEntity
  8
0
  6
CONTINUOUS
 62
     7
100
AcDbCircle
 10
568.246462557
 20
716.233907211
 30
0.0
 40
1.000000000000067
100
AcDbArc
 50
330.1121232273
 51
355.0
  0
ARC
  5
1A6
330
1F
100
AcDbEntity
  8
0
  6
CONTINUOUS
 62
     7
100
AcDbCircle
 10
573.5958661598
 20
713.1593696695
 30
0.0
 40
5.170000000000085
100
AcDbArc
 50
150.1121232273
 51
178.944738049
  0
LINE
  5
1A7
330
1F
100
AcDbEntity
  8
0
  6
CONTINUOUS
 62
     7
100
AcDbLine
 10
568.4267496895
 20
713.2546021164
 30
0.0
 11
403.3783590625
 21
727.6944233597
 31
0.0
  0
ARC
  5
1A8
330
1F
100
AcDbEntity
  8
0
  6
CONTINUOUS
 62
     7
100
AcDbCircle
 10
398.2712241404
 20
728.498295653
 30
0.0
 40
5.16999999999993
100
AcDbArc
 50
351.0551803913
 51
19.8879072801
  0
ARC
  5
1A9
330
1F
100
AcDbEntity
  8
0
  6
CONTINUOUS
 62
     7
100
AcDbCircle
 10
404.0732450061
 20
730.5972129629
 30
0.0
 40
1.000000000000031
100
AcDbArc
 50
175.0
 51
199.8879072801
  0
LINE
  5
1AA
330
1F
100
AcDbEntity
  8
0
  6
CONTINUOUS
 62
     7
100
AcDbLine
 10
403.5490369629
 20
736.0791875542
 30
0.0
 11
403.0770575832
 21
730.6843711555
 31
0.0
  0
ARC
  5
1AB
330
1F
100
AcDbEntity
  8
0
  6
CONTINUOUS
 62
     7
100
AcDbCircle
 10
404.5452776826
 20
735.9920344399
 30
0.0
 40
1.00004677682137
100
AcDbArc
 50
150.1122190803
 51
175.0
  0
ARC
  5
1AC
330
1F
100
AcDbEntity
  8
0
  6
CONTINUOUS
 62
     7
100
AcDbCircle
 10
399.1958283806
 20
739.0665863412
 30
0.0
 40
5.170000000000115
100
AcDbArc
 50
330.1122190803
 51
157.3995467073
  0
ARC
  5
1AD
330
1F
100
AcDbEntity
  8
0
  6
CONTINUOUS
 62
     7
100
AcDbCircle
 10
393.4996401
 20
741.4377335472
 30
0.0
 40
0.9999999999999701
100
AcDbArc
 50
265.0000647817
 51
337.3995467073
  0
LINE
  5
1AE
330
1F
100
AcDbEntity
  8
0
  6
CONTINUOUS
 62
     7
100
AcDbLine
 10
389.3842315506
 20
740.7939745605
 30
0.0
 11
393.4124922584
 21
740.441532296
 31
0.0
  0
ARC
  5
1AF
330
1F
100
AcDbEntity
  8
0
  6
CONTINUOUS
 62
     7
100
AcDbCircle
 10
389.4713902396
 20
741.7901551544
 30
0.0
 40
1.000001262015244
100
AcDbArc
 50
192.600480279
 51
265.0000647817
  0
ARC
  5
1B0
330
1F
100
AcDbEntity
  8
0
  6
CONTINUOUS
 62
     7
100
AcDbCircle
 10
383.449995101
 20
740.4441608809
 30
0.0
 40
5.169998737984751
100
AcDbArc
 50
12.600480279
 51
199.8878203283
  0
ARC
  5
1B1
330
1F
100
AcDbEntity
  8
0
  6
CONTINUOUS
 62
     7
100
AcDbCircle
 10
377.6479751349
 20
738.3452538538
 30
0.0
 40
0.9999981800218227
100
AcDbArc
 50
355.0
 51
19.8878203283
  0
LINE
  5
1B2
330
1F
100
AcDbEntity
  8
0
  6
CONTINUOUS
 62
     7
100
AcDbLine
 10
378.1721806358
 20
732.8632785499
 30
0.0
 11
378.6441600155
 21
738.2580949486
 31
0.0
  0
ARC
  5
1B3
330
1F
100
AcDbEntity
  8
0
  6
CONTINUOUS
 62
     7
100
AcDbCircle
 10
377.175987258
 20
732.9504077342
 30
0.0
 40
1.000000000000133
100
AcDbArc
 50
330.1121232273
 51
355.0
  0
ARC
  5
1B4
330
1F
100
AcDbEntity
  8
0
  6
CONTINUOUS
 62
     7
100
AcDbCircle
 10
382.5253908608
 20
729.8758701927
 30
0.0
 40
5.170000000000141
100
AcDbArc
 50
150.1121232273
 51
178.944738049
  0
LINE
  5
1B5
330
1F
100
AcDbEntity
  8
0
  6
CONTINUOUS
 62
     7
100
AcDbLine
 10
377.3562824558
 20
729.9710823715
 30
0.0
 11
339.4282674621
 21
733.2893325508
 31
0.0
  0
LINE
  5
1B6
330
1F
100
AcDbEntity
  8
0
  6
CONTINUOUS
 62
     7
100
AcDbLine
 10
339.4282674621
 20
753.5033537567
 30
0.0
 11
339.4282674621
 21
733.2893325508
 31
0.0
  0
ARC
  5
1B7
330
1F
100
AcDbEntity
  8
0
  6
CONTINUOUS
 62
     7
100
AcDbCircle
 10
345.4282800697
 20
753.5033396234
 30
0.0
 40
6.0
100
AcDbArc
 50
85.0
 51
180.0
  0
LINE
  5
1B8
330
1F
100
AcDbEntity
  8
0
  6
CONTINUOUS
 62
     7
100
AcDbLine
 10
615.9512018989
 20
735.8585907638
 30
0.0
 11
345.9512209724
 21
759.4805075348
 31
0.0
  0
ARC
  5
1B9
330
1F
100
AcDbEntity
  8
0
  6
CONTINUOUS
 62
     7
100
AcDbCircle
 10
615.4282800697
 20
729.8814004714
 30
0.0
 40
6.0
100
AcDbArc
 50
0.0
 51
85.0
  0
LINE
  5
1BA
330
1F
100
AcDbEntity
  8
0
  6
CONTINUOUS
 62
     7
100
AcDbLine
 10
621.4282727073
 20
708.6175395668
 30
0.0
 11
621.4282727073
 21
729.8813773811
 31
0.0
  0
LINE
  5
1BB
330
1F
100
AcDbEntity
  8
0
  6
CONTINUOUS
 62
     7
100
AcDbLine
 10
621.4282727073
 20
708.6175395668
 30
0.0
 11
594.4488262962
 21
710.9779431045
 31
0.0
  0
ARC
  5
1BC
330
1F
100
AcDbEntity
  8
0
  6
CONTINUOUS
 62
     7
100
AcDbCircle
 10
382.5253901233
 20
61.683771082
 30
0.0
 40
5.169998737984863
100
AcDbArc
 50
181.0551794268
 51
209.8878203283
  0
ARC
  5
1BD
330
1F
100
AcDbEntity
  8
0
  6
CONTINUOUS
 62
     7
100
AcDbCircle
 10
377.175987258
 20
58.609240975
 30
0.0
 40
0.9999981800218222
100
AcDbArc
 50
5.0
 51
29.8878203284
  0
LINE
  5
1BE
330
1F
100
AcDbEntity
  8
0
  6
CONTINUOUS
 62
     7
100
AcDbLine
 10
378.6441600155
 20
53.301551801
 30
0.0
 11
378.1721806358
 21
58.6963980019
 31
0.0
  0
ARC
  5
1BF
330
1F
100
AcDbEntity
  8
0
  6
CONTINUOUS
 62
     7
100
AcDbCircle
 10
377.6479751349
 20
53.2143948554
 30
0.0
 40
1.000000000000009
100
AcDbArc
 50
340.1121232273
 51
5.0
  0
ARC
  5
1C0
330
1F
100
AcDbEntity
  8
0
  6
CONTINUOUS
 62
     7
100
AcDbCircle
 10
383.4499971182
 20
51.1154806348
 30
0.0
 40
5.170000000000037
100
AcDbArc
 50
160.1121232273
 51
347.3995467073
  0
ARC
  5
1C1
330
1F
100
AcDbEntity
  8
0
  6
CONTINUOUS
 62
     7
100
AcDbCircle
 10
389.4713928908
 20
49.7694891974
 30
0.0
 40
1.000000000000131
100
AcDbArc
 50
95.0000647817
 51
167.3995467073
  0
LINE
  5
1C2
330
1F
100
AcDbEntity
  8
0
  6
CONTINUOUS
 62
     7
100
AcDbLine
 10
393.4124922584
 20
51.1181144536
 30
0.0
 11
389.3842315506
 21
50.7656833649
 31
0.0
  0
ARC
  5
1C3
330
1F
100
AcDbEntity
  8
0
  6
CONTINUOUS
 62
     7
100
AcDbCircle
 10
393.4996419543
 20
50.1219199137
 30
0.0
 40
1.000000000000037
100
AcDbArc
 50
22.600480279
 51
95.0000647817
  0
ARC
  5
1C4
330
1F
100
AcDbEntity
  8
0
  6
CONTINUOUS
 62
     7
100
AcDbCircle
 10
399.195829118
 20
52.4930698026
 30
0.0
 40
5.169999999999982
100
AcDbArc
 50
202.600480279
 51
29.8879072801
  0
ARC
  5
1C5
330
1F
100
AcDbEntity
  8
0
  6
CONTINUOUS
 62
     7
100
AcDbCircle
 10
404.5452310837
 20
55.5676101925
 30
0.0
 40
1.000000000000123
100
AcDbArc
 50
185.0
 51
209.8879072801
  0
LINE
  5
1C6
330
1F
100
AcDbEntity
  8
0
  6
CONTINUOUS
 62
     7
100
AcDbLine
 10
403.0770575832
 20
60.8752793193
 30
0.0
 11
403.5490369629
 21
55.4804554701
 31
0.0
  0
ARC
  5
1C7
330
1F
100
AcDbEntity
  8
0
  6
CONTINUOUS
 62
     7
100
AcDbCircle
 10
404.0732916049
 20
60.9624398232
 30
0.0
 40
1.000046776821535
100
AcDbArc
 50
160.1122190803
 51
185.0
  0
ARC
  5
1C8
330
1F
100
AcDbEntity
  8
0
  6
CONTINUOUS
 62
     7
100
AcDbCircle
 10
398.2712221232
 20
63.0613602498
 30
0.0
 40
5.170000000000019
100
AcDbArc
 50
340.1122190803
 51
8.944738049
  0
LINE
  5
1C9
330
1F
100
AcDbEntity
  8
0
  6
CONTINUOUS
 62
     7
100
AcDbLine
 10
403.3783590625
 20
63.8652010382
 30
0.0
 11
568.4267496895
 21
78.3050669849
 31
0.0
  0
ARC
  5
1CA
330
1F
100
AcDbEntity
  8
0
  6
CONTINUOUS
 62
     7
100
AcDbCircle
 10
573.5958654224
 20
78.4002716052
 30
0.0
 40
5.169998737984803
100
AcDbArc
 50
181.0551794268
 51
209.8878203283
  0
ARC
  5
1CB
330
1F
100
AcDbEntity
  8
0
  6
CONTINUOUS
 62
     7
100
AcDbCircle
 10
568.246462557
 20
75.3257414982
 30
0.0
 40
0.9999981800218873
100
AcDbArc
 50
5.0
 51
29.8878203283
  0
LINE
  5
1CC
330
1F
100
AcDbEntity
  8
0
  6
CONTINUOUS
 62
     7
100
AcDbLine
 10
569.7146272491
 20
70.0180544079
 30
0.0
 11
569.2426776718
 21
75.4129006088
 31
0.0
  0
ARC
  5
1CD
330
1F
100
AcDbEntity
  8
0
  6
CONTINUOUS
 62
     7
100
AcDbCircle
 10
568.718450434
 20
69.9308953786
 30
0.0
 40
1.000000000000105
100
AcDbArc
 50
340.1121232273
 51
5.0
  0
ARC
  5
1CE
330
1F
100
AcDbEntity
  8
0
  6
CONTINUOUS
 62
     7
100
AcDbCircle
 10
574.5204724173
 20
67.831981158
 30
0.0
 40
5.169999999999981
100
AcDbArc
 50
160.1121232273
 51
347.3995467073
  0
ARC
  5
1CF
330
1F
100
AcDbEntity
  8
0
  6
CONTINUOUS
 62
     7
100
AcDbCircle
 10
580.5418681899
 20
66.4859897205
 30
0.0
 40
1.00000000000012
100
AcDbArc
 50
95.0000647817
 51
167.3995467073
  0
LINE
  5
1D0
330
1F
100
AcDbEntity
  8
0
  6
CONTINUOUS
 62
     7
100
AcDbLine
 10
584.4829892944
 20
67.8346170605
 30
0.0
 11
580.4547285865
 21
67.4821822465
 31
0.0
  0
ARC
  5
1D1
330
1F
100
AcDbEntity
  8
0
  6
CONTINUOUS
 62
     7
100
AcDbCircle
 10
584.5701172533
 20
66.8384204369
 30
0.0
 40
1.000000000000031
100
AcDbArc
 50
22.600480279
 51
95.0000647817
  0
ARC
  5
1D2
330
1F
100
AcDbEntity
  8
0
  6
CONTINUOUS
 62
     7
100
AcDbCircle
 10
590.2663044171
 20
69.2095703258
 30
0.0
 40
5.170000000000026
100
AcDbArc
 50
202.600480279
 51
29.8879072801
  0
ARC
  5
1D3
330
1F
100
AcDbEntity
  8
0
  6
CONTINUOUS
 62
     7
100
AcDbCircle
 10
595.6157063828
 20
72.2841107157
 30
0.0
 40
0.9999999999999918
100
AcDbArc
 50
185.0
 51
209.8879072801
  0
LINE
  5
1D4
330
1F
100
AcDbEntity
  8
0
  6
CONTINUOUS
 62
     7
100
AcDbLine
 10
594.1475248169
 20
77.5917782009
 30
0.0
 11
594.6195339988
 21
72.1969543517
 31
0.0
  0
ARC
  5
1D5
330
1F
100
AcDbEntity
  8
0
  6
CONTINUOUS
 62
     7
100
AcDbCircle
 10
595.143766904
 20
77.6789403464
 30
0.0
 40
1.000046776821421
100
AcDbArc
 50
160.1122190803
 51
185.0
  0
ARC
  5
1D6
330
1F
100
AcDbEntity
  8
0
  6
CONTINUOUS
 62
     7
100
AcDbCircle
 10
589.3416974222
 20
79.777860773
 30
0.0
 40
5.170000000000089
100
AcDbArc
 50
340.1122190803
 51
8.944738049
  0
LINE
  5
1D7
330
1F
100
AcDbEntity
  8
0
  6
CONTINUOUS
 62
     7
100
AcDbLine
 10
594.4488262962
 20
80.581703645
 30
0.0
 11
621.4282727073
 21
82.9420997322
 31
0.0
  0
LINE
  5
1D8
330
1F
100
AcDbEntity
  8
0
  6
CONTINUOUS
 62
     7
100
AcDbLine
 10
621.4282727073
 20
61.6782470167
 30
0.0
 11
621.4282727073
 21
82.9420997322
 31
0.0
  0
ARC
  5
1D9
330
1F
100
AcDbEntity
  8
0
  6
CONTINUOUS
 62
     7
100
AcDbCircle
 10
615.4282800697
 20
61.6782482379
 30
0.0
 40
6.000000000000088
100
AcDbArc
 50
275.0
 51
0.0
  0
LINE
  5
1DA
330
1F
100
AcDbEntity
  8
0
  6
CONTINUOUS
 62
     7
100
AcDbLine
 10
345.9512209724
 20
32.0791410774
 30
0.0
 11
615.9512018989
 21
55.7010783375
 31
0.0
  0
ARC
  5
1DB
330
1F
100
AcDbEntity
  8
0
  6
CONTINUOUS
 62
     7
100
AcDbCircle
 10
345.4282800697
 20
38.0563090859
 30
0.0
 40
6.0
100
AcDbArc
 50
180.0
 51
275.0
  0
LINE
  5
1DC
330
1F
100
AcDbEntity
  8
0
  6
CONTINUOUS
 62
     7
100
AcDbLine
 10
339.4282674621
 20
58.2702955723
 30
0.0
 11
339.4282674621
 21
38.056307894
 31
0.0
  0
LINE
  5
1DD
330
1F
100
AcDbEntity
  8
0
  6
CONTINUOUS
 62
     7
100
AcDbLine
 10
339.4282674621
 20
58.2702955723
 30
0.0
 11
377.3562824558
 21
61.5885643781
 31
0.0
  0
LINE
  5
1DE
330
1F
100
AcDbEntity
  8
0
  6
CONTINUOUS
 62
     7
100
AcDbLine
 10
621.4282727073
 20
660.4140116394
 30
0.0
 11
621.4282727073
 21
695.8890868843
 31
0.0
  0
LINE
  5
1DF
330
1F
100
AcDbEntity
  8
0
  6
CONTINUOUS
 62
     7
100
AcDbLine
 10
616.470179541
 20
654.5051647842
 30
0.0
 11
606.3863849472
 21
652.7270986259
 31
0.0
  0
ARC
  5
1E0
330
1F
100
AcDbEntity
  8
0
  6
CONTINUOUS
 62
     7
100
AcDbCircle
 10
607.4282800697
 20
646.8182501142
 30
0.0
 40
6.0
100
AcDbArc
 50
100.0
 51
180.0
  0
LINE
  5
1E1
330
1F
100
AcDbEntity
  8
0
  6
CONTINUOUS
 62
     7
100
AcDbLine
 10
601.4282917808
 20
646.8182517708
 30
0.0
 11
601.4282917808
 21
144.7414024294
 31
0.0
  0
ARC
  5
1E2
330
1F
100
AcDbEntity
  8
0
  6
CONTINUOUS
 62
     7
100
AcDbCircle
 10
607.4282800697
 20
144.741398595
 30
0.0
 40
6.0
100
AcDbArc
 50
180.0
 51
260.0
  0
LINE
  5
1E3
330
1F
100
AcDbEntity
  8
0
  6
CONTINUOUS
 62
     7
100
AcDbLine
 10
606.3863849472
 20
138.8325555742
 30
0.0
 11
616.470179541
 21
137.0545043171
 31
0.0
  0
ARC
  5
1E4
330
1F
100
AcDbEntity
  8
0
  6
CONTINUOUS
 62
     7
100
AcDbCircle
 10
615.4282800697
 20
131.1456634067
 30
0.0
 40
6.0
100
AcDbArc
 50
0.0
 51
80.0
  0
LINE
  5
1E5
330
1F
100
AcDbEntity
  8
0
  6
CONTINUOUS
 62
     7
100
AcDbLine
 10
621.4282727073
 20
95.6705300629
 30
0.0
 11
621.4282727073
 21
131.1456574619
 31
0.0
  0
LINE
  5
1E6
330
1F
100
AcDbEntity
  8
0
  6
CONTINUOUS
 62
     7
100
AcDbLine
 10
621.4282727073
 20
95.6705300629
 30
0.0
 11
581.4282512497
 21
92.170984906
 31
0.0
  0
LINE
  5
1E7
330
1F
100
AcDbEntity
  8
0
  6
CONTINUOUS
 62
     7
100
AcDbLine
 10
581.4282512497
 20
92.170984906
 30
0.0
 11
581.4282512497
 21
699.388654393
 31
0.0
  0
LINE
  5
1E8
330
1F
100
AcDbEntity
  8
0
  6
CONTINUOUS
 62
     7
100
AcDbLine
 10
581.4282512497
 20
699.388654393
 30
0.0
 11
621.4282727073
 21
695.8890868843
 31
0.0
  0
ARC
  5
1E9
330
1F
100
AcDbEntity
  8
0
  6
CONTINUOUS
 62
     7
100
AcDbCircle
 10
615.4282800697
 20
660.4139853025
 30
0.0
 40
6.0
100
AcDbArc
 50
280.0
 51
0.0
  0
LINE
  5
1EA
330
1F
100
AcDbEntity
  8
0
  6
CONTINUOUS
 62
     7
100
AcDbLine
 10
339.4282674621
 20
720.5609394729
 30
0.0
 11
339.4282674621
 21
70.9987296284
 31
0.0
  0
LINE
  5
1EB
330
1F
100
AcDbEntity
  8
0
  6
CONTINUOUS
 62
     7
100
AcDbLine
 10
569.0883016418
 20
91.0913734258
 30
0.0
 11
339.4282674621
 21
70.9987296284
 31
0.0
  0
LINE
  5
1EC
330
1F
100
AcDbEntity
  8
0
  6
CONTINUOUS
 62
     7
100
AcDbLine
 10
569.0883016418
 20
700.4682733238
 30
0.0
 11
569.0883016418
 21
91.0913734258
 31
0.0
  0
LINE
  5
1ED
330
1F
100
AcDbEntity
  8
0
  6
CONTINUOUS
 62
     7
100
AcDbLine
 10
339.4282674621
 20
720.5609394729
 30
0.0
 11
569.0883016418
 21
700.4682733238
 31
0.0
  0
ARC
  5
1EE
330
1F
100
AcDbEntity
  8
0
  6
CONTINUOUS
 62
     7
100
AcDbCircle
 10
583.3203016496
 20
81.1238522104
 30
0.0
 40
1.000000000000006
100
AcDbArc
 50
275.0000647817
 51
347.3995467073
  0
LINE
  5
1EF
330
1F
100
AcDbEntity
  8
0
  6
CONTINUOUS
 62
     7
100
AcDbLine
 10
583.4074830841
 20
80.1276578129
 30
0.0
 11
579.3792223762
 21
79.7752304495
 31
0.0
  0
ARC
  5
1F0
330
1F
100
AcDbEntity
  8
0
  6
CONTINUOUS
 62
     7
100
AcDbCircle
 10
579.2920525862
 20
80.7714214941
 30
0.0
 40
1.00000000000003
100
AcDbArc
 50
202.600480279
 51
275.0000647817
  0
ARC
  5
1F1
330
1F
100
AcDbEntity
  8
0
  6
CONTINUOUS
 62
     7
100
AcDbCircle
 10
392.2498263506
 20
64.4073516873
 30
0.0
 40
1.00000000000001
100
AcDbArc
 50
275.0000647817
 51
347.3995467073
  0
LINE
  5
1F2
330
1F
100
AcDbEntity
  8
0
  6
CONTINUOUS
 62
     7
100
AcDbLine
 10
392.3369860481
 20
63.4111589313
 30
0.0
 11
388.3087253402
 21
63.0587278426
 31
0.0
  0
ARC
  5
1F3
330
1F
100
AcDbEntity
  8
0
  6
CONTINUOUS
 62
     7
100
AcDbCircle
 10
388.2215772871
 20
64.0549209709
 30
0.0
 40
1.000000000000105
100
AcDbArc
 50
202.600480279
 51
275.0000647817
  0
ARC
  5
1F4
330
1F
100
AcDbEntity
  8
0
  6
CONTINUOUS
 62
     7
100
AcDbCircle
 10
388.2215791413
 20
727.5047229867
 30
0.0
 40
1.000000000000012
100
AcDbArc
 50
85.0000647817
 51
157.3995467073
  0
LINE
  5
1F5
330
1F
100
AcDbEntity
  8
0
  6
CONTINUOUS
 62
     7
100
AcDbLine
 10
388.3087253402
 20
728.5009338081
 30
0.0
 11
392.3369860481
 21
728.1484915436
 31
0.0
  0
ARC
  5
1F6
330
1F
100
AcDbEntity
  8
0
  6
CONTINUOUS
 62
     7
100
AcDbCircle
 10
392.2498290017
 20
727.1523013794
 30
0.0
 40
1.0000000000001
100
AcDbArc
 50
12.600480279
 51
85.0000647817
  0
ARC
  5
1F7
330
1F
100
AcDbEntity
  8
0
  6
CONTINUOUS
 62
     7
100
AcDbCircle
 10
579.2920544404
 20
710.7882224635
 30
0.0
 40
0.9999999999999701
100
AcDbArc
 50
85.0000647817
 51
157.3995467073
  0
LINE
  5
1F8
330
1F
100
AcDbEntity
  8
0
  6
CONTINUOUS
 62
     7
100
AcDbLine
 10
579.3792223762
 20
711.7843939484
 30
0.0
 11
583.4074830841
 21
711.4320112884
 31
0.0
  0
ARC
  5
1F9
330
1F
100
AcDbEntity
  8
0
  6
CONTINUOUS
 62
     7
100
AcDbCircle
 10
583.3203043008
 20
710.4358008563
 30
0.0
 40
1.0000000000001
100
AcDbArc
 50
12.600480279
 51
85.0000647817
  0
LINE
  5
1FA
330
1F
100
AcDbEntity
  8
0
  6
CONTINUOUS
 62
     7
100
AcDbLine
 10
339.4282674621
 20
720.5609394729
 30
0.0
 11
339.4282674621
 21
733.2893325508
 31
0.0
  0
LINE
  5
1FB
330
1F
100
AcDbEntity
  8
0
  6
CONTINUOUS
 62
     7
100
AcDbLine
 10
339.4282674621
 20
58.2702955723
 30
0.0
 11
339.4282674621
 21
70.9987296284
 31
0.0
  0
ARC
  5
1FC
330
1F
100
AcDbEntity
  8
0
  6
CONTINUOUS
 62
     7
100
AcDbCircle
 10
573.5958654224
 20
78.4002716052
 30
0.0
 40
5.170000000000083
100
AcDbArc
 50
22.600480279
 51
181.0551794268
  0
ARC
  5
1FD
330
1F
100
AcDbEntity
  8
0
  6
CONTINUOUS
 62
     7
100
AcDbCircle
 10
573.5958661598
 20
713.1593696695
 30
0.0
 40
5.170000000000034
100
AcDbArc
 50
178.944738049
 51
337.3995467073
  0
ARC
  5
1FE
330
1F
100
AcDbEntity
  8
0
  6
CONTINUOUS
 62
     7
100
AcDbCircle
 10
589.3416974222
 20
79.777860773
 30
0.0
 40
5.170000000000045
100
AcDbArc
 50
8.944738049
 51
167.3995467073
  0
ARC
  5
1FF
330
1F
100
AcDbEntity
  8
0
  6
CONTINUOUS
 62
     7
100
AcDbCircle
 10
589.3416994395
 20
711.7817951298
 30
0.0
 40
5.170000000000057
100
AcDbArc
 50
192.600480279
 51
351.0551803913
  0
LINE
  5
200
330
1F
100
AcDbEntity
  8
0
  6
CONTINUOUS
 62
     7
100
AcDbLine
 10
621.4282727073
 20
95.6705300629
 30
0.0
 11
621.4282727073
 21
82.9420997322
 31
0.0
  0
LINE
  5
201
330
1F
100
AcDbEntity
  8
0
  6
CONTINUOUS
 62
     7
100
AcDbLine
 10
621.4282727073
 20
708.6175395668
 30
0.0
 11
621.4282727073
 21
695.8890868843
 31
0.0
  0
ARC
  5
202
330
1F
100
AcDbEntity
  8
0
  6
CONTINUOUS
 62
     7
100
AcDbCircle
 10
398.2712241404
 20
728.498295653
 30
0.0
 40
5.170000000000031
100
AcDbArc
 50
192.600480279
 51
351.0551803913
  0
ARC
  5
203
330
1F
100
AcDbEntity
  8
0
  6
CONTINUOUS
 62
     7
100
AcDbCircle
 10
398.2712221232
 20
63.0613602498
 30
0.0
 40
5.170000000000019
100
AcDbArc
 50
8.944738049
 51
167.3995467073
  0
ARC
  5
204
330
1F
100
AcDbEntity
  8
0
  6
CONTINUOUS
 62
     7
100
AcDbCircle
 10
382.5253901233
 20
61.683771082
 30
0.0
 40
5.169999999999979
100
AcDbArc
 50
22.600480279
 51
181.0551794268
  0
ARC
  5
205
330
1F
100
AcDbEntity
  8
0
  6
CONTINUOUS
 62
     7
100
AcDbCircle
 10
382.5253908608
 20
729.8758701927
 30
0.0
 40
5.170000000000115
100
AcDbArc
 50
178.944738049
 51
337.3995467073
  0
LINE
  5
206
330
1F
100
AcDbEntity
  8
0
  6
CONTINUOUS
 62
     7
100
AcDbLine
 10
846.3883018326
 20
382.6815201462
 30
0.0
 11
846.3883018326
 21
343.5785783947
 31
0.0
  0
LINE
  5
207
330
1F
100
AcDbEntity
  8
0
  6
CONTINUOUS
 62
     7
100
AcDbLine
 10
846.3883018326
 20
382.6815201462
 30
0.0
 11
1008.3883023094
 21
382.6815201462
 31
0.0
  0
LINE
  5
208
330
1F
100
AcDbEntity
  8
0
  6
CONTINUOUS
 62
     7
100
AcDbLine
 10
1008.3883023094
 20
343.5785783947
 30
0.0
 11
1008.3883023094
 21
382.6815201462
 31
0.0
  0
LINE
  5
209
330
1F
100
AcDbEntity
  8
0
  6
CONTINUOUS
 62
     7
100
AcDbLine
 10
846.3883018326
 20
343.5785783947
 30
0.0
 11
1008.3883023094
 21
343.5785783947
 31
0.0
  0
LINE
  5
20A
330
1F
100
AcDbEntity
  8
0
  6
CONTINUOUS
 62
     7
100
AcDbLine
 10
1008.3883023094
 20
625.6059123695
 30
0.0
 11
846.3883018326
 21
625.6059123695
 31
0.0
  0
LINE
  5
20B
330
1F
100
AcDbEntity
  8
0
  6
CONTINUOUS
 62
     7
100
AcDbLine
 10
1008.3883023094
 20
394.8973728836
 30
0.0
 11
846.3883018326
 21
394.8973728836
 31
0.0
  0
LINE
  5
20C
330
1F
100
AcDbEntity
  8
0
  6
CONTINUOUS
 62
     7
100
AcDbLine
 10
846.3883018326
 20
625.6059123695
 30
0.0
 11
846.3883018326
 21
394.8973728836
 31
0.0
  0
LINE
  5
20D
330
1F
100
AcDbEntity
  8
0
  6
CONTINUOUS
 62
     7
100
AcDbLine
 10
1008.3883023094
 20
394.8973728836
 30
0.0
 11
1008.3883023094
 21
625.6059123695
 31
0.0
  0
LINE
  5
20E
330
1F
100
AcDbEntity
  8
0
  6
CONTINUOUS
 62
     7
100
AcDbLine
 10
846.3883018326
 20
382.6815201462
 30
0.0
 11
846.3883018326
 21
394.8973728836
 31
0.0
  0
LINE
  5
20F
330
1F
100
AcDbEntity
  8
0
  6
CONTINUOUS
 62
     7
100
AcDbLine
 10
1008.3883023094
 20
394.8973728836
 30
0.0
 11
1008.3883023094
 21
382.6815201462
 31
0.0
  0
LINE
  5
210
330
1F
100
AcDbEntity
  8
POCKETS
100
AcDbLine
 10
1018.3882800697
 20
81.3900298626
 30
0.0
 11
836.3882800697
 21
81.3900298626
 31
0.0
  0
LINE
  5
211
330
1F
100
AcDbEntity
  8
POCKETS
100
AcDbLine
 10
836.3882800697
 20
81.3900298626
 30
0.0
 11
836.3882800697
 21
69.1741918121
 31
0.0
  0
LINE
  5
212
330
1F
100
AcDbEntity
  8
POCKETS
100
AcDbLine
 10
836.3882800697
 20
69.1741918121
 30
0.0
 11
1018.3882800697
 21
69.1741918121
 31
0.0
  0
LINE
  5
213
330
1F
100
AcDbEntity
  8
PROFILES_OUTSIDE
100
AcDbLine
 10
307.9482800697
 20
660.4139853025
 30
0.0
 11
307.9482800697
 21
735.3793875155
 31
0.0
  0
LINE
  5
214
330
1F
100
AcDbEntity
  8
PROFILES_OUTSIDE
100
AcDbLine
 10
307.9482800697
 20
735.3793875155
 30
0.0
 11
25.9482800697
 21
760.0511906298
 31
0.0
  0
LINE
  5
215
330
1F
100
AcDbEntity
  8
PROFILES_OUTSIDE
100
AcDbLine
 10
25.9482800697
 20
760.0511906298
 30
0.0
 11
25.9482800697
 21
31.5084580795
 31
0.0
  0
LINE
  5
216
330
1F
100
AcDbEntity
  8
PROFILES_OUTSIDE
100
AcDbLine
 10
25.9482800697
 20
31.5084580795
 30
0.0
 11
307.9482800697
 21
56.1802611938
 31
0.0
  0
LINE
  5
217
330
1F
100
AcDbEntity
  8
POCKETS
100
AcDbLine
 10
1018.3882800697
 20
69.1741918121
 30
0.0
 11
1018.3882800697
 21
81.3900298626
 31
0.0
  0
LINE
  5
218
330
1F
100
AcDbEntity
  8
PROFILES_OUTSIDE
100
AcDbLine
 10
307.9482800697
 20
56.1802611938
 30
0.0
 11
307.9482800697
 21
131.1456634067
 31
0.0
  0
LINE
  5
219
330
1F
100
AcDbEntity
  8
PROFILES_OUTSIDE
100
AcDbLine
 10
302.9901691357
 20
137.0545099248
 30
0.0
 11
292.9063910037
 21
138.8325520769
 31
0.0
  0
LINE
  5
21A
330
1F
100
AcDbEntity
  8
PROFILES_OUTSIDE
100
AcDbLine
 10
287.9482800697
 20
144.741398595
 30
0.0
 11
287.9482800697
 21
646.8182501142
 31
0.0
  0
LINE
  5
21B
330
1F
100
AcDbEntity
  8
PROFILES_OUTSIDE
100
AcDbLine
 10
292.9063910037
 20
652.7270966323
 30
0.0
 11
302.9901691357
 21
654.5051387844
 31
0.0
  0
LINE
  5
21C
330
1F
100
AcDbEntity
  8
PROFILES_INSIDE
100
AcDbLine
 10
280.6675256071
 20
713.9678681825
 30
0.0
 11
281.1395116847
 21
719.3626937363
 31
0.0
  0
LINE
  5
21D
330
1F
100
AcDbEntity
  8
PROFILES_INSIDE
100
AcDbLine
 10
265.8992090568
 20
711.7844172601
 30
0.0
 11
269.9274589172
 21
711.4319956529
 31
0.0
  0
LINE
  5
21E
330
1F
100
AcDbEntity
  8
PROFILES_INSIDE
100
AcDbLine
 10
256.234643319
 20
721.5415977465
 30
0.0
 11
255.7626572551
 21
716.1467514683
 31
0.0
  0
LINE
  5
21F
330
1F
100
AcDbEntity
  8
PROFILES_INSIDE
100
AcDbLine
 10
271.0029607827
 20
723.7250382274
 30
0.0
 11
266.9747107711
 21
724.0774581059
 31
0.0
  0
LINE
  5
220
330
1F
100
AcDbEntity
  8
PROFILES_OUTSIDE
100
AcDbLine
 10
814.9082800697
 20
30.0712622726
 30
0.0
 11
814.9082800697
 21
652.0712622726
 31
0.0
  0
LINE
  5
221
330
1F
100
AcDbEntity
  8
PROFILES_OUTSIDE
100
AcDbLine
 10
814.9082800697
 20
652.0712622726
 30
0.0
 11
652.9082800697
 21
652.0712622726
 31
0.0
  0
LINE
  5
222
330
1F
100
AcDbEntity
  8
PROFILES_OUTSIDE
100
AcDbLine
 10
652.9082800697
 20
652.0712622726
 30
0.0
 11
652.9082800697
 21
30.0712622726
 31
0.0
  0
LINE
  5
223
330
1F
100
AcDbEntity
  8
PROFILES_OUTSIDE
100
AcDbLine
 10
652.9082800697
 20
30.0712622726
 30
0.0
 11
814.9082800697
 21
30.0712622726
 31
0.0
  0
LINE
  5
224
330
1F
100
AcDbEntity
  8
PROFILES_OUTSIDE
100
AcDbLine
 10
1008.3882800697
 20
312.0985924975
 30
0.0
 11
846.3882800697
 21
312.0985924975
 31
0.0
  0
LINE
  5
225
330
1F
100
AcDbEntity
  8
PROFILES_OUTSIDE
100
AcDbLine
 10
846.3882800697
 20
312.0985924975
 30
0.0
 11
846.3882800697
 21
30.0712622726
 31
0.0
  0
LINE
  5
226
330
1F
100
AcDbEntity
  8
PROFILES_OUTSIDE
100
AcDbLine
 10
846.3882800697
 20
30.0712622726
 30
0.0
 11
1008.3882800697
 21
30.0712622726
 31
0.0
  0
LINE
  5
227
330
1F
100
AcDbEntity
  8
PROFILES_OUTSIDE
100
AcDbLine
 10
1008.3882800697
 20
30.0712622726
 30
0.0
 11
1008.3882800697
 21
312.0985924975
 31
0.0
  0
LINE
  5
228
330
1F
100
AcDbEntity
  8
PROFILES_OUTSIDE
100
AcDbLine
 10
846.3882800697
 20
625.6059227225
 30
0.0
 11
846.3882800697
 21
343.5785924975
 31
0.0
  0
LINE
  5
229
330
1F
100
AcDbEntity
  8
PROFILES_OUTSIDE
100
AcDbLine
 10
846.3882800697
 20
343.5785924975
 30
0.0
 11
1008.3882800697
 21
343.5785924975
 31
0.0
  0
LINE
  5
22A
330
1F
100
AcDbEntity
  8
BOX_STOCK
100
AcDbLine
 10
0.2082800697
 20
4.3312622726
 30
0.0
 11
2440.2082800697
 21
4.3312622726
 31
0.0
  0
LINE
  5
22B
330
1F
100
AcDbEntity
  8
BOX_STOCK
100
AcDbLine
 10
2440.2082800697
 20
4.3312622726
 30
0.0
 11
2440.2082800697
 21
1224.3312622726
 31
0.0
  0
LINE
  5
22C
330
1F
100
AcDbEntity
  8
BOX_STOCK
100
AcDbLine
 10
2440.2082800697
 20
1224.3312622726
 30
0.0
 11
0.2082800697
 21
1224.3312622726
 31
0.0
  0
LINE
  5
22D
330
1F
100
AcDbEntity
  8
BOX_STOCK
100
AcDbLine
 10
0.2082800697
 20
1224.3312622726
 30
0.0
 11
0.2082800697
 21
4.3312622726
 31
0.0
  0
LINE
  5
22E
330
1F
100
AcDbEntity
  8
POCKETS
100
AcDbLine
 10
1018.3882800697
 20
394.8973600875
 30
0.0
 11
836.3882800697
 21
394.8973600875
 31
0.0
  0
LINE
  5
22F
330
1F
100
AcDbEntity
  8
PROFILES_OUTSIDE
100
AcDbLine
 10
1008.3882800697
 20
343.5785924975
 30
0.0
 11
1008.3882800697
 21
625.6059227225
 31
0.0
  0
LINE
  5
230
330
1F
100
AcDbEntity
  8
POCKETS
100
AcDbLine
 10
836.3882800697
 20
394.8973600875
 30
0.0
 11
836.3882800697
 21
382.681522037
 31
0.0
  0
LINE
  5
231
330
1F
100
AcDbEntity
  8
POCKETS
100
AcDbLine
 10
836.3882800697
 20
382.681522037
 30
0.0
 11
1018.3882800697
 21
382.681522037
 31
0.0
  0
LINE
  5
232
330
1F
100
AcDbEntity
  8
POCKETS
100
AcDbLine
 10
1018.3882800697
 20
382.681522037
 30
0.0
 11
1018.3882800697
 21
394.8973600875
 31
0.0
  0
LINE
  5
233
330
1F
100
AcDbEntity
  8
PROFILES_OUTSIDE
100
AcDbLine
 10
1008.3882800697
 20
625.6059227225
 30
0.0
 11
846.3882800697
 21
625.6059227225
 31
0.0
  0
LINE
  5
234
330
1F
100
AcDbEntity
  8
PROFILES_INSIDE
100
AcDbLine
 10
89.4530005546
 20
730.696971426
 30
0.0
 11
89.9249866323
 21
736.0917969799
 31
0.0
  0
LINE
  5
235
330
1F
100
AcDbEntity
  8
PROFILES_INSIDE
100
AcDbLine
 10
79.7884357303
 20
740.4541414709
 30
0.0
 11
75.7601858149
 21
740.8065624496
 31
0.0
  0
LINE
  5
236
330
1F
100
AcDbEntity
  8
PROFILES_INSIDE
100
AcDbLine
 10
65.0201181094
 20
738.2707010038
 30
0.0
 11
64.5481322027
 21
732.8758547119
 31
0.0
  0
LINE
  5
237
330
1F
100
AcDbEntity
  8
PROFILES_INSIDE
100
AcDbLine
 10
74.6846840044
 20
728.5135205037
 30
0.0
 11
78.7129338648
 21
728.1610988965
 31
0.0
  0
LINE
  5
238
330
1F
100
AcDbEntity
  8
PROFILES_INSIDE
100
AcDbLine
 10
281.1395116847
 20
72.1969549729
 30
0.0
 11
280.6675256071
 21
77.5917805268
 31
0.0
  0
LINE
  5
239
330
1F
100
AcDbEntity
  8
PROFILES_INSIDE
100
AcDbLine
 10
269.9274585187
 20
80.1276576109
 30
0.0
 11
265.899209469
 21
79.7752267374
 31
0.0
  0
LINE
  5
23A
330
1F
100
AcDbEntity
  8
PROFILES_INSIDE
100
AcDbLine
 10
255.7626551278
 20
75.4128970548
 30
0.0
 11
256.2346451321
 21
70.0180511213
 31
0.0
  0
LINE
  5
23B
330
1F
100
AcDbEntity
  8
PROFILES_INSIDE
100
AcDbLine
 10
266.9747113208
 20
67.4821843201
 30
0.0
 11
271.0029603842
 21
67.8346150364
 31
0.0
  0
LINE
  5
23C
330
1F
100
AcDbEntity
  8
PROFILES_INSIDE
100
AcDbLine
 10
64.5481303897
 20
58.6837938387
 30
0.0
 11
65.0201200796
 21
53.2889478778
 31
0.0
  0
LINE
  5
23D
330
1F
100
AcDbEntity
  8
PROFILES_INSIDE
100
AcDbLine
 10
75.7601862683
 20
50.7530810765
 30
0.0
 11
79.7884353318
 21
51.1055117928
 31
0.0
  0
LINE
  5
23E
330
1F
100
AcDbEntity
  8
PROFILES_INSIDE
100
AcDbLine
 10
89.9249866323
 20
55.4678517293
 30
0.0
 11
89.4530005546
 21
60.8626772832
 31
0.0
  0
LINE
  5
23F
330
1F
100
AcDbEntity
  8
PROFILES_INSIDE
100
AcDbLine
 10
78.7129334663
 20
63.3985543673
 30
0.0
 11
74.6846844028
 21
63.046123651
 31
0.0
  0
LINE
  5
240
330
1F
100
AcDbEntity
  8
PROFILES_OUTSIDE
100
AcDbLine
 10
1052.1282800697
 20
265.7681957467
 30
0.0
 11
1040.8682800697
 21
265.7681957467
 31
0.0
  0
LINE
  5
241
330
1F
100
AcDbEntity
  8
PROFILES_OUTSIDE
100
AcDbLine
 10
1052.4683677068
 20
260.4543264174
 30
0.0
 11
1052.1282800697
 21
265.7681957467
 31
0.0
  0
LINE
  5
242
330
1F
100
AcDbEntity
  8
PROFILES_OUTSIDE
100
AcDbLine
 10
1061.4060016863
 20
259.5181957467
 30
0.0
 11
1053.4663259768
 21
259.5181957467
 31
0.0
  0
LINE
  5
243
330
1F
100
AcDbEntity
  8
PROFILES_OUTSIDE
100
AcDbLine
 10
1064.8682800697
 20
272.0201957467
 30
0.0
 11
1064.8682800697
 21
269.9963773864
 31
0.0
  0
LINE
  5
244
330
1F
100
AcDbEntity
  8
PROFILES_OUTSIDE
100
AcDbLine
 10
1107.8682800697
 20
272.0201957467
 30
0.0
 11
1064.8682800697
 21
272.0201957467
 31
0.0
  0
LINE
  5
245
330
1F
100
AcDbEntity
  8
PROFILES_OUTSIDE
100
AcDbLine
 10
1119.8682800697
 20
199.3705512553
 30
0.0
 11
1119.8682800697
 21
260.0201957467
 31
0.0
  0
LINE
  5
246
330
1F
100
AcDbEntity
  8
PROFILES_OUTSIDE
100
AcDbLine
 10
1147.8682800697
 20
187.3705512553
 30
0.0
 11
1131.8682800697
 21
187.3705512553
 31
0.0
  0
LINE
  5
247
330
1F
100
AcDbEntity
  8
PROFILES_OUTSIDE
100
AcDbLine
 10
1159.8682800697
 20
260.0201957467
 30
0.0
 11
1159.8682800697
 21
199.3705512553
 31
0.0
  0
LINE
  5
248
330
1F
100
AcDbEntity
  8
PROFILES_INSIDE
100
AcDbLine
 10
594.1475256071
 20
713.9678681825
 30
0.0
 11
594.6195116847
 21
719.3626937363
 31
0.0
  0
LINE
  5
249
330
1F
100
AcDbEntity
  8
PROFILES_INSIDE
100
AcDbLine
 10
579.3792090568
 20
711.7844172601
 30
0.0
 11
583.4074589172
 21
711.4319956529
 31
0.0
  0
LINE
  5
24A
330
1F
100
AcDbEntity
  8
PROFILES_INSIDE
100
AcDbLine
 10
569.714643319
 20
721.5415977465
 30
0.0
 11
569.2426572551
 21
716.1467514683
 31
0.0
  0
LINE
  5
24B
330
1F
100
AcDbEntity
  8
PROFILES_INSIDE
100
AcDbLine
 10
584.4829607827
 20
723.7250382274
 30
0.0
 11
580.4547107711
 21
724.0774581059
 31
0.0
  0
LINE
  5
24C
330
1F
100
AcDbEntity
  8
PROFILES_INSIDE
100
AcDbLine
 10
403.077050308
 20
730.6843687056
 30
0.0
 11
403.5490363857
 21
736.0791942595
 31
0.0
  0
LINE
  5
24D
330
1F
100
AcDbEntity
  8
PROFILES_INSIDE
100
AcDbLine
 10
393.4124854836
 20
740.4415387505
 30
0.0
 11
389.3842355682
 21
740.7939597292
 31
0.0
  0
LINE
  5
24E
330
1F
100
AcDbEntity
  8
PROFILES_INSIDE
100
AcDbLine
 10
378.6441678628
 20
738.2580982834
 30
0.0
 11
378.1721819561
 21
732.8632519915
 31
0.0
  0
LINE
  5
24F
330
1F
100
AcDbEntity
  8
PROFILES_INSIDE
100
AcDbLine
 10
388.3087337577
 20
728.5009177833
 30
0.0
 11
392.3369836181
 21
728.1484961761
 31
0.0
  0
LINE
  5
250
330
1F
100
AcDbEntity
  8
PROFILES_INSIDE
100
AcDbLine
 10
594.6195116847
 20
72.1969549729
 30
0.0
 11
594.1475256071
 21
77.5917805268
 31
0.0
  0
LINE
  5
251
330
1F
100
AcDbEntity
  8
PROFILES_INSIDE
100
AcDbLine
 10
583.4074585187
 20
80.1276576109
 30
0.0
 11
579.379209469
 21
79.7752267374
 31
0.0
  0
LINE
  5
252
330
1F
100
AcDbEntity
  8
PROFILES_INSIDE
100
AcDbLine
 10
569.2426551278
 20
75.4128970548
 30
0.0
 11
569.7146451321
 21
70.0180511213
 31
0.0
  0
LINE
  5
253
330
1F
100
AcDbEntity
  8
PROFILES_INSIDE
100
AcDbLine
 10
580.4547113208
 20
67.4821843201
 30
0.0
 11
584.4829603842
 21
67.8346150364
 31
0.0
  0
LINE
  5
254
330
1F
100
AcDbEntity
  8
PROFILES_OUTSIDE
100
AcDbLine
 10
1214.8682800697
 20
272.0201957467
 30
0.0
 11
1171.8682800697
 21
272.0201957467
 31
0.0
  0
LINE
  5
255
330
1F
100
AcDbEntity
  8
PROFILES_OUTSIDE
100
AcDbLine
 10
1214.8682800697
 20
269.9963773864
 30
0.0
 11
1214.8682800697
 21
272.0201957467
 31
0.0
  0
LINE
  5
256
330
1F
100
AcDbEntity
  8
PROFILES_OUTSIDE
100
AcDbLine
 10
1226.2702341626
 20
259.5181957467
 30
0.0
 11
1218.3305584531
 21
259.5181957467
 31
0.0
  0
LINE
  5
257
330
1F
100
AcDbEntity
  8
PROFILES_OUTSIDE
100
AcDbLine
 10
1227.6082800697
 20
265.7681957467
 30
0.0
 11
1227.2681924326
 21
260.4543264174
 31
0.0
  0
LINE
  5
258
330
1F
100
AcDbEntity
  8
PROFILES_OUTSIDE
100
AcDbLine
 10
1238.8682800697
 20
265.7681957467
 30
0.0
 11
1227.6082800697
 21
265.7681957467
 31
0.0
  0
LINE
  5
259
330
1F
100
AcDbEntity
  8
PROFILES_INSIDE
100
AcDbLine
 10
378.172180143
 20
58.6963965591
 30
0.0
 11
378.644169833
 21
53.3015505982
 31
0.0
  0
LINE
  5
25A
330
1F
100
AcDbEntity
  8
PROFILES_INSIDE
100
AcDbLine
 10
389.3842360217
 20
50.7656837969
 30
0.0
 11
393.4124850852
 21
51.1181145132
 31
0.0
  0
LINE
  5
25B
330
1F
100
AcDbEntity
  8
PROFILES_INSIDE
100
AcDbLine
 10
403.5490363857
 20
55.4804544497
 30
0.0
 11
403.077050308
 21
60.8752800036
 31
0.0
  0
LINE
  5
25C
330
1F
100
AcDbEntity
  8
PROFILES_INSIDE
100
AcDbLine
 10
392.3369832197
 20
63.4111570877
 30
0.0
 11
388.3087341562
 21
63.0587263714
 31
0.0
  0
LINE
  5
25D
330
1F
100
AcDbEntity
  8
PROFILES_OUTSIDE
100
AcDbLine
 10
339.4282800697
 20
753.5033396234
 30
0.0
 11
339.4282800697
 21
38.0563090859
 31
0.0
  0
LINE
  5
25E
330
1F
100
AcDbEntity
  8
PROFILES_OUTSIDE
100
AcDbLine
 10
615.9512145262
 20
735.8585686599
 30
0.0
 11
345.9512145262
 21
759.4805078119
 31
0.0
  0
LINE
  5
25F
330
1F
100
AcDbEntity
  8
PROFILES_OUTSIDE
100
AcDbLine
 10
621.4282800697
 20
660.4139853025
 30
0.0
 11
621.4282800697
 21
729.8814004714
 31
0.0
  0
LINE
  5
260
330
1F
100
AcDbEntity
  8
PROFILES_OUTSIDE
100
AcDbLine
 10
606.3863910037
 20
652.7270966323
 30
0.0
 11
616.4701691357
 21
654.5051387844
 31
0.0
  0
LINE
  5
261
330
1F
100
AcDbEntity
  8
POCKETS
100
AcDbLine
 10
318.2193002954
 20
96.5691314353
 30
0.0
 11
308.2573533145
 21
95.6975740078
 31
0.0
  0
LINE
  5
262
330
1F
100
AcDbEntity
  8
PROFILES_OUTSIDE
100
AcDbLine
 10
1239.8682800697
 20
253.0181957467
 30
0.0
 11
1239.8682800697
 21
264.7681957467
 31
0.0
  0
LINE
  5
263
330
1F
100
AcDbEntity
  8
PROFILES_OUTSIDE
100
AcDbLine
 10
1181.3932800697
 20
247.0181957467
 30
0.0
 11
1233.8682800697
 21
247.0181957467
 31
0.0
  0
LINE
  5
264
330
1F
100
AcDbEntity
  8
PROFILES_OUTSIDE
100
AcDbLine
 10
1169.3932800697
 20
187.3705512553
 30
0.0
 11
1169.3932800697
 21
235.0181957467
 31
0.0
  0
LINE
  5
265
330
1F
100
AcDbEntity
  8
PROFILES_OUTSIDE
100
AcDbLine
 10
1159.8682800697
 20
131.2186907061
 30
0.0
 11
1159.8682800697
 21
170.8727673132
 31
0.0
  0
LINE
  5
266
330
1F
100
AcDbEntity
  8
PROFILES_OUTSIDE
100
AcDbLine
 10
1169.3932800697
 20
67.0732622726
 30
0.0
 11
1169.3932800697
 21
114.720906764
 31
0.0
  0
LINE
  5
267
330
1F
100
AcDbEntity
  8
PROFILES_OUTSIDE
100
AcDbLine
 10
1233.8682800697
 20
55.0732622726
 30
0.0
 11
1181.3932800697
 21
55.0732622726
 31
0.0
  0
LINE
  5
268
330
1F
100
AcDbEntity
  8
PROFILES_OUTSIDE
100
AcDbLine
 10
1239.8682800697
 20
37.3232622726
 30
0.0
 11
1239.8682800697
 21
49.0732622726
 31
0.0
  0
LINE
  5
269
330
1F
100
AcDbEntity
  8
PROFILES_OUTSIDE
100
AcDbLine
 10
1227.6082800697
 20
36.3232622726
 30
0.0
 11
1238.8682800697
 21
36.3232622726
 31
0.0
  0
LINE
  5
26A
330
1F
100
AcDbEntity
  8
PROFILES_OUTSIDE
100
AcDbLine
 10
1227.2681924326
 20
41.6371316019
 30
0.0
 11
1227.6082800697
 21
36.3232622726
 31
0.0
  0
LINE
  5
26B
330
1F
100
AcDbEntity
  8
PROFILES_OUTSIDE
100
AcDbLine
 10
1218.3305584531
 20
42.5732622726
 30
0.0
 11
1226.2702341626
 21
42.5732622726
 31
0.0
  0
LINE
  5
26C
330
1F
100
AcDbEntity
  8
PROFILES_OUTSIDE
100
AcDbLine
 10
1214.8682800697
 20
30.0712622726
 30
0.0
 11
1214.8682800697
 21
32.0950806329
 31
0.0
  0
LINE
  5
26D
330
1F
100
AcDbEntity
  8
PROFILES_OUTSIDE
100
AcDbLine
 10
1171.8682800697
 20
30.0712622726
 30
0.0
 11
1214.8682800697
 21
30.0712622726
 31
0.0
  0
LINE
  5
26E
330
1F
100
AcDbEntity
  8
PROFILES_OUTSIDE
100
AcDbLine
 10
1159.8682800697
 20
102.720906764
 30
0.0
 11
1159.8682800697
 21
42.0712622726
 31
0.0
  0
LINE
  5
26F
330
1F
100
AcDbEntity
  8
PROFILES_OUTSIDE
100
AcDbLine
 10
1131.8682800697
 20
114.720906764
 30
0.0
 11
1147.8682800697
 21
114.720906764
 31
0.0
  0
LINE
  5
270
330
1F
100
AcDbEntity
  8
PROFILES_OUTSIDE
100
AcDbLine
 10
1119.8682800697
 20
42.0712622726
 30
0.0
 11
1119.8682800697
 21
102.720906764
 31
0.0
  0
LINE
  5
271
330
1F
100
AcDbEntity
  8
PROFILES_OUTSIDE
100
AcDbLine
 10
1064.8682800697
 20
30.0712622726
 30
0.0
 11
1107.8682800697
 21
30.0712622726
 31
0.0
  0
LINE
  5
272
330
1F
100
AcDbEntity
  8
PROFILES_OUTSIDE
100
AcDbLine
 10
601.4282800697
 20
144.741398595
 30
0.0
 11
601.4282800697
 21
646.8182501142
 31
0.0
  0
LINE
  5
273
330
1F
100
AcDbEntity
  8
POCKETS
100
AcDbLine
 10
319.3244351135
 20
83.9373826635
 30
0.0
 11
318.2193002954
 21
96.5691314353
 31
0.0
  0
LINE
  5
274
330
1F
100
AcDbEntity
  8
PROFILES_OUTSIDE
100
AcDbLine
 10
616.4701691357
 20
137.0545099248
 30
0.0
 11
606.3863910037
 21
138.8325520769
 31
0.0
  0
LINE
  5
275
330
1F
100
AcDbEntity
  8
POCKETS
100
AcDbLine
 10
309.3624881326
 20
83.065825236
 30
0.0
 11
319.3244351135
 21
83.9373826635
 31
0.0
  0
LINE
  5
276
330
1F
100
AcDbEntity
  8
POCKETS
100
AcDbLine
 10
25.6392068249
 20
58.2432545432
 30
0.0
 11
309.3624881326
 21
83.065825236
 31
0.0
  0
LINE
  5
277
330
1F
100
AcDbEntity
  8
POCKETS
100
AcDbLine
 10
15.677259844
 20
57.3716971158
 30
0.0
 11
25.6392068249
 21
58.2432545432
 31
0.0
  0
LINE
  5
278
330
1F
100
AcDbEntity
  8
POCKETS
100
AcDbLine
 10
14.5721250259
 20
70.0034458876
 30
0.0
 11
15.677259844
 21
57.3716971158
 31
0.0
  0
LINE
  5
279
330
1F
100
AcDbEntity
  8
POCKETS
100
AcDbLine
 10
24.5340720068
 20
70.8750033151
 30
0.0
 11
14.5721250259
 21
70.0034458876
 31
0.0
  0
LINE
  5
27A
330
1F
100
AcDbEntity
  8
POCKETS
100
AcDbLine
 10
255.6082800697
 20
91.0913769538
 30
0.0
 11
24.5340720068
 21
70.8750033151
 31
0.0
  0
LINE
  5
27B
330
1F
100
AcDbEntity
  8
POCKETS
100
AcDbLine
 10
255.6082800697
 20
700.4682717554
 30
0.0
 11
255.6082800697
 21
91.0913769538
 31
0.0
  0
LINE
  5
27C
330
1F
100
AcDbEntity
  8
POCKETS
100
AcDbLine
 10
24.5340720068
 20
720.6846453942
 30
0.0
 11
255.6082800697
 21
700.4682717554
 31
0.0
  0
LINE
  5
27D
330
1F
100
AcDbEntity
  8
POCKETS
100
AcDbLine
 10
14.5721250259
 20
721.5562028217
 30
0.0
 11
24.5340720068
 21
720.6846453942
 31
0.0
  0
LINE
  5
27E
330
1F
100
AcDbEntity
  8
POCKETS
100
AcDbLine
 10
15.677259844
 20
734.1879515935
 30
0.0
 11
14.5721250259
 21
721.5562028217
 31
0.0
  0
LINE
  5
27F
330
1F
100
AcDbEntity
  8
POCKETS
100
AcDbLine
 10
25.6392068249
 20
733.316394166
 30
0.0
 11
15.677259844
 21
734.1879515935
 31
0.0
  0
LINE
  5
280
330
1F
100
AcDbEntity
  8
POCKETS
100
AcDbLine
 10
309.3624881326
 20
708.4938234732
 30
0.0
 11
25.6392068249
 21
733.316394166
 31
0.0
  0
LINE
  5
281
330
1F
100
AcDbEntity
  8
POCKETS
100
AcDbLine
 10
319.3244351135
 20
707.6222660457
 30
0.0
 11
309.3624881326
 21
708.4938234732
 31
0.0
  0
LINE
  5
282
330
1F
100
AcDbEntity
  8
POCKETS
100
AcDbLine
 10
318.2193002954
 20
694.9905172739
 30
0.0
 11
319.3244351135
 21
707.6222660457
 31
0.0
  0
LINE
  5
283
330
1F
100
AcDbEntity
  8
POCKETS
100
AcDbLine
 10
308.2573533145
 20
695.8620747014
 30
0.0
 11
318.2193002954
 21
694.9905172739
 31
0.0
  0
LINE
  5
284
330
1F
100
AcDbEntity
  8
POCKETS
100
AcDbLine
 10
267.9482800697
 20
699.3886616475
 30
0.0
 11
308.2573533145
 21
695.8620747014
 31
0.0
  0
LINE
  5
285
330
1F
100
AcDbEntity
  8
PROFILES_OUTSIDE
100
AcDbLine
 10
1064.8682800697
 20
32.0950806329
 30
0.0
 11
1064.8682800697
 21
30.0712622726
 31
0.0
  0
LINE
  5
286
330
1F
100
AcDbEntity
  8
PROFILES_OUTSIDE
100
AcDbLine
 10
1053.4663259768
 20
42.5732622726
 30
0.0
 11
1061.4060016863
 21
42.5732622726
 31
0.0
  0
LINE
  5
287
330
1F
100
AcDbEntity
  8
PROFILES_OUTSIDE
100
AcDbLine
 10
1052.1282800697
 20
36.3232622726
 30
0.0
 11
1052.4683677068
 21
41.6371316019
 31
0.0
  0
LINE
  5
288
330
1F
100
AcDbEntity
  8
PROFILES_OUTSIDE
100
AcDbLine
 10
1040.8682800697
 20
36.3232622726
 30
0.0
 11
1052.1282800697
 21
36.3232622726
 31
0.0
  0
LINE
  5
289
330
1F
100
AcDbEntity
  8
PROFILES_OUTSIDE
100
AcDbLine
 10
1039.8682800697
 20
49.0732622726
 30
0.0
 11
1039.8682800697
 21
37.3232622726
 31
0.0
  0
LINE
  5
28A
330
1F
100
AcDbEntity
  8
PROFILES_OUTSIDE
100
AcDbLine
 10
1098.3432800697
 20
55.0732622726
 30
0.0
 11
1045.8682800697
 21
55.0732622726
 31
0.0
  0
LINE
  5
28B
330
1F
100
AcDbEntity
  8
PROFILES_OUTSIDE
100
AcDbLine
 10
1110.3432800697
 20
114.720906764
 30
0.0
 11
1110.3432800697
 21
67.0732622726
 31
0.0
  0
LINE
  5
28C
330
1F
100
AcDbEntity
  8
PROFILES_OUTSIDE
100
AcDbLine
 10
1119.8682800697
 20
170.8727673132
 30
0.0
 11
1119.8682800697
 21
131.2186907061
 31
0.0
  0
LINE
  5
28D
330
1F
100
AcDbEntity
  8
PROFILES_OUTSIDE
100
AcDbLine
 10
1110.3432800697
 20
235.0181957467
 30
0.0
 11
1110.3432800697
 21
187.3705512553
 31
0.0
  0
LINE
  5
28E
330
1F
100
AcDbEntity
  8
PROFILES_OUTSIDE
100
AcDbLine
 10
1045.8682800697
 20
247.0181957467
 30
0.0
 11
1098.3432800697
 21
247.0181957467
 31
0.0
  0
LINE
  5
28F
330
1F
100
AcDbEntity
  8
PROFILES_OUTSIDE
100
AcDbLine
 10
1039.8682800697
 20
264.7681957467
 30
0.0
 11
1039.8682800697
 21
253.0181957467
 31
0.0
  0
LINE
  5
290
330
1F
100
AcDbEntity
  8
POCKETS
100
AcDbLine
 10
267.9482800697
 20
92.1709870617
 30
0.0
 11
267.9482800697
 21
699.3886616475
 31
0.0
  0
LINE
  5
291
330
1F
100
AcDbEntity
  8
PROFILES_OUTSIDE
100
AcDbLine
 10
1227.6082800697
 20
309.7481957467
 30
0.0
 11
1238.8682800697
 21
309.7481957467
 31
0.0
  0
LINE
  5
292
330
1F
100
AcDbEntity
  8
PROFILES_OUTSIDE
100
AcDbLine
 10
1227.2681924326
 20
315.062065076
 30
0.0
 11
1227.6082800697
 21
309.7481957467
 31
0.0
  0
LINE
  5
293
330
1F
100
AcDbEntity
  8
PROFILES_OUTSIDE
100
AcDbLine
 10
1218.3305584531
 20
315.9981957467
 30
0.0
 11
1226.2702341626
 21
315.9981957467
 31
0.0
  0
LINE
  5
294
330
1F
100
AcDbEntity
  8
PROFILES_OUTSIDE
100
AcDbLine
 10
1214.8682800697
 20
303.4961957467
 30
0.0
 11
1214.8682800697
 21
305.5200141069
 31
0.0
  0
LINE
  5
295
330
1F
100
AcDbEntity
  8
PROFILES_OUTSIDE
100
AcDbLine
 10
1171.8682800697
 20
303.4961957467
 30
0.0
 11
1214.8682800697
 21
303.4961957467
 31
0.0
  0
LINE
  5
296
330
1F
100
AcDbEntity
  8
PROFILES_OUTSIDE
100
AcDbLine
 10
1159.8682800697
 20
376.145840238
 30
0.0
 11
1159.8682800697
 21
315.4961957467
 31
0.0
  0
LINE
  5
297
330
1F
100
AcDbEntity
  8
PROFILES_OUTSIDE
100
AcDbLine
 10
1131.8682800697
 20
388.145840238
 30
0.0
 11
1147.8682800697
 21
388.145840238
 31
0.0
  0
LINE
  5
298
330
1F
100
AcDbEntity
  8
PROFILES_OUTSIDE
100
AcDbLine
 10
1119.8682800697
 20
315.4961957467
 30
0.0
 11
1119.8682800697
 21
376.145840238
 31
0.0
  0
LINE
  5
299
330
1F
100
AcDbEntity
  8
PROFILES_OUTSIDE
100
AcDbLine
 10
1064.8682800697
 20
303.4961957467
 30
0.0
 11
1107.8682800697
 21
303.4961957467
 31
0.0
  0
LINE
  5
29A
330
1F
100
AcDbEntity
  8
PROFILES_OUTSIDE
100
AcDbLine
 10
1064.8682800697
 20
305.5200141069
 30
0.0
 11
1064.8682800697
 21
303.4961957467
 31
0.0
  0
LINE
  5
29B
330
1F
100
AcDbEntity
  8
PROFILES_OUTSIDE
100
AcDbLine
 10
1053.4663259768
 20
315.9981957467
 30
0.0
 11
1061.4060016863
 21
315.9981957467
 31
0.0
  0
LINE
  5
29C
330
1F
100
AcDbEntity
  8
PROFILES_OUTSIDE
100
AcDbLine
 10
1052.1282800697
 20
309.7481957467
 30
0.0
 11
1052.4683677068
 21
315.062065076
 31
0.0
  0
LINE
  5
29D
330
1F
100
AcDbEntity
  8
PROFILES_OUTSIDE
100
AcDbLine
 10
1040.8682800697
 20
309.7481957467
 30
0.0
 11
1052.1282800697
 21
309.7481957467
 31
0.0
  0
LINE
  5
29E
330
1F
100
AcDbEntity
  8
PROFILES_OUTSIDE
100
AcDbLine
 10
1039.8682800697
 20
322.4981957467
 30
0.0
 11
1039.8682800697
 21
310.7481957467
 31
0.0
  0
LINE
  5
29F
330
1F
100
AcDbEntity
  8
PROFILES_OUTSIDE
100
AcDbLine
 10
1098.3432800697
 20
328.4981957467
 30
0.0
 11
1045.8682800697
 21
328.4981957467
 31
0.0
  0
LINE
  5
2A0
330
1F
100
AcDbEntity
  8
PROFILES_OUTSIDE
100
AcDbLine
 10
1110.3432800697
 20
388.145840238
 30
0.0
 11
1110.3432800697
 21
340.4981957467
 31
0.0
  0
LINE
  5
2A1
330
1F
100
AcDbEntity
  8
PROFILES_OUTSIDE
100
AcDbLine
 10
1119.8682800697
 20
444.2977007873
 30
0.0
 11
1119.8682800697
 21
404.6436241801
 31
0.0
  0
LINE
  5
2A2
330
1F
100
AcDbEntity
  8
PROFILES_OUTSIDE
100
AcDbLine
 10
1110.3432800697
 20
508.4431292207
 30
0.0
 11
1110.3432800697
 21
460.7954847294
 31
0.0
  0
LINE
  5
2A3
330
1F
100
AcDbEntity
  8
PROFILES_OUTSIDE
100
AcDbLine
 10
1045.8682800697
 20
520.4431292207
 30
0.0
 11
1098.3432800697
 21
520.4431292207
 31
0.0
  0
LINE
  5
2A4
330
1F
100
AcDbEntity
  8
PROFILES_OUTSIDE
100
AcDbLine
 10
1039.8682800697
 20
538.1931292207
 30
0.0
 11
1039.8682800697
 21
526.4431292207
 31
0.0
  0
LINE
  5
2A5
330
1F
100
AcDbEntity
  8
PROFILES_OUTSIDE
100
AcDbLine
 10
1052.1282800697
 20
539.1931292207
 30
0.0
 11
1040.8682800697
 21
539.1931292207
 31
0.0
  0
LINE
  5
2A6
330
1F
100
AcDbEntity
  8
PROFILES_OUTSIDE
100
AcDbLine
 10
1052.4683677068
 20
533.8792598914
 30
0.0
 11
1052.1282800697
 21
539.1931292207
 31
0.0
  0
LINE
  5
2A7
330
1F
100
AcDbEntity
  8
PROFILES_OUTSIDE
100
AcDbLine
 10
1061.4060016863
 20
532.9431292207
 30
0.0
 11
1053.4663259768
 21
532.9431292207
 31
0.0
  0
LINE
  5
2A8
330
1F
100
AcDbEntity
  8
PROFILES_OUTSIDE
100
AcDbLine
 10
1064.8682800697
 20
545.4451292207
 30
0.0
 11
1064.8682800697
 21
543.4213108605
 31
0.0
  0
LINE
  5
2A9
330
1F
100
AcDbEntity
  8
PROFILES_OUTSIDE
100
AcDbLine
 10
1107.8682800697
 20
545.4451292207
 30
0.0
 11
1064.8682800697
 21
545.4451292207
 31
0.0
  0
LINE
  5
2AA
330
1F
100
AcDbEntity
  8
PROFILES_OUTSIDE
100
AcDbLine
 10
1119.8682800697
 20
472.7954847294
 30
0.0
 11
1119.8682800697
 21
533.4451292207
 31
0.0
  0
LINE
  5
2AB
330
1F
100
AcDbEntity
  8
PROFILES_OUTSIDE
100
AcDbLine
 10
1147.8682800697
 20
460.7954847294
 30
0.0
 11
1131.8682800697
 21
460.7954847294
 31
0.0
  0
LINE
  5
2AC
330
1F
100
AcDbEntity
  8
PROFILES_OUTSIDE
100
AcDbLine
 10
1159.8682800697
 20
533.4451292207
 30
0.0
 11
1159.8682800697
 21
472.7954847294
 31
0.0
  0
LINE
  5
2AD
330
1F
100
AcDbEntity
  8
PROFILES_OUTSIDE
100
AcDbLine
 10
1214.8682800697
 20
545.4451292207
 30
0.0
 11
1171.8682800697
 21
545.4451292207
 31
0.0
  0
LINE
  5
2AE
330
1F
100
AcDbEntity
  8
PROFILES_OUTSIDE
100
AcDbLine
 10
1214.8682800697
 20
543.4213108605
 30
0.0
 11
1214.8682800697
 21
545.4451292207
 31
0.0
  0
LINE
  5
2AF
330
1F
100
AcDbEntity
  8
PROFILES_OUTSIDE
100
AcDbLine
 10
1226.2702341626
 20
532.9431292207
 30
0.0
 11
1218.3305584531
 21
532.9431292207
 31
0.0
  0
LINE
  5
2B0
330
1F
100
AcDbEntity
  8
PROFILES_OUTSIDE
100
AcDbLine
 10
1227.6082800697
 20
539.1931292207
 30
0.0
 11
1227.2681924326
 21
533.8792598914
 31
0.0
  0
LINE
  5
2B1
330
1F
100
AcDbEntity
  8
PROFILES_OUTSIDE
100
AcDbLine
 10
1238.8682800697
 20
539.1931292207
 30
0.0
 11
1227.6082800697
 21
539.1931292207
 31
0.0
  0
LINE
  5
2B2
330
1F
100
AcDbEntity
  8
PROFILES_OUTSIDE
100
AcDbLine
 10
1239.8682800697
 20
526.4431292207
 30
0.0
 11
1239.8682800697
 21
538.1931292207
 31
0.0
  0
LINE
  5
2B3
330
1F
100
AcDbEntity
  8
PROFILES_OUTSIDE
100
AcDbLine
 10
1181.3932800697
 20
520.4431292207
 30
0.0
 11
1233.8682800697
 21
520.4431292207
 31
0.0
  0
LINE
  5
2B4
330
1F
100
AcDbEntity
  8
PROFILES_OUTSIDE
100
AcDbLine
 10
1169.3932800697
 20
460.7954847294
 30
0.0
 11
1169.3932800697
 21
508.4431292207
 31
0.0
  0
LINE
  5
2B5
330
1F
100
AcDbEntity
  8
PROFILES_OUTSIDE
100
AcDbLine
 10
1159.8682800697
 20
404.6436241801
 30
0.0
 11
1159.8682800697
 21
444.2977007873
 31
0.0
  0
LINE
  5
2B6
330
1F
100
AcDbEntity
  8
PROFILES_OUTSIDE
100
AcDbLine
 10
1169.3932800697
 20
340.4981957467
 30
0.0
 11
1169.3932800697
 21
388.145840238
 31
0.0
  0
LINE
  5
2B7
330
1F
100
AcDbEntity
  8
PROFILES_OUTSIDE
100
AcDbLine
 10
1233.8682800697
 20
328.4981957467
 30
0.0
 11
1181.3932800697
 21
328.4981957467
 31
0.0
  0
LINE
  5
2B8
330
1F
100
AcDbEntity
  8
PROFILES_OUTSIDE
100
AcDbLine
 10
1239.8682800697
 20
310.7481957467
 30
0.0
 11
1239.8682800697
 21
322.4981957467
 31
0.0
  0
LINE
  5
2B9
330
1F
100
AcDbEntity
  8
POCKETS
100
AcDbLine
 10
308.2573533145
 20
95.6975740078
 30
0.0
 11
267.9482800697
 21
92.1709870617
 31
0.0
  0
LINE
  5
2BA
330
1F
100
AcDbEntity
  8
POCKETS
100
AcDbLine
 10
581.4282800697
 20
699.3886616475
 30
0.0
 11
621.7373533145
 21
695.8620747014
 31
0.0
  0
LINE
  5
2BB
330
1F
100
AcDbEntity
  8
POCKETS
100
AcDbLine
 10
621.7373533145
 20
695.8620747014
 30
0.0
 11
631.6993002954
 21
694.9905172739
 31
0.0
  0
LINE
  5
2BC
330
1F
100
AcDbEntity
  8
POCKETS
100
AcDbLine
 10
631.6993002954
 20
694.9905172739
 30
0.0
 11
632.8044351135
 21
707.6222660457
 31
0.0
  0
LINE
  5
2BD
330
1F
100
AcDbEntity
  8
POCKETS
100
AcDbLine
 10
632.8044351135
 20
707.6222660457
 30
0.0
 11
622.8424881326
 21
708.4938234732
 31
0.0
  0
LINE
  5
2BE
330
1F
100
AcDbEntity
  8
POCKETS
100
AcDbLine
 10
622.8424881326
 20
708.4938234732
 30
0.0
 11
340.1650757379
 21
733.2248924926
 31
0.0
  0
LINE
  5
2BF
330
1F
100
AcDbEntity
  8
POCKETS
100
AcDbLine
 10
340.1650757379
 20
733.2248924926
 30
0.0
 11
330.2031287569
 21
734.09644992
 31
0.0
  0
LINE
  5
2C0
330
1F
100
AcDbEntity
  8
POCKETS
100
AcDbLine
 10
330.2031287569
 20
734.09644992
 30
0.0
 11
329.0979939389
 21
721.4647011482
 31
0.0
  0
LINE
  5
2C1
330
1F
100
AcDbEntity
  8
POCKETS
100
AcDbLine
 10
329.0979939389
 20
721.4647011482
 30
0.0
 11
339.0599409198
 21
720.5931437208
 31
0.0
  0
LINE
  5
2C2
330
1F
100
AcDbEntity
  8
POCKETS
100
AcDbLine
 10
339.0599409198
 20
720.5931437208
 30
0.0
 11
569.0882800697
 21
700.4682717554
 31
0.0
  0
LINE
  5
2C3
330
1F
100
AcDbEntity
  8
POCKETS
100
AcDbLine
 10
569.0882800697
 20
700.4682717554
 30
0.0
 11
569.0882800697
 21
91.0913769538
 31
0.0
  0
LINE
  5
2C4
330
1F
100
AcDbEntity
  8
POCKETS
100
AcDbLine
 10
569.0882800697
 20
91.0913769538
 30
0.0
 11
339.0599409198
 21
70.9665049885
 31
0.0
  0
LINE
  5
2C5
330
1F
100
AcDbEntity
  8
POCKETS
100
AcDbLine
 10
339.0599409198
 20
70.9665049885
 30
0.0
 11
329.0979939389
 21
70.094947561
 31
0.0
  0
LINE
  5
2C6
330
1F
100
AcDbEntity
  8
POCKETS
100
AcDbLine
 10
329.0979939389
 20
70.094947561
 30
0.0
 11
330.2031287569
 21
57.4631987892
 31
0.0
  0
LINE
  5
2C7
330
1F
100
AcDbEntity
  8
POCKETS
100
AcDbLine
 10
330.2031287569
 20
57.4631987892
 30
0.0
 11
340.1650757379
 21
58.3347562167
 31
0.0
  0
LINE
  5
2C8
330
1F
100
AcDbEntity
  8
POCKETS
100
AcDbLine
 10
340.1650757379
 20
58.3347562167
 30
0.0
 11
622.8424881326
 21
83.065825236
 31
0.0
  0
LINE
  5
2C9
330
1F
100
AcDbEntity
  8
POCKETS
100
AcDbLine
 10
622.8424881326
 20
83.065825236
 30
0.0
 11
632.8044351135
 21
83.9373826635
 31
0.0
  0
LINE
  5
2CA
330
1F
100
AcDbEntity
  8
POCKETS
100
AcDbLine
 10
632.8044351135
 20
83.9373826635
 30
0.0
 11
631.6993002954
 21
96.5691314353
 31
0.0
  0
LINE
  5
2CB
330
1F
100
AcDbEntity
  8
POCKETS
100
AcDbLine
 10
631.6993002954
 20
96.5691314353
 30
0.0
 11
621.7373533145
 21
95.6975740078
 31
0.0
  0
LINE
  5
2CC
330
1F
100
AcDbEntity
  8
POCKETS
100
AcDbLine
 10
621.7373533145
 20
95.6975740078
 30
0.0
 11
581.4282800697
 21
92.1709870617
 31
0.0
  0
LINE
  5
2CD
330
1F
100
AcDbEntity
  8
POCKETS
100
AcDbLine
 10
581.4282800697
 20
92.1709870617
 30
0.0
 11
581.4282800697
 21
699.3886616475
 31
0.0
  0
LINE
  5
2CE
330
1F
100
AcDbEntity
  8
PROFILES_OUTSIDE
100
AcDbLine
 10
621.4282800697
 20
61.6782482379
 30
0.0
 11
621.4282800697
 21
131.1456634067
 31
0.0
  0
LINE
  5
2CF
330
1F
100
AcDbEntity
  8
PROFILES_OUTSIDE
100
AcDbLine
 10
345.9512145262
 20
32.0791408973
 30
0.0
 11
615.9512145262
 21
55.7010800493
 31
0.0
  0
ARC
  5
2D0
330
1F
100
AcDbEntity
  8
PROFILES_OUTSIDE
100
AcDbCircle
 10
301.9482800697
 20
131.1456634067
 30
0.0
 40
6.0
100
AcDbArc
 50
0.0
 51
80.0
  0
ARC
  5
2D1
330
1F
100
AcDbEntity
  8
PROFILES_OUTSIDE
100
AcDbCircle
 10
293.9482800697
 20
144.741398595
 30
0.0
 40
5.999999999999904
100
AcDbArc
 50
180.0
 51
260.0
  0
ARC
  5
2D2
330
1F
100
AcDbEntity
  8
PROFILES_OUTSIDE
100
AcDbCircle
 10
293.9482800697
 20
646.8182501142
 30
0.0
 40
6.0000000000001
100
AcDbArc
 50
100.0
 51
180.0
  0
ARC
  5
2D3
330
1F
100
AcDbEntity
  8
PROFILES_OUTSIDE
100
AcDbCircle
 10
301.9482800697
 20
660.4139853025
 30
0.0
 40
6.0
100
AcDbArc
 50
280.0
 51
0.0
  0
ARC
  5
2D4
330
1F
100
AcDbEntity
  8
PROFILES_INSIDE
100
AcDbCircle
 10
301.9482800697
 20
475.381787275
 30
0.0
 40
6.000000000000034
100
AcDbArc
 50
280.0
 51
0.0
  0
ARC
  5
2D5
330
1F
100
AcDbEntity
  8
PROFILES_OUTSIDE
100
AcDbCircle
 10
1238.8682800697
 20
264.7681957467
 30
0.0
 40
1.0
100
AcDbArc
 50
0.0
 51
90.0
  0
ARC
  5
2D6
330
1F
100
AcDbEntity
  8
PROFILES_INSIDE
100
AcDbCircle
 10
271.0901153991
 20
724.721233024
 30
0.0
 40
0.9999999999999075
100
AcDbArc
 50
265.0000647817
 51
337.3995467073
  0
ARC
  5
2D7
330
1F
100
AcDbEntity
  8
PROFILES_INSIDE
100
AcDbCircle
 10
276.7863036797
 20
722.350085818
 30
0.0
 40
5.170000000000066
100
AcDbArc
 50
330.1122190803
 51
157.3995467073
  0
ARC
  5
2D8
330
1F
100
AcDbEntity
  8
PROFILES_INSIDE
100
AcDbCircle
 10
282.1357529816
 20
719.2755339167
 30
0.0
 40
1.000046776821427
100
AcDbArc
 50
150.1122190803
 51
175.0
  0
ARC
  5
2D9
330
1F
100
AcDbEntity
  8
PROFILES_INSIDE
100
AcDbCircle
 10
281.6637203052
 20
713.8807124397
 30
0.0
 40
1.00000000000002
100
AcDbArc
 50
175.0
 51
199.8879072801
  0
ARC
  5
2DA
330
1F
100
AcDbEntity
  8
PROFILES_INSIDE
100
AcDbCircle
 10
275.8616994395
 20
711.7817951298
 30
0.0
 40
5.170000000000061
100
AcDbArc
 50
192.600480279
 51
19.8879072801
  0
ARC
  5
2DB
330
1F
100
AcDbEntity
  8
PROFILES_INSIDE
100
AcDbCircle
 10
269.8403043008
 20
710.4358008563
 30
0.0
 40
1.000000000000078
100
AcDbArc
 50
12.600480279
 51
85.0000647817
  0
ARC
  5
2DC
330
1F
100
AcDbEntity
  8
PROFILES_INSIDE
100
AcDbCircle
 10
265.8120544404
 20
710.7882224635
 30
0.0
 40
1.000000000000078
100
AcDbArc
 50
85.0000647817
 51
157.3995467073
  0
ARC
  5
2DD
330
1F
100
AcDbEntity
  8
PROFILES_INSIDE
100
AcDbCircle
 10
260.1158661598
 20
713.1593696695
 30
0.0
 40
5.170000000000067
100
AcDbArc
 50
150.1121232273
 51
337.3995467073
  0
ARC
  5
2DE
330
1F
100
AcDbEntity
  8
PROFILES_INSIDE
100
AcDbCircle
 10
254.766462557
 20
716.233907211
 30
0.0
 40
1.00000000000001
100
AcDbArc
 50
330.1121232273
 51
355.0
  0
ARC
  5
2DF
330
1F
100
AcDbEntity
  8
PROFILES_INSIDE
100
AcDbCircle
 10
255.238450434
 20
721.6287533306
 30
0.0
 40
0.999998180021776
100
AcDbArc
 50
355.0
 51
19.8878203283
  0
ARC
  5
2E0
330
1F
100
AcDbEntity
  8
PROFILES_INSIDE
100
AcDbCircle
 10
261.0404704
 20
723.7276603577
 30
0.0
 40
5.169998264729142
100
AcDbArc
 50
12.600480279
 51
199.8878203283
  0
ARC
  5
2E1
330
1F
100
AcDbEntity
  8
PROFILES_INSIDE
100
AcDbCircle
 10
267.0618655387
 20
725.0736546312
 30
0.0
 40
1.000001735270844
100
AcDbArc
 50
192.600480279
 51
265.0000647817
  0
ARC
  5
2E2
330
1F
100
AcDbEntity
  8
PROFILES_INSIDE
100
AcDbCircle
 10
90.9212279292
 20
736.0046371603
 30
0.0
 40
1.000046776821378
100
AcDbArc
 50
150.1122190803
 51
175.0
  0
ARC
  5
2E3
330
1F
100
AcDbEntity
  8
PROFILES_INSIDE
100
AcDbCircle
 10
85.5717786272
 20
739.0791890616
 30
0.0
 40
5.170000000000034
100
AcDbArc
 50
330.1122190803
 51
157.3995467073
  0
ARC
  5
2E4
330
1F
100
AcDbEntity
  8
PROFILES_INSIDE
100
AcDbCircle
 10
79.8755903467
 20
741.4503362676
 30
0.0
 40
1.000000000000081
100
AcDbArc
 50
265.0000647817
 51
337.3995467073
  0
ARC
  5
2E5
330
1F
100
AcDbEntity
  8
PROFILES_INSIDE
100
AcDbCircle
 10
75.8473404863
 20
741.8027578748
 30
0.0
 40
1.00000094651142
100
AcDbArc
 50
192.600480279
 51
265.0000647817
  0
ARC
  5
2E6
330
1F
100
AcDbEntity
  8
PROFILES_INSIDE
100
AcDbCircle
 10
69.8259453476
 20
740.4567636013
 30
0.0
 40
5.169999053488548
100
AcDbArc
 50
12.600480279
 51
199.8878203283
  0
ARC
  5
2E7
330
1F
100
AcDbEntity
  8
PROFILES_INSIDE
100
AcDbCircle
 10
64.0239253816
 20
738.3578565742
 30
0.0
 40
0.9999980222699288
100
AcDbArc
 50
355.0
 51
19.8878203283
  0
ARC
  5
2E8
330
1F
100
AcDbEntity
  8
PROFILES_INSIDE
100
AcDbCircle
 10
63.5519375046
 20
732.9630104546
 30
0.0
 40
1.00000000000001
100
AcDbArc
 50
330.1121232273
 51
355.0
  0
ARC
  5
2E9
330
1F
100
AcDbEntity
  8
PROFILES_INSIDE
100
AcDbCircle
 10
68.9013411074
 20
729.8884729131
 30
0.0
 40
5.17000000000008
100
AcDbArc
 50
150.1121232273
 51
337.3995467073
  0
ARC
  5
2EA
330
1F
100
AcDbEntity
  8
PROFILES_INSIDE
100
AcDbCircle
 10
74.597529388
 20
727.5173257071
 30
0.0
 40
1.000000000000082
100
AcDbArc
 50
85.0000647817
 51
157.3995467073
  0
ARC
  5
2EB
330
1F
100
AcDbEntity
  8
PROFILES_INSIDE
100
AcDbCircle
 10
78.6257792484
 20
727.1649040998
 30
0.0
 40
1.000000000000089
100
AcDbArc
 50
12.600480279
 51
85.0000647817
  0
ARC
  5
2EC
330
1F
100
AcDbEntity
  8
PROFILES_INSIDE
100
AcDbCircle
 10
84.647174387
 20
728.5108983734
 30
0.0
 40
5.169999999999989
100
AcDbArc
 50
192.600480279
 51
19.8879072801
  0
ARC
  5
2ED
330
1F
100
AcDbEntity
  8
PROFILES_INSIDE
100
AcDbCircle
 10
90.4491952527
 20
730.6098156833
 30
0.0
 40
1.000000000000058
100
AcDbArc
 50
175.0
 51
199.8879072801
  0
ARC
  5
2EE
330
1F
100
AcDbEntity
  8
PROFILES_INSIDE
100
AcDbCircle
 10
276.7863044171
 20
69.2095703258
 30
0.0
 40
5.170000000000075
100
AcDbArc
 50
202.600480279
 51
29.8879072801
  0
ARC
  5
2EF
330
1F
100
AcDbEntity
  8
PROFILES_INSIDE
100
AcDbCircle
 10
282.1357063828
 20
72.2841107157
 30
0.0
 40
1.000000000000009
100
AcDbArc
 50
185.0
 51
209.8879072801
  0
ARC
  5
2F0
330
1F
100
AcDbEntity
  8
PROFILES_INSIDE
100
AcDbCircle
 10
281.663766904
 20
77.6789403464
 30
0.0
 40
1.000046776821423
100
AcDbArc
 50
160.1122190803
 51
185.0
  0
ARC
  5
2F1
330
1F
100
AcDbEntity
  8
PROFILES_INSIDE
100
AcDbCircle
 10
275.8616974222
 20
79.777860773
 30
0.0
 40
5.170000000000108
100
AcDbArc
 50
340.1122190803
 51
167.3995467073
  0
ARC
  5
2F2
330
1F
100
AcDbEntity
  8
PROFILES_INSIDE
100
AcDbCircle
 10
269.8403016496
 20
81.1238522104
 30
0.0
 40
0.9999999999999971
100
AcDbArc
 50
275.0000647817
 51
347.3995467073
  0
ARC
  5
2F3
330
1F
100
AcDbEntity
  8
PROFILES_INSIDE
100
AcDbCircle
 10
265.8120525862
 20
80.7714214941
 30
0.0
 40
1.000000788759434
100
AcDbArc
 50
202.600480279
 51
275.0000647817
  0
ARC
  5
2F4
330
1F
100
AcDbEntity
  8
PROFILES_INSIDE
100
AcDbCircle
 10
260.1158654224
 20
78.4002716052
 30
0.0
 40
5.169999211240546
100
AcDbArc
 50
22.600480279
 51
209.8878203283
  0
ARC
  5
2F5
330
1F
100
AcDbEntity
  8
PROFILES_INSIDE
100
AcDbCircle
 10
254.766462557
 20
75.3257414982
 30
0.0
 40
0.9999978645179953
100
AcDbArc
 50
5.0
 51
29.8878203283
  0
ARC
  5
2F6
330
1F
100
AcDbEntity
  8
PROFILES_INSIDE
100
AcDbCircle
 10
255.238450434
 20
69.9308953786
 30
0.0
 40
0.9999999999999496
100
AcDbArc
 50
340.1121232273
 51
5.0
  0
ARC
  5
2F7
330
1F
100
AcDbEntity
  8
PROFILES_INSIDE
100
AcDbCircle
 10
261.0404724173
 20
67.831981158
 30
0.0
 40
5.170000000000035
100
AcDbArc
 50
160.1121232273
 51
347.3995467073
  0
ARC
  5
2F8
330
1F
100
AcDbEntity
  8
PROFILES_INSIDE
100
AcDbCircle
 10
267.0618681899
 20
66.4859897205
 30
0.0
 40
1.000000000000044
100
AcDbArc
 50
95.0000647817
 51
167.3995467073
  0
ARC
  5
2F9
330
1F
100
AcDbEntity
  8
PROFILES_INSIDE
100
AcDbCircle
 10
271.0901172533
 20
66.8384204369
 30
0.0
 40
1.000000000000009
100
AcDbArc
 50
22.600480279
 51
95.0000647817
  0
ARC
  5
2FA
330
1F
100
AcDbEntity
  8
PROFILES_INSIDE
100
AcDbCircle
 10
64.0239253816
 20
53.201792135
 30
0.0
 40
0.9999999999999339
100
AcDbArc
 50
340.1121232273
 51
5.0
  0
ARC
  5
2FB
330
1F
100
AcDbEntity
  8
PROFILES_INSIDE
100
AcDbCircle
 10
69.8259473648
 20
51.1028779144
 30
0.0
 40
5.170000000000011
100
AcDbArc
 50
160.1121232273
 51
347.3995467073
  0
ARC
  5
2FC
330
1F
100
AcDbEntity
  8
PROFILES_INSIDE
100
AcDbCircle
 10
75.8473431374
 20
49.756886477
 30
0.0
 40
1.000000000000037
100
AcDbArc
 50
95.0000647817
 51
167.3995467073
  0
ARC
  5
2FD
330
1F
100
AcDbEntity
  8
PROFILES_INSIDE
100
AcDbCircle
 10
79.8755922009
 20
50.1093171933
 30
0.0
 40
0.9999999999999408
100
AcDbArc
 50
22.600480279
 51
95.0000647817
  0
ARC
  5
2FE
330
1F
100
AcDbEntity
  8
PROFILES_INSIDE
100
AcDbCircle
 10
85.5717793647
 20
52.4804670822
 30
0.0
 40
5.170000000000144
100
AcDbArc
 50
202.600480279
 51
29.8879072801
  0
ARC
  5
2FF
330
1F
100
AcDbEntity
  8
PROFILES_INSIDE
100
AcDbCircle
 10
90.9211813304
 20
55.5550074721
 30
0.0
 40
0.9999999999998962
100
AcDbArc
 50
185.0
 51
209.8879072801
  0
ARC
  5
300
330
1F
100
AcDbEntity
  8
PROFILES_INSIDE
100
AcDbCircle
 10
90.4492418516
 20
60.9498371028
 30
0.0
 40
1.000046776821407
100
AcDbArc
 50
160.1122190803
 51
185.0
  0
ARC
  5
301
330
1F
100
AcDbEntity
  8
PROFILES_INSIDE
100
AcDbCircle
 10
84.6471723698
 20
63.0487575294
 30
0.0
 40
5.170000000000095
100
AcDbArc
 50
340.1122190803
 51
167.3995467073
  0
ARC
  5
302
330
1F
100
AcDbEntity
  8
PROFILES_INSIDE
100
AcDbCircle
 10
78.6257765972
 20
64.3947489669
 30
0.0
 40
0.9999999999999339
100
AcDbArc
 50
275.0000647817
 51
347.3995467073
  0
ARC
  5
303
330
1F
100
AcDbEntity
  8
PROFILES_INSIDE
100
AcDbCircle
 10
74.5975275337
 20
64.0423182505
 30
0.0
 40
1.000000157751924
100
AcDbArc
 50
202.600480279
 51
275.0000647817
  0
ARC
  5
304
330
1F
100
AcDbEntity
  8
PROFILES_INSIDE
100
AcDbCircle
 10
68.90134037
 20
61.6711683616
 30
0.0
 40
5.169999842248054
100
AcDbArc
 50
22.600480279
 51
209.8878203283
  0
ARC
  5
305
330
1F
100
AcDbEntity
  8
PROFILES_INSIDE
100
AcDbCircle
 10
63.5519375046
 20
58.5966382546
 30
0.0
 40
0.9999981800217372
100
AcDbArc
 50
5.0
 51
29.8878203284
  0
ARC
  5
306
330
1F
100
AcDbEntity
  8
PROFILES_INSIDE
100
AcDbCircle
 10
584.5701153991
 20
724.721233024
 30
0.0
 40
1.000000000000012
100
AcDbArc
 50
265.0000647817
 51
337.3995467073
  0
ARC
  5
307
330
1F
100
AcDbEntity
  8
PROFILES_INSIDE
100
AcDbCircle
 10
590.2663036797
 20
722.350085818
 30
0.0
 40
5.170000000000076
100
AcDbArc
 50
330.1122190803
 51
157.3995467073
  0
ARC
  5
308
330
1F
100
AcDbEntity
  8
PROFILES_INSIDE
100
AcDbCircle
 10
595.6157529816
 20
719.2755339167
 30
0.0
 40
1.00004677682153
100
AcDbArc
 50
150.1122190804
 51
175.0
  0
ARC
  5
309
330
1F
100
AcDbEntity
  8
PROFILES_INSIDE
100
AcDbCircle
 10
595.1437203052
 20
713.8807124397
 30
0.0
 40
1.000000000000077
100
AcDbArc
 50
175.0
 51
199.8879072801
  0
ARC
  5
30A
330
1F
100
AcDbEntity
  8
PROFILES_INSIDE
100
AcDbCircle
 10
589.3416994395
 20
711.7817951298
 30
0.0
 40
5.170000000000061
100
AcDbArc
 50
192.600480279
 51
19.8879072801
  0
ARC
  5
30B
330
1F
100
AcDbEntity
  8
PROFILES_INSIDE
100
AcDbCircle
 10
583.3203043008
 20
710.4358008563
 30
0.0
 40
1.000000000000083
100
AcDbArc
 50
12.600480279
 51
85.0000647817
  0
ARC
  5
30C
330
1F
100
AcDbEntity
  8
PROFILES_INSIDE
100
AcDbCircle
 10
579.2920544404
 20
710.7882224635
 30
0.0
 40
1.000000000000012
100
AcDbArc
 50
85.0000647817
 51
157.3995467073
  0
ARC
  5
30D
330
1F
100
AcDbEntity
  8
PROFILES_INSIDE
100
AcDbCircle
 10
573.5958661598
 20
713.1593696695
 30
0.0
 40
5.170000000000076
100
AcDbArc
 50
150.1121232273
 51
337.3995467073
  0
ARC
  5
30E
330
1F
100
AcDbEntity
  8
PROFILES_INSIDE
100
AcDbCircle
 10
568.246462557
 20
716.233907211
 30
0.0
 40
0.999999999999988
100
AcDbArc
 50
330.1121232273
 51
355.0
  0
ARC
  5
30F
330
1F
100
AcDbEntity
  8
PROFILES_INSIDE
100
AcDbCircle
 10
568.718450434
 20
721.6287533306
 30
0.0
 40
0.9999981800218128
100
AcDbArc
 50
355.0
 51
19.8878203283
  0
ARC
  5
310
330
1F
100
AcDbEntity
  8
PROFILES_INSIDE
100
AcDbCircle
 10
574.5204704
 20
723.7276603577
 30
0.0
 40
5.169998264729061
100
AcDbArc
 50
12.600480279
 51
199.8878203283
  0
ARC
  5
311
330
1F
100
AcDbEntity
  8
PROFILES_INSIDE
100
AcDbCircle
 10
580.5418655387
 20
725.0736546312
 30
0.0
 40
1.000001735270965
100
AcDbArc
 50
192.600480279
 51
265.0000647817
  0
ARC
  5
312
330
1F
100
AcDbEntity
  8
PROFILES_INSIDE
100
AcDbCircle
 10
404.5452776826
 20
735.9920344399
 30
0.0
 40
1.00004677682138
100
AcDbArc
 50
150.1122190803
 51
175.0
  0
ARC
  5
313
330
1F
100
AcDbEntity
  8
PROFILES_INSIDE
100
AcDbCircle
 10
399.1958283806
 20
739.0665863412
 30
0.0
 40
5.170000000000058
100
AcDbArc
 50
330.1122190803
 51
157.3995467073
  0
ARC
  5
314
330
1F
100
AcDbEntity
  8
PROFILES_INSIDE
100
AcDbCircle
 10
393.4996401
 20
741.4377335472
 30
0.0
 40
0.9999999999999701
100
AcDbArc
 50
265.0000647817
 51
337.3995467073
  0
ARC
  5
315
330
1F
100
AcDbEntity
  8
PROFILES_INSIDE
100
AcDbCircle
 10
389.4713902396
 20
741.7901551544
 30
0.0
 40
1.000000946511511
100
AcDbArc
 50
192.600480279
 51
265.0000647817
  0
ARC
  5
316
330
1F
100
AcDbEntity
  8
PROFILES_INSIDE
100
AcDbCircle
 10
383.449995101
 20
740.4441608809
 30
0.0
 40
5.169999053488509
100
AcDbArc
 50
12.600480279
 51
199.8878203283
  0
ARC
  5
317
330
1F
100
AcDbEntity
  8
PROFILES_INSIDE
100
AcDbCircle
 10
377.6479751349
 20
738.3452538538
 30
0.0
 40
0.9999980222698863
100
AcDbArc
 50
355.0
 51
19.8878203283
  0
ARC
  5
318
330
1F
100
AcDbEntity
  8
PROFILES_INSIDE
100
AcDbCircle
 10
377.175987258
 20
732.9504077342
 30
0.0
 40
1.00000000000002
100
AcDbArc
 50
330.1121232273
 51
355.0
  0
ARC
  5
319
330
1F
100
AcDbEntity
  8
PROFILES_INSIDE
100
AcDbCircle
 10
382.5253908608
 20
729.8758701927
 30
0.0
 40
5.170000000000141
100
AcDbArc
 50
150.1121232273
 51
337.3995467073
  0
ARC
  5
31A
330
1F
100
AcDbEntity
  8
PROFILES_INSIDE
100
AcDbCircle
 10
388.2215791413
 20
727.5047229867
 30
0.0
 40
0.9999999999999701
100
AcDbArc
 50
85.0000647817
 51
157.3995467073
  0
ARC
  5
31B
330
1F
100
AcDbEntity
  8
PROFILES_INSIDE
100
AcDbCircle
 10
392.2498290017
 20
727.1523013794
 30
0.0
 40
1.000000000000073
100
AcDbArc
 50
12.600480279
 51
85.0000647817
  0
ARC
  5
31C
330
1F
100
AcDbEntity
  8
PROFILES_INSIDE
100
AcDbCircle
 10
398.2712241404
 20
728.498295653
 30
0.0
 40
5.169999999999981
100
AcDbArc
 50
192.600480279
 51
19.8879072801
  0
ARC
  5
31D
330
1F
100
AcDbEntity
  8
PROFILES_INSIDE
100
AcDbCircle
 10
404.0732450061
 20
730.5972129629
 30
0.0
 40
1.000000000000031
100
AcDbArc
 50
175.0
 51
199.8879072801
  0
ARC
  5
31E
330
1F
100
AcDbEntity
  8
PROFILES_INSIDE
100
AcDbCircle
 10
590.2663044171
 20
69.2095703258
 30
0.0
 40
5.170000000000106
100
AcDbArc
 50
202.600480279
 51
29.8879072801
  0
ARC
  5
31F
330
1F
100
AcDbEntity
  8
PROFILES_INSIDE
100
AcDbCircle
 10
595.6157063828
 20
72.2841107157
 30
0.0
 40
1.00000000000002
100
AcDbArc
 50
185.0
 51
209.8879072801
  0
ARC
  5
320
330
1F
100
AcDbEntity
  8
PROFILES_INSIDE
100
AcDbCircle
 10
595.143766904
 20
77.6789403464
 30
0.0
 40
1.000046776821421
100
AcDbArc
 50
160.1122190803
 51
185.0
  0
ARC
  5
321
330
1F
100
AcDbEntity
  8
PROFILES_INSIDE
100
AcDbCircle
 10
589.3416974222
 20
79.777860773
 30
0.0
 40
5.170000000000001
100
AcDbArc
 50
340.1122190803
 51
167.3995467073
  0
ARC
  5
322
330
1F
100
AcDbEntity
  8
PROFILES_INSIDE
100
AcDbCircle
 10
583.3203016496
 20
81.1238522104
 30
0.0
 40
1.000000000000117
100
AcDbArc
 50
275.0000647817
 51
347.3995467073
  0
ARC
  5
323
330
1F
100
AcDbEntity
  8
PROFILES_INSIDE
100
AcDbCircle
 10
579.2920525862
 20
80.7714214941
 30
0.0
 40
1.000000788759456
100
AcDbArc
 50
202.600480279
 51
275.0000647817
  0
ARC
  5
324
330
1F
100
AcDbEntity
  8
PROFILES_INSIDE
100
AcDbCircle
 10
573.5958654224
 20
78.4002716052
 30
0.0
 40
5.169999211240598
100
AcDbArc
 50
22.600480279
 51
209.8878203283
  0
ARC
  5
325
330
1F
100
AcDbEntity
  8
PROFILES_INSIDE
100
AcDbCircle
 10
568.246462557
 20
75.3257414982
 30
0.0
 40
0.9999978645180582
100
AcDbArc
 50
5.0
 51
29.8878203283
  0
ARC
  5
326
330
1F
100
AcDbEntity
  8
PROFILES_INSIDE
100
AcDbCircle
 10
568.718450434
 20
69.9308953786
 30
0.0
 40
0.9999999999999838
100
AcDbArc
 50
340.1121232273
 51
5.0
  0
ARC
  5
327
330
1F
100
AcDbEntity
  8
PROFILES_INSIDE
100
AcDbCircle
 10
574.5204724173
 20
67.831981158
 30
0.0
 40
5.169999999999994
100
AcDbArc
 50
160.1121232273
 51
347.3995467073
  0
ARC
  5
328
330
1F
100
AcDbEntity
  8
PROFILES_INSIDE
100
AcDbCircle
 10
580.5418681899
 20
66.4859897205
 30
0.0
 40
1.00000000000012
100
AcDbArc
 50
95.0000647817
 51
167.3995467073
  0
ARC
  5
329
330
1F
100
AcDbEntity
  8
PROFILES_INSIDE
100
AcDbCircle
 10
584.5701172533
 20
66.8384204369
 30
0.0
 40
1.000000000000054
100
AcDbArc
 50
22.600480279
 51
95.0000647817
  0
ARC
  5
32A
330
1F
100
AcDbEntity
  8
PROFILES_INSIDE
100
AcDbCircle
 10
377.6479751349
 20
53.2143948554
 30
0.0
 40
1.000000000000009
100
AcDbArc
 50
340.1121232273
 51
5.0
  0
ARC
  5
32B
330
1F
100
AcDbEntity
  8
PROFILES_INSIDE
100
AcDbCircle
 10
383.4499971182
 20
51.1154806348
 30
0.0
 40
5.16999999999998
100
AcDbArc
 50
160.1121232273
 51
347.3995467073
  0
ARC
  5
32C
330
1F
100
AcDbEntity
  8
PROFILES_INSIDE
100
AcDbCircle
 10
389.4713928908
 20
49.7694891974
 30
0.0
 40
1.000000000000131
100
AcDbArc
 50
95.0000647817
 51
167.3995467073
  0
ARC
  5
32D
330
1F
100
AcDbEntity
  8
PROFILES_INSIDE
100
AcDbCircle
 10
393.4996419543
 20
50.1219199137
 30
0.0
 40
1.000000000000037
100
AcDbArc
 50
22.600480279
 51
95.0000647817
  0
ARC
  5
32E
330
1F
100
AcDbEntity
  8
PROFILES_INSIDE
100
AcDbCircle
 10
399.195829118
 20
52.4930698026
 30
0.0
 40
5.170000000000023
100
AcDbArc
 50
202.600480279
 51
29.8879072801
  0
ARC
  5
32F
330
1F
100
AcDbEntity
  8
PROFILES_INSIDE
100
AcDbCircle
 10
404.5452310837
 20
55.5676101925
 30
0.0
 40
1.000000000000123
100
AcDbArc
 50
185.0
 51
209.8879072801
  0
ARC
  5
330
330
1F
100
AcDbEntity
  8
PROFILES_INSIDE
100
AcDbCircle
 10
404.0732916049
 20
60.9624398232
 30
0.0
 40
1.000046776821535
100
AcDbArc
 50
160.1122190803
 51
185.0
  0
ARC
  5
331
330
1F
100
AcDbEntity
  8
PROFILES_INSIDE
100
AcDbCircle
 10
398.2712221232
 20
63.0613602498
 30
0.0
 40
5.16999999999998
100
AcDbArc
 50
340.1122190803
 51
167.3995467073
  0
ARC
  5
332
330
1F
100
AcDbEntity
  8
PROFILES_INSIDE
100
AcDbCircle
 10
392.2498263506
 20
64.4073516873
 30
0.0
 40
1.00000000000001
100
AcDbArc
 50
275.0000647817
 51
347.3995467073
  0
ARC
  5
333
330
1F
100
AcDbEntity
  8
PROFILES_INSIDE
100
AcDbCircle
 10
388.2215772871
 20
64.0549209709
 30
0.0
 40
1.000000157751951
100
AcDbArc
 50
202.600480279
 51
275.0000647817
  0
ARC
  5
334
330
1F
100
AcDbEntity
  8
PROFILES_INSIDE
100
AcDbCircle
 10
382.5253901233
 20
61.683771082
 30
0.0
 40
5.169999842248028
100
AcDbArc
 50
22.600480279
 51
209.8878203283
  0
ARC
  5
335
330
1F
100
AcDbEntity
  8
PROFILES_INSIDE
100
AcDbCircle
 10
377.175987258
 20
58.609240975
 30
0.0
 40
0.9999981800218222
100
AcDbArc
 50
5.0
 51
29.8878203283
  0
ARC
  5
336
330
1F
100
AcDbEntity
  8
PROFILES_OUTSIDE
100
AcDbCircle
 10
345.4282800697
 20
753.5033396234
 30
0.0
 40
6.0
100
AcDbArc
 50
85.0
 51
180.0
  0
ARC
  5
337
330
1F
100
AcDbEntity
  8
PROFILES_OUTSIDE
100
AcDbCircle
 10
615.4282800697
 20
729.8814004714
 30
0.0
 40
6.00000000000006
100
AcDbArc
 50
0.0
 51
85.0
  0
ARC
  5
338
330
1F
100
AcDbEntity
  8
PROFILES_OUTSIDE
100
AcDbCircle
 10
615.4282800697
 20
660.4139853025
 30
0.0
 40
5.999999999999978
100
AcDbArc
 50
280.0
 51
0.0
  0
ARC
  5
339
330
1F
100
AcDbEntity
  8
PROFILES_OUTSIDE
100
AcDbCircle
 10
607.4282800697
 20
646.8182501142
 30
0.0
 40
6.0
100
AcDbArc
 50
100.0
 51
180.0
  0
ARC
  5
33A
330
1F
100
AcDbEntity
  8
PROFILES_OUTSIDE
100
AcDbCircle
 10
607.4282800697
 20
144.741398595
 30
0.0
 40
6.0
100
AcDbArc
 50
180.0
 51
260.0
  0
ARC
  5
33B
330
1F
100
AcDbEntity
  8
PROFILES_OUTSIDE
100
AcDbCircle
 10
615.4282800697
 20
131.1456634067
 30
0.0
 40
6.0
100
AcDbArc
 50
0.0
 51
80.0
  0
ARC
  5
33C
330
1F
100
AcDbEntity
  8
PROFILES_OUTSIDE
100
AcDbCircle
 10
615.4282800697
 20
61.6782482379
 30
0.0
 40
6.000000000000077
100
AcDbArc
 50
275.0
 51
0.0
  0
ARC
  5
33D
330
1F
100
AcDbEntity
  8
PROFILES_OUTSIDE
100
AcDbCircle
 10
345.4282800697
 20
38.0563090859
 30
0.0
 40
6.000000000000073
100
AcDbArc
 50
180.0
 51
275.0
  0
ARC
  5
33E
330
1F
100
AcDbEntity
  8
PROFILES_OUTSIDE
100
AcDbCircle
 10
1181.3932800697
 20
235.0181957467
 30
0.0
 40
12.0
100
AcDbArc
 50
90.0
 51
180.0
  0
ARC
  5
33F
330
1F
100
AcDbEntity
  8
PROFILES_OUTSIDE
100
AcDbCircle
 10
1181.3932800697
 20
67.0732622726
 30
0.0
 40
12.00000000000001
100
AcDbArc
 50
180.0
 51
270.0
  0
ARC
  5
340
330
1F
100
AcDbEntity
  8
PROFILES_OUTSIDE
100
AcDbCircle
 10
1238.8682800697
 20
37.3232622726
 30
0.0
 40
1.000000000000227
100
AcDbArc
 50
270.0
 51
0.0
  0
ARC
  5
341
330
1F
100
AcDbEntity
  8
PROFILES_OUTSIDE
100
AcDbCircle
 10
1053.4663259768
 20
260.5181957467
 30
0.0
 40
1.0
100
AcDbArc
 50
183.6619355755
 51
270.0
  0
ARC
  5
342
330
1F
100
AcDbEntity
  8
PROFILES_OUTSIDE
100
AcDbCircle
 10
1061.4060016863
 20
258.5181957467
 30
0.0
 40
1.0
100
AcDbArc
 50
65.1121079736
 51
90.0
  0
ARC
  5
343
330
1F
100
AcDbEntity
  8
PROFILES_OUTSIDE
100
AcDbCircle
 10
1064.0026099301
 20
264.1152061655
 30
0.0
 40
5.17000000000003
100
AcDbArc
 50
245.1121079736
 51
72.3995332141
  0
ARC
  5
344
330
1F
100
AcDbEntity
  8
PROFILES_OUTSIDE
100
AcDbCircle
 10
1065.8682800697
 20
269.9963773864
 30
0.0
 40
1.0
100
AcDbArc
 50
180.0
 51
252.3995332141
  0
ARC
  5
345
330
1F
100
AcDbEntity
  8
PROFILES_OUTSIDE
100
AcDbCircle
 10
1107.8682800697
 20
260.0201957467
 30
0.0
 40
12.0
100
AcDbArc
 50
0.0
 51
90.0
  0
ARC
  5
346
330
1F
100
AcDbEntity
  8
PROFILES_OUTSIDE
100
AcDbCircle
 10
1131.8682800697
 20
199.3705512553
 30
0.0
 40
12.0
100
AcDbArc
 50
180.0
 51
270.0
  0
ARC
  5
347
330
1F
100
AcDbEntity
  8
PROFILES_OUTSIDE
100
AcDbCircle
 10
1147.8682800697
 20
199.3705512553
 30
0.0
 40
12.0
100
AcDbArc
 50
270.0
 51
0.0
  0
ARC
  5
348
330
1F
100
AcDbEntity
  8
PROFILES_OUTSIDE
100
AcDbCircle
 10
1171.8682800697
 20
260.0201957467
 30
0.0
 40
12.0
100
AcDbArc
 50
90.0
 51
180.0
  0
ARC
  5
349
330
1F
100
AcDbEntity
  8
PROFILES_OUTSIDE
100
AcDbCircle
 10
1213.8682800697
 20
269.9963773864
 30
0.0
 40
1.000000000000227
100
AcDbArc
 50
287.6004667859
 51
0.0
  0
ARC
  5
34A
330
1F
100
AcDbEntity
  8
PROFILES_OUTSIDE
100
AcDbCircle
 10
1215.7339502093
 20
264.1152061655
 30
0.0
 40
5.170000000000016
100
AcDbArc
 50
107.6004667859
 51
294.8878920264
  0
ARC
  5
34B
330
1F
100
AcDbEntity
  8
PROFILES_OUTSIDE
100
AcDbCircle
 10
1218.3305584531
 20
258.5181957467
 30
0.0
 40
1.000000000000037
100
AcDbArc
 50
90.0
 51
114.8878920264
  0
ARC
  5
34C
330
1F
100
AcDbEntity
  8
PROFILES_OUTSIDE
100
AcDbCircle
 10
1226.2702341626
 20
260.5181957467
 30
0.0
 40
1.0
100
AcDbArc
 50
270.0
 51
356.3380644245
  0
ARC
  5
34D
330
1F
100
AcDbEntity
  8
PROFILES_OUTSIDE
100
AcDbCircle
 10
1233.8682800697
 20
253.0181957467
 30
0.0
 40
6.0
100
AcDbArc
 50
270.0
 51
0.0
  0
ARC
  5
34E
330
1F
100
AcDbEntity
  8
PROFILES_OUTSIDE
100
AcDbCircle
 10
1040.8682800697
 20
37.3232622726
 30
0.0
 40
1.0
100
AcDbArc
 50
180.0
 51
270.0
  0
ARC
  5
34F
330
1F
100
AcDbEntity
  8
PROFILES_OUTSIDE
100
AcDbCircle
 10
1159.8682800697
 20
187.3705512553
 30
0.0
 40
9.524999999999869
100
AcDbArc
 50
300.0
 51
0.0
  0
ARC
  5
350
330
1F
100
AcDbEntity
  8
PROFILES_OUTSIDE
100
AcDbCircle
 10
1169.3932800697
 20
170.8727673132
 30
0.0
 40
9.524999999999983
100
AcDbArc
 50
120.0
 51
180.0
  0
ARC
  5
351
330
1F
100
AcDbEntity
  8
PROFILES_OUTSIDE
100
AcDbCircle
 10
1169.3932800697
 20
131.2186907061
 30
0.0
 40
9.525000000000091
100
AcDbArc
 50
180.0
 51
240.0
  0
ARC
  5
352
330
1F
100
AcDbEntity
  8
PROFILES_OUTSIDE
100
AcDbCircle
 10
1159.8682800697
 20
114.720906764
 30
0.0
 40
9.524999999999983
100
AcDbArc
 50
0.0
 51
60.0
  0
ARC
  5
353
330
1F
100
AcDbEntity
  8
PROFILES_OUTSIDE
100
AcDbCircle
 10
1233.8682800697
 20
49.0732622726
 30
0.0
 40
6.000000000000007
100
AcDbArc
 50
0.0
 51
90.0
  0
ARC
  5
354
330
1F
100
AcDbEntity
  8
PROFILES_OUTSIDE
100
AcDbCircle
 10
1098.3432800697
 20
67.0732622726
 30
0.0
 40
12.0
100
AcDbArc
 50
270.0
 51
0.0
  0
ARC
  5
355
330
1F
100
AcDbEntity
  8
PROFILES_OUTSIDE
100
AcDbCircle
 10
1226.2702341626
 20
41.5732622726
 30
0.0
 40
1.0
100
AcDbArc
 50
3.6619355755
 51
90.0
  0
ARC
  5
356
330
1F
100
AcDbEntity
  8
PROFILES_OUTSIDE
100
AcDbCircle
 10
1218.3305584531
 20
43.5732622726
 30
0.0
 40
1.000000000000082
100
AcDbArc
 50
245.1121079736
 51
270.0
  0
ARC
  5
357
330
1F
100
AcDbEntity
  8
PROFILES_OUTSIDE
100
AcDbCircle
 10
1215.7339502093
 20
37.9762518538
 30
0.0
 40
5.170000000000017
100
AcDbArc
 50
65.1121079736
 51
252.3995332141
  0
ARC
  5
358
330
1F
100
AcDbEntity
  8
PROFILES_OUTSIDE
100
AcDbCircle
 10
1213.8682800697
 20
32.0950806329
 30
0.0
 40
1.000000000000227
100
AcDbArc
 50
0.0
 51
72.3995332141
  0
ARC
  5
359
330
1F
100
AcDbEntity
  8
PROFILES_OUTSIDE
100
AcDbCircle
 10
1171.8682800697
 20
42.0712622726
 30
0.0
 40
12.00000000000001
100
AcDbArc
 50
180.0
 51
270.0
  0
ARC
  5
35A
330
1F
100
AcDbEntity
  8
PROFILES_OUTSIDE
100
AcDbCircle
 10
1147.8682800697
 20
102.720906764
 30
0.0
 40
12.0
100
AcDbArc
 50
0.0
 51
90.0
  0
ARC
  5
35B
330
1F
100
AcDbEntity
  8
PROFILES_OUTSIDE
100
AcDbCircle
 10
1131.8682800697
 20
102.720906764
 30
0.0
 40
12.0
100
AcDbArc
 50
90.0
 51
180.0
  0
ARC
  5
35C
330
1F
100
AcDbEntity
  8
PROFILES_OUTSIDE
100
AcDbCircle
 10
1107.8682800697
 20
42.0712622726
 30
0.0
 40
12.00000000000001
100
AcDbArc
 50
270.0
 51
0.0
  0
ARC
  5
35D
330
1F
100
AcDbEntity
  8
PROFILES_OUTSIDE
100
AcDbCircle
 10
1065.8682800697
 20
32.0950806329
 30
0.0
 40
1.0
100
AcDbArc
 50
107.6004667859
 51
180.0
  0
ARC
  5
35E
330
1F
100
AcDbEntity
  8
PROFILES_OUTSIDE
100
AcDbCircle
 10
1064.0026099301
 20
37.9762518538
 30
0.0
 40
5.170000000000113
100
AcDbArc
 50
287.6004667859
 51
114.8878920264
  0
ARC
  5
35F
330
1F
100
AcDbEntity
  8
PROFILES_OUTSIDE
100
AcDbCircle
 10
1061.4060016863
 20
43.5732622726
 30
0.0
 40
1.000000000000007
100
AcDbArc
 50
270.0
 51
294.8878920264
  0
ARC
  5
360
330
1F
100
AcDbEntity
  8
PROFILES_OUTSIDE
100
AcDbCircle
 10
1053.4663259768
 20
41.5732622726
 30
0.0
 40
1.0
100
AcDbArc
 50
90.0
 51
176.3380644245
  0
ARC
  5
361
330
1F
100
AcDbEntity
  8
PROFILES_OUTSIDE
100
AcDbCircle
 10
1045.8682800697
 20
49.0732622726
 30
0.0
 40
6.000000000000007
100
AcDbArc
 50
90.0
 51
180.0
  0
ARC
  5
362
330
1F
100
AcDbEntity
  8
PROFILES_OUTSIDE
100
AcDbCircle
 10
1098.3432800697
 20
235.0181957467
 30
0.0
 40
12.0
100
AcDbArc
 50
0.0
 51
90.0
  0
ARC
  5
363
330
1F
100
AcDbEntity
  8
PROFILES_OUTSIDE
100
AcDbCircle
 10
1119.8682800697
 20
114.720906764
 30
0.0
 40
9.525000000000091
100
AcDbArc
 50
120.0
 51
180.0
  0
ARC
  5
364
330
1F
100
AcDbEntity
  8
PROFILES_OUTSIDE
100
AcDbCircle
 10
1110.3432800697
 20
131.2186907061
 30
0.0
 40
9.525000000000091
100
AcDbArc
 50
300.0
 51
0.0
  0
ARC
  5
365
330
1F
100
AcDbEntity
  8
PROFILES_OUTSIDE
100
AcDbCircle
 10
1110.3432800697
 20
170.8727673132
 30
0.0
 40
9.525000000000091
100
AcDbArc
 50
0.0
 51
60.0
  0
ARC
  5
366
330
1F
100
AcDbEntity
  8
PROFILES_OUTSIDE
100
AcDbCircle
 10
1119.8682800697
 20
187.3705512553
 30
0.0
 40
9.525000000000091
100
AcDbArc
 50
180.0
 51
240.0
  0
ARC
  5
367
330
1F
100
AcDbEntity
  8
PROFILES_OUTSIDE
100
AcDbCircle
 10
1045.8682800697
 20
253.0181957467
 30
0.0
 40
6.0
100
AcDbArc
 50
180.0
 51
270.0
  0
ARC
  5
368
330
1F
100
AcDbEntity
  8
PROFILES_OUTSIDE
100
AcDbCircle
 10
1040.8682800697
 20
264.7681957467
 30
0.0
 40
1.0
100
AcDbArc
 50
90.0
 51
180.0
  0
ARC
  5
369
330
1F
100
AcDbEntity
  8
PROFILES_OUTSIDE
100
AcDbCircle
 10
1040.8682800697
 20
310.7481957467
 30
0.0
 40
1.0
100
AcDbArc
 50
180.0
 51
270.0
  0
ARC
  5
36A
330
1F
100
AcDbEntity
  8
PROFILES_OUTSIDE
100
AcDbCircle
 10
1098.3432800697
 20
340.4981957467
 30
0.0
 40
12.0
100
AcDbArc
 50
270.0
 51
0.0
  0
ARC
  5
36B
330
1F
100
AcDbEntity
  8
PROFILES_OUTSIDE
100
AcDbCircle
 10
1098.3432800697
 20
508.4431292207
 30
0.0
 40
12.00000000000011
100
AcDbArc
 50
0.0
 51
90.0
  0
ARC
  5
36C
330
1F
100
AcDbEntity
  8
PROFILES_OUTSIDE
100
AcDbCircle
 10
1040.8682800697
 20
538.1931292207
 30
0.0
 40
1.0
100
AcDbArc
 50
90.0
 51
180.0
  0
ARC
  5
36D
330
1F
100
AcDbEntity
  8
PROFILES_OUTSIDE
100
AcDbCircle
 10
1226.2702341626
 20
314.9981957467
 30
0.0
 40
1.00000000000016
100
AcDbArc
 50
3.6619355755
 51
90.0
  0
ARC
  5
36E
330
1F
100
AcDbEntity
  8
PROFILES_OUTSIDE
100
AcDbCircle
 10
1218.3305584531
 20
316.9981957467
 30
0.0
 40
1.000000000000089
100
AcDbArc
 50
245.1121079736
 51
270.0
  0
ARC
  5
36F
330
1F
100
AcDbEntity
  8
PROFILES_OUTSIDE
100
AcDbCircle
 10
1215.7339502093
 20
311.4011853279
 30
0.0
 40
5.169999999999977
100
AcDbArc
 50
65.1121079736
 51
252.3995332141
  0
ARC
  5
370
330
1F
100
AcDbEntity
  8
PROFILES_OUTSIDE
100
AcDbCircle
 10
1213.8682800697
 20
305.5200141069
 30
0.0
 40
1.000000000000227
100
AcDbArc
 50
0.0
 51
72.3995332141
  0
ARC
  5
371
330
1F
100
AcDbEntity
  8
PROFILES_OUTSIDE
100
AcDbCircle
 10
1171.8682800697
 20
315.4961957467
 30
0.0
 40
12.0
100
AcDbArc
 50
180.0
 51
270.0
  0
ARC
  5
372
330
1F
100
AcDbEntity
  8
PROFILES_OUTSIDE
100
AcDbCircle
 10
1147.8682800697
 20
376.145840238
 30
0.0
 40
12.0
100
AcDbArc
 50
0.0
 51
90.0
  0
ARC
  5
373
330
1F
100
AcDbEntity
  8
PROFILES_OUTSIDE
100
AcDbCircle
 10
1131.8682800697
 20
376.145840238
 30
0.0
 40
12.0
100
AcDbArc
 50
90.0
 51
180.0
  0
ARC
  5
374
330
1F
100
AcDbEntity
  8
PROFILES_OUTSIDE
100
AcDbCircle
 10
1107.8682800697
 20
315.4961957467
 30
0.0
 40
12.0
100
AcDbArc
 50
270.0
 51
0.0
  0
ARC
  5
375
330
1F
100
AcDbEntity
  8
PROFILES_OUTSIDE
100
AcDbCircle
 10
1065.8682800697
 20
305.5200141069
 30
0.0
 40
1.0
100
AcDbArc
 50
107.6004667859
 51
180.0
  0
ARC
  5
376
330
1F
100
AcDbEntity
  8
PROFILES_OUTSIDE
100
AcDbCircle
 10
1064.0026099301
 20
311.4011853279
 30
0.0
 40
5.170000000000028
100
AcDbArc
 50
287.6004667859
 51
114.8878920264
  0
ARC
  5
377
330
1F
100
AcDbEntity
  8
PROFILES_OUTSIDE
100
AcDbCircle
 10
1061.4060016863
 20
316.9981957467
 30
0.0
 40
0.9999999999999432
100
AcDbArc
 50
270.0
 51
294.8878920264
  0
ARC
  5
378
330
1F
100
AcDbEntity
  8
PROFILES_OUTSIDE
100
AcDbCircle
 10
1053.4663259768
 20
314.9981957467
 30
0.0
 40
1.0
100
AcDbArc
 50
90.0
 51
176.3380644245
  0
ARC
  5
379
330
1F
100
AcDbEntity
  8
PROFILES_OUTSIDE
100
AcDbCircle
 10
1045.8682800697
 20
322.4981957467
 30
0.0
 40
6.0
100
AcDbArc
 50
90.0
 51
180.0
  0
ARC
  5
37A
330
1F
100
AcDbEntity
  8
PROFILES_OUTSIDE
100
AcDbCircle
 10
1238.8682800697
 20
538.1931292207
 30
0.0
 40
1.0
100
AcDbArc
 50
0.0
 51
90.0
  0
ARC
  5
37B
330
1F
100
AcDbEntity
  8
PROFILES_OUTSIDE
100
AcDbCircle
 10
1119.8682800697
 20
388.145840238
 30
0.0
 40
9.525000000000091
100
AcDbArc
 50
120.0
 51
180.0
  0
ARC
  5
37C
330
1F
100
AcDbEntity
  8
PROFILES_OUTSIDE
100
AcDbCircle
 10
1110.3432800697
 20
404.6436241801
 30
0.0
 40
9.525000000000091
100
AcDbArc
 50
300.0
 51
0.0
  0
ARC
  5
37D
330
1F
100
AcDbEntity
  8
PROFILES_OUTSIDE
100
AcDbCircle
 10
1110.3432800697
 20
444.2977007873
 30
0.0
 40
9.525000000000091
100
AcDbArc
 50
0.0
 51
60.0
  0
ARC
  5
37E
330
1F
100
AcDbEntity
  8
PROFILES_OUTSIDE
100
AcDbCircle
 10
1119.8682800697
 20
460.7954847294
 30
0.0
 40
9.525000000000091
100
AcDbArc
 50
180.0
 51
240.0
  0
ARC
  5
37F
330
1F
100
AcDbEntity
  8
PROFILES_OUTSIDE
100
AcDbCircle
 10
1045.8682800697
 20
526.4431292207
 30
0.0
 40
6.0
100
AcDbArc
 50
180.0
 51
270.0
  0
ARC
  5
380
330
1F
100
AcDbEntity
  8
PROFILES_OUTSIDE
100
AcDbCircle
 10
1181.3932800697
 20
508.4431292207
 30
0.0
 40
12.0
100
AcDbArc
 50
90.0
 51
180.0
  0
ARC
  5
381
330
1F
100
AcDbEntity
  8
PROFILES_OUTSIDE
100
AcDbCircle
 10
1053.4663259768
 20
533.9431292207
 30
0.0
 40
0.9999999999999293
100
AcDbArc
 50
183.6619355755
 51
270.0
  0
ARC
  5
382
330
1F
100
AcDbEntity
  8
PROFILES_OUTSIDE
100
AcDbCircle
 10
1061.4060016863
 20
531.9431292207
 30
0.0
 40
1.0
100
AcDbArc
 50
65.1121079736
 51
90.0
  0
ARC
  5
383
330
1F
100
AcDbEntity
  8
PROFILES_OUTSIDE
100
AcDbCircle
 10
1064.0026099301
 20
537.5401396395
 30
0.0
 40
5.170000000000131
100
AcDbArc
 50
245.1121079736
 51
72.3995332141
  0
ARC
  5
384
330
1F
100
AcDbEntity
  8
PROFILES_OUTSIDE
100
AcDbCircle
 10
1065.8682800697
 20
543.4213108605
 30
0.0
 40
1.0
100
AcDbArc
 50
180.0
 51
252.3995332141
  0
ARC
  5
385
330
1F
100
AcDbEntity
  8
PROFILES_OUTSIDE
100
AcDbCircle
 10
1107.8682800697
 20
533.4451292207
 30
0.0
 40
12.0
100
AcDbArc
 50
0.0
 51
90.0
  0
ARC
  5
386
330
1F
100
AcDbEntity
  8
PROFILES_OUTSIDE
100
AcDbCircle
 10
1131.8682800697
 20
472.7954847294
 30
0.0
 40
12.0
100
AcDbArc
 50
180.0
 51
270.0
  0
ARC
  5
387
330
1F
100
AcDbEntity
  8
PROFILES_OUTSIDE
100
AcDbCircle
 10
1147.8682800697
 20
472.7954847294
 30
0.0
 40
12.0
100
AcDbArc
 50
270.0
 51
0.0
  0
ARC
  5
388
330
1F
100
AcDbEntity
  8
PROFILES_OUTSIDE
100
AcDbCircle
 10
1171.8682800697
 20
533.4451292207
 30
0.0
 40
12.0
100
AcDbArc
 50
90.0
 51
180.0
  0
ARC
  5
389
330
1F
100
AcDbEntity
  8
PROFILES_OUTSIDE
100
AcDbCircle
 10
1213.8682800697
 20
543.4213108605
 30
0.0
 40
1.000000000000227
100
AcDbArc
 50
287.6004667859
 51
0.0
  0
ARC
  5
38A
330
1F
100
AcDbEntity
  8
PROFILES_OUTSIDE
100
AcDbCircle
 10
1215.7339502093
 20
537.5401396395
 30
0.0
 40
5.170000000000036
100
AcDbArc
 50
107.6004667859
 51
294.8878920264
  0
ARC
  5
38B
330
1F
100
AcDbEntity
  8
PROFILES_OUTSIDE
100
AcDbCircle
 10
1218.3305584531
 20
531.9431292207
 30
0.0
 40
0.999999999999934
100
AcDbArc
 50
90.0
 51
114.8878920264
  0
ARC
  5
38C
330
1F
100
AcDbEntity
  8
PROFILES_OUTSIDE
100
AcDbCircle
 10
1226.2702341626
 20
533.9431292207
 30
0.0
 40
1.000000000000171
100
AcDbArc
 50
270.0
 51
356.3380644245
  0
ARC
  5
38D
330
1F
100
AcDbEntity
  8
PROFILES_OUTSIDE
100
AcDbCircle
 10
1233.8682800697
 20
526.4431292207
 30
0.0
 40
6.0
100
AcDbArc
 50
270.0
 51
0.0
  0
ARC
  5
38E
330
1F
100
AcDbEntity
  8
PROFILES_OUTSIDE
100
AcDbCircle
 10
1181.3932800697
 20
340.4981957467
 30
0.0
 40
12.0
100
AcDbArc
 50
180.0
 51
270.0
  0
ARC
  5
38F
330
1F
100
AcDbEntity
  8
PROFILES_OUTSIDE
100
AcDbCircle
 10
1159.8682800697
 20
460.7954847294
 30
0.0
 40
9.525000000000091
100
AcDbArc
 50
300.0
 51
0.0
  0
ARC
  5
390
330
1F
100
AcDbEntity
  8
PROFILES_OUTSIDE
100
AcDbCircle
 10
1169.3932800697
 20
444.2977007873
 30
0.0
 40
9.525000000000091
100
AcDbArc
 50
120.0
 51
180.0
  0
ARC
  5
391
330
1F
100
AcDbEntity
  8
PROFILES_OUTSIDE
100
AcDbCircle
 10
1169.3932800697
 20
404.6436241801
 30
0.0
 40
9.525000000000091
100
AcDbArc
 50
180.0
 51
240.0
  0
ARC
  5
392
330
1F
100
AcDbEntity
  8
PROFILES_OUTSIDE
100
AcDbCircle
 10
1159.8682800697
 20
388.145840238
 30
0.0
 40
9.525000000000091
100
AcDbArc
 50
0.0
 51
60.0
  0
ARC
  5
393
330
1F
100
AcDbEntity
  8
PROFILES_OUTSIDE
100
AcDbCircle
 10
1233.8682800697
 20
322.4981957467
 30
0.0
 40
6.0
100
AcDbArc
 50
0.0
 51
90.0
  0
ARC
  5
394
330
1F
100
AcDbEntity
  8
PROFILES_OUTSIDE
100
AcDbCircle
 10
1238.8682800697
 20
310.7481957467
 30
0.0
 40
1.0
100
AcDbArc
 50
270.0
 51
0.0
  0
ENDSEC
  0
SECTION
  2
OBJECTS
  0
DICTIONARY
  5
C
330
0
100
AcDbDictionary
  3
ACAD_GROUP
350
D
  3
ACAD_MLINESTYLE
350
17
  3
ACAD_SCALELIST
350
47
  0
DICTIONARY
  5
D
102
{ACAD_REACTORS
330
C
102
}
330
C
100
AcDbDictionary
  0
DICTIONARY
  5
17
102
{ACAD_REACTORS
330
C
102
}
330
C
100
AcDbDictionary
  3
STANDARD
350
18
  0
DICTIONARY
  5
47
102
{ACAD_REACTORS
330
C
102
}
330
C
100
AcDbDictionary
  0
MLINESTYLE
  5
18
102
{ACAD_REACTORS
330
17
102
}
330
17
100
AcDbMlineStyle
  2
Standard
 70
     0
  3

 62
   256
 51
90.0
 52
90.0
 71
     2
 49
0.5
 62
   256
  6
BYLAYER
 49
-0.5
 62
   256
  6
BYLAYER
  0
ENDSEC
  0
EOF
