  0
SECTION
  2
HEADER
  9
$ACADVER
  1
AC1014
  9
$ACADMAINTVER
 70
     9
  9
$DWGCODEPAGE
  3
ANSI_1252
  9
$INSBASE
 10
0.0
 20
0.0
 30
0.0
  9
$EXTMIN
 10
0.0
 20
0.0
 30
0.0
  9
$EXTMAX
 10
2440.0
 20
1220.0
 30
0.0
  9
$LIMMIN
 10
0.0
 20
0.0
  9
$LIMMAX
 10
2440.0
 20
1220.0
  9
$ORTHOMODE
 70
     0
  9
$REGENMODE
 70
     1
  9
$FILLMODE
 70
     1
  9
$QTEXTMODE
 70
     0
  9
$MIRRTEXT
 70
     1
  9
$DRAGMODE
 70
     2
  9
$LTSCALE
 40
1.0
  9
$OSMODE
 70
    37
  9
$ATTMODE
 70
     1
  9
$TEXTSIZE
 40
3.5
  9
$TRACEWID
 40
1.0
  9
$TEXTSTYLE
  7
STANDARD
  9
$CLAYER
  8
0
  9
$CELTYPE
  6
BYLAYER
  9
$CECOLOR
 62
   256
  9
$CELTSCALE
 40
1.0
  9
$DELOBJ
 70
     1
  9
$DISPSILH
 70
     0
  9
$DIMSCALE
 40
1.0
  9
$DIMASZ
 40
3.302
  9
$DIMEXO
 40
1.0
  9
$DIMDLI
 40
3.75
  9
$DIMRND
 40
0.0
  9
$DIMDLE
 40
0.0
  9
$DIMEXE
 40
1.0
  9
$DIMTP
 40
0.0
  9
$DIMTM
 40
0.0
  9
$DIMTXT
 40
4.5861111111
  9
$DIMCEN
 40
2.5
  9
$DIMTSZ
 40
0.0
  9
$DIMTOL
 70
     0
  9
$DIMLIM
 70
     0
  9
$DIMTIH
 70
     1
  9
$DIMTOH
 70
     1
  9
$DIMSE1
 70
     0
  9
$DIMSE2
 70
     0
  9
$DIMTAD
 70
     1
  9
$DIMZIN
 70
     0
  9
$DIMBLK
  1

  9
$DIMASO
 70
     1
  9
$DIMSHO
 70
     1
  9
$DIMPOST
  1

  9
$DIMAPOST
  1

  9
$DIMALT
 70
     0
  9
$DIMALTD
 70
     3
  9
$DIMALTF
 40
0.0393700787
  9
$DIMLFAC
 40
1.0
  9
$DIMTOFL
 70
     1
  9
$DIMTVP
 40
0.0
  9
$DIMTIX
 70
     0
  9
$DIMSOXD
 70
     0
  9
$DIMSAH
 70
     0
  9
$DIMBLK1
  1

  9
$DIMBLK2
  1

  9
$DIMSTYLE
  2
ISO-25
  9
$DIMCLRD
 70
     0
  9
$DIMCLRE
 70
     0
  9
$DIMCLRT
 70
     0
  9
$DIMTFAC
 40
1.0
  9
$DIMGAP
 40
1.524
  9
$DIMJUST
 70
     0
  9
$DIMSD1
 70
     0
  9
$DIMSD2
 70
     0
  9
$DIMTOLJ
 70
     0
  9
$DIMTZIN
 70
     0
  9
$DIMALTZ
 70
     0
  9
$DIMALTTZ
 70
     0
  9
$DIMFIT
 70
     3
  9
$DIMUPT
 70
     0
  9
$DIMUNIT
 70
     2
  9
$DIMDEC
 70
     2
  9
$DIMTDEC
 70
     2
  9
$DIMALTU
 70
     2
  9
$DIMALTTD
 70
     3
  9
$DIMTXSTY
  7
STANDARD
  9
$DIMAUNIT
 70
     0
  9
$LUNITS
 70
     2
  9
$LUPREC
 70
     2
  9
$SKETCHINC
 40
1.0
  9
$FILLETRAD
 40
10.0
  9
$AUNITS
 70
     0
  9
$AUPREC
 70
     2
  9
$MENU
  1
.
  9
$ELEVATION
 40
0.0
  9
$PELEVATION
 40
0.0
  9
$THICKNESS
 40
0.0
  9
$LIMCHECK
 70
     0
  9
$CHAMFERA
 40
0.0
  9
$CHAMFERB
 40
0.0
  9
$CHAMFERC
 40
0.0
  9
$CHAMFERD
 40
0.0
  9
$SKPOLY
 70
     0
  9
$TDCREATE
 40
2457722.412407928
  9
$TDUPDATE
 40
2457722.412408287
  9
$TDINDWG
 40
0.0000000116
  9
$TDUSRTIMER
 40
0.0000000116
  9
$USRTIMER
 70
     1
  9
$ANGBASE
 50
0.0
  9
$ANGDIR
 70
     0
  9
$PDMODE
 70
     0
  9
$PDSIZE
 40
-1.0
  9
$PLINEWID
 40
0.0
  9
$COORDS
 70
     1
  9
$SPLFRAME
 70
     0
  9
$SPLINETYPE
 70
     6
  9
$SPLINESEGS
 70
     8
  9
$ATTDIA
 70
     0
  9
$ATTREQ
 70
     1
  9
$HANDLING
 70
     1
  9
$HANDSEED
  5
395
  9
$SURFTAB1
 70
     6
  9
$SURFTAB2
 70
     6
  9
$SURFTYPE
 70
     6
  9
$SURFU
 70
     6
  9
$SURFV
 70
     6
  9
$UCSNAME
  2

  9
$UCSORG
 10
0.0
 20
0.0
 30
0.0
  9
$UCSXDIR
 10
1.0
 20
0.0
 30
0.0
  9
$UCSYDIR
 10
0.0
 20
1.0
 30
0.0
  9
$PUCSNAME
  2

  9
$PUCSORG
 10
0.0
 20
0.0
 30
0.0
  9
$PUCSXDIR
 10
1.0
 20
0.0
 30
0.0
  9
$PUCSYDIR
 10
0.0
 20
1.0
 30
0.0
  9
$USERI1
 70
     0
  9
$USERI2
 70
     0
  9
$USERI3
 70
     0
  9
$USERI4
 70
     0
  9
$USERI5
 70
     0
  9
$USERR1
 40
0.0
  9
$USERR2
 40
0.0
  9
$USERR3
 40
0.0
  9
$USERR4
 40
0.0
  9
$USERR5
 40
0.0
  9
$WORLDVIEW
 70
     1
  9
$SHADEDGE
 70
     3
  9
$SHADEDIF
 70
    70
  9
$TILEMODE
 70
     1
  9
$MAXACTVP
 70
    64
  9
$PINSBASE
 10
0.0
 20
0.0
 30
0.0
  9
$PLIMCHECK
 70
     0
  9
$PEXTMIN
 10
1.0000000000E+20
 20
1.0000000000E+20
 30
1.0000000000E+20
  9
$PEXTMAX
 10
-1.0000000000E+20
 20
-1.0000000000E+20
 30
-1.0000000000E+20
  9
$PLIMMIN
 10
0.0
 20
0.0
  9
$PLIMMAX
 10
420.0
 20
297.0
  9
$UNITMODE
 70
     0
  9
$VISRETAIN
 70
     1
  9
$PLINEGEN
 70
     0
  9
$PSLTSCALE
 70
     1
  9
$TREEDEPTH
 70
  3020
  9
$PICKSTYLE
 70
     1
  9
$CMLSTYLE
  2
STANDARD
  9
$CMLJUST
 70
     0
  9
$CMLSCALE
 40
20.0
  9
$PROXYGRAPHICS
 70
     1
  9
$MEASUREMENT
 70
     1
  0
ENDSEC
  0
SECTION
  2
CLASSES
  0
CLASS
  1
ACDBDICTIONARYWDFLT
  2
AcDbDictionaryWithDefault
  3
ObjectDBX Classes
 90
        0
280
     0
281
     0
  0
CLASS
  1
VISUALSTYLE
  2
AcDbVisualStyle
  3
ObjectDBX Classes
 90
     4095
280
     0
281
     0
  0
CLASS
  1
MATERIAL
  2
AcDbMaterial
  3
ObjectDBX Classes
 90
     1153
280
     0
281
     0
  0
CLASS
  1
SCALE
  2
AcDbScale
  3
ObjectDBX Classes
 90
     1153
280
     0
281
     0
  0
CLASS
  1
TABLESTYLE
  2
AcDbTableStyle
  3
ObjectDBX Classes
 90
     4095
280
     0
281
     0
  0
CLASS
  1
MLEADERSTYLE
  2
AcDbMLeaderStyle
  3
ACDB_MLEADERSTYLE_CLASS
 90
     4095
280
     0
281
     0
  0
CLASS
  1
SUN
  2
AcDbSun
  3
SCENEOE
 90
     1153
280
     0
281
     0
  0
CLASS
  1
XRECORD
  2
AcDbXrecord
  3
ObjectDBX Classes
 90
        0
280
     0
281
     0
  0
CLASS
  1
LWPOLYLINE
  2
AcDbPolyline
  3
ObjectDBX Classes
 90
        0
280
     0
281
     1
  0
CLASS
  1
HATCH
  2
AcDbHatch
  3
ObjectDBX Classes
 90
        0
280
     0
281
     1
  0
ENDSEC
  0
SECTION
  2
TABLES
  0
TABLE
  2
VPORT
  5
8
330
0
100
AcDbSymbolTable
 70
     1
  0
VPORT
  5
29
330
8
100
AcDbSymbolTableRecord
100
AcDbViewportTableRecord
  2
*ACTIVE
 70
     0
 10
0.0
 20
0.0
 11
1.0
 21
1.0
 12
1220.0
 22
610.0
 13
0.0
 23
0.0
 14
10.0
 24
10.0
 15
10.0
 25
10.0
 16
0.0
 26
0.0
 36
1.0
 17
0.0
 27
0.0
 37
0.0
 40
1220.0
 41
2.0
 42
50.0
 43
0.0
 44
0.0
 50
0.0
 51
0.0
 71
     0
 72
  2000
 73
     1
 74
     3
 75
     0
 76
     0
 77
     0
 78
     0
  0
ENDTAB
  0
TABLE
  2
LTYPE
  5
5
330
0
100
AcDbSymbolTable
 70
     6
  0
LTYPE
  5
14
330
5
100
AcDbSymbolTableRecord
100
AcDbLinetypeTableRecord
  2
BYBLOCK
 70
     0
  3

 72
    65
 73
     0
 40
0.0
  0
LTYPE
  5
15
330
5
100
AcDbSymbolTableRecord
100
AcDbLinetypeTableRecord
  2
BYLAYER
 70
     0
  3

 72
    65
 73
     0
 40
0.0
  0
LTYPE
  5
16
330
5
100
AcDbSymbolTableRecord
100
AcDbLinetypeTableRecord
  2
CONTINUOUS
 70
     0
  3
Solid line
 72
    65
 73
     0
 40
0.0
  0
LTYPE
  5
6E
330
5
100
AcDbSymbolTableRecord
100
AcDbLinetypeTableRecord
  2
HIDDEN
 70
     0
  3
Hidden __ __ __ __ __ __ __ __ __ __ __ __ __ __
 72
    65
 73
     2
 40
1.905
 49
1.27
 74
     0
 49
-0.635
 74
     0
  0
LTYPE
  5
6F
330
5
100
AcDbSymbolTableRecord
100
AcDbLinetypeTableRecord
  2
PHANTOM
 70
     0
  3
Phantom ______  __  __  ______  __  __  ______
 72
    65
 73
     6
 40
12.7
 49
6.35
 74
     0
 49
-1.27
 74
     0
 49
1.27
 74
     0
 49
-1.27
 74
     0
 49
1.27
 74
     0
 49
-1.27
 74
     0
  0
LTYPE
  5
70
330
5
100
AcDbSymbolTableRecord
100
AcDbLinetypeTableRecord
  2
CENTER
 70
     0
  3
Center ____ _ ____ _ ____ _ ____ _ ____ _ ____
 72
    65
 73
     4
 40
10.16
 49
6.35
 74
     0
 49
-1.27
 74
     0
 49
1.27
 74
     0
 49
-1.27
 74
     0
  0
LTYPE
  5
71
330
5
100
AcDbSymbolTableRecord
100
AcDbLinetypeTableRecord
  2
CENTERX2
 70
     0
  3
Center (2x) ________  __  ________  __  _____
 72
    65
 73
     4
 40
20.32
 49
12.7
 74
     0
 49
-2.54
 74
     0
 49
2.54
 74
     0
 49
-2.54
 74
     0
  0
LTYPE
  5
72
330
5
100
AcDbSymbolTableRecord
100
AcDbLinetypeTableRecord
  2
DOT2
 70
     0
  3
Dot (.5x) ........................................
 72
    65
 73
     2
 40
0.635
 49
0.0
 74
     0
 49
-0.635
 74
     0
  0
ENDTAB
  0
TABLE
  2
LAYER
  5
2
330
0
100
AcDbSymbolTable
 70
     6
  0
LAYER
  5
10
330
2
100
AcDbSymbolTableRecord
100
AcDbLayerTableRecord
  2
0
 70
     0
 62
     7
  6
CONTINUOUS
  0
LAYER
  5
73
330
2
100
AcDbSymbolTableRecord
100
AcDbLayerTableRecord
  2
BOX_STOCK
 70
     0
 62
     1
  6
CONTINUOUS
  0
LAYER
  5
74
330
2
100
AcDbSymbolTableRecord
100
AcDbLayerTableRecord
  2
HOLES
 70
     0
 62
    30
  6
CONTINUOUS
  0
LAYER
  5
75
330
2
100
AcDbSymbolTableRecord
100
AcDbLayerTableRecord
  2
POCKETS
 70
     0
 62
   171
  6
CONTINUOUS
  0
LAYER
  5
76
330
2
100
AcDbSymbolTableRecord
100
AcDbLayerTableRecord
  2
PROFILES_OUTSIDE
 70
     0
 62
     6
  6
CONTINUOUS
  0
LAYER
  5
77
330
2
100
AcDbSymbolTableRecord
100
AcDbLayerTableRecord
  2
PROFILES_INSIDE
 70
     0
 62
     4
  6
CONTINUOUS
  0
ENDTAB
  0
TABLE
  2
STYLE
  5
3
330
0
100
AcDbSymbolTable
 70
     1
  0
STYLE
  5
11
330
3
100
AcDbSymbolTableRecord
100
AcDbTextStyleTableRecord
  2
STANDARD
 70
     0
 40
0.0
 41
1.0
 50
0.0
 71
     0
 42
3.5
  3
txt
  4

  0
ENDTAB
  0
TABLE
  2
VIEW
  5
6
330
0
100
AcDbSymbolTable
 70
     0
  0
ENDTAB
  0
TABLE
  2
UCS
  5
7
330
0
100
AcDbSymbolTable
 70
     0
  0
ENDTAB
  0
TABLE
  2
APPID
  5
9
330
0
100
AcDbSymbolTable
 70
     1
  0
APPID
  5
12
330
9
100
AcDbSymbolTableRecord
100
AcDbRegAppTableRecord
  2
ACAD
 70
     0
  0
ENDTAB
  0
TABLE
  2
DIMSTYLE
  5
A
330
0
100
AcDbSymbolTable
 70
     1
  0
DIMSTYLE
105
27
330
A
100
AcDbSymbolTableRecord
100
AcDbDimStyleTableRecord
  2
ISO-25
 70
     0
  3

  4

  5

  6

  7

 40
1.0
 41
2.5
 42
0.625
 43
3.75
 44
1.25
 45
0.0
 46
0.0
 47
0.0
 48
0.0
140
2.5
141
2.5
142
0.0
143
0.0393700787
144
1.0
145
0.0
146
1.0
147
0.625
 71
     0
 72
     0
 73
     0
 74
     0
 75
     0
 76
     0
 77
     1
 78
     8
170
     0
171
     3
172
     1
173
     0
174
     0
175
     0
176
     0
177
     0
178
     0
270
     2
271
     2
272
     2
273
     2
274
     3
340
11
275
     0
280
     0
281
     0
282
     0
283
     0
284
     8
285
     0
286
     0
287
     3
288
     0
  0
ENDTAB
  0
TABLE
  2
BLOCK_RECORD
  5
1
330
0
100
AcDbSymbolTable
 70
     1
  0
BLOCK_RECORD
  5
1F
330
1
100
AcDbSymbolTableRecord
100
AcDbBlockTableRecord
  2
*MODEL_SPACE
  0
BLOCK_RECORD
  5
1B
330
1
100
AcDbSymbolTableRecord
100
AcDbBlockTableRecord
  2
*PAPER_SPACE
  0
BLOCK_RECORD
  5
23
330
1
100
AcDbSymbolTableRecord
100
AcDbBlockTableRecord
  2
*PAPER_SPACE0
  0
ENDTAB
  0
ENDSEC
  0
SECTION
  2
BLOCKS
  0
BLOCK
  5
20
330
1F
100
AcDbEntity
  8
0
100
AcDbBlockBegin
  2
*MODEL_SPACE
 70
     0
 10
0.0
 20
0.0
 30
0.0
  3
*MODEL_SPACE
  1

  0
ENDBLK
  5
21
330
1F
100
AcDbEntity
  8
0
100
AcDbBlockEnd
  0
BLOCK
  5
1C
330
1B
100
AcDbEntity
 67
     1
  8
0
100
AcDbBlockBegin
  2
*PAPER_SPACE
 70
     0
 10
0.0
 20
0.0
 30
0.0
  3
*PAPER_SPACE
  1

  0
ENDBLK
  5
1D
330
1B
100
AcDbEntity
 67
     1
  8
0
100
AcDbBlockEnd
  0
BLOCK
  5
24
330
23
100
AcDbEntity
  8
0
100
AcDbBlockBegin
  2
*PAPER_SPACE0
 70
     0
 10
0.0
 20
0.0
 30
0.0
  3
*PAPER_SPACE0
  1

  0
ENDBLK
  5
25
330
23
100
AcDbEntity
  8
0
100
AcDbBlockEnd
  0
ENDSEC
  0
SECTION
  2
ENTITIES
  0
LINE
  5
78
330
1F
100
AcDbEntity
  8
0
  6
CONTINUOUS
 62
     7
100
AcDbLine
 10
664.9082517456
 20
30.0712617606
 30
0.0
 11
832.9082941841
 21
30.0712617606
 31
0.0
  0
LINE
  5
79
330
1F
100
AcDbEntity
  8
0
  6
CONTINUOUS
 62
     7
100
AcDbLine
 10
664.9082517456
 20
658.0712510765
 30
0.0
 11
664.9082517456
 21
30.0712617606
 31
0.0
  0
LINE
  5
7A
330
1F
100
AcDbEntity
  8
0
  6
CONTINUOUS
 62
     7
100
AcDbLine
 10
832.9082941841
 20
658.0712510765
 30
0.0
 11
664.9082517456
 21
658.0712510765
 31
0.0
  0
LINE
  5
7B
330
1F
100
AcDbEntity
  8
0
  6
CONTINUOUS
 62
     7
100
AcDbLine
 10
832.9082941841
 20
30.0712617606
 30
0.0
 11
832.9082941841
 21
658.0712510765
 31
0.0
  0
LINE
  5
7C
330
1F
100
AcDbEntity
  8
0
  6
CONTINUOUS
 62
     7
100
AcDbLine
 10
864.3883085083
 20
30.0712617606
 30
0.0
 11
1032.3882317375
 21
30.0712617606
 31
0.0
  0
LINE
  5
7D
330
1F
100
AcDbEntity
  8
0
  6
CONTINUOUS
 62
     7
100
AcDbLine
 10
864.3883085083
 20
68.6492635429
 30
0.0
 11
864.3883085083
 21
30.0712617606
 31
0.0
  0
LINE
  5
7E
330
1F
100
AcDbEntity
  8
0
  6
CONTINUOUS
 62
     7
100
AcDbLine
 10
1032.3882317375
 20
68.6492635429
 30
0.0
 11
864.3883085083
 21
68.6492635429
 31
0.0
  0
LINE
  5
7F
330
1F
100
AcDbEntity
  8
0
  6
CONTINUOUS
 62
     7
100
AcDbLine
 10
1032.3882317375
 20
30.0712617606
 30
0.0
 11
1032.3882317375
 21
68.6492635429
 31
0.0
  0
LINE
  5
80
330
1F
100
AcDbEntity
  8
0
  6
CONTINUOUS
 62
     7
100
AcDbLine
 10
1032.3882317375
 20
317.5965859115
 30
0.0
 11
864.3883085083
 21
317.5965859115
 31
0.0
  0
LINE
  5
81
330
1F
100
AcDbEntity
  8
0
  6
CONTINUOUS
 62
     7
100
AcDbLine
 10
864.3883085083
 20
86.8880166233
 30
0.0
 11
1032.3882317375
 21
86.8880166233
 31
0.0
  0
LINE
  5
82
330
1F
100
AcDbEntity
  8
0
  6
CONTINUOUS
 62
     7
100
AcDbLine
 10
864.3883085083
 20
317.5965859115
 30
0.0
 11
864.3883085083
 21
86.8880166233
 31
0.0
  0
LINE
  5
83
330
1F
100
AcDbEntity
  8
0
  6
CONTINUOUS
 62
     7
100
AcDbLine
 10
1032.3882317375
 20
86.8880166233
 30
0.0
 11
1032.3882317375
 21
317.5965859115
 31
0.0
  0
LINE
  5
84
330
1F
100
AcDbEntity
  8
0
  6
CONTINUOUS
 62
     7
100
AcDbLine
 10
864.3883085083
 20
68.6492635429
 30
0.0
 11
864.3883085083
 21
86.8880166233
 31
0.0
  0
LINE
  5
85
330
1F
100
AcDbEntity
  8
0
  6
CONTINUOUS
 62
     7
100
AcDbLine
 10
1032.3882317375
 20
86.8880166233
 30
0.0
 11
1032.3882317375
 21
68.6492635429
 31
0.0
  0
LINE
  5
86
330
1F
100
AcDbEntity
  8
0
  6
CONTINUOUS
 62
     7
100
AcDbLine
 10
298.9063775371
 20
676.2938214958
 30
0.0
 11
308.9901721309
 21
678.0718876541
 31
0.0
  0
LINE
  5
87
330
1F
100
AcDbEntity
  8
0
  6
CONTINUOUS
 62
     7
100
AcDbLine
 10
293.9482843708
 20
145.2663256348
 30
0.0
 11
293.9482843708
 21
670.3849746406
 31
0.0
  0
ARC
  5
88
330
1F
100
AcDbEntity
  8
0
  6
CONTINUOUS
 62
     7
100
AcDbCircle
 10
299.9482800697
 20
145.2663305762
 30
0.0
 40
6.0
100
AcDbArc
 50
180.0
 51
260.0
  0
LINE
  5
89
330
1F
100
AcDbEntity
  8
0
  6
CONTINUOUS
 62
     7
100
AcDbLine
 10
308.9901721309
 20
137.5794424236
 30
0.0
 11
298.9063775371
 21
139.3574787796
 31
0.0
  0
ARC
  5
8A
330
1F
100
AcDbEntity
  8
0
  6
CONTINUOUS
 62
     7
100
AcDbCircle
 10
307.9482800697
 20
131.6705953879
 30
0.0
 40
6.0
100
AcDbArc
 50
0.0
 51
80.0
  0
LINE
  5
8B
330
1F
100
AcDbEntity
  8
0
  6
CONTINUOUS
 62
     7
100
AcDbLine
 10
313.9482652973
 20
131.6705955685
 30
0.0
 11
313.9482652973
 21
108.2413061083
 31
0.0
  0
LINE
  5
8C
330
1F
100
AcDbEntity
  8
0
  6
CONTINUOUS
 62
     7
100
AcDbLine
 10
273.9482736419
 20
710.909576577
 30
0.0
 11
273.9482736419
 21
104.7417535007
 31
0.0
  0
ARC
  5
8D
330
1F
100
AcDbEntity
  8
0
  6
CONTINUOUS
 62
     7
100
AcDbCircle
 10
307.9482800697
 20
683.9807294224
 30
0.0
 40
6.0
100
AcDbArc
 50
280.0
 51
360.0
  0
ARC
  5
8E
330
1F
100
AcDbEntity
  8
0
  6
CONTINUOUS
 62
     7
100
AcDbCircle
 10
299.9482800697
 20
670.3849942341
 30
0.0
 40
6.0
100
AcDbArc
 50
100.0
 51
180.0
  0
LINE
  5
8F
330
1F
100
AcDbEntity
  8
0
  6
CONTINUOUS
 62
     7
100
AcDbLine
 10
313.9482652973
 20
707.4100090683
 30
0.0
 11
313.9482652973
 21
683.9807345093
 31
0.0
  0
LINE
  5
90
330
1F
100
AcDbEntity
  8
0
  6
CONTINUOUS
 62
     7
100
AcDbLine
 10
313.9482652973
 20
707.4100090683
 30
0.0
 11
273.9482736419
 21
710.909576577
 31
0.0
  0
LINE
  5
91
330
1F
100
AcDbEntity
  8
0
  6
CONTINUOUS
 62
     7
100
AcDbLine
 10
273.9482736419
 20
104.7417535007
 30
0.0
 11
313.9482652973
 21
108.2413061083
 31
0.0
  0
ARC
  5
92
330
1F
100
AcDbEntity
  8
0
  6
CONTINUOUS
 62
     7
100
AcDbCircle
 10
307.9482800697
 20
62.203180219
 30
0.0
 40
6.0
100
AcDbArc
 50
275.0
 51
0.0
  0
LINE
  5
93
330
1F
100
AcDbEntity
  8
0
  6
CONTINUOUS
 62
     7
100
AcDbLine
 10
308.4712242912
 20
56.2260127187
 30
0.0
 11
32.4712163042
 21
32.0791410774
 31
0.0
  0
ARC
  5
94
330
1F
100
AcDbEntity
  8
0
  6
CONTINUOUS
 62
     7
100
AcDbCircle
 10
31.9482800697
 20
38.0563090859
 30
0.0
 40
6.000000000000227
100
AcDbArc
 50
180.0
 51
275.0
  0
LINE
  5
95
330
1F
100
AcDbEntity
  8
0
  6
CONTINUOUS
 62
     7
100
AcDbLine
 10
25.9482795577
 20
38.056307894
 30
0.0
 11
25.9482795577
 21
64.2932145417
 31
0.0
  0
LINE
  5
96
330
1F
100
AcDbEntity
  8
0
  6
CONTINUOUS
 62
     7
100
AcDbLine
 10
64.2551547121
 20
67.6446347058
 30
0.0
 11
25.9482795577
 21
64.2932145417
 31
0.0
  0
ARC
  5
97
330
1F
100
AcDbEntity
  8
0
  6
CONTINUOUS
 62
     7
100
AcDbCircle
 10
69.4242749055
 20
67.7398390201
 30
0.0
 40
5.16999900840504
100
AcDbArc
 50
181.0551883717
 51
209.8878356916
  0
ARC
  5
98
330
1F
100
AcDbEntity
  8
0
  6
CONTINUOUS
 62
     7
100
AcDbCircle
 10
64.0748720575
 20
64.6653070149
 30
0.0
 40
0.9999985700006371
100
AcDbArc
 50
5.0
 51
29.8878356916
  0
LINE
  5
99
330
1F
100
AcDbEntity
  8
0
  6
CONTINUOUS
 62
     7
100
AcDbLine
 10
66.0659885238
 20
53.3804497242
 30
0.0
 11
65.0710677932
 21
64.7524608791
 31
0.0
  0
ARC
  5
9A
330
1F
100
AcDbEntity
  8
0
  6
CONTINUOUS
 62
     7
100
AcDbCircle
 10
65.0697941981
 20
53.2932949101
 30
0.0
 40
1.000000000000123
100
AcDbArc
 50
340.1121199588
 51
5.0
  0
ARC
  5
9B
330
1F
100
AcDbEntity
  8
0
  6
CONTINUOUS
 62
     7
100
AcDbCircle
 10
70.8718160617
 20
51.1943803585
 30
0.0
 40
5.170000000000033
100
AcDbArc
 50
160.1121199588
 51
347.399543816
  0
ARC
  5
9C
330
1F
100
AcDbEntity
  8
0
  6
CONTINUOUS
 62
     7
100
AcDbCircle
 10
76.8932117664
 20
49.8483886172
 30
0.0
 40
1.000000000000092
100
AcDbArc
 50
95.0000509005
 51
167.399543816
  0
LINE
  5
9D
330
1F
100
AcDbEntity
  8
0
  6
CONTINUOUS
 62
     7
100
AcDbLine
 10
80.8343058656
 20
51.1970123768
 30
0.0
 11
76.8060526084
 21
50.8445850134
 31
0.0
  0
ARC
  5
9E
330
1F
100
AcDbEntity
  8
0
  6
CONTINUOUS
 62
     7
100
AcDbCircle
 10
80.9214609152
 20
50.2008183576
 30
0.0
 40
0.9999999999999818
100
AcDbArc
 50
22.6004773877
 51
95.0000509005
  0
ARC
  5
9F
330
1F
100
AcDbEntity
  8
0
  6
CONTINUOUS
 62
     7
100
AcDbCircle
 10
86.6176481986
 20
52.5719679591
 30
0.0
 40
5.170000000000083
100
AcDbArc
 50
202.6004773877
 51
29.8879040116
  0
ARC
  5
A0
330
1F
100
AcDbEntity
  8
0
  6
CONTINUOUS
 62
     7
100
AcDbCircle
 10
91.9670503398
 20
55.6465080438
 30
0.0
 40
1.000000000000065
100
AcDbArc
 50
185.0
 51
209.8879040116
  0
LINE
  5
A1
330
1F
100
AcDbEntity
  8
0
  6
CONTINUOUS
 62
     7
100
AcDbLine
 10
89.9759372901
 20
66.9313459218
 30
0.0
 11
90.9708580207
 21
55.5593533934
 31
0.0
  0
ARC
  5
A2
330
1F
100
AcDbEntity
  8
0
  6
CONTINUOUS
 62
     7
100
AcDbCircle
 10
90.9721662266
 20
67.0185071929
 30
0.0
 40
1.000036753616224
100
AcDbArc
 50
160.1121952728
 51
185.0
  0
ARC
  5
A3
330
1F
100
AcDbEntity
  8
0
  6
CONTINUOUS
 62
     7
100
AcDbCircle
 10
85.1701070424
 20
69.1174266207
 30
0.0
 40
5.170000000000024
100
AcDbArc
 50
340.1121952728
 51
8.9447467872
  0
LINE
  5
A4
330
1F
100
AcDbEntity
  8
0
  6
CONTINUOUS
 62
     7
100
AcDbLine
 10
260.9467422794
 20
84.852912885
 30
0.0
 11
90.2772313188
 21
69.9212713659
 31
0.0
  0
ARC
  5
A5
330
1F
100
AcDbEntity
  8
0
  6
CONTINUOUS
 62
     7
100
AcDbCircle
 10
266.1158655014
 20
84.9481234081
 30
0.0
 40
5.169999008404975
100
AcDbArc
 50
181.0551883717
 51
209.8878356916
  0
ARC
  5
A6
330
1F
100
AcDbEntity
  8
0
  6
CONTINUOUS
 62
     7
100
AcDbCircle
 10
260.7664626534
 20
81.8735914029
 30
0.0
 40
0.999998570000623
100
AcDbArc
 50
5.0
 51
29.8878356916
  0
LINE
  5
A7
330
1F
100
AcDbEntity
  8
0
  6
CONTINUOUS
 62
     7
100
AcDbLine
 10
262.7575909923
 20
70.5887316287
 30
0.0
 11
261.7626702617
 21
81.9607465089
 31
0.0
  0
ARC
  5
A8
330
1F
100
AcDbEntity
  8
0
  6
CONTINUOUS
 62
     7
100
AcDbCircle
 10
261.7613847941
 20
70.5015792982
 30
0.0
 40
1.000000000000104
100
AcDbArc
 50
340.1121199588
 51
5.0
  0
ARC
  5
A9
330
1F
100
AcDbEntity
  8
0
  6
CONTINUOUS
 62
     7
100
AcDbCircle
 10
267.5634066576
 20
68.4026647465
 30
0.0
 40
5.16999999999994
100
AcDbArc
 50
160.1121199588
 51
347.399543816
  0
ARC
  5
AA
330
1F
100
AcDbEntity
  8
0
  6
CONTINUOUS
 62
     7
100
AcDbCircle
 10
273.5848023623
 20
67.0566730053
 30
0.0
 40
1.000000000000078
100
AcDbArc
 50
95.0000509005
 51
167.399543816
  0
LINE
  5
AB
330
1F
100
AcDbEntity
  8
0
  6
CONTINUOUS
 62
     7
100
AcDbLine
 10
277.525893433
 20
68.4052942813
 30
0.0
 11
273.4976327251
 21
68.0528669179
 31
0.0
  0
ARC
  5
AC
330
1F
100
AcDbEntity
  8
0
  6
CONTINUOUS
 62
     7
100
AcDbCircle
 10
277.6130515112
 20
67.4091027457
 30
0.0
 40
0.9999999999999942
100
AcDbArc
 50
22.6004773877
 51
95.0000509005
  0
ARC
  5
AD
330
1F
100
AcDbEntity
  8
0
  6
CONTINUOUS
 62
     7
100
AcDbCircle
 10
281.8616976384
 20
86.3257110087
 30
0.0
 40
5.170000000000006
100
AcDbArc
 50
340.1121952728
 51
8.9447467872
  0
LINE
  5
AE
330
1F
100
AcDbEntity
  8
0
  6
CONTINUOUS
 62
     7
100
AcDbLine
 10
313.9482652973
 20
89.4899456323
 30
0.0
 11
313.9482652973
 21
62.203181398
 31
0.0
  0
ARC
  5
AF
330
1F
100
AcDbEntity
  8
0
  6
CONTINUOUS
 62
     7
100
AcDbCircle
 10
288.6586409357
 20
72.8547924318
 30
0.0
 40
1.000000000000009
100
AcDbArc
 50
185.0
 51
209.8879040116
  0
LINE
  5
B0
330
1F
100
AcDbEntity
  8
0
  6
CONTINUOUS
 62
     7
100
AcDbLine
 10
286.6675174068
 20
84.1396315515
 30
0.0
 11
287.6624381374
 21
72.7676390231
 31
0.0
  0
ARC
  5
B1
330
1F
100
AcDbEntity
  8
0
  6
CONTINUOUS
 62
     7
100
AcDbCircle
 10
287.6637568225
 20
84.2267915809
 30
0.0
 40
1.000036753616095
100
AcDbArc
 50
160.1121952728
 51
185.0
  0
LINE
  5
B2
330
1F
100
AcDbEntity
  8
0
  6
CONTINUOUS
 62
     7
100
AcDbLine
 10
313.9482652973
 20
89.4899456323
 30
0.0
 11
286.9688188862
 21
87.1295495451
 31
0.0
  0
ARC
  5
B3
330
1F
100
AcDbEntity
  8
0
  6
CONTINUOUS
 62
     7
100
AcDbCircle
 10
283.3092387946
 20
69.7802523471
 30
0.0
 40
5.170000000000116
100
AcDbArc
 50
202.6004773877
 51
29.8879040116
  0
ARC
  5
B4
330
1F
100
AcDbEntity
  8
0
  6
CONTINUOUS
 62
     7
100
AcDbCircle
 10
31.9482800697
 20
777.5950157244
 30
0.0
 40
6.000000000000075
100
AcDbArc
 50
85.0
 51
180.0
  0
LINE
  5
B5
330
1F
100
AcDbEntity
  8
0
  6
CONTINUOUS
 62
     7
100
AcDbLine
 10
32.4712163042
 20
783.5721685112
 30
0.0
 11
308.4712242912
 21
759.4253136337
 31
0.0
  0
ARC
  5
B6
330
1F
100
AcDbEntity
  8
0
  6
CONTINUOUS
 62
     7
100
AcDbCircle
 10
307.9482800697
 20
753.4481445912
 30
0.0
 40
6.0
100
AcDbArc
 50
360.0
 51
85.0
  0
ARC
  5
B7
330
1F
100
AcDbEntity
  8
0
  6
CONTINUOUS
 62
     7
100
AcDbCircle
 10
281.8616992233
 20
729.3256194537
 30
0.0
 40
5.170000000000098
100
AcDbArc
 50
351.0551891295
 51
19.8879040116
  0
LINE
  5
B8
330
1F
100
AcDbEntity
  8
0
  6
CONTINUOUS
 62
     7
100
AcDbLine
 10
287.6624381374
 20
742.8837134064
 30
0.0
 11
286.6675174068
 21
731.511683625
 31
0.0
  0
ARC
  5
B9
330
1F
100
AcDbEntity
  8
0
  6
CONTINUOUS
 62
     7
100
AcDbCircle
 10
277.6130500543
 20
748.2422257981
 30
0.0
 40
0.9999999999999528
100
AcDbArc
 50
265.0000509005
 51
337.399543816
  0
LINE
  5
BA
330
1F
100
AcDbEntity
  8
0
  6
CONTINUOUS
 62
     7
100
AcDbLine
 10
273.4976327251
 20
747.5984408081
 30
0.0
 11
277.525893433
 21
747.2460581482
 31
0.0
  0
ARC
  5
BB
330
1F
100
AcDbEntity
  8
0
  6
CONTINUOUS
 62
     7
100
AcDbCircle
 10
273.5848002792
 20
748.5946483812
 30
0.0
 40
1.000000991594902
100
AcDbArc
 50
192.6004773877
 51
265.0000509005
  0
ARC
  5
BC
330
1F
100
AcDbEntity
  8
0
  6
CONTINUOUS
 62
     7
100
AcDbCircle
 10
267.5634050726
 20
747.2486544116
 30
0.0
 40
5.169999008405017
100
AcDbArc
 50
12.6004773877
 51
199.8878356916
  0
ARC
  5
BD
330
1F
100
AcDbEntity
  8
0
  6
CONTINUOUS
 62
     7
100
AcDbCircle
 10
261.7613847941
 20
745.1497455121
 30
0.0
 40
0.99999857000057
100
AcDbArc
 50
355.0
 51
19.8878356916
  0
LINE
  5
BE
330
1F
100
AcDbEntity
  8
0
  6
CONTINUOUS
 62
     7
100
AcDbLine
 10
261.7626702617
 20
733.6905910194
 30
0.0
 11
262.7575909923
 21
745.0625611961
 31
0.0
  0
ARC
  5
BF
330
1F
100
AcDbEntity
  8
0
  6
CONTINUOUS
 62
     7
100
AcDbCircle
 10
260.7664626534
 20
733.7777334074
 30
0.0
 40
1.000000000000061
100
AcDbArc
 50
330.1121199588
 51
355.0
  0
ARC
  5
C0
330
1F
100
AcDbEntity
  8
0
  6
CONTINUOUS
 62
     7
100
AcDbCircle
 10
266.1158660808
 20
730.7031955606
 30
0.0
 40
5.170000000000011
100
AcDbArc
 50
150.1121199588
 51
178.9447467872
  0
LINE
  5
C1
330
1F
100
AcDbEntity
  8
0
  6
CONTINUOUS
 62
     7
100
AcDbLine
 10
90.2772313188
 20
745.730073613
 30
0.0
 11
260.9467422794
 21
730.798394841
 31
0.0
  0
ARC
  5
C2
330
1F
100
AcDbEntity
  8
0
  6
CONTINUOUS
 62
     7
100
AcDbCircle
 10
85.1701086274
 20
746.5339038417
 30
0.0
 40
5.170000000000021
100
AcDbArc
 50
351.0551891295
 51
19.8879040116
  0
ARC
  5
C3
330
1F
100
AcDbEntity
  8
0
  6
CONTINUOUS
 62
     7
100
AcDbCircle
 10
90.9721296128
 20
748.6328208207
 30
0.0
 40
1.00000000000001
100
AcDbArc
 50
175.0
 51
199.8879040116
  0
LINE
  5
C4
330
1F
100
AcDbEntity
  8
0
  6
CONTINUOUS
 62
     7
100
AcDbLine
 10
90.9708580207
 20
760.0919915855
 30
0.0
 11
89.9759372901
 21
748.7199618042
 31
0.0
  0
ARC
  5
C5
330
1F
100
AcDbEntity
  8
0
  6
CONTINUOUS
 62
     7
100
AcDbCircle
 10
91.9670869535
 20
760.0048135632
 30
0.0
 40
1.000036753616298
100
AcDbArc
 50
150.1121952728
 51
175.0
  0
ARC
  5
C6
330
1F
100
AcDbEntity
  8
0
  6
CONTINUOUS
 62
     7
100
AcDbCircle
 10
86.6176476192
 20
763.0793626927
 30
0.0
 40
5.17000000000002
100
AcDbArc
 50
330.1121952728
 51
157.399543816
  0
ARC
  5
C7
330
1F
100
AcDbEntity
  8
0
  6
CONTINUOUS
 62
     7
100
AcDbCircle
 10
80.9214594583
 20
765.4505101861
 30
0.0
 40
1.000000000000062
100
AcDbArc
 50
265.0000509005
 51
337.399543816
  0
LINE
  5
C8
330
1F
100
AcDbEntity
  8
0
  6
CONTINUOUS
 62
     7
100
AcDbLine
 10
76.8060526084
 20
764.8067189873
 30
0.0
 11
80.8343058656
 21
764.4543363273
 31
0.0
  0
ARC
  5
C9
330
1F
100
AcDbEntity
  8
0
  6
CONTINUOUS
 62
     7
100
AcDbCircle
 10
76.8932096833
 20
765.8029327693
 30
0.0
 40
1.000000991595013
100
AcDbArc
 50
192.6004773877
 51
265.0000509005
  0
ARC
  5
CA
330
1F
100
AcDbEntity
  8
0
  6
CONTINUOUS
 62
     7
100
AcDbCircle
 10
70.8718144767
 20
764.4569387996
 30
0.0
 40
5.169999008404969
100
AcDbArc
 50
12.6004773877
 51
199.8878356916
  0
ARC
  5
CB
330
1F
100
AcDbEntity
  8
0
  6
CONTINUOUS
 62
     7
100
AcDbCircle
 10
65.0697941981
 20
762.3580299001
 30
0.0
 40
0.9999985700006168
100
AcDbArc
 50
355.0
 51
19.8878356916
  0
LINE
  5
CC
330
1F
100
AcDbEntity
  8
0
  6
CONTINUOUS
 62
     7
100
AcDbLine
 10
65.0710677932
 20
750.8988691986
 30
0.0
 11
66.0659885238
 21
762.2708989799
 31
0.0
  0
ARC
  5
CD
330
1F
100
AcDbEntity
  8
0
  6
CONTINUOUS
 62
     7
100
AcDbCircle
 10
64.0748720575
 20
750.9860177954
 30
0.0
 40
1.00000000000001
100
AcDbArc
 50
330.1121199588
 51
355.0
  0
ARC
  5
CE
330
1F
100
AcDbEntity
  8
0
  6
CONTINUOUS
 62
     7
100
AcDbCircle
 10
69.4242754849
 20
747.9114799487
 30
0.0
 40
5.170000000000117
100
AcDbArc
 50
150.1121199588
 51
178.9447467872
  0
LINE
  5
CF
330
1F
100
AcDbEntity
  8
0
  6
CONTINUOUS
 62
     7
100
AcDbLine
 10
25.9482795577
 20
751.3581229866
 30
0.0
 11
64.2551547121
 21
748.0066730202
 31
0.0
  0
LINE
  5
D0
330
1F
100
AcDbEntity
  8
0
  6
CONTINUOUS
 62
     7
100
AcDbLine
 10
25.9482795577
 20
751.3581229866
 30
0.0
 11
25.9482795577
 21
777.5950147331
 31
0.0
  0
ARC
  5
D1
330
1F
100
AcDbEntity
  8
0
  6
CONTINUOUS
 62
     7
100
AcDbCircle
 10
287.6637202088
 20
731.4245364327
 30
0.0
 40
1.00000000000001
100
AcDbArc
 50
175.0
 51
199.8879040116
  0
ARC
  5
D2
330
1F
100
AcDbEntity
  8
0
  6
CONTINUOUS
 62
     7
100
AcDbCircle
 10
283.3092382152
 20
745.8710783046
 30
0.0
 40
5.170000000000092
100
AcDbArc
 50
330.1121952728
 51
157.399543816
  0
LINE
  5
D3
330
1F
100
AcDbEntity
  8
0
  6
CONTINUOUS
 62
     7
100
AcDbLine
 10
286.9688188862
 20
728.5217954338
 30
0.0
 11
313.9482652973
 21
726.161391896
 31
0.0
  0
LINE
  5
D4
330
1F
100
AcDbEntity
  8
0
  6
CONTINUOUS
 62
     7
100
AcDbLine
 10
313.9482652973
 20
753.4481598556
 30
0.0
 11
313.9482652973
 21
726.161391896
 31
0.0
  0
ARC
  5
D5
330
1F
100
AcDbEntity
  8
0
  6
CONTINUOUS
 62
     7
100
AcDbCircle
 10
288.6586775494
 20
742.7965291752
 30
0.0
 40
1.000036753616183
100
AcDbArc
 50
150.1121952728
 51
175.0
  0
LINE
  5
D6
330
1F
100
AcDbEntity
  8
0
  6
CONTINUOUS
 62
     7
100
AcDbLine
 10
25.9482795577
 20
83.0445675671
 30
0.0
 11
255.6082820724
 21
103.1372113645
 31
0.0
  0
LINE
  5
D7
330
1F
100
AcDbEntity
  8
0
  6
CONTINUOUS
 62
     7
100
AcDbLine
 10
25.9482795577
 20
83.0445675671
 30
0.0
 11
25.9482795577
 21
732.6067401588
 31
0.0
  0
LINE
  5
D8
330
1F
100
AcDbEntity
  8
0
  6
CONTINUOUS
 62
     7
100
AcDbLine
 10
255.6082820724
 20
103.1372113645
 30
0.0
 11
255.6082820724
 21
712.5141336143
 31
0.0
  0
LINE
  5
D9
330
1F
100
AcDbEntity
  8
0
  6
CONTINUOUS
 62
     7
100
AcDbLine
 10
255.6082820724
 20
712.5141336143
 30
0.0
 11
25.9482795577
 21
732.6067401588
 31
0.0
  0
ARC
  5
DA
330
1F
100
AcDbEntity
  8
0
  6
CONTINUOUS
 62
     7
100
AcDbCircle
 10
275.8403019337
 20
87.67170275
 30
0.0
 40
1.000000000000097
100
AcDbArc
 50
275.0000509005
 51
347.399543816
  0
LINE
  5
DB
330
1F
100
AcDbEntity
  8
0
  6
CONTINUOUS
 62
     7
100
AcDbLine
 10
275.9274458717
 20
86.6755111635
 30
0.0
 11
271.8992149662
 21
86.3230763495
 31
0.0
  0
ARC
  5
DC
330
1F
100
AcDbEntity
  8
0
  6
CONTINUOUS
 62
     7
100
AcDbCircle
 10
271.8120527848
 20
87.3192730096
 30
0.0
 40
1.000000000000071
100
AcDbArc
 50
202.6004773877
 51
275.0000509005
  0
ARC
  5
DD
330
1F
100
AcDbEntity
  8
0
  6
CONTINUOUS
 62
     7
100
AcDbCircle
 10
79.1487113377
 20
70.463418362
 30
0.0
 40
1.000000000000105
100
AcDbArc
 50
275.0000509005
 51
347.399543816
  0
LINE
  5
DE
330
1F
100
AcDbEntity
  8
0
  6
CONTINUOUS
 62
     7
100
AcDbLine
 10
79.235865755
 20
69.4672255338
 30
0.0
 11
75.2076199483
 21
69.1147907198
 31
0.0
  0
ARC
  5
DF
330
1F
100
AcDbEntity
  8
0
  6
CONTINUOUS
 62
     7
100
AcDbCircle
 10
75.1204621889
 20
70.1109886216
 30
0.0
 40
0.999999999999996
100
AcDbArc
 50
202.6004773877
 51
275.0000509005
  0
ARC
  5
E0
330
1F
100
AcDbEntity
  8
0
  6
CONTINUOUS
 62
     7
100
AcDbCircle
 10
75.1204636458
 20
745.5403324552
 30
0.0
 40
1.000000000000032
100
AcDbArc
 50
85.0000509005
 51
157.399543816
  0
LINE
  5
E1
330
1F
100
AcDbEntity
  8
0
  6
CONTINUOUS
 62
     7
100
AcDbLine
 10
75.2076199483
 20
746.5365244568
 30
0.0
 11
79.235865755
 21
746.1840821922
 31
0.0
  0
ARC
  5
E2
330
1F
100
AcDbEntity
  8
0
  6
CONTINUOUS
 62
     7
100
AcDbCircle
 10
79.1487134208
 20
745.1879098721
 30
0.0
 40
1.000000000000053
100
AcDbArc
 50
12.6004773877
 51
85.0000509005
  0
ARC
  5
E3
330
1F
100
AcDbEntity
  8
0
  6
CONTINUOUS
 62
     7
100
AcDbCircle
 10
271.8120542417
 20
728.3320480672
 30
0.0
 40
1.000000000000136
100
AcDbArc
 50
85.0000509005
 51
157.399543816
  0
LINE
  5
E4
330
1F
100
AcDbEntity
  8
0
  6
CONTINUOUS
 62
     7
100
AcDbLine
 10
271.8992149662
 20
729.3282462776
 30
0.0
 11
275.9274458717
 21
728.975804013
 31
0.0
  0
ARC
  5
E5
330
1F
100
AcDbEntity
  8
0
  6
CONTINUOUS
 62
     7
100
AcDbCircle
 10
275.8403040168
 20
727.979625484
 30
0.0
 40
1.000000000000094
100
AcDbArc
 50
12.6004773877
 51
85.0000509005
  0
LINE
  5
E6
330
1F
100
AcDbEntity
  8
0
  6
CONTINUOUS
 62
     7
100
AcDbLine
 10
25.9482795577
 20
83.0445675671
 30
0.0
 11
25.9482795577
 21
64.2932145417
 31
0.0
  0
LINE
  5
E7
330
1F
100
AcDbEntity
  8
0
  6
CONTINUOUS
 62
     7
100
AcDbLine
 10
25.9482795577
 20
751.3581229866
 30
0.0
 11
25.9482795577
 21
732.6067401588
 31
0.0
  0
ARC
  5
E8
330
1F
100
AcDbEntity
  8
0
  6
CONTINUOUS
 62
     7
100
AcDbCircle
 10
69.4242754849
 20
747.9114799487
 30
0.0
 40
5.170000000000013
100
AcDbArc
 50
178.9447467872
 51
337.399543816
  0
ARC
  5
E9
330
1F
100
AcDbEntity
  8
0
  6
CONTINUOUS
 62
     7
100
AcDbCircle
 10
69.4242749055
 20
67.7398390201
 30
0.0
 40
5.170000000000037
100
AcDbArc
 50
22.6004773877
 51
181.0551883717
  0
ARC
  5
EA
330
1F
100
AcDbEntity
  8
0
  6
CONTINUOUS
 62
     7
100
AcDbCircle
 10
85.1701070424
 20
69.1174266207
 30
0.0
 40
5.170000000000069
100
AcDbArc
 50
8.9447467872
 51
167.399543816
  0
ARC
  5
EB
330
1F
100
AcDbEntity
  8
0
  6
CONTINUOUS
 62
     7
100
AcDbCircle
 10
85.1701086274
 20
746.5339038417
 30
0.0
 40
5.170000000000015
100
AcDbArc
 50
192.6004773877
 51
351.0551891295
  0
ARC
  5
EC
330
1F
100
AcDbEntity
  8
0
  6
CONTINUOUS
 62
     7
100
AcDbCircle
 10
266.1158660808
 20
730.7031955606
 30
0.0
 40
5.170000000000011
100
AcDbArc
 50
178.9447467872
 51
337.399543816
  0
ARC
  5
ED
330
1F
100
AcDbEntity
  8
0
  6
CONTINUOUS
 62
     7
100
AcDbCircle
 10
266.1158655014
 20
84.9481234081
 30
0.0
 40
5.16999999999998
100
AcDbArc
 50
22.6004773877
 51
181.0551883717
  0
ARC
  5
EE
330
1F
100
AcDbEntity
  8
0
  6
CONTINUOUS
 62
     7
100
AcDbCircle
 10
281.8616992233
 20
729.3256194537
 30
0.0
 40
5.170000000000098
100
AcDbArc
 50
192.6004773877
 51
351.0551891295
  0
LINE
  5
EF
330
1F
100
AcDbEntity
  8
0
  6
CONTINUOUS
 62
     7
100
AcDbLine
 10
313.9482652973
 20
89.4899456323
 30
0.0
 11
313.9482652973
 21
108.2413061083
 31
0.0
  0
ARC
  5
F0
330
1F
100
AcDbEntity
  8
0
  6
CONTINUOUS
 62
     7
100
AcDbCircle
 10
281.8616976384
 20
86.3257110087
 30
0.0
 40
5.1700000000001
100
AcDbArc
 50
8.9447467872
 51
167.399543816
  0
LINE
  5
F1
330
1F
100
AcDbEntity
  8
0
  6
CONTINUOUS
 62
     7
100
AcDbLine
 10
313.9482652973
 20
707.4100090683
 30
0.0
 11
313.9482652973
 21
726.161391896
 31
0.0
  0
ARC
  5
F2
330
1F
100
AcDbEntity
  8
0
  6
CONTINUOUS
 62
     7
100
AcDbCircle
 10
1069.8682800697
 20
49.0732622726
 30
0.0
 40
6.000000000000007
100
AcDbArc
 50
90.0
 51
180.0
  0
LINE
  5
F3
330
1F
100
AcDbEntity
  8
0
  6
CONTINUOUS
 62
     7
100
AcDbLine
 10
1122.3433232139
 20
55.073262614
 30
0.0
 11
1069.8682284187
 21
55.073262614
 31
0.0
  0
ARC
  5
F4
330
1F
100
AcDbEntity
  8
0
  6
CONTINUOUS
 62
     7
100
AcDbCircle
 10
1122.3432800697
 20
67.0732622726
 30
0.0
 40
12.0
100
AcDbArc
 50
270.0
 51
0.0
  0
LINE
  5
F5
330
1F
100
AcDbEntity
  8
0
  6
CONTINUOUS
 62
     7
100
AcDbLine
 10
1134.343287928
 20
116.553568703
 30
0.0
 11
1134.343287928
 21
67.073264581
 31
0.0
  0
ARC
  5
F6
330
1F
100
AcDbEntity
  8
0
  6
CONTINUOUS
 62
     7
100
AcDbCircle
 10
1143.8682800697
 20
116.553569112
 30
0.0
 40
9.525000000000091
100
AcDbArc
 50
120.0
 51
180.0
  0
ARC
  5
F7
330
1F
100
AcDbEntity
  8
0
  6
CONTINUOUS
 62
     7
100
AcDbCircle
 10
1134.3432800697
 20
133.0513530541
 30
0.0
 40
9.525000000000091
100
AcDbArc
 50
300.0
 51
0.0
  0
LINE
  5
F8
330
1F
100
AcDbEntity
  8
0
  6
CONTINUOUS
 62
     7
100
AcDbLine
 10
1143.8682293724
 20
174.5380921781
 30
0.0
 11
1143.8682293724
 21
133.0513520658
 31
0.0
  0
ARC
  5
F9
330
1F
100
AcDbEntity
  8
0
  6
CONTINUOUS
 62
     7
100
AcDbCircle
 10
1134.3432800697
 20
174.5380920093
 30
0.0
 40
9.525000000000091
100
AcDbArc
 50
0.0
 51
60.0
  0
ARC
  5
FA
330
1F
100
AcDbEntity
  8
0
  6
CONTINUOUS
 62
     7
100
AcDbCircle
 10
1143.8682800697
 20
191.0358759514
 30
0.0
 40
9.524999999999869
100
AcDbArc
 50
180.0
 51
240.0
  0
LINE
  5
FB
330
1F
100
AcDbEntity
  8
0
  6
CONTINUOUS
 62
     7
100
AcDbLine
 10
1134.343287928
 20
240.5161871136
 30
0.0
 11
1134.343287928
 21
191.0358829916
 31
0.0
  0
ARC
  5
FC
330
1F
100
AcDbEntity
  8
0
  6
CONTINUOUS
 62
     7
100
AcDbCircle
 10
1122.3432800697
 20
240.5161827908
 30
0.0
 40
12.00000000000003
100
AcDbArc
 50
0.0
 51
90.0
  0
LINE
  5
FD
330
1F
100
AcDbEntity
  8
0
  6
CONTINUOUS
 62
     7
100
AcDbLine
 10
1069.8682284187
 20
252.5161816299
 30
0.0
 11
1122.3433232139
 21
252.5161816299
 31
0.0
  0
ARC
  5
FE
330
1F
100
AcDbEntity
  8
0
  6
CONTINUOUS
 62
     7
100
AcDbCircle
 10
1069.8682800697
 20
258.5161827908
 30
0.0
 40
6.000000000000028
100
AcDbArc
 50
180.0
 51
270.0
  0
LINE
  5
FF
330
1F
100
AcDbEntity
  8
0
  6
CONTINUOUS
 62
     7
100
AcDbLine
 10
1063.8683056663
 20
270.2661766231
 30
0.0
 11
1063.8683056663
 21
258.5161937893
 31
0.0
  0
ARC
  5
100
330
1F
100
AcDbEntity
  8
0
  6
CONTINUOUS
 62
     7
100
AcDbCircle
 10
1064.8682800697
 20
270.2661827908
 30
0.0
 40
1.0
100
AcDbArc
 50
90.0
 51
180.0
  0
LINE
  5
101
330
1F
100
AcDbEntity
  8
0
  6
CONTINUOUS
 62
     7
100
AcDbLine
 10
1064.8682331871
 20
271.2661935509
 30
0.0
 11
1070.1282238792
 21
271.2661935509
 31
0.0
  0
LINE
  5
102
330
1F
100
AcDbEntity
  8
0
  6
CONTINUOUS
 62
     7
100
AcDbLine
 10
1070.1282238792
 20
271.2661935509
 30
0.0
 11
1070.4683279823
 21
265.9523202598
 31
0.0
  0
ARC
  5
103
330
1F
100
AcDbEntity
  8
0
  6
CONTINUOUS
 62
     7
100
AcDbCircle
 10
1071.4663259768
 20
266.0161827908
 30
0.0
 40
1.0
100
AcDbArc
 50
183.6619355755
 51
270.0
  0
LINE
  5
104
330
1F
100
AcDbEntity
  8
0
  6
CONTINUOUS
 62
     7
100
AcDbLine
 10
1071.4663481544
 20
265.016169709
 30
0.0
 11
1085.4059672188
 21
265.016169709
 31
0.0
  0
ARC
  5
105
330
1F
100
AcDbEntity
  8
0
  6
CONTINUOUS
 62
     7
100
AcDbCircle
 10
1085.4060016863
 20
264.0161827908
 30
0.0
 40
1.0
100
AcDbArc
 50
65.1121079736
 51
90.0
  0
ARC
  5
106
330
1F
100
AcDbEntity
  8
0
  6
CONTINUOUS
 62
     7
100
AcDbCircle
 10
1088.0026099301
 20
269.6131932096
 30
0.0
 40
5.170000000000085
100
AcDbArc
 50
245.1121079736
 51
72.3995332141
  0
ARC
  5
107
330
1F
100
AcDbEntity
  8
0
  6
CONTINUOUS
 62
     7
100
AcDbCircle
 10
1089.8682800697
 20
275.4943644305
 30
0.0
 40
1.000000000000227
100
AcDbArc
 50
180.0
 51
252.3995332141
  0
LINE
  5
108
330
1F
100
AcDbEntity
  8
0
  6
CONTINUOUS
 62
     7
100
AcDbLine
 10
1088.8682818245
 20
277.518184346
 30
0.0
 11
1088.8682818245
 21
275.4943682373
 31
0.0
  0
LINE
  5
109
330
1F
100
AcDbEntity
  8
0
  6
CONTINUOUS
 62
     7
100
AcDbLine
 10
1131.8682646583
 20
277.518184346
 30
0.0
 11
1088.8682818245
 21
277.518184346
 31
0.0
  0
ARC
  5
10A
330
1F
100
AcDbEntity
  8
0
  6
CONTINUOUS
 62
     7
100
AcDbCircle
 10
1131.8682800697
 20
265.5181827908
 30
0.0
 40
12.00000000000006
100
AcDbArc
 50
0.0
 51
90.0
  0
LINE
  5
10B
330
1F
100
AcDbEntity
  8
0
  6
CONTINUOUS
 62
     7
100
AcDbLine
 10
1143.8682293724
 20
203.035877508
 30
0.0
 11
1143.8682293724
 21
265.5181898296
 31
0.0
  0
ARC
  5
10C
330
1F
100
AcDbEntity
  8
0
  6
CONTINUOUS
 62
     7
100
AcDbCircle
 10
1155.8682800697
 20
203.0358759514
 30
0.0
 40
12.00000000000003
100
AcDbArc
 50
180.0
 51
270.0
  0
LINE
  5
10D
330
1F
100
AcDbEntity
  8
0
  6
CONTINUOUS
 62
     7
100
AcDbLine
 10
1171.8682265114
 20
191.0358829916
 30
0.0
 11
1155.8683132957
 21
191.0358829916
 31
0.0
  0
ARC
  5
10E
330
1F
100
AcDbEntity
  8
0
  6
CONTINUOUS
 62
     7
100
AcDbCircle
 10
1171.8682800697
 20
203.0358759514
 30
0.0
 40
12.0
100
AcDbArc
 50
270.0
 51
0.0
  0
LINE
  5
10F
330
1F
100
AcDbEntity
  8
0
  6
CONTINUOUS
 62
     7
100
AcDbLine
 10
1183.8683104347
 20
265.5181898296
 30
0.0
 11
1183.8683104347
 21
203.035877508
 31
0.0
  0
ARC
  5
110
330
1F
100
AcDbEntity
  8
0
  6
CONTINUOUS
 62
     7
100
AcDbCircle
 10
1195.8682800697
 20
265.5181827908
 30
0.0
 40
12.00000000000006
100
AcDbArc
 50
90.0
 51
180.0
  0
LINE
  5
111
330
1F
100
AcDbEntity
  8
0
  6
CONTINUOUS
 62
     7
100
AcDbLine
 10
1238.8682579826
 20
277.518184346
 30
0.0
 11
1195.8682751487
 21
277.518184346
 31
0.0
  0
LINE
  5
112
330
1F
100
AcDbEntity
  8
0
  6
CONTINUOUS
 62
     7
100
AcDbLine
 10
1238.8682579826
 20
275.4943682373
 30
0.0
 11
1238.8682579826
 21
277.518184346
 31
0.0
  0
ARC
  5
113
330
1F
100
AcDbEntity
  8
0
  6
CONTINUOUS
 62
     7
100
AcDbCircle
 10
1237.8682800697
 20
275.4943644305
 30
0.0
 40
1.000000000000227
100
AcDbArc
 50
287.6004667859
 51
0.0
  0
ARC
  5
114
330
1F
100
AcDbEntity
  8
0
  6
CONTINUOUS
 62
     7
100
AcDbCircle
 10
1239.7339502093
 20
269.6131932096
 30
0.0
 40
5.17000000000008
100
AcDbArc
 50
107.6004667859
 51
294.8878920264
  0
ARC
  5
115
330
1F
100
AcDbEntity
  8
0
  6
CONTINUOUS
 62
     7
100
AcDbCircle
 10
1242.3305584531
 20
264.0161827908
 30
0.0
 40
0.9999999999999432
100
AcDbArc
 50
90.0
 51
114.8878920264
  0
LINE
  5
116
330
1F
100
AcDbEntity
  8
0
  6
CONTINUOUS
 62
     7
100
AcDbLine
 10
1242.3305725883
 20
265.016169709
 30
0.0
 11
1256.2701916526
 21
265.016169709
 31
0.0
  0
ARC
  5
117
330
1F
100
AcDbEntity
  8
0
  6
CONTINUOUS
 62
     7
100
AcDbCircle
 10
1256.2702341626
 20
266.0161827908
 30
0.0
 40
1.00000000000016
100
AcDbArc
 50
270.0
 51
356.3380644245
  0
LINE
  5
118
330
1F
100
AcDbEntity
  8
0
  6
CONTINUOUS
 62
     7
100
AcDbLine
 10
1257.2682118248
 20
265.9523202598
 30
0.0
 11
1257.6083159279
 21
271.2661935509
 31
0.0
  0
LINE
  5
119
330
1F
100
AcDbEntity
  8
0
  6
CONTINUOUS
 62
     7
100
AcDbLine
 10
1257.6083159279
 20
271.2661935509
 30
0.0
 11
1262.86830662
 21
271.2661935509
 31
0.0
  0
ARC
  5
11A
330
1F
100
AcDbEntity
  8
0
  6
CONTINUOUS
 62
     7
100
AcDbCircle
 10
1262.8682800697
 20
270.2661827908
 30
0.0
 40
1.0
100
AcDbArc
 50
0.0
 51
90.0
  0
LINE
  5
11B
330
1F
100
AcDbEntity
  8
0
  6
CONTINUOUS
 62
     7
100
AcDbLine
 10
1263.8682341407
 20
258.5161937893
 30
0.0
 11
1263.8682341407
 21
270.2661766231
 31
0.0
  0
ARC
  5
11C
330
1F
100
AcDbEntity
  8
0
  6
CONTINUOUS
 62
     7
100
AcDbCircle
 10
1257.8682800697
 20
258.5161827908
 30
0.0
 40
6.000000000000028
100
AcDbArc
 50
270.0
 51
0.0
  0
LINE
  5
11D
330
1F
100
AcDbEntity
  8
0
  6
CONTINUOUS
 62
     7
100
AcDbLine
 10
1205.3933358024
 20
252.5161816299
 30
0.0
 11
1257.8683113884
 21
252.5161816299
 31
0.0
  0
ARC
  5
11E
330
1F
100
AcDbEntity
  8
0
  6
CONTINUOUS
 62
     7
100
AcDbCircle
 10
1205.3932800697
 20
240.5161827908
 30
0.0
 40
12.00000000000003
100
AcDbArc
 50
90.0
 51
180.0
  0
LINE
  5
11F
330
1F
100
AcDbEntity
  8
0
  6
CONTINUOUS
 62
     7
100
AcDbLine
 10
1193.3932518791
 20
191.0358829916
 30
0.0
 11
1193.3932518791
 21
240.5161871136
 31
0.0
  0
ARC
  5
120
330
1F
100
AcDbEntity
  8
0
  6
CONTINUOUS
 62
     7
100
AcDbCircle
 10
1183.8682800697
 20
191.0358759514
 30
0.0
 40
9.525000000000091
100
AcDbArc
 50
300.0
 51
0.0
  0
ARC
  5
121
330
1F
100
AcDbEntity
  8
0
  6
CONTINUOUS
 62
     7
100
AcDbCircle
 10
1193.3932800697
 20
174.5380920093
 30
0.0
 40
9.525000000000091
100
AcDbArc
 50
120.0
 51
180.0
  0
LINE
  5
122
330
1F
100
AcDbEntity
  8
0
  6
CONTINUOUS
 62
     7
100
AcDbLine
 10
1183.8683104347
 20
133.0513520658
 30
0.0
 11
1183.8683104347
 21
174.5380921781
 31
0.0
  0
ARC
  5
123
330
1F
100
AcDbEntity
  8
0
  6
CONTINUOUS
 62
     7
100
AcDbCircle
 10
1193.3932800697
 20
133.0513530541
 30
0.0
 40
9.525000000000091
100
AcDbArc
 50
180.0
 51
240.0
  0
ARC
  5
124
330
1F
100
AcDbEntity
  8
0
  6
CONTINUOUS
 62
     7
100
AcDbCircle
 10
1183.8682800697
 20
116.553569112
 30
0.0
 40
9.525000000000091
100
AcDbArc
 50
0.0
 51
60.0
  0
LINE
  5
125
330
1F
100
AcDbEntity
  8
0
  6
CONTINUOUS
 62
     7
100
AcDbLine
 10
1193.3932518791
 20
67.073264581
 30
0.0
 11
1193.3932518791
 21
116.553568703
 31
0.0
  0
ARC
  5
126
330
1F
100
AcDbEntity
  8
0
  6
CONTINUOUS
 62
     7
100
AcDbCircle
 10
1205.3932800697
 20
67.0732622726
 30
0.0
 40
12.00000000000006
100
AcDbArc
 50
180.0
 51
270.0
  0
LINE
  5
127
330
1F
100
AcDbEntity
  8
0
  6
CONTINUOUS
 62
     7
100
AcDbLine
 10
1257.8683113884
 20
55.073262614
 30
0.0
 11
1205.3933358024
 21
55.073262614
 31
0.0
  0
ARC
  5
128
330
1F
100
AcDbEntity
  8
0
  6
CONTINUOUS
 62
     7
100
AcDbCircle
 10
1257.8682800697
 20
49.0732622726
 30
0.0
 40
6.000000000000007
100
AcDbArc
 50
0.0
 51
90.0
  0
LINE
  5
129
330
1F
100
AcDbEntity
  8
0
  6
CONTINUOUS
 62
     7
100
AcDbLine
 10
1263.8682341407
 20
37.3232638955
 30
0.0
 11
1263.8682341407
 21
49.0732616306
 31
0.0
  0
ARC
  5
12A
330
1F
100
AcDbEntity
  8
0
  6
CONTINUOUS
 62
     7
100
AcDbCircle
 10
1262.8682800697
 20
37.3232622726
 30
0.0
 40
1.0
100
AcDbArc
 50
270.0
 51
0.0
  0
LINE
  5
12B
330
1F
100
AcDbEntity
  8
0
  6
CONTINUOUS
 62
     7
100
AcDbLine
 10
1262.86830662
 20
36.323261869
 30
0.0
 11
1257.6083159279
 21
36.323261869
 31
0.0
  0
LINE
  5
12C
330
1F
100
AcDbEntity
  8
0
  6
CONTINUOUS
 62
     7
100
AcDbLine
 10
1257.6083159279
 20
36.323261869
 30
0.0
 11
1257.2682118248
 21
41.6371314347
 31
0.0
  0
ARC
  5
12D
330
1F
100
AcDbEntity
  8
0
  6
CONTINUOUS
 62
     7
100
AcDbCircle
 10
1256.2702341626
 20
41.5732622726
 30
0.0
 40
1.00000000000016
100
AcDbArc
 50
3.6619355755
 51
90.0
  0
LINE
  5
12E
330
1F
100
AcDbEntity
  8
0
  6
CONTINUOUS
 62
     7
100
AcDbLine
 10
1256.2701916526
 20
42.5732633591
 30
0.0
 11
1242.3305725883
 21
42.5732633591
 31
0.0
  0
ARC
  5
12F
330
1F
100
AcDbEntity
  8
0
  6
CONTINUOUS
 62
     7
100
AcDbCircle
 10
1242.3305584531
 20
43.5732622726
 30
0.0
 40
1.0
100
AcDbArc
 50
245.1121079736
 51
270.0
  0
ARC
  5
130
330
1F
100
AcDbEntity
  8
0
  6
CONTINUOUS
 62
     7
100
AcDbCircle
 10
1239.7339502093
 20
37.9762518538
 30
0.0
 40
5.170000000000017
100
AcDbArc
 50
65.1121079736
 51
252.3995332141
  0
ARC
  5
131
330
1F
100
AcDbEntity
  8
0
  6
CONTINUOUS
 62
     7
100
AcDbCircle
 10
1237.8682800697
 20
32.0950806329
 30
0.0
 40
1.000000000000033
100
AcDbArc
 50
0.0
 51
72.3995332141
  0
LINE
  5
132
330
1F
100
AcDbEntity
  8
0
  6
CONTINUOUS
 62
     7
100
AcDbLine
 10
1195.8682751487
 20
30.0712617606
 30
0.0
 11
1238.8682579826
 21
30.0712617606
 31
0.0
  0
LINE
  5
133
330
1F
100
AcDbEntity
  8
0
  6
CONTINUOUS
 62
     7
100
AcDbLine
 10
1183.8683104347
 20
104.553566736
 30
0.0
 11
1183.8683104347
 21
42.0712618649
 31
0.0
  0
ARC
  5
134
330
1F
100
AcDbEntity
  8
0
  6
CONTINUOUS
 62
     7
100
AcDbCircle
 10
1171.8682800697
 20
104.553569112
 30
0.0
 40
12.00000000000001
100
AcDbArc
 50
0.0
 51
90.0
  0
LINE
  5
135
330
1F
100
AcDbEntity
  8
0
  6
CONTINUOUS
 62
     7
100
AcDbLine
 10
1155.8683132957
 20
116.553568703
 30
0.0
 11
1171.8682265114
 21
116.553568703
 31
0.0
  0
ARC
  5
136
330
1F
100
AcDbEntity
  8
0
  6
CONTINUOUS
 62
     7
100
AcDbCircle
 10
1155.8682800697
 20
104.553569112
 30
0.0
 40
12.00000000000001
100
AcDbArc
 50
90.0
 51
180.0
  0
LINE
  5
137
330
1F
100
AcDbEntity
  8
0
  6
CONTINUOUS
 62
     7
100
AcDbLine
 10
1143.8682293724
 20
42.0712618649
 30
0.0
 11
1143.8682293724
 21
104.553566736
 31
0.0
  0
ARC
  5
138
330
1F
100
AcDbEntity
  8
0
  6
CONTINUOUS
 62
     7
100
AcDbCircle
 10
1089.8682800697
 20
32.0950806329
 30
0.0
 40
1.0
100
AcDbArc
 50
107.6004667859
 51
180.0
  0
ARC
  5
139
330
1F
100
AcDbEntity
  8
0
  6
CONTINUOUS
 62
     7
100
AcDbCircle
 10
1088.0026099301
 20
37.9762518538
 30
0.0
 40
5.170000000000113
100
AcDbArc
 50
287.6004667859
 51
114.8878920264
  0
ARC
  5
13A
330
1F
100
AcDbEntity
  8
0
  6
CONTINUOUS
 62
     7
100
AcDbCircle
 10
1085.4060016863
 20
43.5732622726
 30
0.0
 40
1.0
100
AcDbArc
 50
270.0
 51
294.8878920264
  0
LINE
  5
13B
330
1F
100
AcDbEntity
  8
0
  6
CONTINUOUS
 62
     7
100
AcDbLine
 10
1085.4059672188
 20
42.5732633591
 30
0.0
 11
1071.4663481544
 21
42.5732633591
 31
0.0
  0
ARC
  5
13C
330
1F
100
AcDbEntity
  8
0
  6
CONTINUOUS
 62
     7
100
AcDbCircle
 10
1071.4663259768
 20
41.5732622726
 30
0.0
 40
1.0
100
AcDbArc
 50
90.0
 51
176.3380644245
  0
LINE
  5
13D
330
1F
100
AcDbEntity
  8
0
  6
CONTINUOUS
 62
     7
100
AcDbLine
 10
1070.4683279823
 20
41.6371314347
 30
0.0
 11
1070.1282238792
 21
36.323261869
 31
0.0
  0
LINE
  5
13E
330
1F
100
AcDbEntity
  8
0
  6
CONTINUOUS
 62
     7
100
AcDbLine
 10
1070.1282238792
 20
36.323261869
 30
0.0
 11
1064.8682331871
 21
36.323261869
 31
0.0
  0
ARC
  5
13F
330
1F
100
AcDbEntity
  8
0
  6
CONTINUOUS
 62
     7
100
AcDbCircle
 10
1064.8682800697
 20
37.3232622726
 30
0.0
 40
1.0
100
AcDbArc
 50
180.0
 51
270.0
  0
LINE
  5
140
330
1F
100
AcDbEntity
  8
0
  6
CONTINUOUS
 62
     7
100
AcDbLine
 10
1063.8683056663
 20
49.0732616306
 30
0.0
 11
1063.8683056663
 21
37.3232638955
 31
0.0
  0
ARC
  5
141
330
1F
100
AcDbEntity
  8
0
  6
CONTINUOUS
 62
     7
100
AcDbCircle
 10
1131.8682800697
 20
42.0712622726
 30
0.0
 40
12.00000000000001
100
AcDbArc
 50
270.0
 51
0.0
  0
LINE
  5
142
330
1F
100
AcDbEntity
  8
0
  6
CONTINUOUS
 62
     7
100
AcDbLine
 10
1238.8682579826
 20
30.0712617606
 30
0.0
 11
1238.8682579826
 21
32.095079732
 31
0.0
  0
LINE
  5
143
330
1F
100
AcDbEntity
  8
0
  6
CONTINUOUS
 62
     7
100
AcDbLine
 10
1088.8682818245
 20
30.0712617606
 30
0.0
 11
1131.8682646583
 21
30.0712617606
 31
0.0
  0
LINE
  5
144
330
1F
100
AcDbEntity
  8
0
  6
CONTINUOUS
 62
     7
100
AcDbLine
 10
1088.8682818245
 20
32.095079732
 30
0.0
 11
1088.8682818245
 21
30.0712617606
 31
0.0
  0
ARC
  5
145
330
1F
100
AcDbEntity
  8
0
  6
CONTINUOUS
 62
     7
100
AcDbCircle
 10
1195.8682800697
 20
42.0712622726
 30
0.0
 40
12.00000000000001
100
AcDbArc
 50
180.0
 51
270.0
  0
ARC
  5
146
330
1F
100
AcDbEntity
  8
0
  6
CONTINUOUS
 62
     7
100
AcDbCircle
 10
1257.8682800697
 20
537.4391033089
 30
0.0
 40
6.0
100
AcDbArc
 50
270.0
 51
0.0
  0
LINE
  5
147
330
1F
100
AcDbEntity
  8
0
  6
CONTINUOUS
 62
     7
100
AcDbLine
 10
1205.3933358024
 20
531.4390970886
 30
0.0
 11
1257.8683113884
 21
531.4390970886
 31
0.0
  0
ARC
  5
148
330
1F
100
AcDbEntity
  8
0
  6
CONTINUOUS
 62
     7
100
AcDbCircle
 10
1205.3932800697
 20
519.4391033089
 30
0.0
 40
12.0
100
AcDbArc
 50
90.0
 51
180.0
  0
LINE
  5
149
330
1F
100
AcDbEntity
  8
0
  6
CONTINUOUS
 62
     7
100
AcDbLine
 10
1193.3932518791
 20
469.9587835491
 30
0.0
 11
1193.3932518791
 21
519.4391323746
 31
0.0
  0
ARC
  5
14A
330
1F
100
AcDbEntity
  8
0
  6
CONTINUOUS
 62
     7
100
AcDbCircle
 10
1183.8682800697
 20
469.9587964695
 30
0.0
 40
9.524999999999894
100
AcDbArc
 50
300.0
 51
0.0
  0
ARC
  5
14B
330
1F
100
AcDbEntity
  8
0
  6
CONTINUOUS
 62
     7
100
AcDbCircle
 10
1193.3932800697
 20
453.4610125275
 30
0.0
 40
9.524999999999958
100
AcDbArc
 50
120.0
 51
180.0
  0
LINE
  5
14C
330
1F
100
AcDbEntity
  8
0
  6
CONTINUOUS
 62
     7
100
AcDbLine
 10
1183.8683104347
 20
411.9742824257
 30
0.0
 11
1183.8683104347
 21
453.461022538
 31
0.0
  0
ARC
  5
14D
330
1F
100
AcDbEntity
  8
0
  6
CONTINUOUS
 62
     7
100
AcDbCircle
 10
1193.3932800697
 20
411.9742735723
 30
0.0
 40
9.525000000000057
100
AcDbArc
 50
180.0
 51
240.0
  0
ARC
  5
14E
330
1F
100
AcDbEntity
  8
0
  6
CONTINUOUS
 62
     7
100
AcDbCircle
 10
1183.8682800697
 20
395.4764896302
 30
0.0
 40
9.524999999999864
100
AcDbArc
 50
0.0
 51
60.0
  0
LINE
  5
14F
330
1F
100
AcDbEntity
  8
0
  6
CONTINUOUS
 62
     7
100
AcDbLine
 10
1193.3932518791
 20
345.9961725891
 30
0.0
 11
1193.3932518791
 21
395.4764916122
 31
0.0
  0
ARC
  5
150
330
1F
100
AcDbEntity
  8
0
  6
CONTINUOUS
 62
     7
100
AcDbCircle
 10
1205.3932800697
 20
345.9961827908
 30
0.0
 40
12.0
100
AcDbArc
 50
180.0
 51
270.0
  0
LINE
  5
151
330
1F
100
AcDbEntity
  8
0
  6
CONTINUOUS
 62
     7
100
AcDbLine
 10
1257.8683113884
 20
333.9961780727
 30
0.0
 11
1205.3933358024
 21
333.9961780727
 31
0.0
  0
ARC
  5
152
330
1F
100
AcDbEntity
  8
0
  6
CONTINUOUS
 62
     7
100
AcDbCircle
 10
1257.8682800697
 20
327.9961827908
 30
0.0
 40
6.0
100
AcDbArc
 50
0.0
 51
90.0
  0
LINE
  5
153
330
1F
100
AcDbEntity
  8
0
  6
CONTINUOUS
 62
     7
100
AcDbLine
 10
1263.8682341407
 20
316.2461830795
 30
0.0
 11
1263.8682341407
 21
327.9961957157
 31
0.0
  0
ARC
  5
154
330
1F
100
AcDbEntity
  8
0
  6
CONTINUOUS
 62
     7
100
AcDbCircle
 10
1262.8682800697
 20
316.2461827908
 30
0.0
 40
1.000000000000227
100
AcDbArc
 50
270.0
 51
0.0
  0
LINE
  5
155
330
1F
100
AcDbEntity
  8
0
  6
CONTINUOUS
 62
     7
100
AcDbLine
 10
1262.86830662
 20
315.2461959541
 30
0.0
 11
1257.6083159279
 21
315.2461959541
 31
0.0
  0
LINE
  5
156
330
1F
100
AcDbEntity
  8
0
  6
CONTINUOUS
 62
     7
100
AcDbLine
 10
1257.6083159279
 20
315.2461959541
 30
0.0
 11
1257.2682118248
 21
320.5600394428
 31
0.0
  0
ARC
  5
157
330
1F
100
AcDbEntity
  8
0
  6
CONTINUOUS
 62
     7
100
AcDbCircle
 10
1256.2702341626
 20
320.4961827908
 30
0.0
 40
1.00000000000016
100
AcDbArc
 50
3.6619355755
 51
90.0
  0
LINE
  5
158
330
1F
100
AcDbEntity
  8
0
  6
CONTINUOUS
 62
     7
100
AcDbLine
 10
1256.2701916526
 20
321.4961899937
 30
0.0
 11
1242.3305725883
 21
321.4961899937
 31
0.0
  0
ARC
  5
159
330
1F
100
AcDbEntity
  8
0
  6
CONTINUOUS
 62
     7
100
AcDbCircle
 10
1242.3305584531
 20
322.4961827908
 30
0.0
 40
0.9999999999999432
100
AcDbArc
 50
245.1121079736
 51
270.0
  0
ARC
  5
15A
330
1F
100
AcDbEntity
  8
0
  6
CONTINUOUS
 62
     7
100
AcDbCircle
 10
1239.7339502093
 20
316.899172372
 30
0.0
 40
5.17000000000008
100
AcDbArc
 50
65.1121079736
 51
252.3995332141
  0
ARC
  5
15B
330
1F
100
AcDbEntity
  8
0
  6
CONTINUOUS
 62
     7
100
AcDbCircle
 10
1237.8682800697
 20
311.018001151
 30
0.0
 40
1.000000000000227
100
AcDbArc
 50
0.0
 51
72.3995332141
  0
LINE
  5
15C
330
1F
100
AcDbEntity
  8
0
  6
CONTINUOUS
 62
     7
100
AcDbLine
 10
1195.8682751487
 20
308.9941753567
 30
0.0
 11
1238.8682579826
 21
308.9941753567
 31
0.0
  0
LINE
  5
15D
330
1F
100
AcDbEntity
  8
0
  6
CONTINUOUS
 62
     7
100
AcDbLine
 10
1183.8683104347
 20
383.4764970959
 30
0.0
 11
1183.8683104347
 21
320.994169873
 31
0.0
  0
ARC
  5
15E
330
1F
100
AcDbEntity
  8
0
  6
CONTINUOUS
 62
     7
100
AcDbCircle
 10
1171.8682800697
 20
383.4764896302
 30
0.0
 40
12.00000000000006
100
AcDbArc
 50
0.0
 51
90.0
  0
LINE
  5
15F
330
1F
100
AcDbEntity
  8
0
  6
CONTINUOUS
 62
     7
100
AcDbLine
 10
1155.8683132957
 20
395.4764916122
 30
0.0
 11
1171.8682265114
 21
395.4764916122
 31
0.0
  0
ARC
  5
160
330
1F
100
AcDbEntity
  8
0
  6
CONTINUOUS
 62
     7
100
AcDbCircle
 10
1155.8682800697
 20
383.4764896302
 30
0.0
 40
12.0
100
AcDbArc
 50
90.0
 51
180.0
  0
LINE
  5
161
330
1F
100
AcDbEntity
  8
0
  6
CONTINUOUS
 62
     7
100
AcDbLine
 10
1143.8682293724
 20
320.994169873
 30
0.0
 11
1143.8682293724
 21
383.4764970959
 31
0.0
  0
ARC
  5
162
330
1F
100
AcDbEntity
  8
0
  6
CONTINUOUS
 62
     7
100
AcDbCircle
 10
1089.8682800697
 20
311.018001151
 30
0.0
 40
1.000000000000227
100
AcDbArc
 50
107.6004667859
 51
180.0
  0
ARC
  5
163
330
1F
100
AcDbEntity
  8
0
  6
CONTINUOUS
 62
     7
100
AcDbCircle
 10
1085.4060016863
 20
322.4961827908
 30
0.0
 40
0.9999999999999432
100
AcDbArc
 50
270.0
 51
294.8878920264
  0
LINE
  5
164
330
1F
100
AcDbEntity
  8
0
  6
CONTINUOUS
 62
     7
100
AcDbLine
 10
1085.4059672188
 20
321.4961899937
 30
0.0
 11
1071.4663481544
 21
321.4961899937
 31
0.0
  0
ARC
  5
165
330
1F
100
AcDbEntity
  8
0
  6
CONTINUOUS
 62
     7
100
AcDbCircle
 10
1071.4663259768
 20
320.4961827908
 30
0.0
 40
1.0
100
AcDbArc
 50
90.0
 51
176.3380644245
  0
LINE
  5
166
330
1F
100
AcDbEntity
  8
0
  6
CONTINUOUS
 62
     7
100
AcDbLine
 10
1070.4683279823
 20
320.5600394428
 30
0.0
 11
1070.1282238792
 21
315.2461959541
 31
0.0
  0
LINE
  5
167
330
1F
100
AcDbEntity
  8
0
  6
CONTINUOUS
 62
     7
100
AcDbLine
 10
1070.1282238792
 20
315.2461959541
 30
0.0
 11
1064.8682331871
 21
315.2461959541
 31
0.0
  0
ARC
  5
168
330
1F
100
AcDbEntity
  8
0
  6
CONTINUOUS
 62
     7
100
AcDbCircle
 10
1064.8682800697
 20
316.2461827908
 30
0.0
 40
1.0
100
AcDbArc
 50
180.0
 51
270.0
  0
LINE
  5
169
330
1F
100
AcDbEntity
  8
0
  6
CONTINUOUS
 62
     7
100
AcDbLine
 10
1063.8683056663
 20
327.9961957157
 30
0.0
 11
1063.8683056663
 21
316.2461830795
 31
0.0
  0
ARC
  5
16A
330
1F
100
AcDbEntity
  8
0
  6
CONTINUOUS
 62
     7
100
AcDbCircle
 10
1069.8682800697
 20
327.9961827908
 30
0.0
 40
6.0
100
AcDbArc
 50
90.0
 51
180.0
  0
LINE
  5
16B
330
1F
100
AcDbEntity
  8
0
  6
CONTINUOUS
 62
     7
100
AcDbLine
 10
1122.3433232139
 20
333.9961780727
 30
0.0
 11
1069.8682284187
 21
333.9961780727
 31
0.0
  0
ARC
  5
16C
330
1F
100
AcDbEntity
  8
0
  6
CONTINUOUS
 62
     7
100
AcDbCircle
 10
1122.3432800697
 20
345.9961827908
 30
0.0
 40
12.0
100
AcDbArc
 50
270.0
 51
0.0
  0
LINE
  5
16D
330
1F
100
AcDbEntity
  8
0
  6
CONTINUOUS
 62
     7
100
AcDbLine
 10
1134.343287928
 20
395.4764916122
 30
0.0
 11
1134.343287928
 21
345.9961725891
 31
0.0
  0
ARC
  5
16E
330
1F
100
AcDbEntity
  8
0
  6
CONTINUOUS
 62
     7
100
AcDbCircle
 10
1143.8682800697
 20
395.4764896302
 30
0.0
 40
9.525000000000091
100
AcDbArc
 50
120.0
 51
180.0
  0
ARC
  5
16F
330
1F
100
AcDbEntity
  8
0
  6
CONTINUOUS
 62
     7
100
AcDbCircle
 10
1134.3432800697
 20
411.9742735723
 30
0.0
 40
9.525000000000091
100
AcDbArc
 50
300.0
 51
0.0
  0
LINE
  5
170
330
1F
100
AcDbEntity
  8
0
  6
CONTINUOUS
 62
     7
100
AcDbLine
 10
1143.8682293724
 20
453.461022538
 30
0.0
 11
1143.8682293724
 21
411.9742824257
 31
0.0
  0
ARC
  5
171
330
1F
100
AcDbEntity
  8
0
  6
CONTINUOUS
 62
     7
100
AcDbCircle
 10
1134.3432800697
 20
453.4610125275
 30
0.0
 40
9.525000000000091
100
AcDbArc
 50
0.0
 51
60.0
  0
ARC
  5
172
330
1F
100
AcDbEntity
  8
0
  6
CONTINUOUS
 62
     7
100
AcDbCircle
 10
1143.8682800697
 20
469.9587964695
 30
0.0
 40
9.525000000000091
100
AcDbArc
 50
180.0
 51
240.0
  0
LINE
  5
173
330
1F
100
AcDbEntity
  8
0
  6
CONTINUOUS
 62
     7
100
AcDbLine
 10
1134.343287928
 20
519.4391323746
 30
0.0
 11
1134.343287928
 21
469.9587835491
 31
0.0
  0
ARC
  5
174
330
1F
100
AcDbEntity
  8
0
  6
CONTINUOUS
 62
     7
100
AcDbCircle
 10
1122.3432800697
 20
519.4391033089
 30
0.0
 40
12.0
100
AcDbArc
 50
0.0
 51
90.0
  0
LINE
  5
175
330
1F
100
AcDbEntity
  8
0
  6
CONTINUOUS
 62
     7
100
AcDbLine
 10
1069.8682284187
 20
531.4390970886
 30
0.0
 11
1122.3433232139
 21
531.4390970886
 31
0.0
  0
ARC
  5
176
330
1F
100
AcDbEntity
  8
0
  6
CONTINUOUS
 62
     7
100
AcDbCircle
 10
1069.8682800697
 20
537.4391033089
 30
0.0
 40
6.0
100
AcDbArc
 50
180.0
 51
270.0
  0
LINE
  5
177
330
1F
100
AcDbEntity
  8
0
  6
CONTINUOUS
 62
     7
100
AcDbLine
 10
1063.8683056663
 20
549.1891218841
 30
0.0
 11
1063.8683056663
 21
537.4390794456
 31
0.0
  0
ARC
  5
178
330
1F
100
AcDbEntity
  8
0
  6
CONTINUOUS
 62
     7
100
AcDbCircle
 10
1064.8682800697
 20
549.1891033089
 30
0.0
 40
1.0
100
AcDbArc
 50
90.0
 51
180.0
  0
LINE
  5
179
330
1F
100
AcDbEntity
  8
0
  6
CONTINUOUS
 62
     7
100
AcDbLine
 10
1064.8682331871
 20
550.1891090095
 30
0.0
 11
1070.1282238792
 21
550.1891090095
 31
0.0
  0
LINE
  5
17A
330
1F
100
AcDbEntity
  8
0
  6
CONTINUOUS
 62
     7
100
AcDbLine
 10
1070.1282238792
 20
550.1891090095
 30
0.0
 11
1070.4683279823
 21
544.8752357185
 31
0.0
  0
ARC
  5
17B
330
1F
100
AcDbEntity
  8
0
  6
CONTINUOUS
 62
     7
100
AcDbCircle
 10
1071.4663259768
 20
544.9391033089
 30
0.0
 40
1.0
100
AcDbArc
 50
183.6619355755
 51
270.0
  0
LINE
  5
17C
330
1F
100
AcDbEntity
  8
0
  6
CONTINUOUS
 62
     7
100
AcDbLine
 10
1071.4663481544
 20
543.9390851677
 30
0.0
 11
1085.4059672188
 21
543.9390851677
 31
0.0
  0
ARC
  5
17D
330
1F
100
AcDbEntity
  8
0
  6
CONTINUOUS
 62
     7
100
AcDbCircle
 10
1085.4060016863
 20
542.9391033089
 30
0.0
 40
1.00000000000014
100
AcDbArc
 50
65.1121079736
 51
90.0
  0
ARC
  5
17E
330
1F
100
AcDbEntity
  8
0
  6
CONTINUOUS
 62
     7
100
AcDbCircle
 10
1088.0026099301
 20
548.5361137277
 30
0.0
 40
5.169999999999933
100
AcDbArc
 50
245.1121079736
 51
72.3995332141
  0
ARC
  5
17F
330
1F
100
AcDbEntity
  8
0
  6
CONTINUOUS
 62
     7
100
AcDbCircle
 10
1089.8682800697
 20
554.4172849487
 30
0.0
 40
1.000000000000099
100
AcDbArc
 50
180.0
 51
252.3995332141
  0
LINE
  5
180
330
1F
100
AcDbEntity
  8
0
  6
CONTINUOUS
 62
     7
100
AcDbLine
 10
1088.8682818245
 20
556.4410998047
 30
0.0
 11
1088.8682818245
 21
554.417283696
 31
0.0
  0
LINE
  5
181
330
1F
100
AcDbEntity
  8
0
  6
CONTINUOUS
 62
     7
100
AcDbLine
 10
1131.8682646583
 20
556.4410998047
 30
0.0
 11
1088.8682818245
 21
556.4410998047
 31
0.0
  0
ARC
  5
182
330
1F
100
AcDbEntity
  8
0
  6
CONTINUOUS
 62
     7
100
AcDbCircle
 10
1131.8682800697
 20
544.4411033089
 30
0.0
 40
12.0
100
AcDbArc
 50
0.0
 51
90.0
  0
LINE
  5
183
330
1F
100
AcDbEntity
  8
0
  6
CONTINUOUS
 62
     7
100
AcDbLine
 10
1143.8682293724
 20
481.9588078678
 30
0.0
 11
1143.8682293724
 21
544.441075486
 31
0.0
  0
ARC
  5
184
330
1F
100
AcDbEntity
  8
0
  6
CONTINUOUS
 62
     7
100
AcDbCircle
 10
1155.8682800697
 20
481.9587964695
 30
0.0
 40
12.0
100
AcDbArc
 50
180.0
 51
270.0
  0
LINE
  5
185
330
1F
100
AcDbEntity
  8
0
  6
CONTINUOUS
 62
     7
100
AcDbLine
 10
1171.8682265114
 20
469.9587835491
 30
0.0
 11
1155.8683132957
 21
469.9587835491
 31
0.0
  0
ARC
  5
186
330
1F
100
AcDbEntity
  8
0
  6
CONTINUOUS
 62
     7
100
AcDbCircle
 10
1171.8682800697
 20
481.9587964695
 30
0.0
 40
12.0
100
AcDbArc
 50
270.0
 51
0.0
  0
LINE
  5
187
330
1F
100
AcDbEntity
  8
0
  6
CONTINUOUS
 62
     7
100
AcDbLine
 10
1183.8683104347
 20
544.441075486
 30
0.0
 11
1183.8683104347
 21
481.9588078678
 31
0.0
  0
ARC
  5
188
330
1F
100
AcDbEntity
  8
0
  6
CONTINUOUS
 62
     7
100
AcDbCircle
 10
1195.8682800697
 20
544.4411033089
 30
0.0
 40
12.0
100
AcDbArc
 50
90.0
 51
180.0
  0
LINE
  5
189
330
1F
100
AcDbEntity
  8
0
  6
CONTINUOUS
 62
     7
100
AcDbLine
 10
1238.8682579826
 20
556.4410998047
 30
0.0
 11
1195.8682751487
 21
556.4410998047
 31
0.0
  0
LINE
  5
18A
330
1F
100
AcDbEntity
  8
0
  6
CONTINUOUS
 62
     7
100
AcDbLine
 10
1238.8682579826
 20
554.417283696
 30
0.0
 11
1238.8682579826
 21
556.4410998047
 31
0.0
  0
ARC
  5
18B
330
1F
100
AcDbEntity
  8
0
  6
CONTINUOUS
 62
     7
100
AcDbCircle
 10
1237.8682800697
 20
554.4172849487
 30
0.0
 40
1.00000000000006
100
AcDbArc
 50
287.6004667859
 51
0.0
  0
ARC
  5
18C
330
1F
100
AcDbEntity
  8
0
  6
CONTINUOUS
 62
     7
100
AcDbCircle
 10
1239.7339502093
 20
548.5361137277
 30
0.0
 40
5.170000000000028
100
AcDbArc
 50
107.6004667859
 51
294.8878920264
  0
ARC
  5
18D
330
1F
100
AcDbEntity
  8
0
  6
CONTINUOUS
 62
     7
100
AcDbCircle
 10
1242.3305584531
 20
542.9391033089
 30
0.0
 40
1.00000000000014
100
AcDbArc
 50
90.0
 51
114.8878920264
  0
LINE
  5
18E
330
1F
100
AcDbEntity
  8
0
  6
CONTINUOUS
 62
     7
100
AcDbLine
 10
1242.3305725883
 20
543.9390851677
 30
0.0
 11
1256.2701916526
 21
543.9390851677
 31
0.0
  0
ARC
  5
18F
330
1F
100
AcDbEntity
  8
0
  6
CONTINUOUS
 62
     7
100
AcDbCircle
 10
1256.2702341626
 20
544.9391033089
 30
0.0
 40
1.000000000000156
100
AcDbArc
 50
270.0
 51
356.3380644245
  0
LINE
  5
190
330
1F
100
AcDbEntity
  8
0
  6
CONTINUOUS
 62
     7
100
AcDbLine
 10
1257.2682118248
 20
544.8752357185
 30
0.0
 11
1257.6083159279
 21
550.1891090095
 31
0.0
  0
LINE
  5
191
330
1F
100
AcDbEntity
  8
0
  6
CONTINUOUS
 62
     7
100
AcDbLine
 10
1257.6083159279
 20
550.1891090095
 30
0.0
 11
1262.86830662
 21
550.1891090095
 31
0.0
  0
ARC
  5
192
330
1F
100
AcDbEntity
  8
0
  6
CONTINUOUS
 62
     7
100
AcDbCircle
 10
1262.8682800697
 20
549.1891033089
 30
0.0
 40
1.0
100
AcDbArc
 50
0.0
 51
90.0
  0
LINE
  5
193
330
1F
100
AcDbEntity
  8
0
  6
CONTINUOUS
 62
     7
100
AcDbLine
 10
1263.8682341407
 20
537.4390794456
 30
0.0
 11
1263.8682341407
 21
549.1891218841
 31
0.0
  0
LINE
  5
194
330
1F
100
AcDbEntity
  8
0
  6
CONTINUOUS
 62
     7
100
AcDbLine
 10
1238.8682579826
 20
308.9941753567
 30
0.0
 11
1238.8682579826
 21
311.0179914654
 31
0.0
  0
ARC
  5
195
330
1F
100
AcDbEntity
  8
0
  6
CONTINUOUS
 62
     7
100
AcDbCircle
 10
1088.0026099301
 20
316.899172372
 30
0.0
 40
5.17000000000008
100
AcDbArc
 50
287.6004667859
 51
114.8878920264
  0
ARC
  5
196
330
1F
100
AcDbEntity
  8
0
  6
CONTINUOUS
 62
     7
100
AcDbCircle
 10
1195.8682800697
 20
320.9941827908
 30
0.0
 40
12.0
100
AcDbArc
 50
180.0
 51
270.0
  0
LINE
  5
197
330
1F
100
AcDbEntity
  8
0
  6
CONTINUOUS
 62
     7
100
AcDbLine
 10
1088.8682818245
 20
311.0179914654
 30
0.0
 11
1088.8682818245
 21
308.9941753567
 31
0.0
  0
ARC
  5
198
330
1F
100
AcDbEntity
  8
0
  6
CONTINUOUS
 62
     7
100
AcDbCircle
 10
1131.8682800697
 20
320.9941827908
 30
0.0
 40
12.0
100
AcDbArc
 50
270.0
 51
0.0
  0
LINE
  5
199
330
1F
100
AcDbEntity
  8
0
  6
CONTINUOUS
 62
     7
100
AcDbLine
 10
1088.8682818245
 20
308.9941753567
 30
0.0
 11
1131.8682646583
 21
308.9941753567
 31
0.0
  0
ARC
  5
19A
330
1F
100
AcDbEntity
  8
0
  6
CONTINUOUS
 62
     7
100
AcDbCircle
 10
601.3416992233
 20
729.3256194537
 30
0.0
 40
5.169999999999971
100
AcDbArc
 50
351.0551891295
 51
19.8879040116
  0
ARC
  5
19B
330
1F
100
AcDbEntity
  8
0
  6
CONTINUOUS
 62
     7
100
AcDbCircle
 10
607.1437202088
 20
731.4245364327
 30
0.0
 40
0.9999999999999535
100
AcDbArc
 50
175.0
 51
199.8879040116
  0
LINE
  5
19C
330
1F
100
AcDbEntity
  8
0
  6
CONTINUOUS
 62
     7
100
AcDbLine
 10
607.1424698662
 20
742.8837134064
 30
0.0
 11
606.1475491356
 21
731.511683625
 31
0.0
  0
ARC
  5
19D
330
1F
100
AcDbEntity
  8
0
  6
CONTINUOUS
 62
     7
100
AcDbCircle
 10
608.1386775494
 20
742.7965291752
 30
0.0
 40
1.000036753616193
100
AcDbArc
 50
150.1121952728
 51
175.0
  0
ARC
  5
19E
330
1F
100
AcDbEntity
  8
0
  6
CONTINUOUS
 62
     7
100
AcDbCircle
 10
602.7892382152
 20
745.8710783046
 30
0.0
 40
5.169999999999994
100
AcDbArc
 50
330.1121952728
 51
157.399543816
  0
ARC
  5
19F
330
1F
100
AcDbEntity
  8
0
  6
CONTINUOUS
 62
     7
100
AcDbCircle
 10
597.0930500543
 20
748.2422257981
 30
0.0
 40
1.000000000000058
100
AcDbArc
 50
265.0000509005
 51
337.399543816
  0
LINE
  5
1A0
330
1F
100
AcDbEntity
  8
0
  6
CONTINUOUS
 62
     7
100
AcDbLine
 10
592.9776644539
 20
747.5984408081
 30
0.0
 11
597.0058655571
 21
747.2460581482
 31
0.0
  0
ARC
  5
1A1
330
1F
100
AcDbEntity
  8
0
  6
CONTINUOUS
 62
     7
100
AcDbCircle
 10
593.0648002792
 20
748.5946483812
 30
0.0
 40
1.000000991595013
100
AcDbArc
 50
192.6004773877
 51
265.0000509005
  0
ARC
  5
1A2
330
1F
100
AcDbEntity
  8
0
  6
CONTINUOUS
 62
     7
100
AcDbCircle
 10
587.0434050726
 20
747.2486544116
 30
0.0
 40
5.169999008405097
100
AcDbArc
 50
12.6004773877
 51
199.8878356916
  0
ARC
  5
1A3
330
1F
100
AcDbEntity
  8
0
  6
CONTINUOUS
 62
     7
100
AcDbCircle
 10
581.2413847941
 20
745.1497455121
 30
0.0
 40
0.99999857000057
100
AcDbArc
 50
355.0
 51
19.8878356916
  0
LINE
  5
1A4
330
1F
100
AcDbEntity
  8
0
  6
CONTINUOUS
 62
     7
100
AcDbLine
 10
581.2426423858
 20
733.6905910194
 30
0.0
 11
582.2375631164
 21
745.0625611961
 31
0.0
  0
ARC
  5
1A5
330
1F
100
AcDbEntity
  8
0
  6
CONTINUOUS
 62
     7
100
AcDbCircle
 10
580.2464626534
 20
733.7777334074
 30
0.0
 40
0.9999999999999968
100
AcDbArc
 50
330.1121199588
 51
355.0
  0
ARC
  5
1A6
330
1F
100
AcDbEntity
  8
0
  6
CONTINUOUS
 62
     7
100
AcDbCircle
 10
585.5958660808
 20
730.7031955606
 30
0.0
 40
5.170000000000068
100
AcDbArc
 50
150.1121199588
 51
178.9447467872
  0
LINE
  5
1A7
330
1F
100
AcDbEntity
  8
0
  6
CONTINUOUS
 62
     7
100
AcDbLine
 10
580.4267144035
 20
730.798394841
 30
0.0
 11
409.9012827705
 21
745.7174374283
 31
0.0
  0
ARC
  5
1A8
330
1F
100
AcDbEntity
  8
0
  6
CONTINUOUS
 62
     7
100
AcDbCircle
 10
404.7941583807
 20
746.5213011213
 30
0.0
 40
5.170000000000077
100
AcDbArc
 50
351.0551891295
 51
19.8879040116
  0
ARC
  5
1A9
330
1F
100
AcDbEntity
  8
0
  6
CONTINUOUS
 62
     7
100
AcDbCircle
 10
410.5961793662
 20
748.6202181003
 30
0.0
 40
0.9999999999998969
100
AcDbArc
 50
175.0
 51
199.8879040116
  0
LINE
  5
1AA
330
1F
100
AcDbEntity
  8
0
  6
CONTINUOUS
 62
     7
100
AcDbLine
 10
410.5949020218
 20
760.0793554008
 30
0.0
 11
409.5999812912
 21
748.7073852241
 31
0.0
  0
ARC
  5
1AB
330
1F
100
AcDbEntity
  8
0
  6
CONTINUOUS
 62
     7
100
AcDbCircle
 10
411.5911367069
 20
759.9922108428
 30
0.0
 40
1.000036753616217
100
AcDbArc
 50
150.1121952728
 51
175.0
  0
ARC
  5
1AC
330
1F
100
AcDbEntity
  8
0
  6
CONTINUOUS
 62
     7
100
AcDbCircle
 10
406.2416973726
 20
763.0667599723
 30
0.0
 40
5.170000000000064
100
AcDbArc
 50
330.1121952728
 51
157.399543816
  0
ARC
  5
1AD
330
1F
100
AcDbEntity
  8
0
  6
CONTINUOUS
 62
     7
100
AcDbCircle
 10
400.5455092117
 20
765.4379074657
 30
0.0
 40
1.000000000000032
100
AcDbArc
 50
265.0000509005
 51
337.399543816
  0
LINE
  5
1AE
330
1F
100
AcDbEntity
  8
0
  6
CONTINUOUS
 62
     7
100
AcDbLine
 10
396.4300966095
 20
764.7941424072
 30
0.0
 11
400.4583573173
 21
764.4417001427
 31
0.0
  0
ARC
  5
1AF
330
1F
100
AcDbEntity
  8
0
  6
CONTINUOUS
 62
     7
100
AcDbCircle
 10
396.5172594366
 20
765.7903300489
 30
0.0
 40
1.000000991595013
100
AcDbArc
 50
192.6004773877
 51
265.0000509005
  0
ARC
  5
1B0
330
1F
100
AcDbEntity
  8
0
  6
CONTINUOUS
 62
     7
100
AcDbCircle
 10
390.4958642301
 20
764.4443360792
 30
0.0
 40
5.169999008404931
100
AcDbArc
 50
12.6004773877
 51
199.8878356916
  0
ARC
  5
1B1
330
1F
100
AcDbEntity
  8
0
  6
CONTINUOUS
 62
     7
100
AcDbCircle
 10
384.6938439515
 20
762.3454271797
 30
0.0
 40
0.9999985700006266
100
AcDbArc
 50
355.0
 51
19.8878356916
  0
LINE
  5
1B2
330
1F
100
AcDbEntity
  8
0
  6
CONTINUOUS
 62
     7
100
AcDbLine
 10
384.6951043438
 20
750.8862330139
 30
0.0
 11
385.6900250744
 21
762.2582627952
 31
0.0
  0
ARC
  5
1B3
330
1F
100
AcDbEntity
  8
0
  6
CONTINUOUS
 62
     7
100
AcDbCircle
 10
383.6989218108
 20
750.973415075
 30
0.0
 40
1.000000000000123
100
AcDbArc
 50
330.1121199588
 51
355.0
  0
ARC
  5
1B4
330
1F
100
AcDbEntity
  8
0
  6
CONTINUOUS
 62
     7
100
AcDbCircle
 10
389.0483252382
 20
747.8988772283
 30
0.0
 40
5.17000000000006
100
AcDbArc
 50
150.1121199588
 51
178.9447467872
  0
LINE
  5
1B5
330
1F
100
AcDbEntity
  8
0
  6
CONTINUOUS
 62
     7
100
AcDbLine
 10
383.8792061638
 20
747.9940964401
 30
0.0
 11
345.4282796215
 21
751.3581229866
 31
0.0
  0
LINE
  5
1B6
330
1F
100
AcDbEntity
  8
0
  6
CONTINUOUS
 62
     7
100
AcDbLine
 10
345.4282796215
 20
777.5950147331
 30
0.0
 11
345.4282796215
 21
751.3581229866
 31
0.0
  0
ARC
  5
1B7
330
1F
100
AcDbEntity
  8
0
  6
CONTINUOUS
 62
     7
100
AcDbCircle
 10
351.4282800697
 20
777.5950157244
 30
0.0
 40
6.0
100
AcDbArc
 50
85.0
 51
180.0
  0
LINE
  5
1B8
330
1F
100
AcDbEntity
  8
0
  6
CONTINUOUS
 62
     7
100
AcDbLine
 10
627.9512262176
 20
759.4253136337
 30
0.0
 11
351.9512033294
 21
783.5721685112
 31
0.0
  0
ARC
  5
1B9
330
1F
100
AcDbEntity
  8
0
  6
CONTINUOUS
 62
     7
100
AcDbCircle
 10
627.4282800697
 20
753.4481445912
 30
0.0
 40
6.0
100
AcDbArc
 50
360.0
 51
85.0
  0
LINE
  5
1BA
330
1F
100
AcDbEntity
  8
0
  6
CONTINUOUS
 62
     7
100
AcDbLine
 10
633.428297026
 20
726.161391896
 30
0.0
 11
633.428297026
 21
753.4481598556
 31
0.0
  0
LINE
  5
1BB
330
1F
100
AcDbEntity
  8
0
  6
CONTINUOUS
 62
     7
100
AcDbLine
 10
633.428297026
 20
726.161391896
 30
0.0
 11
606.4488506149
 21
728.5217954338
 31
0.0
  0
ARC
  5
1BC
330
1F
100
AcDbEntity
  8
0
  6
CONTINUOUS
 62
     7
100
AcDbCircle
 10
389.0483246588
 20
67.7524417405
 30
0.0
 40
5.169999008405046
100
AcDbArc
 50
181.0551883717
 51
209.8878356916
  0
ARC
  5
1BD
330
1F
100
AcDbEntity
  8
0
  6
CONTINUOUS
 62
     7
100
AcDbCircle
 10
383.6989218108
 20
64.6779097353
 30
0.0
 40
0.999998570000623
100
AcDbArc
 50
5.0
 51
29.8878356916
  0
LINE
  5
1BE
330
1F
100
AcDbEntity
  8
0
  6
CONTINUOUS
 62
     7
100
AcDbLine
 10
385.6900250744
 20
53.3930523813
 30
0.0
 11
384.6951043438
 21
64.7650635362
 31
0.0
  0
ARC
  5
1BF
330
1F
100
AcDbEntity
  8
0
  6
CONTINUOUS
 62
     7
100
AcDbCircle
 10
384.6938439515
 20
53.3058976305
 30
0.0
 40
0.999999999999944
100
AcDbArc
 50
340.1121199588
 51
5.0
  0
ARC
  5
1C0
330
1F
100
AcDbEntity
  8
0
  6
CONTINUOUS
 62
     7
100
AcDbCircle
 10
390.495865815
 20
51.2069830789
 30
0.0
 40
5.170000000000046
100
AcDbArc
 50
160.1121199588
 51
347.399543816
  0
ARC
  5
1C1
330
1F
100
AcDbEntity
  8
0
  6
CONTINUOUS
 62
     7
100
AcDbCircle
 10
396.5172615197
 20
49.8609913376
 30
0.0
 40
0.9999999999999913
100
AcDbArc
 50
95.0000509005
 51
167.399543816
  0
LINE
  5
1C2
330
1F
100
AcDbEntity
  8
0
  6
CONTINUOUS
 62
     7
100
AcDbLine
 10
400.4583573173
 20
51.2096150339
 30
0.0
 11
396.4300966095
 21
50.8571876705
 31
0.0
  0
ARC
  5
1C3
330
1F
100
AcDbEntity
  8
0
  6
CONTINUOUS
 62
     7
100
AcDbCircle
 10
400.5455106686
 20
50.213421078
 30
0.0
 40
1.000000000000071
100
AcDbArc
 50
22.6004773877
 51
95.0000509005
  0
ARC
  5
1C4
330
1F
100
AcDbEntity
  8
0
  6
CONTINUOUS
 62
     7
100
AcDbCircle
 10
406.241697952
 20
52.5845706795
 30
0.0
 40
5.170000000000113
100
AcDbArc
 50
202.6004773877
 51
29.8879040116
  0
ARC
  5
1C5
330
1F
100
AcDbEntity
  8
0
  6
CONTINUOUS
 62
     7
100
AcDbCircle
 10
411.5911000931
 20
55.6591107642
 30
0.0
 40
1.000000000000009
100
AcDbArc
 50
185.0
 51
209.8879040116
  0
LINE
  5
1C6
330
1F
100
AcDbEntity
  8
0
  6
CONTINUOUS
 62
     7
100
AcDbLine
 10
409.5999812912
 20
66.9439523042
 30
0.0
 11
410.5949020218
 21
55.5719560504
 31
0.0
  0
ARC
  5
1C7
330
1F
100
AcDbEntity
  8
0
  6
CONTINUOUS
 62
     7
100
AcDbCircle
 10
410.5962159799
 20
67.0311099133
 30
0.0
 40
1.000036753616189
100
AcDbArc
 50
160.1121952728
 51
185.0
  0
ARC
  5
1C8
330
1F
100
AcDbEntity
  8
0
  6
CONTINUOUS
 62
     7
100
AcDbCircle
 10
404.7941567958
 20
69.1300293411
 30
0.0
 40
5.170000000000059
100
AcDbArc
 50
340.1121952728
 51
8.9447467872
  0
LINE
  5
1C9
330
1F
100
AcDbEntity
  8
0
  6
CONTINUOUS
 62
     7
100
AcDbLine
 10
409.9012827705
 20
69.9338702977
 30
0.0
 11
580.4267144035
 21
84.852912885
 31
0.0
  0
ARC
  5
1CA
330
1F
100
AcDbEntity
  8
0
  6
CONTINUOUS
 62
     7
100
AcDbCircle
 10
585.5958655014
 20
84.9481234081
 30
0.0
 40
5.169999008405099
100
AcDbArc
 50
181.0551883717
 51
209.8878356916
  0
ARC
  5
1CB
330
1F
100
AcDbEntity
  8
0
  6
CONTINUOUS
 62
     7
100
AcDbCircle
 10
580.2464626534
 20
81.8735914029
 30
0.0
 40
0.9999985700005017
100
AcDbArc
 50
5.0
 51
29.8878356916
  0
LINE
  5
1CC
330
1F
100
AcDbEntity
  8
0
  6
CONTINUOUS
 62
     7
100
AcDbLine
 10
582.2375631164
 20
70.5887316287
 30
0.0
 11
581.2426423858
 21
81.9607465089
 31
0.0
  0
ARC
  5
1CD
330
1F
100
AcDbEntity
  8
0
  6
CONTINUOUS
 62
     7
100
AcDbCircle
 10
581.2413847941
 20
70.5015792982
 30
0.0
 40
1.000000000000012
100
AcDbArc
 50
340.1121199588
 51
5.0
  0
ARC
  5
1CE
330
1F
100
AcDbEntity
  8
0
  6
CONTINUOUS
 62
     7
100
AcDbCircle
 10
587.0434066576
 20
68.4026647465
 30
0.0
 40
5.170000000000002
100
AcDbArc
 50
160.1121199588
 51
347.399543816
  0
ARC
  5
1CF
330
1F
100
AcDbEntity
  8
0
  6
CONTINUOUS
 62
     7
100
AcDbCircle
 10
593.0648023623
 20
67.0566730053
 30
0.0
 40
0.9999999999999843
100
AcDbArc
 50
95.0000509005
 51
167.399543816
  0
LINE
  5
1D0
330
1F
100
AcDbEntity
  8
0
  6
CONTINUOUS
 62
     7
100
AcDbLine
 10
597.0058655571
 20
68.4052942813
 30
0.0
 11
592.9776644539
 21
68.0528669179
 31
0.0
  0
ARC
  5
1D1
330
1F
100
AcDbEntity
  8
0
  6
CONTINUOUS
 62
     7
100
AcDbCircle
 10
597.0930515112
 20
67.4091027457
 30
0.0
 40
1.000000000000008
100
AcDbArc
 50
22.6004773877
 51
95.0000509005
  0
ARC
  5
1D2
330
1F
100
AcDbEntity
  8
0
  6
CONTINUOUS
 62
     7
100
AcDbCircle
 10
602.7892387946
 20
69.7802523471
 30
0.0
 40
5.170000000000034
100
AcDbArc
 50
202.6004773877
 51
29.8879040116
  0
ARC
  5
1D3
330
1F
100
AcDbEntity
  8
0
  6
CONTINUOUS
 62
     7
100
AcDbCircle
 10
608.1386409357
 20
72.8547924318
 30
0.0
 40
1.00000000000007
100
AcDbArc
 50
185.0
 51
209.8879040116
  0
LINE
  5
1D4
330
1F
100
AcDbEntity
  8
0
  6
CONTINUOUS
 62
     7
100
AcDbLine
 10
606.1475491356
 20
84.1396315515
 30
0.0
 11
607.1424698662
 21
72.7676390231
 31
0.0
  0
ARC
  5
1D5
330
1F
100
AcDbEntity
  8
0
  6
CONTINUOUS
 62
     7
100
AcDbCircle
 10
607.1437568225
 20
84.2267915809
 30
0.0
 40
1.000036753616202
100
AcDbArc
 50
160.1121952728
 51
185.0
  0
ARC
  5
1D6
330
1F
100
AcDbEntity
  8
0
  6
CONTINUOUS
 62
     7
100
AcDbCircle
 10
601.3416976384
 20
86.3257110087
 30
0.0
 40
5.170000000000003
100
AcDbArc
 50
340.1121952728
 51
8.9447467872
  0
LINE
  5
1D7
330
1F
100
AcDbEntity
  8
0
  6
CONTINUOUS
 62
     7
100
AcDbLine
 10
606.4488506149
 20
87.1295495451
 30
0.0
 11
633.428297026
 21
89.4899456323
 31
0.0
  0
LINE
  5
1D8
330
1F
100
AcDbEntity
  8
0
  6
CONTINUOUS
 62
     7
100
AcDbLine
 10
633.428297026
 20
62.203181398
 30
0.0
 11
633.428297026
 21
89.4899456323
 31
0.0
  0
ARC
  5
1D9
330
1F
100
AcDbEntity
  8
0
  6
CONTINUOUS
 62
     7
100
AcDbCircle
 10
627.4282800697
 20
62.203180219
 30
0.0
 40
6.00000000000007
100
AcDbArc
 50
275.0
 51
0.0
  0
LINE
  5
1DA
330
1F
100
AcDbEntity
  8
0
  6
CONTINUOUS
 62
     7
100
AcDbLine
 10
351.9512033294
 20
32.0791410774
 30
0.0
 11
627.9512262176
 21
56.2260127187
 31
0.0
  0
ARC
  5
1DB
330
1F
100
AcDbEntity
  8
0
  6
CONTINUOUS
 62
     7
100
AcDbCircle
 10
351.4282800697
 20
38.0563090859
 30
0.0
 40
6.0
100
AcDbArc
 50
180.0
 51
275.0
  0
LINE
  5
1DC
330
1F
100
AcDbEntity
  8
0
  6
CONTINUOUS
 62
     7
100
AcDbLine
 10
345.4282796215
 20
64.2932145417
 30
0.0
 11
345.4282796215
 21
38.056307894
 31
0.0
  0
LINE
  5
1DD
330
1F
100
AcDbEntity
  8
0
  6
CONTINUOUS
 62
     7
100
AcDbLine
 10
345.4282796215
 20
64.2932145417
 30
0.0
 11
383.8792061638
 21
67.6572336376
 31
0.0
  0
LINE
  5
1DE
330
1F
100
AcDbEntity
  8
0
  6
CONTINUOUS
 62
     7
100
AcDbLine
 10
633.428297026
 20
683.9807345093
 30
0.0
 11
633.428297026
 21
707.4100090683
 31
0.0
  0
ARC
  5
1DF
330
1F
100
AcDbEntity
  8
0
  6
CONTINUOUS
 62
     7
100
AcDbCircle
 10
627.4282800697
 20
683.9807294224
 30
0.0
 40
6.0
100
AcDbArc
 50
280.0
 51
360.0
  0
LINE
  5
1E0
330
1F
100
AcDbEntity
  8
0
  6
CONTINUOUS
 62
     7
100
AcDbLine
 10
628.470144255
 20
678.0718876541
 30
0.0
 11
618.3864092659
 21
676.2938214958
 31
0.0
  0
ARC
  5
1E1
330
1F
100
AcDbEntity
  8
0
  6
CONTINUOUS
 62
     7
100
AcDbCircle
 10
619.4282800697
 20
670.3849942341
 30
0.0
 40
6.0
100
AcDbArc
 50
100.0
 51
180.0
  0
LINE
  5
1E2
330
1F
100
AcDbEntity
  8
0
  6
CONTINUOUS
 62
     7
100
AcDbLine
 10
613.4282564949
 20
670.3849746406
 30
0.0
 11
613.4282564949
 21
145.2663256348
 31
0.0
  0
ARC
  5
1E3
330
1F
100
AcDbEntity
  8
0
  6
CONTINUOUS
 62
     7
100
AcDbCircle
 10
619.4282800697
 20
145.2663305762
 30
0.0
 40
6.0
100
AcDbArc
 50
180.0
 51
260.0
  0
LINE
  5
1E4
330
1F
100
AcDbEntity
  8
0
  6
CONTINUOUS
 62
     7
100
AcDbLine
 10
618.3864092659
 20
139.3574787796
 30
0.0
 11
628.470144255
 21
137.5794424236
 31
0.0
  0
ARC
  5
1E5
330
1F
100
AcDbEntity
  8
0
  6
CONTINUOUS
 62
     7
100
AcDbCircle
 10
627.4282800697
 20
131.6705953879
 30
0.0
 40
6.0
100
AcDbArc
 50
0.0
 51
80.0
  0
LINE
  5
1E6
330
1F
100
AcDbEntity
  8
0
  6
CONTINUOUS
 62
     7
100
AcDbLine
 10
633.428297026
 20
108.2413061083
 30
0.0
 11
633.428297026
 21
131.6705955685
 31
0.0
  0
LINE
  5
1E7
330
1F
100
AcDbEntity
  8
0
  6
CONTINUOUS
 62
     7
100
AcDbLine
 10
633.428297026
 20
108.2413061083
 30
0.0
 11
593.4282755684
 21
104.7417535007
 31
0.0
  0
LINE
  5
1E8
330
1F
100
AcDbEntity
  8
0
  6
CONTINUOUS
 62
     7
100
AcDbLine
 10
593.4282755684
 20
104.7417535007
 30
0.0
 11
593.4282755684
 21
710.909576577
 31
0.0
  0
LINE
  5
1E9
330
1F
100
AcDbEntity
  8
0
  6
CONTINUOUS
 62
     7
100
AcDbLine
 10
593.4282755684
 20
710.909576577
 30
0.0
 11
633.428297026
 21
707.4100090683
 31
0.0
  0
LINE
  5
1EA
330
1F
100
AcDbEntity
  8
0
  6
CONTINUOUS
 62
     7
100
AcDbLine
 10
345.4282796215
 20
732.6067401588
 30
0.0
 11
345.4282796215
 21
83.0445675671
 31
0.0
  0
LINE
  5
1EB
330
1F
100
AcDbEntity
  8
0
  6
CONTINUOUS
 62
     7
100
AcDbLine
 10
575.0882839988
 20
712.5141336143
 30
0.0
 11
575.0882839988
 21
103.1372113645
 31
0.0
  0
LINE
  5
1EC
330
1F
100
AcDbEntity
  8
0
  6
CONTINUOUS
 62
     7
100
AcDbLine
 10
345.4282796215
 20
732.6067401588
 30
0.0
 11
575.0882839988
 21
712.5141336143
 31
0.0
  0
LINE
  5
1ED
330
1F
100
AcDbEntity
  8
0
  6
CONTINUOUS
 62
     7
100
AcDbLine
 10
575.0882839988
 20
103.1372113645
 30
0.0
 11
345.4282796215
 21
83.0445675671
 31
0.0
  0
ARC
  5
1EE
330
1F
100
AcDbEntity
  8
0
  6
CONTINUOUS
 62
     7
100
AcDbCircle
 10
595.3203019337
 20
87.67170275
 30
0.0
 40
0.9999999999999843
100
AcDbArc
 50
275.0000509005
 51
347.399543816
  0
LINE
  5
1EF
330
1F
100
AcDbEntity
  8
0
  6
CONTINUOUS
 62
     7
100
AcDbLine
 10
595.4074477981
 20
86.6755111635
 30
0.0
 11
591.3791870903
 21
86.3230763495
 31
0.0
  0
ARC
  5
1F0
330
1F
100
AcDbEntity
  8
0
  6
CONTINUOUS
 62
     7
100
AcDbCircle
 10
591.2920527848
 20
87.3192730096
 30
0.0
 40
1.000000000000146
100
AcDbArc
 50
202.6004773877
 51
275.0000509005
  0
ARC
  5
1F1
330
1F
100
AcDbEntity
  8
0
  6
CONTINUOUS
 62
     7
100
AcDbCircle
 10
398.7727610911
 20
70.4760210824
 30
0.0
 40
0.9999999999999793
100
AcDbArc
 50
275.0000509005
 51
347.399543816
  0
LINE
  5
1F2
330
1F
100
AcDbEntity
  8
0
  6
CONTINUOUS
 62
     7
100
AcDbLine
 10
398.8599097561
 20
69.4798244655
 30
0.0
 11
394.8316788505
 21
69.1273971022
 31
0.0
  0
ARC
  5
1F3
330
1F
100
AcDbEntity
  8
0
  6
CONTINUOUS
 62
     7
100
AcDbCircle
 10
394.7445119422
 20
70.123591342
 30
0.0
 40
0.9999999999999843
100
AcDbArc
 50
202.6004773877
 51
275.0000509005
  0
ARC
  5
1F4
330
1F
100
AcDbEntity
  8
0
  6
CONTINUOUS
 62
     7
100
AcDbCircle
 10
394.7445133991
 20
745.5277297348
 30
0.0
 40
1.000000000000027
100
AcDbArc
 50
85.0000509005
 51
157.399543816
  0
LINE
  5
1F5
330
1F
100
AcDbEntity
  8
0
  6
CONTINUOUS
 62
     7
100
AcDbLine
 10
394.8316788505
 20
746.5239478767
 30
0.0
 11
398.8599097561
 21
746.1715056122
 31
0.0
  0
ARC
  5
1F6
330
1F
100
AcDbEntity
  8
0
  6
CONTINUOUS
 62
     7
100
AcDbCircle
 10
398.7727631742
 20
745.1753071517
 30
0.0
 40
1.000000000000125
100
AcDbArc
 50
12.6004773877
 51
85.0000509005
  0
ARC
  5
1F7
330
1F
100
AcDbEntity
  8
0
  6
CONTINUOUS
 62
     7
100
AcDbCircle
 10
591.2920542417
 20
728.3320480672
 30
0.0
 40
1.000000000000022
100
AcDbArc
 50
85.0000509005
 51
157.399543816
  0
LINE
  5
1F8
330
1F
100
AcDbEntity
  8
0
  6
CONTINUOUS
 62
     7
100
AcDbLine
 10
591.3791870903
 20
729.3282462776
 30
0.0
 11
595.4074477981
 21
728.975804013
 31
0.0
  0
ARC
  5
1F9
330
1F
100
AcDbEntity
  8
0
  6
CONTINUOUS
 62
     7
100
AcDbCircle
 10
595.3203040168
 20
727.979625484
 30
0.0
 40
1.000000000000125
100
AcDbArc
 50
12.6004773877
 51
85.0000509005
  0
LINE
  5
1FA
330
1F
100
AcDbEntity
  8
0
  6
CONTINUOUS
 62
     7
100
AcDbLine
 10
345.4282796215
 20
732.6067401588
 30
0.0
 11
345.4282796215
 21
751.3581229866
 31
0.0
  0
LINE
  5
1FB
330
1F
100
AcDbEntity
  8
0
  6
CONTINUOUS
 62
     7
100
AcDbLine
 10
345.4282796215
 20
64.2932145417
 30
0.0
 11
345.4282796215
 21
83.0445675671
 31
0.0
  0
ARC
  5
1FC
330
1F
100
AcDbEntity
  8
0
  6
CONTINUOUS
 62
     7
100
AcDbCircle
 10
585.5958660808
 20
730.7031955606
 30
0.0
 40
5.170000000000047
100
AcDbArc
 50
178.9447467872
 51
337.399543816
  0
ARC
  5
1FD
330
1F
100
AcDbEntity
  8
0
  6
CONTINUOUS
 62
     7
100
AcDbCircle
 10
585.5958655014
 20
84.9481234081
 30
0.0
 40
5.169999999999923
100
AcDbArc
 50
22.6004773877
 51
181.0551883717
  0
ARC
  5
1FE
330
1F
100
AcDbEntity
  8
0
  6
CONTINUOUS
 62
     7
100
AcDbCircle
 10
601.3416992233
 20
729.3256194537
 30
0.0
 40
5.169999999999985
100
AcDbArc
 50
192.6004773877
 51
351.0551891295
  0
ARC
  5
1FF
330
1F
100
AcDbEntity
  8
0
  6
CONTINUOUS
 62
     7
100
AcDbCircle
 10
601.3416976384
 20
86.3257110087
 30
0.0
 40
5.170000000000113
100
AcDbArc
 50
8.9447467872
 51
167.399543816
  0
LINE
  5
200
330
1F
100
AcDbEntity
  8
0
  6
CONTINUOUS
 62
     7
100
AcDbLine
 10
633.428297026
 20
108.2413061083
 30
0.0
 11
633.428297026
 21
89.4899456323
 31
0.0
  0
LINE
  5
201
330
1F
100
AcDbEntity
  8
0
  6
CONTINUOUS
 62
     7
100
AcDbLine
 10
633.428297026
 20
726.161391896
 30
0.0
 11
633.428297026
 21
707.4100090683
 31
0.0
  0
ARC
  5
202
330
1F
100
AcDbEntity
  8
0
  6
CONTINUOUS
 62
     7
100
AcDbCircle
 10
404.7941583807
 20
746.5213011213
 30
0.0
 40
5.169999999999997
100
AcDbArc
 50
192.6004773877
 51
351.0551891295
  0
ARC
  5
203
330
1F
100
AcDbEntity
  8
0
  6
CONTINUOUS
 62
     7
100
AcDbCircle
 10
404.7941567958
 20
69.1300293411
 30
0.0
 40
5.170000000000015
100
AcDbArc
 50
8.9447467872
 51
167.399543816
  0
ARC
  5
204
330
1F
100
AcDbEntity
  8
0
  6
CONTINUOUS
 62
     7
100
AcDbCircle
 10
389.0483246588
 20
67.7524417405
 30
0.0
 40
5.169999999999975
100
AcDbArc
 50
22.6004773877
 51
181.0551883717
  0
ARC
  5
205
330
1F
100
AcDbEntity
  8
0
  6
CONTINUOUS
 62
     7
100
AcDbCircle
 10
389.0483252382
 20
747.8988772283
 30
0.0
 40
5.170000000000003
100
AcDbArc
 50
178.9447467872
 51
337.399543816
  0
LINE
  5
206
330
1F
100
AcDbEntity
  8
0
  6
CONTINUOUS
 62
     7
100
AcDbLine
 10
1032.3882317375
 20
349.0765704334
 30
0.0
 11
1032.3882317375
 21
387.6545740784
 31
0.0
  0
LINE
  5
207
330
1F
100
AcDbEntity
  8
0
  6
CONTINUOUS
 62
     7
100
AcDbLine
 10
864.3883085083
 20
387.6545740784
 30
0.0
 11
864.3883085083
 21
349.0765704334
 31
0.0
  0
LINE
  5
208
330
1F
100
AcDbEntity
  8
0
  6
CONTINUOUS
 62
     7
100
AcDbLine
 10
864.3883085083
 20
387.6545740784
 30
0.0
 11
1032.3882317375
 21
387.6545740784
 31
0.0
  0
LINE
  5
209
330
1F
100
AcDbEntity
  8
0
  6
CONTINUOUS
 62
     7
100
AcDbLine
 10
864.3883085083
 20
349.0765704334
 30
0.0
 11
1032.3882317375
 21
349.0765704334
 31
0.0
  0
LINE
  5
20A
330
1F
100
AcDbEntity
  8
0
  6
CONTINUOUS
 62
     7
100
AcDbLine
 10
1032.3882317375
 20
636.601896447
 30
0.0
 11
864.3883085083
 21
636.601896447
 31
0.0
  0
LINE
  5
20B
330
1F
100
AcDbEntity
  8
0
  6
CONTINUOUS
 62
     7
100
AcDbLine
 10
1032.3882317375
 20
405.8933271587
 30
0.0
 11
864.3883085083
 21
405.8933271587
 31
0.0
  0
LINE
  5
20C
330
1F
100
AcDbEntity
  8
0
  6
CONTINUOUS
 62
     7
100
AcDbLine
 10
864.3883085083
 20
636.601896447
 30
0.0
 11
864.3883085083
 21
405.8933271587
 31
0.0
  0
LINE
  5
20D
330
1F
100
AcDbEntity
  8
0
  6
CONTINUOUS
 62
     7
100
AcDbLine
 10
1032.3882317375
 20
405.8933271587
 30
0.0
 11
1032.3882317375
 21
636.601896447
 31
0.0
  0
LINE
  5
20E
330
1F
100
AcDbEntity
  8
0
  6
CONTINUOUS
 62
     7
100
AcDbLine
 10
864.3883085083
 20
387.6545740784
 30
0.0
 11
864.3883085083
 21
405.8933271587
 31
0.0
  0
LINE
  5
20F
330
1F
100
AcDbEntity
  8
0
  6
CONTINUOUS
 62
     7
100
AcDbLine
 10
1032.3882317375
 20
405.8933271587
 30
0.0
 11
1032.3882317375
 21
387.6545740784
 31
0.0
  0
LINE
  5
210
330
1F
100
AcDbEntity
  8
POCKETS
100
AcDbLine
 10
1042.3882800697
 20
86.8880169067
 30
0.0
 11
854.3882800697
 21
86.8880169067
 31
0.0
  0
LINE
  5
211
330
1F
100
AcDbEntity
  8
POCKETS
100
AcDbLine
 10
854.3882800697
 20
86.8880169067
 30
0.0
 11
854.3882800697
 21
68.6492598309
 31
0.0
  0
LINE
  5
212
330
1F
100
AcDbEntity
  8
POCKETS
100
AcDbLine
 10
854.3882800697
 20
68.6492598309
 30
0.0
 11
1042.3882800697
 21
68.6492598309
 31
0.0
  0
LINE
  5
213
330
1F
100
AcDbEntity
  8
PROFILES_OUTSIDE
100
AcDbLine
 10
313.9482800697
 20
683.9807294224
 30
0.0
 11
313.9482800697
 21
758.9461316353
 31
0.0
  0
LINE
  5
214
330
1F
100
AcDbEntity
  8
PROFILES_OUTSIDE
100
AcDbLine
 10
313.9482800697
 20
758.9461316353
 30
0.0
 11
25.9482800697
 21
784.1428667308
 31
0.0
  0
LINE
  5
215
330
1F
100
AcDbEntity
  8
PROFILES_OUTSIDE
100
AcDbLine
 10
25.9482800697
 20
784.1428667308
 30
0.0
 11
25.9482800697
 21
31.5084580795
 31
0.0
  0
LINE
  5
216
330
1F
100
AcDbEntity
  8
PROFILES_OUTSIDE
100
AcDbLine
 10
25.9482800697
 20
31.5084580795
 30
0.0
 11
313.9482800697
 21
56.7051931749
 31
0.0
  0
LINE
  5
217
330
1F
100
AcDbEntity
  8
POCKETS
100
AcDbLine
 10
1042.3882800697
 20
68.6492598309
 30
0.0
 11
1042.3882800697
 21
86.8880169067
 31
0.0
  0
LINE
  5
218
330
1F
100
AcDbEntity
  8
PROFILES_OUTSIDE
100
AcDbLine
 10
313.9482800697
 20
56.7051931749
 30
0.0
 11
313.9482800697
 21
131.6705953879
 31
0.0
  0
LINE
  5
219
330
1F
100
AcDbEntity
  8
PROFILES_OUTSIDE
100
AcDbLine
 10
308.9901691357
 20
137.5794419059
 30
0.0
 11
298.9063910037
 21
139.3574840581
 31
0.0
  0
LINE
  5
21A
330
1F
100
AcDbEntity
  8
PROFILES_OUTSIDE
100
AcDbLine
 10
293.9482800697
 20
145.2663305762
 30
0.0
 11
293.9482800697
 21
670.3849942341
 31
0.0
  0
LINE
  5
21B
330
1F
100
AcDbEntity
  8
PROFILES_OUTSIDE
100
AcDbLine
 10
298.9063910037
 20
676.2938407522
 30
0.0
 11
308.9901691357
 21
678.0718829043
 31
0.0
  0
LINE
  5
21C
330
1F
100
AcDbEntity
  8
PROFILES_INSIDE
100
AcDbLine
 10
286.6675255107
 20
731.5116921754
 30
0.0
 11
287.6624462376
 21
742.8836881212
 31
0.0
  0
LINE
  5
21D
330
1F
100
AcDbEntity
  8
PROFILES_INSIDE
100
AcDbLine
 10
271.8992090995
 20
729.3282428427
 30
0.0
 11
275.9274588745
 21
728.9758202596
 31
0.0
  0
LINE
  5
21E
330
1F
100
AcDbEntity
  8
PROFILES_INSIDE
100
AcDbLine
 10
262.7575780676
 20
745.062589894
 30
0.0
 11
261.7626573515
 21
733.6905776646
 31
0.0
  0
LINE
  5
21F
330
1F
100
AcDbEntity
  8
PROFILES_INSIDE
100
AcDbLine
 10
277.5258951965
 20
747.2460310226
 30
0.0
 11
273.4976453026
 21
747.5984522475
 31
0.0
  0
LINE
  5
220
330
1F
100
AcDbEntity
  8
PROFILES_OUTSIDE
100
AcDbLine
 10
832.9082800697
 20
30.0712622726
 30
0.0
 11
832.9082800697
 21
658.0712622726
 31
0.0
  0
LINE
  5
221
330
1F
100
AcDbEntity
  8
PROFILES_OUTSIDE
100
AcDbLine
 10
832.9082800697
 20
658.0712622726
 30
0.0
 11
664.9082800697
 21
658.0712622726
 31
0.0
  0
LINE
  5
222
330
1F
100
AcDbEntity
  8
PROFILES_OUTSIDE
100
AcDbLine
 10
664.9082800697
 20
658.0712622726
 30
0.0
 11
664.9082800697
 21
30.0712622726
 31
0.0
  0
LINE
  5
223
330
1F
100
AcDbEntity
  8
PROFILES_OUTSIDE
100
AcDbLine
 10
664.9082800697
 20
30.0712622726
 30
0.0
 11
832.9082800697
 21
30.0712622726
 31
0.0
  0
LINE
  5
224
330
1F
100
AcDbEntity
  8
PROFILES_OUTSIDE
100
AcDbLine
 10
1032.3882800697
 20
317.5965795416
 30
0.0
 11
864.3882800697
 21
317.5965795416
 31
0.0
  0
LINE
  5
225
330
1F
100
AcDbEntity
  8
PROFILES_OUTSIDE
100
AcDbLine
 10
864.3882800697
 20
317.5965795416
 30
0.0
 11
864.3882800697
 21
30.0712622726
 31
0.0
  0
LINE
  5
226
330
1F
100
AcDbEntity
  8
PROFILES_OUTSIDE
100
AcDbLine
 10
864.3882800697
 20
30.0712622726
 30
0.0
 11
1032.3882800697
 21
30.0712622726
 31
0.0
  0
LINE
  5
227
330
1F
100
AcDbEntity
  8
PROFILES_OUTSIDE
100
AcDbLine
 10
1032.3882800697
 20
30.0712622726
 30
0.0
 11
1032.3882800697
 21
317.5965795416
 31
0.0
  0
LINE
  5
228
330
1F
100
AcDbEntity
  8
PROFILES_OUTSIDE
100
AcDbLine
 10
864.3882800697
 20
636.6018968107
 30
0.0
 11
864.3882800697
 21
349.0765795416
 31
0.0
  0
LINE
  5
229
330
1F
100
AcDbEntity
  8
PROFILES_OUTSIDE
100
AcDbLine
 10
864.3882800697
 20
349.0765795416
 30
0.0
 11
1032.3882800697
 21
349.0765795416
 31
0.0
  0
LINE
  5
22A
330
1F
100
AcDbEntity
  8
BOX_STOCK
100
AcDbLine
 10
0.2082800697
 20
4.3312622726
 30
0.0
 11
2440.2082800697
 21
4.3312622726
 31
0.0
  0
LINE
  5
22B
330
1F
100
AcDbEntity
  8
BOX_STOCK
100
AcDbLine
 10
2440.2082800697
 20
4.3312622726
 30
0.0
 11
2440.2082800697
 21
1224.3312622726
 31
0.0
  0
LINE
  5
22C
330
1F
100
AcDbEntity
  8
BOX_STOCK
100
AcDbLine
 10
2440.2082800697
 20
1224.3312622726
 30
0.0
 11
0.2082800697
 21
1224.3312622726
 31
0.0
  0
LINE
  5
22D
330
1F
100
AcDbEntity
  8
BOX_STOCK
100
AcDbLine
 10
0.2082800697
 20
1224.3312622726
 30
0.0
 11
0.2082800697
 21
4.3312622726
 31
0.0
  0
LINE
  5
22E
330
1F
100
AcDbEntity
  8
POCKETS
100
AcDbLine
 10
1042.3882800697
 20
405.8933341757
 30
0.0
 11
854.3882800697
 21
405.8933341757
 31
0.0
  0
LINE
  5
22F
330
1F
100
AcDbEntity
  8
PROFILES_OUTSIDE
100
AcDbLine
 10
1032.3882800697
 20
349.0765795416
 30
0.0
 11
1032.3882800697
 21
636.6018968107
 31
0.0
  0
LINE
  5
230
330
1F
100
AcDbEntity
  8
POCKETS
100
AcDbLine
 10
854.3882800697
 20
405.8933341757
 30
0.0
 11
854.3882800697
 21
387.6545770999
 31
0.0
  0
LINE
  5
231
330
1F
100
AcDbEntity
  8
POCKETS
100
AcDbLine
 10
854.3882800697
 20
387.6545770999
 30
0.0
 11
1042.3882800697
 21
387.6545770999
 31
0.0
  0
LINE
  5
232
330
1F
100
AcDbEntity
  8
POCKETS
100
AcDbLine
 10
1042.3882800697
 20
387.6545770999
 30
0.0
 11
1042.3882800697
 21
405.8933341757
 31
0.0
  0
LINE
  5
233
330
1F
100
AcDbEntity
  8
PROFILES_OUTSIDE
100
AcDbLine
 10
1032.3882800697
 20
636.6018968107
 30
0.0
 11
864.3882800697
 21
636.6018968107
 31
0.0
  0
LINE
  5
234
330
1F
100
AcDbEntity
  8
PROFILES_INSIDE
100
AcDbLine
 10
89.9759349147
 20
748.7199765634
 30
0.0
 11
90.9708556417
 21
760.0919725092
 31
0.0
  0
LINE
  5
235
330
1F
100
AcDbEntity
  8
PROFILES_INSIDE
100
AcDbLine
 10
80.8343046006
 20
764.4543154106
 30
0.0
 11
76.8060547823
 21
764.8067374998
 31
0.0
  0
LINE
  5
236
330
1F
100
AcDbEntity
  8
PROFILES_INSIDE
100
AcDbLine
 10
66.0659873482
 20
762.2708742928
 30
0.0
 11
65.0710667556
 21
750.8988620526
 31
0.0
  0
LINE
  5
237
330
1F
100
AcDbEntity
  8
PROFILES_INSIDE
100
AcDbLine
 10
75.2076185035
 20
746.5365272307
 30
0.0
 11
79.2358682786
 21
746.1841046476
 31
0.0
  0
LINE
  5
238
330
1F
100
AcDbEntity
  8
PROFILES_INSIDE
100
AcDbLine
 10
287.6624462376
 20
72.7676366891
 30
0.0
 11
286.6675255107
 21
84.1396326349
 31
0.0
  0
LINE
  5
239
330
1F
100
AcDbEntity
  8
PROFILES_INSIDE
100
AcDbLine
 10
275.9274585614
 20
86.6755081293
 30
0.0
 11
271.8992094234
 21
86.3230782655
 31
0.0
  0
LINE
  5
23A
330
1F
100
AcDbEntity
  8
PROFILES_INSIDE
100
AcDbLine
 10
261.76265568
 20
81.9607469994
 30
0.0
 11
262.7575794922
 21
70.5887350409
 31
0.0
  0
LINE
  5
23B
330
1F
100
AcDbEntity
  8
PROFILES_INSIDE
100
AcDbLine
 10
273.4976457346
 20
68.0528676259
 30
0.0
 11
277.5258948834
 21
68.4052973663
 31
0.0
  0
LINE
  5
23C
330
1F
100
AcDbEntity
  8
PROFILES_INSIDE
100
AcDbLine
 10
65.071065331
 20
64.752462633
 30
0.0
 11
66.0659888962
 21
53.3804506529
 31
0.0
  0
LINE
  5
23D
330
1F
100
AcDbEntity
  8
PROFILES_INSIDE
100
AcDbLine
 10
76.8060551386
 20
50.8445832379
 30
0.0
 11
80.8343042875
 21
51.1970129783
 31
0.0
  0
LINE
  5
23E
330
1F
100
AcDbEntity
  8
PROFILES_INSIDE
100
AcDbLine
 10
90.9708556417
 20
55.5593523011
 30
0.0
 11
89.9759349147
 21
66.9313482468
 31
0.0
  0
LINE
  5
23F
330
1F
100
AcDbEntity
  8
PROFILES_INSIDE
100
AcDbLine
 10
79.2358679655
 20
69.4672237413
 30
0.0
 11
75.2076188166
 21
69.1147940009
 31
0.0
  0
LINE
  5
240
330
1F
100
AcDbEntity
  8
PROFILES_OUTSIDE
100
AcDbLine
 10
1070.1282800697
 20
271.2661827908
 30
0.0
 11
1064.8682800697
 21
271.2661827908
 31
0.0
  0
LINE
  5
241
330
1F
100
AcDbEntity
  8
PROFILES_OUTSIDE
100
AcDbLine
 10
1070.4683677068
 20
265.9523134615
 30
0.0
 11
1070.1282800697
 21
271.2661827908
 31
0.0
  0
LINE
  5
242
330
1F
100
AcDbEntity
  8
PROFILES_OUTSIDE
100
AcDbLine
 10
1085.4060016863
 20
265.0161827908
 30
0.0
 11
1071.4663259768
 21
265.0161827908
 31
0.0
  0
LINE
  5
243
330
1F
100
AcDbEntity
  8
PROFILES_OUTSIDE
100
AcDbLine
 10
1088.8682800697
 20
277.5181827908
 30
0.0
 11
1088.8682800697
 21
275.4943644305
 31
0.0
  0
LINE
  5
244
330
1F
100
AcDbEntity
  8
PROFILES_OUTSIDE
100
AcDbLine
 10
1131.8682800697
 20
277.5181827908
 30
0.0
 11
1088.8682800697
 21
277.5181827908
 31
0.0
  0
LINE
  5
245
330
1F
100
AcDbEntity
  8
PROFILES_OUTSIDE
100
AcDbLine
 10
1143.8682800697
 20
203.0358759514
 30
0.0
 11
1143.8682800697
 21
265.5181827908
 31
0.0
  0
LINE
  5
246
330
1F
100
AcDbEntity
  8
PROFILES_OUTSIDE
100
AcDbLine
 10
1171.8682800697
 20
191.0358759514
 30
0.0
 11
1155.8682800697
 21
191.0358759514
 31
0.0
  0
LINE
  5
247
330
1F
100
AcDbEntity
  8
PROFILES_OUTSIDE
100
AcDbLine
 10
1183.8682800697
 20
265.5181827908
 30
0.0
 11
1183.8682800697
 21
203.0358759514
 31
0.0
  0
LINE
  5
248
330
1F
100
AcDbEntity
  8
PROFILES_INSIDE
100
AcDbLine
 10
606.1475255107
 20
731.5116921754
 30
0.0
 11
607.1424462376
 21
742.8836881212
 31
0.0
  0
LINE
  5
249
330
1F
100
AcDbEntity
  8
PROFILES_INSIDE
100
AcDbLine
 10
591.3792090995
 20
729.3282428427
 30
0.0
 11
595.4074588745
 21
728.9758202596
 31
0.0
  0
LINE
  5
24A
330
1F
100
AcDbEntity
  8
PROFILES_INSIDE
100
AcDbLine
 10
582.2375780676
 20
745.062589894
 30
0.0
 11
581.2426573515
 21
733.6905776646
 31
0.0
  0
LINE
  5
24B
330
1F
100
AcDbEntity
  8
PROFILES_INSIDE
100
AcDbLine
 10
597.0058951965
 20
747.2460310226
 30
0.0
 11
592.9776453026
 21
747.5984522475
 31
0.0
  0
LINE
  5
24C
330
1F
100
AcDbEntity
  8
PROFILES_INSIDE
100
AcDbLine
 10
409.5999846681
 20
748.707373843
 30
0.0
 11
410.594905395
 21
760.0793697888
 31
0.0
  0
LINE
  5
24D
330
1F
100
AcDbEntity
  8
PROFILES_INSIDE
100
AcDbLine
 10
400.4583543539
 20
764.4417126902
 30
0.0
 11
396.4301045357
 21
764.7941347794
 31
0.0
  0
LINE
  5
24E
330
1F
100
AcDbEntity
  8
PROFILES_INSIDE
100
AcDbLine
 10
385.6900371015
 20
762.2582715724
 30
0.0
 11
384.6951165089
 21
750.8862593322
 31
0.0
  0
LINE
  5
24F
330
1F
100
AcDbEntity
  8
PROFILES_INSIDE
100
AcDbLine
 10
394.8316682569
 20
746.5239245103
 30
0.0
 11
398.8599180319
 21
746.1715019272
 31
0.0
  0
LINE
  5
250
330
1F
100
AcDbEntity
  8
PROFILES_INSIDE
100
AcDbLine
 10
607.1424462376
 20
72.7676366891
 30
0.0
 11
606.1475255107
 21
84.1396326349
 31
0.0
  0
LINE
  5
251
330
1F
100
AcDbEntity
  8
PROFILES_INSIDE
100
AcDbLine
 10
595.4074585614
 20
86.6755081293
 30
0.0
 11
591.3792094234
 21
86.3230782655
 31
0.0
  0
LINE
  5
252
330
1F
100
AcDbEntity
  8
PROFILES_INSIDE
100
AcDbLine
 10
581.24265568
 20
81.9607469994
 30
0.0
 11
582.2375794922
 21
70.5887350409
 31
0.0
  0
LINE
  5
253
330
1F
100
AcDbEntity
  8
PROFILES_INSIDE
100
AcDbLine
 10
592.9776457346
 20
68.0528676259
 30
0.0
 11
597.0058948834
 21
68.4052973663
 31
0.0
  0
LINE
  5
254
330
1F
100
AcDbEntity
  8
PROFILES_OUTSIDE
100
AcDbLine
 10
1238.8682800697
 20
277.5181827908
 30
0.0
 11
1195.8682800697
 21
277.5181827908
 31
0.0
  0
LINE
  5
255
330
1F
100
AcDbEntity
  8
PROFILES_OUTSIDE
100
AcDbLine
 10
1238.8682800697
 20
275.4943644305
 30
0.0
 11
1238.8682800697
 21
277.5181827908
 31
0.0
  0
LINE
  5
256
330
1F
100
AcDbEntity
  8
PROFILES_OUTSIDE
100
AcDbLine
 10
1256.2702341626
 20
265.0161827908
 30
0.0
 11
1242.3305584531
 21
265.0161827908
 31
0.0
  0
LINE
  5
257
330
1F
100
AcDbEntity
  8
PROFILES_OUTSIDE
100
AcDbLine
 10
1257.6082800697
 20
271.2661827908
 30
0.0
 11
1257.2681924326
 21
265.9523134615
 31
0.0
  0
LINE
  5
258
330
1F
100
AcDbEntity
  8
PROFILES_OUTSIDE
100
AcDbLine
 10
1262.8682800697
 20
271.2661827908
 30
0.0
 11
1257.6082800697
 21
271.2661827908
 31
0.0
  0
LINE
  5
259
330
1F
100
AcDbEntity
  8
PROFILES_INSIDE
100
AcDbLine
 10
384.6951150844
 20
64.7650653534
 30
0.0
 11
385.6900386496
 21
53.3930533733
 31
0.0
  0
LINE
  5
25A
330
1F
100
AcDbEntity
  8
PROFILES_INSIDE
100
AcDbLine
 10
396.430104892
 20
50.8571859583
 30
0.0
 11
400.4583540408
 21
51.2096156987
 31
0.0
  0
LINE
  5
25B
330
1F
100
AcDbEntity
  8
PROFILES_INSIDE
100
AcDbLine
 10
410.594905395
 20
55.5719550215
 30
0.0
 11
409.5999846681
 21
66.9439509672
 31
0.0
  0
LINE
  5
25C
330
1F
100
AcDbEntity
  8
PROFILES_INSIDE
100
AcDbLine
 10
398.8599177188
 20
69.4798264617
 30
0.0
 11
394.83166857
 21
69.1273967213
 31
0.0
  0
LINE
  5
25D
330
1F
100
AcDbEntity
  8
PROFILES_OUTSIDE
100
AcDbLine
 10
345.4282800697
 20
777.5950157244
 30
0.0
 11
345.4282800697
 21
38.0563090859
 31
0.0
  0
LINE
  5
25E
330
1F
100
AcDbEntity
  8
PROFILES_OUTSIDE
100
AcDbLine
 10
627.9512145262
 20
759.4253127798
 30
0.0
 11
351.9512145262
 21
783.5721839129
 31
0.0
  0
LINE
  5
25F
330
1F
100
AcDbEntity
  8
PROFILES_OUTSIDE
100
AcDbLine
 10
633.4282800697
 20
683.9807294224
 30
0.0
 11
633.4282800697
 21
753.4481445912
 31
0.0
  0
LINE
  5
260
330
1F
100
AcDbEntity
  8
PROFILES_OUTSIDE
100
AcDbLine
 10
618.3863910037
 20
676.2938407522
 30
0.0
 11
628.4701691357
 21
678.0718829043
 31
0.0
  0
LINE
  5
261
330
1F
100
AcDbEntity
  8
POCKETS
100
AcDbLine
 10
324.2193002954
 20
109.139901467
 30
0.0
 11
314.2573533145
 21
108.2683440395
 31
0.0
  0
LINE
  5
262
330
1F
100
AcDbEntity
  8
PROFILES_OUTSIDE
100
AcDbLine
 10
1263.8682800697
 20
258.5161827908
 30
0.0
 11
1263.8682800697
 21
270.2661827908
 31
0.0
  0
LINE
  5
263
330
1F
100
AcDbEntity
  8
PROFILES_OUTSIDE
100
AcDbLine
 10
1205.3932800697
 20
252.5161827908
 30
0.0
 11
1257.8682800697
 21
252.5161827908
 31
0.0
  0
LINE
  5
264
330
1F
100
AcDbEntity
  8
PROFILES_OUTSIDE
100
AcDbLine
 10
1193.3932800697
 20
191.0358759514
 30
0.0
 11
1193.3932800697
 21
240.5161827908
 31
0.0
  0
LINE
  5
265
330
1F
100
AcDbEntity
  8
PROFILES_OUTSIDE
100
AcDbLine
 10
1183.8682800697
 20
133.0513530541
 30
0.0
 11
1183.8682800697
 21
174.5380920093
 31
0.0
  0
LINE
  5
266
330
1F
100
AcDbEntity
  8
PROFILES_OUTSIDE
100
AcDbLine
 10
1193.3932800697
 20
67.0732622726
 30
0.0
 11
1193.3932800697
 21
116.553569112
 31
0.0
  0
LINE
  5
267
330
1F
100
AcDbEntity
  8
PROFILES_OUTSIDE
100
AcDbLine
 10
1257.8682800697
 20
55.0732622726
 30
0.0
 11
1205.3932800697
 21
55.0732622726
 31
0.0
  0
LINE
  5
268
330
1F
100
AcDbEntity
  8
PROFILES_OUTSIDE
100
AcDbLine
 10
1263.8682800697
 20
37.3232622726
 30
0.0
 11
1263.8682800697
 21
49.0732622726
 31
0.0
  0
LINE
  5
269
330
1F
100
AcDbEntity
  8
PROFILES_OUTSIDE
100
AcDbLine
 10
1257.6082800697
 20
36.3232622726
 30
0.0
 11
1262.8682800697
 21
36.3232622726
 31
0.0
  0
LINE
  5
26A
330
1F
100
AcDbEntity
  8
PROFILES_OUTSIDE
100
AcDbLine
 10
1257.2681924326
 20
41.6371316019
 30
0.0
 11
1257.6082800697
 21
36.3232622726
 31
0.0
  0
LINE
  5
26B
330
1F
100
AcDbEntity
  8
PROFILES_OUTSIDE
100
AcDbLine
 10
1242.3305584531
 20
42.5732622726
 30
0.0
 11
1256.2702341626
 21
42.5732622726
 31
0.0
  0
LINE
  5
26C
330
1F
100
AcDbEntity
  8
PROFILES_OUTSIDE
100
AcDbLine
 10
1238.8682800697
 20
30.0712622726
 30
0.0
 11
1238.8682800697
 21
32.0950806329
 31
0.0
  0
LINE
  5
26D
330
1F
100
AcDbEntity
  8
PROFILES_OUTSIDE
100
AcDbLine
 10
1195.8682800697
 20
30.0712622726
 30
0.0
 11
1238.8682800697
 21
30.0712622726
 31
0.0
  0
LINE
  5
26E
330
1F
100
AcDbEntity
  8
PROFILES_OUTSIDE
100
AcDbLine
 10
1183.8682800697
 20
104.553569112
 30
0.0
 11
1183.8682800697
 21
42.0712622726
 31
0.0
  0
LINE
  5
26F
330
1F
100
AcDbEntity
  8
PROFILES_OUTSIDE
100
AcDbLine
 10
1155.8682800697
 20
116.553569112
 30
0.0
 11
1171.8682800697
 21
116.553569112
 31
0.0
  0
LINE
  5
270
330
1F
100
AcDbEntity
  8
PROFILES_OUTSIDE
100
AcDbLine
 10
1143.8682800697
 20
42.0712622726
 30
0.0
 11
1143.8682800697
 21
104.553569112
 31
0.0
  0
LINE
  5
271
330
1F
100
AcDbEntity
  8
PROFILES_OUTSIDE
100
AcDbLine
 10
1088.8682800697
 20
30.0712622726
 30
0.0
 11
1131.8682800697
 21
30.0712622726
 31
0.0
  0
LINE
  5
272
330
1F
100
AcDbEntity
  8
PROFILES_OUTSIDE
100
AcDbLine
 10
613.4282800697
 20
145.2663305762
 30
0.0
 11
613.4282800697
 21
670.3849942341
 31
0.0
  0
LINE
  5
273
330
1F
100
AcDbEntity
  8
POCKETS
100
AcDbLine
 10
325.84736957
 20
90.5309845066
 30
0.0
 11
324.2193002954
 21
109.139901467
 31
0.0
  0
LINE
  5
274
330
1F
100
AcDbEntity
  8
PROFILES_OUTSIDE
100
AcDbLine
 10
628.4701691357
 20
137.5794419059
 30
0.0
 11
618.3863910037
 21
139.3574840581
 31
0.0
  0
LINE
  5
275
330
1F
100
AcDbEntity
  8
POCKETS
100
AcDbLine
 10
315.885422589
 20
89.6594270792
 30
0.0
 11
325.84736957
 21
90.5309845066
 31
0.0
  0
LINE
  5
276
330
1F
100
AcDbEntity
  8
POCKETS
100
AcDbLine
 10
25.6392068249
 20
64.2661735685
 30
0.0
 11
315.885422589
 21
89.6594270792
 31
0.0
  0
LINE
  5
277
330
1F
100
AcDbEntity
  8
POCKETS
100
AcDbLine
 10
15.677259844
 20
63.394616141
 30
0.0
 11
25.6392068249
 21
64.2661735685
 31
0.0
  0
LINE
  5
278
330
1F
100
AcDbEntity
  8
POCKETS
100
AcDbLine
 10
14.0491905694
 20
82.0035331014
 30
0.0
 11
15.677259844
 21
63.394616141
 31
0.0
  0
LINE
  5
279
330
1F
100
AcDbEntity
  8
POCKETS
100
AcDbLine
 10
24.0111375504
 20
82.8750905289
 30
0.0
 11
14.0491905694
 21
82.0035331014
 31
0.0
  0
LINE
  5
27A
330
1F
100
AcDbEntity
  8
POCKETS
100
AcDbLine
 10
255.6082800697
 20
103.1372150043
 30
0.0
 11
24.0111375504
 21
82.8750905289
 31
0.0
  0
LINE
  5
27B
330
1F
100
AcDbEntity
  8
POCKETS
100
AcDbLine
 10
255.6082800697
 20
712.514109806
 30
0.0
 11
255.6082800697
 21
103.1372150043
 31
0.0
  0
LINE
  5
27C
330
1F
100
AcDbEntity
  8
POCKETS
100
AcDbLine
 10
24.0111375504
 20
732.7762342814
 30
0.0
 11
255.6082800697
 21
712.514109806
 31
0.0
  0
LINE
  5
27D
330
1F
100
AcDbEntity
  8
POCKETS
100
AcDbLine
 10
14.0491905694
 20
733.6477917089
 30
0.0
 11
24.0111375504
 21
732.7762342814
 31
0.0
  0
LINE
  5
27E
330
1F
100
AcDbEntity
  8
POCKETS
100
AcDbLine
 10
15.677259844
 20
752.2567086692
 30
0.0
 11
14.0491905694
 21
733.6477917089
 31
0.0
  0
LINE
  5
27F
330
1F
100
AcDbEntity
  8
POCKETS
100
AcDbLine
 10
25.6392068249
 20
751.3851512418
 30
0.0
 11
15.677259844
 21
752.2567086692
 31
0.0
  0
LINE
  5
280
330
1F
100
AcDbEntity
  8
POCKETS
100
AcDbLine
 10
315.885422589
 20
725.9918977311
 30
0.0
 11
25.6392068249
 21
751.3851512418
 31
0.0
  0
LINE
  5
281
330
1F
100
AcDbEntity
  8
POCKETS
100
AcDbLine
 10
325.84736957
 20
725.1203403036
 30
0.0
 11
315.885422589
 21
725.9918977311
 31
0.0
  0
LINE
  5
282
330
1F
100
AcDbEntity
  8
POCKETS
100
AcDbLine
 10
324.2193002954
 20
706.5114233433
 30
0.0
 11
325.84736957
 21
725.1203403036
 31
0.0
  0
LINE
  5
283
330
1F
100
AcDbEntity
  8
POCKETS
100
AcDbLine
 10
314.2573533145
 20
707.3829807707
 30
0.0
 11
324.2193002954
 21
706.5114233433
 31
0.0
  0
LINE
  5
284
330
1F
100
AcDbEntity
  8
POCKETS
100
AcDbLine
 10
273.9482800697
 20
710.9095677169
 30
0.0
 11
314.2573533145
 21
707.3829807707
 31
0.0
  0
LINE
  5
285
330
1F
100
AcDbEntity
  8
PROFILES_OUTSIDE
100
AcDbLine
 10
1088.8682800697
 20
32.0950806329
 30
0.0
 11
1088.8682800697
 21
30.0712622726
 31
0.0
  0
LINE
  5
286
330
1F
100
AcDbEntity
  8
PROFILES_OUTSIDE
100
AcDbLine
 10
1071.4663259768
 20
42.5732622726
 30
0.0
 11
1085.4060016863
 21
42.5732622726
 31
0.0
  0
LINE
  5
287
330
1F
100
AcDbEntity
  8
PROFILES_OUTSIDE
100
AcDbLine
 10
1070.1282800697
 20
36.3232622726
 30
0.0
 11
1070.4683677068
 21
41.6371316019
 31
0.0
  0
LINE
  5
288
330
1F
100
AcDbEntity
  8
PROFILES_OUTSIDE
100
AcDbLine
 10
1064.8682800697
 20
36.3232622726
 30
0.0
 11
1070.1282800697
 21
36.3232622726
 31
0.0
  0
LINE
  5
289
330
1F
100
AcDbEntity
  8
PROFILES_OUTSIDE
100
AcDbLine
 10
1063.8682800697
 20
49.0732622726
 30
0.0
 11
1063.8682800697
 21
37.3232622726
 31
0.0
  0
LINE
  5
28A
330
1F
100
AcDbEntity
  8
PROFILES_OUTSIDE
100
AcDbLine
 10
1122.3432800697
 20
55.0732622726
 30
0.0
 11
1069.8682800697
 21
55.0732622726
 31
0.0
  0
LINE
  5
28B
330
1F
100
AcDbEntity
  8
PROFILES_OUTSIDE
100
AcDbLine
 10
1134.3432800697
 20
116.553569112
 30
0.0
 11
1134.3432800697
 21
67.0732622726
 31
0.0
  0
LINE
  5
28C
330
1F
100
AcDbEntity
  8
PROFILES_OUTSIDE
100
AcDbLine
 10
1143.8682800697
 20
174.5380920093
 30
0.0
 11
1143.8682800697
 21
133.0513530541
 31
0.0
  0
LINE
  5
28D
330
1F
100
AcDbEntity
  8
PROFILES_OUTSIDE
100
AcDbLine
 10
1134.3432800697
 20
240.5161827908
 30
0.0
 11
1134.3432800697
 21
191.0358759514
 31
0.0
  0
LINE
  5
28E
330
1F
100
AcDbEntity
  8
PROFILES_OUTSIDE
100
AcDbLine
 10
1069.8682800697
 20
252.5161827908
 30
0.0
 11
1122.3432800697
 21
252.5161827908
 31
0.0
  0
LINE
  5
28F
330
1F
100
AcDbEntity
  8
PROFILES_OUTSIDE
100
AcDbLine
 10
1063.8682800697
 20
270.2661827908
 30
0.0
 11
1063.8682800697
 21
258.5161827908
 31
0.0
  0
LINE
  5
290
330
1F
100
AcDbEntity
  8
POCKETS
100
AcDbLine
 10
273.9482800697
 20
104.7417570934
 30
0.0
 11
273.9482800697
 21
710.9095677169
 31
0.0
  0
LINE
  5
291
330
1F
100
AcDbEntity
  8
PROFILES_OUTSIDE
100
AcDbLine
 10
1257.6082800697
 20
315.2461827908
 30
0.0
 11
1262.8682800697
 21
315.2461827908
 31
0.0
  0
LINE
  5
292
330
1F
100
AcDbEntity
  8
PROFILES_OUTSIDE
100
AcDbLine
 10
1257.2681924326
 20
320.5600521201
 30
0.0
 11
1257.6082800697
 21
315.2461827908
 31
0.0
  0
LINE
  5
293
330
1F
100
AcDbEntity
  8
PROFILES_OUTSIDE
100
AcDbLine
 10
1242.3305584531
 20
321.4961827908
 30
0.0
 11
1256.2702341626
 21
321.4961827908
 31
0.0
  0
LINE
  5
294
330
1F
100
AcDbEntity
  8
PROFILES_OUTSIDE
100
AcDbLine
 10
1238.8682800697
 20
308.9941827908
 30
0.0
 11
1238.8682800697
 21
311.018001151
 31
0.0
  0
LINE
  5
295
330
1F
100
AcDbEntity
  8
PROFILES_OUTSIDE
100
AcDbLine
 10
1195.8682800697
 20
308.9941827908
 30
0.0
 11
1238.8682800697
 21
308.9941827908
 31
0.0
  0
LINE
  5
296
330
1F
100
AcDbEntity
  8
PROFILES_OUTSIDE
100
AcDbLine
 10
1183.8682800697
 20
383.4764896302
 30
0.0
 11
1183.8682800697
 21
320.9941827908
 31
0.0
  0
LINE
  5
297
330
1F
100
AcDbEntity
  8
PROFILES_OUTSIDE
100
AcDbLine
 10
1155.8682800697
 20
395.4764896302
 30
0.0
 11
1171.8682800697
 21
395.4764896302
 31
0.0
  0
LINE
  5
298
330
1F
100
AcDbEntity
  8
PROFILES_OUTSIDE
100
AcDbLine
 10
1143.8682800697
 20
320.9941827908
 30
0.0
 11
1143.8682800697
 21
383.4764896302
 31
0.0
  0
LINE
  5
299
330
1F
100
AcDbEntity
  8
PROFILES_OUTSIDE
100
AcDbLine
 10
1088.8682800697
 20
308.9941827908
 30
0.0
 11
1131.8682800697
 21
308.9941827908
 31
0.0
  0
LINE
  5
29A
330
1F
100
AcDbEntity
  8
PROFILES_OUTSIDE
100
AcDbLine
 10
1088.8682800697
 20
311.018001151
 30
0.0
 11
1088.8682800697
 21
308.9941827908
 31
0.0
  0
LINE
  5
29B
330
1F
100
AcDbEntity
  8
PROFILES_OUTSIDE
100
AcDbLine
 10
1071.4663259768
 20
321.4961827908
 30
0.0
 11
1085.4060016863
 21
321.4961827908
 31
0.0
  0
LINE
  5
29C
330
1F
100
AcDbEntity
  8
PROFILES_OUTSIDE
100
AcDbLine
 10
1070.1282800697
 20
315.2461827908
 30
0.0
 11
1070.4683677068
 21
320.5600521201
 31
0.0
  0
LINE
  5
29D
330
1F
100
AcDbEntity
  8
PROFILES_OUTSIDE
100
AcDbLine
 10
1064.8682800697
 20
315.2461827908
 30
0.0
 11
1070.1282800697
 21
315.2461827908
 31
0.0
  0
LINE
  5
29E
330
1F
100
AcDbEntity
  8
PROFILES_OUTSIDE
100
AcDbLine
 10
1063.8682800697
 20
327.9961827908
 30
0.0
 11
1063.8682800697
 21
316.2461827908
 31
0.0
  0
LINE
  5
29F
330
1F
100
AcDbEntity
  8
PROFILES_OUTSIDE
100
AcDbLine
 10
1122.3432800697
 20
333.9961827908
 30
0.0
 11
1069.8682800697
 21
333.9961827908
 31
0.0
  0
LINE
  5
2A0
330
1F
100
AcDbEntity
  8
PROFILES_OUTSIDE
100
AcDbLine
 10
1134.3432800697
 20
395.4764896302
 30
0.0
 11
1134.3432800697
 21
345.9961827908
 31
0.0
  0
LINE
  5
2A1
330
1F
100
AcDbEntity
  8
PROFILES_OUTSIDE
100
AcDbLine
 10
1143.8682800697
 20
453.4610125275
 30
0.0
 11
1143.8682800697
 21
411.9742735723
 31
0.0
  0
LINE
  5
2A2
330
1F
100
AcDbEntity
  8
PROFILES_OUTSIDE
100
AcDbLine
 10
1134.3432800697
 20
519.4391033089
 30
0.0
 11
1134.3432800697
 21
469.9587964695
 31
0.0
  0
LINE
  5
2A3
330
1F
100
AcDbEntity
  8
PROFILES_OUTSIDE
100
AcDbLine
 10
1069.8682800697
 20
531.4391033089
 30
0.0
 11
1122.3432800697
 21
531.4391033089
 31
0.0
  0
LINE
  5
2A4
330
1F
100
AcDbEntity
  8
PROFILES_OUTSIDE
100
AcDbLine
 10
1063.8682800697
 20
549.1891033089
 30
0.0
 11
1063.8682800697
 21
537.4391033089
 31
0.0
  0
LINE
  5
2A5
330
1F
100
AcDbEntity
  8
PROFILES_OUTSIDE
100
AcDbLine
 10
1070.1282800697
 20
550.1891033089
 30
0.0
 11
1064.8682800697
 21
550.1891033089
 31
0.0
  0
LINE
  5
2A6
330
1F
100
AcDbEntity
  8
PROFILES_OUTSIDE
100
AcDbLine
 10
1070.4683677068
 20
544.8752339796
 30
0.0
 11
1070.1282800697
 21
550.1891033089
 31
0.0
  0
LINE
  5
2A7
330
1F
100
AcDbEntity
  8
PROFILES_OUTSIDE
100
AcDbLine
 10
1085.4060016863
 20
543.9391033089
 30
0.0
 11
1071.4663259768
 21
543.9391033089
 31
0.0
  0
LINE
  5
2A8
330
1F
100
AcDbEntity
  8
PROFILES_OUTSIDE
100
AcDbLine
 10
1088.8682800697
 20
556.4411033089
 30
0.0
 11
1088.8682800697
 21
554.4172849487
 31
0.0
  0
LINE
  5
2A9
330
1F
100
AcDbEntity
  8
PROFILES_OUTSIDE
100
AcDbLine
 10
1131.8682800697
 20
556.4411033089
 30
0.0
 11
1088.8682800697
 21
556.4411033089
 31
0.0
  0
LINE
  5
2AA
330
1F
100
AcDbEntity
  8
PROFILES_OUTSIDE
100
AcDbLine
 10
1143.8682800697
 20
481.9587964695
 30
0.0
 11
1143.8682800697
 21
544.4411033089
 31
0.0
  0
LINE
  5
2AB
330
1F
100
AcDbEntity
  8
PROFILES_OUTSIDE
100
AcDbLine
 10
1171.8682800697
 20
469.9587964695
 30
0.0
 11
1155.8682800697
 21
469.9587964695
 31
0.0
  0
LINE
  5
2AC
330
1F
100
AcDbEntity
  8
PROFILES_OUTSIDE
100
AcDbLine
 10
1183.8682800697
 20
544.4411033089
 30
0.0
 11
1183.8682800697
 21
481.9587964695
 31
0.0
  0
LINE
  5
2AD
330
1F
100
AcDbEntity
  8
PROFILES_OUTSIDE
100
AcDbLine
 10
1238.8682800697
 20
556.4411033089
 30
0.0
 11
1195.8682800697
 21
556.4411033089
 31
0.0
  0
LINE
  5
2AE
330
1F
100
AcDbEntity
  8
PROFILES_OUTSIDE
100
AcDbLine
 10
1238.8682800697
 20
554.4172849487
 30
0.0
 11
1238.8682800697
 21
556.4411033089
 31
0.0
  0
LINE
  5
2AF
330
1F
100
AcDbEntity
  8
PROFILES_OUTSIDE
100
AcDbLine
 10
1256.2702341626
 20
543.9391033089
 30
0.0
 11
1242.3305584531
 21
543.9391033089
 31
0.0
  0
LINE
  5
2B0
330
1F
100
AcDbEntity
  8
PROFILES_OUTSIDE
100
AcDbLine
 10
1257.6082800697
 20
550.1891033089
 30
0.0
 11
1257.2681924326
 21
544.8752339796
 31
0.0
  0
LINE
  5
2B1
330
1F
100
AcDbEntity
  8
PROFILES_OUTSIDE
100
AcDbLine
 10
1262.8682800697
 20
550.1891033089
 30
0.0
 11
1257.6082800697
 21
550.1891033089
 31
0.0
  0
LINE
  5
2B2
330
1F
100
AcDbEntity
  8
PROFILES_OUTSIDE
100
AcDbLine
 10
1263.8682800697
 20
537.4391033089
 30
0.0
 11
1263.8682800697
 21
549.1891033089
 31
0.0
  0
LINE
  5
2B3
330
1F
100
AcDbEntity
  8
PROFILES_OUTSIDE
100
AcDbLine
 10
1205.3932800697
 20
531.4391033089
 30
0.0
 11
1257.8682800697
 21
531.4391033089
 31
0.0
  0
LINE
  5
2B4
330
1F
100
AcDbEntity
  8
PROFILES_OUTSIDE
100
AcDbLine
 10
1193.3932800697
 20
469.9587964695
 30
0.0
 11
1193.3932800697
 21
519.4391033089
 31
0.0
  0
LINE
  5
2B5
330
1F
100
AcDbEntity
  8
PROFILES_OUTSIDE
100
AcDbLine
 10
1183.8682800697
 20
411.9742735723
 30
0.0
 11
1183.8682800697
 21
453.4610125275
 31
0.0
  0
LINE
  5
2B6
330
1F
100
AcDbEntity
  8
PROFILES_OUTSIDE
100
AcDbLine
 10
1193.3932800697
 20
345.9961827908
 30
0.0
 11
1193.3932800697
 21
395.4764896302
 31
0.0
  0
LINE
  5
2B7
330
1F
100
AcDbEntity
  8
PROFILES_OUTSIDE
100
AcDbLine
 10
1257.8682800697
 20
333.9961827908
 30
0.0
 11
1205.3932800697
 21
333.9961827908
 31
0.0
  0
LINE
  5
2B8
330
1F
100
AcDbEntity
  8
PROFILES_OUTSIDE
100
AcDbLine
 10
1263.8682800697
 20
316.2461827908
 30
0.0
 11
1263.8682800697
 21
327.9961827908
 31
0.0
  0
LINE
  5
2B9
330
1F
100
AcDbEntity
  8
POCKETS
100
AcDbLine
 10
314.2573533145
 20
108.2683440395
 30
0.0
 11
273.9482800697
 21
104.7417570934
 31
0.0
  0
LINE
  5
2BA
330
1F
100
AcDbEntity
  8
POCKETS
100
AcDbLine
 10
593.4282800697
 20
710.9095677169
 30
0.0
 11
633.7373533145
 21
707.3829807707
 31
0.0
  0
LINE
  5
2BB
330
1F
100
AcDbEntity
  8
POCKETS
100
AcDbLine
 10
633.7373533145
 20
707.3829807707
 30
0.0
 11
643.6993002954
 21
706.5114233433
 31
0.0
  0
LINE
  5
2BC
330
1F
100
AcDbEntity
  8
POCKETS
100
AcDbLine
 10
643.6993002954
 20
706.5114233433
 30
0.0
 11
645.32736957
 21
725.1203403036
 31
0.0
  0
LINE
  5
2BD
330
1F
100
AcDbEntity
  8
POCKETS
100
AcDbLine
 10
645.32736957
 20
725.1203403036
 30
0.0
 11
635.365422589
 21
725.9918977311
 31
0.0
  0
LINE
  5
2BE
330
1F
100
AcDbEntity
  8
POCKETS
100
AcDbLine
 10
635.365422589
 20
725.9918977311
 30
0.0
 11
346.6880101943
 21
751.2478987316
 31
0.0
  0
LINE
  5
2BF
330
1F
100
AcDbEntity
  8
POCKETS
100
AcDbLine
 10
346.6880101943
 20
751.2478987316
 30
0.0
 11
336.7260632134
 21
752.1194561591
 31
0.0
  0
LINE
  5
2C0
330
1F
100
AcDbEntity
  8
POCKETS
100
AcDbLine
 10
336.7260632134
 20
752.1194561591
 30
0.0
 11
335.0979939389
 21
733.5105391988
 31
0.0
  0
LINE
  5
2C1
330
1F
100
AcDbEntity
  8
POCKETS
100
AcDbLine
 10
335.0979939389
 20
733.5105391988
 30
0.0
 11
345.0599409198
 21
732.6389817713
 31
0.0
  0
LINE
  5
2C2
330
1F
100
AcDbEntity
  8
POCKETS
100
AcDbLine
 10
345.0599409198
 20
732.6389817713
 30
0.0
 11
575.0882800697
 21
712.514109806
 31
0.0
  0
LINE
  5
2C3
330
1F
100
AcDbEntity
  8
POCKETS
100
AcDbLine
 10
575.0882800697
 20
712.514109806
 30
0.0
 11
575.0882800697
 21
103.1372150043
 31
0.0
  0
LINE
  5
2C4
330
1F
100
AcDbEntity
  8
POCKETS
100
AcDbLine
 10
575.0882800697
 20
103.1372150043
 30
0.0
 11
345.0599409198
 21
83.012343039
 31
0.0
  0
LINE
  5
2C5
330
1F
100
AcDbEntity
  8
POCKETS
100
AcDbLine
 10
345.0599409198
 20
83.012343039
 30
0.0
 11
335.0979939389
 21
82.1407856115
 31
0.0
  0
LINE
  5
2C6
330
1F
100
AcDbEntity
  8
POCKETS
100
AcDbLine
 10
335.0979939389
 20
82.1407856115
 30
0.0
 11
336.7260632134
 21
63.5318686512
 31
0.0
  0
LINE
  5
2C7
330
1F
100
AcDbEntity
  8
POCKETS
100
AcDbLine
 10
336.7260632134
 20
63.5318686512
 30
0.0
 11
346.6880101943
 21
64.4034260786
 31
0.0
  0
LINE
  5
2C8
330
1F
100
AcDbEntity
  8
POCKETS
100
AcDbLine
 10
346.6880101943
 20
64.4034260786
 30
0.0
 11
635.365422589
 21
89.6594270792
 31
0.0
  0
LINE
  5
2C9
330
1F
100
AcDbEntity
  8
POCKETS
100
AcDbLine
 10
635.365422589
 20
89.6594270792
 30
0.0
 11
645.32736957
 21
90.5309845066
 31
0.0
  0
LINE
  5
2CA
330
1F
100
AcDbEntity
  8
POCKETS
100
AcDbLine
 10
645.32736957
 20
90.5309845066
 30
0.0
 11
643.6993002954
 21
109.139901467
 31
0.0
  0
LINE
  5
2CB
330
1F
100
AcDbEntity
  8
POCKETS
100
AcDbLine
 10
643.6993002954
 20
109.139901467
 30
0.0
 11
633.7373533145
 21
108.2683440395
 31
0.0
  0
LINE
  5
2CC
330
1F
100
AcDbEntity
  8
POCKETS
100
AcDbLine
 10
633.7373533145
 20
108.2683440395
 30
0.0
 11
593.4282800697
 21
104.7417570934
 31
0.0
  0
LINE
  5
2CD
330
1F
100
AcDbEntity
  8
POCKETS
100
AcDbLine
 10
593.4282800697
 20
104.7417570934
 30
0.0
 11
593.4282800697
 21
710.9095677169
 31
0.0
  0
LINE
  5
2CE
330
1F
100
AcDbEntity
  8
PROFILES_OUTSIDE
100
AcDbLine
 10
633.4282800697
 20
62.203180219
 30
0.0
 11
633.4282800697
 21
131.6705953879
 31
0.0
  0
LINE
  5
2CF
330
1F
100
AcDbEntity
  8
PROFILES_OUTSIDE
100
AcDbLine
 10
351.9512145262
 20
32.0791408973
 30
0.0
 11
627.9512145262
 21
56.2260120305
 31
0.0
  0
ARC
  5
2D0
330
1F
100
AcDbEntity
  8
PROFILES_OUTSIDE
100
AcDbCircle
 10
307.9482800697
 20
131.6705953879
 30
0.0
 40
5.999999999999958
100
AcDbArc
 50
0.0
 51
80.0
  0
ARC
  5
2D1
330
1F
100
AcDbEntity
  8
PROFILES_OUTSIDE
100
AcDbCircle
 10
299.9482800697
 20
145.2663305762
 30
0.0
 40
5.999999999999922
100
AcDbArc
 50
180.0
 51
260.0
  0
ARC
  5
2D2
330
1F
100
AcDbEntity
  8
PROFILES_OUTSIDE
100
AcDbCircle
 10
299.9482800697
 20
670.3849942341
 30
0.0
 40
6.00000000000009
100
AcDbArc
 50
100.0
 51
180.0
  0
ARC
  5
2D3
330
1F
100
AcDbEntity
  8
PROFILES_OUTSIDE
100
AcDbCircle
 10
307.9482800697
 20
683.9807294224
 30
0.0
 40
6.0
100
AcDbArc
 50
280.0
 51
360.0
  0
ARC
  5
2D4
330
1F
100
AcDbEntity
  8
PROFILES_INSIDE
100
AcDbCircle
 10
301.9482800697
 20
487.4276253255
 30
0.0
 40
6.0
100
AcDbArc
 50
280.0
 51
0.0
  0
ARC
  5
2D5
330
1F
100
AcDbEntity
  8
PROFILES_OUTSIDE
100
AcDbCircle
 10
1262.8682800697
 20
270.2661827908
 30
0.0
 40
1.0
100
AcDbArc
 50
0.0
 51
90.0
  0
ARC
  5
2D6
330
1F
100
AcDbEntity
  8
PROFILES_INSIDE
100
AcDbCircle
 10
277.6130500543
 20
748.2422257981
 30
0.0
 40
0.9999999999999528
100
AcDbArc
 50
265.0000509005
 51
337.399543816
  0
ARC
  5
2D7
330
1F
100
AcDbEntity
  8
PROFILES_INSIDE
100
AcDbCircle
 10
283.3092382152
 20
745.8710783046
 30
0.0
 40
5.170000000000064
100
AcDbArc
 50
330.1121952728
 51
157.399543816
  0
ARC
  5
2D8
330
1F
100
AcDbEntity
  8
PROFILES_INSIDE
100
AcDbCircle
 10
288.6586775494
 20
742.7965291752
 30
0.0
 40
1.000036753616183
100
AcDbArc
 50
150.1121952728
 51
175.0
  0
ARC
  5
2D9
330
1F
100
AcDbEntity
  8
PROFILES_INSIDE
100
AcDbCircle
 10
287.6637202088
 20
731.4245364327
 30
0.0
 40
1.00000000000001
100
AcDbArc
 50
175.0
 51
199.8879040116
  0
ARC
  5
2DA
330
1F
100
AcDbEntity
  8
PROFILES_INSIDE
100
AcDbCircle
 10
281.8616992233
 20
729.3256194537
 30
0.0
 40
5.170000000000015
100
AcDbArc
 50
192.6004773877
 51
19.8879040116
  0
ARC
  5
2DB
330
1F
100
AcDbEntity
  8
PROFILES_INSIDE
100
AcDbCircle
 10
275.8403040168
 20
727.979625484
 30
0.0
 40
1.000000000000094
100
AcDbArc
 50
12.6004773877
 51
85.0000509005
  0
ARC
  5
2DC
330
1F
100
AcDbEntity
  8
PROFILES_INSIDE
100
AcDbCircle
 10
271.8120542417
 20
728.3320480672
 30
0.0
 40
1.000000000000136
100
AcDbArc
 50
85.0000509005
 51
157.399543816
  0
ARC
  5
2DD
330
1F
100
AcDbEntity
  8
PROFILES_INSIDE
100
AcDbCircle
 10
266.1158660808
 20
730.7031955606
 30
0.0
 40
5.170000000000068
100
AcDbArc
 50
150.1121199588
 51
337.399543816
  0
ARC
  5
2DE
330
1F
100
AcDbEntity
  8
PROFILES_INSIDE
100
AcDbCircle
 10
260.7664626534
 20
733.7777334074
 30
0.0
 40
1.000000000000061
100
AcDbArc
 50
330.1121199588
 51
355.0
  0
ARC
  5
2DF
330
1F
100
AcDbEntity
  8
PROFILES_INSIDE
100
AcDbCircle
 10
261.7613847941
 20
745.1497455121
 30
0.0
 40
0.99999857000057
100
AcDbArc
 50
355.0
 51
19.8878356916
  0
ARC
  5
2E0
330
1F
100
AcDbEntity
  8
PROFILES_INSIDE
100
AcDbCircle
 10
267.5634050726
 20
747.2486544116
 30
0.0
 40
5.169998636556886
100
AcDbArc
 50
12.6004773877
 51
199.8878356916
  0
ARC
  5
2E1
330
1F
100
AcDbEntity
  8
PROFILES_INSIDE
100
AcDbCircle
 10
273.5848002792
 20
748.5946483812
 30
0.0
 40
1.000001363443081
100
AcDbArc
 50
192.6004773877
 51
265.0000509005
  0
ARC
  5
2E2
330
1F
100
AcDbEntity
  8
PROFILES_INSIDE
100
AcDbCircle
 10
91.9670869535
 20
760.0048135632
 30
0.0
 40
1.000036753616298
100
AcDbArc
 50
150.1121952728
 51
175.0
  0
ARC
  5
2E3
330
1F
100
AcDbEntity
  8
PROFILES_INSIDE
100
AcDbCircle
 10
86.6176476192
 20
763.0793626927
 30
0.0
 40
5.16999999999992
100
AcDbArc
 50
330.1121952728
 51
157.399543816
  0
ARC
  5
2E4
330
1F
100
AcDbEntity
  8
PROFILES_INSIDE
100
AcDbCircle
 10
80.9214594583
 20
765.4505101861
 30
0.0
 40
1.000000000000167
100
AcDbArc
 50
265.0000509005
 51
337.399543816
  0
ARC
  5
2E5
330
1F
100
AcDbEntity
  8
PROFILES_INSIDE
100
AcDbCircle
 10
76.8932096833
 20
765.8029327693
 30
0.0
 40
1.000000743696221
100
AcDbArc
 50
192.6004773877
 51
265.0000509005
  0
ARC
  5
2E6
330
1F
100
AcDbEntity
  8
PROFILES_INSIDE
100
AcDbCircle
 10
70.8718144767
 20
764.4569387996
 30
0.0
 40
5.169999256303735
100
AcDbArc
 50
12.6004773877
 51
199.8878356916
  0
ARC
  5
2E7
330
1F
100
AcDbEntity
  8
PROFILES_INSIDE
100
AcDbCircle
 10
65.0697941981
 20
762.3580299001
 30
0.0
 40
0.9999984460512789
100
AcDbArc
 50
355.0
 51
19.8878356916
  0
ARC
  5
2E8
330
1F
100
AcDbEntity
  8
PROFILES_INSIDE
100
AcDbCircle
 10
64.0748720575
 20
750.9860177954
 30
0.0
 40
1.00000000000001
100
AcDbArc
 50
330.1121199588
 51
355.0
  0
ARC
  5
2E9
330
1F
100
AcDbEntity
  8
PROFILES_INSIDE
100
AcDbCircle
 10
69.4242754849
 20
747.9114799487
 30
0.0
 40
5.17000000000006
100
AcDbArc
 50
150.1121199588
 51
337.399543816
  0
ARC
  5
2EA
330
1F
100
AcDbEntity
  8
PROFILES_INSIDE
100
AcDbCircle
 10
75.1204636458
 20
745.5403324552
 30
0.0
 40
1.000000000000032
100
AcDbArc
 50
85.0000509005
 51
157.399543816
  0
ARC
  5
2EB
330
1F
100
AcDbEntity
  8
PROFILES_INSIDE
100
AcDbCircle
 10
79.1487134208
 20
745.1879098721
 30
0.0
 40
1.000000000000053
100
AcDbArc
 50
12.6004773877
 51
85.0000509005
  0
ARC
  5
2EC
330
1F
100
AcDbEntity
  8
PROFILES_INSIDE
100
AcDbCircle
 10
85.1701086274
 20
746.5339038417
 30
0.0
 40
5.170000000000015
100
AcDbArc
 50
192.6004773877
 51
19.8879040116
  0
ARC
  5
2ED
330
1F
100
AcDbEntity
  8
PROFILES_INSIDE
100
AcDbCircle
 10
90.9721296128
 20
748.6328208207
 30
0.0
 40
1.000000000000015
100
AcDbArc
 50
175.0
 51
199.8879040116
  0
ARC
  5
2EE
330
1F
100
AcDbEntity
  8
PROFILES_INSIDE
100
AcDbCircle
 10
283.3092387946
 20
69.7802523471
 30
0.0
 40
5.170000000000132
100
AcDbArc
 50
202.6004773877
 51
29.8879040116
  0
ARC
  5
2EF
330
1F
100
AcDbEntity
  8
PROFILES_INSIDE
100
AcDbCircle
 10
288.6586409357
 20
72.8547924318
 30
0.0
 40
1.000000000000009
100
AcDbArc
 50
185.0
 51
209.8879040116
  0
ARC
  5
2F0
330
1F
100
AcDbEntity
  8
PROFILES_INSIDE
100
AcDbCircle
 10
287.6637568225
 20
84.2267915809
 30
0.0
 40
1.000036753616189
100
AcDbArc
 50
160.1121952728
 51
185.0
  0
ARC
  5
2F1
330
1F
100
AcDbEntity
  8
PROFILES_INSIDE
100
AcDbCircle
 10
281.8616976384
 20
86.3257110087
 30
0.0
 40
5.170000000000006
100
AcDbArc
 50
340.1121952728
 51
167.399543816
  0
ARC
  5
2F2
330
1F
100
AcDbEntity
  8
PROFILES_INSIDE
100
AcDbCircle
 10
275.8403019337
 20
87.67170275
 30
0.0
 40
1.000000000000097
100
AcDbArc
 50
275.0000509005
 51
347.399543816
  0
ARC
  5
2F3
330
1F
100
AcDbEntity
  8
PROFILES_INSIDE
100
AcDbCircle
 10
271.8120527848
 20
87.3192730096
 30
0.0
 40
1.000000619746935
100
AcDbArc
 50
202.6004773877
 51
275.0000509005
  0
ARC
  5
2F4
330
1F
100
AcDbEntity
  8
PROFILES_INSIDE
100
AcDbCircle
 10
266.1158655014
 20
84.9481234081
 30
0.0
 40
5.169999380253118
100
AcDbArc
 50
22.6004773877
 51
209.8878356916
  0
ARC
  5
2F5
330
1F
100
AcDbEntity
  8
PROFILES_INSIDE
100
AcDbCircle
 10
260.7664626534
 20
81.8735914029
 30
0.0
 40
0.9999983221019667
100
AcDbArc
 50
5.0
 51
29.8878356916
  0
ARC
  5
2F6
330
1F
100
AcDbEntity
  8
PROFILES_INSIDE
100
AcDbCircle
 10
261.7613847941
 20
70.5015792982
 30
0.0
 40
1.000000000000009
100
AcDbArc
 50
340.1121199588
 51
5.0
  0
ARC
  5
2F7
330
1F
100
AcDbEntity
  8
PROFILES_INSIDE
100
AcDbCircle
 10
267.5634066576
 20
68.4026647465
 30
0.0
 40
5.170000000000046
100
AcDbArc
 50
160.1121199588
 51
347.399543816
  0
ARC
  5
2F8
330
1F
100
AcDbEntity
  8
PROFILES_INSIDE
100
AcDbCircle
 10
273.5848023623
 20
67.0566730053
 30
0.0
 40
0.9999999999999793
100
AcDbArc
 50
95.0000509005
 51
167.399543816
  0
ARC
  5
2F9
330
1F
100
AcDbEntity
  8
PROFILES_INSIDE
100
AcDbCircle
 10
277.6130515112
 20
67.4091027457
 30
0.0
 40
0.9999999999999843
100
AcDbArc
 50
22.6004773877
 51
95.0000509005
  0
ARC
  5
2FA
330
1F
100
AcDbEntity
  8
PROFILES_INSIDE
100
AcDbCircle
 10
65.0697941981
 20
53.2932949101
 30
0.0
 40
1.000000000000123
100
AcDbArc
 50
340.1121199588
 51
5.0
  0
ARC
  5
2FB
330
1F
100
AcDbEntity
  8
PROFILES_INSIDE
100
AcDbCircle
 10
70.8718160617
 20
51.1943803585
 30
0.0
 40
5.170000000000033
100
AcDbArc
 50
160.1121199588
 51
347.399543816
  0
ARC
  5
2FC
330
1F
100
AcDbEntity
  8
PROFILES_INSIDE
100
AcDbCircle
 10
76.8932117664
 20
49.8483886172
 30
0.0
 40
1.000000000000092
100
AcDbArc
 50
95.0000509005
 51
167.399543816
  0
ARC
  5
2FD
330
1F
100
AcDbEntity
  8
PROFILES_INSIDE
100
AcDbCircle
 10
80.9214609152
 20
50.2008183576
 30
0.0
 40
0.9999999999999818
100
AcDbArc
 50
22.6004773877
 51
95.0000509005
  0
ARC
  5
2FE
330
1F
100
AcDbEntity
  8
PROFILES_INSIDE
100
AcDbCircle
 10
86.6176481986
 20
52.5719679591
 30
0.0
 40
5.170000000000083
100
AcDbArc
 50
202.6004773877
 51
29.8879040116
  0
ARC
  5
2FF
330
1F
100
AcDbEntity
  8
PROFILES_INSIDE
100
AcDbCircle
 10
91.9670503398
 20
55.6465080438
 30
0.0
 40
1.000000000000009
100
AcDbArc
 50
185.0
 51
209.8879040116
  0
ARC
  5
300
330
1F
100
AcDbEntity
  8
PROFILES_INSIDE
100
AcDbCircle
 10
90.9721662266
 20
67.0185071929
 30
0.0
 40
1.000036753616224
100
AcDbArc
 50
160.1121952728
 51
185.0
  0
ARC
  5
301
330
1F
100
AcDbEntity
  8
PROFILES_INSIDE
100
AcDbCircle
 10
85.1701070424
 20
69.1174266207
 30
0.0
 40
5.170000000000024
100
AcDbArc
 50
340.1121952728
 51
167.399543816
  0
ARC
  5
302
330
1F
100
AcDbEntity
  8
PROFILES_INSIDE
100
AcDbCircle
 10
79.1487113377
 20
70.463418362
 30
0.0
 40
1.000000000000105
100
AcDbArc
 50
275.0000509005
 51
347.399543816
  0
ARC
  5
303
330
1F
100
AcDbEntity
  8
PROFILES_INSIDE
100
AcDbCircle
 10
75.1204621889
 20
70.1109886216
 30
0.0
 40
1.00000012394942
100
AcDbArc
 50
202.6004773877
 51
275.0000509005
  0
ARC
  5
304
330
1F
100
AcDbEntity
  8
PROFILES_INSIDE
100
AcDbCircle
 10
69.4242749055
 20
67.7398390201
 30
0.0
 40
5.169999876050571
100
AcDbArc
 50
22.6004773877
 51
209.8878356916
  0
ARC
  5
305
330
1F
100
AcDbEntity
  8
PROFILES_INSIDE
100
AcDbCircle
 10
64.0748720575
 20
64.6653070149
 30
0.0
 40
0.9999985700006371
100
AcDbArc
 50
5.0
 51
29.8878356916
  0
ARC
  5
306
330
1F
100
AcDbEntity
  8
PROFILES_INSIDE
100
AcDbCircle
 10
597.0930500543
 20
748.2422257981
 30
0.0
 40
1.000000000000014
100
AcDbArc
 50
265.0000509005
 51
337.399543816
  0
ARC
  5
307
330
1F
100
AcDbEntity
  8
PROFILES_INSIDE
100
AcDbCircle
 10
602.7892382152
 20
745.8710783046
 30
0.0
 40
5.170000000000003
100
AcDbArc
 50
330.1121952728
 51
157.399543816
  0
ARC
  5
308
330
1F
100
AcDbEntity
  8
PROFILES_INSIDE
100
AcDbCircle
 10
608.1386775494
 20
742.7965291752
 30
0.0
 40
1.000036753616316
100
AcDbArc
 50
150.1121952728
 51
175.0
  0
ARC
  5
309
330
1F
100
AcDbEntity
  8
PROFILES_INSIDE
100
AcDbCircle
 10
607.1437202088
 20
731.4245364327
 30
0.0
 40
0.999999999999923
100
AcDbArc
 50
175.0
 51
199.8879040116
  0
ARC
  5
30A
330
1F
100
AcDbEntity
  8
PROFILES_INSIDE
100
AcDbCircle
 10
601.3416992233
 20
729.3256194537
 30
0.0
 40
5.170000000000009
100
AcDbArc
 50
192.6004773877
 51
19.8879040116
  0
ARC
  5
30B
330
1F
100
AcDbEntity
  8
PROFILES_INSIDE
100
AcDbCircle
 10
595.3203040168
 20
727.979625484
 30
0.0
 40
1.000000000000236
100
AcDbArc
 50
12.6004773877
 51
85.0000509005
  0
ARC
  5
30C
330
1F
100
AcDbEntity
  8
PROFILES_INSIDE
100
AcDbCircle
 10
591.2920542417
 20
728.3320480672
 30
0.0
 40
1.000000000000136
100
AcDbArc
 50
85.0000509005
 51
157.399543816
  0
ARC
  5
30D
330
1F
100
AcDbEntity
  8
PROFILES_INSIDE
100
AcDbCircle
 10
585.5958660808
 20
730.7031955606
 30
0.0
 40
5.170000000000124
100
AcDbArc
 50
150.1121199588
 51
337.399543816
  0
ARC
  5
30E
330
1F
100
AcDbEntity
  8
PROFILES_INSIDE
100
AcDbCircle
 10
580.2464626534
 20
733.7777334074
 30
0.0
 40
1.000000000000077
100
AcDbArc
 50
330.1121199588
 51
355.0
  0
ARC
  5
30F
330
1F
100
AcDbEntity
  8
PROFILES_INSIDE
100
AcDbCircle
 10
581.2413847941
 20
745.1497455121
 30
0.0
 40
0.9999985700004568
100
AcDbArc
 50
355.0
 51
19.8878356916
  0
ARC
  5
310
330
1F
100
AcDbEntity
  8
PROFILES_INSIDE
100
AcDbCircle
 10
587.0434050726
 20
747.2486544116
 30
0.0
 40
5.169998636556886
100
AcDbArc
 50
12.6004773877
 51
199.8878356916
  0
ARC
  5
311
330
1F
100
AcDbEntity
  8
PROFILES_INSIDE
100
AcDbCircle
 10
593.0648002792
 20
748.5946483812
 30
0.0
 40
1.000001363443112
100
AcDbArc
 50
192.6004773877
 51
265.0000509005
  0
ARC
  5
312
330
1F
100
AcDbEntity
  8
PROFILES_INSIDE
100
AcDbCircle
 10
411.5911367069
 20
759.9922108428
 30
0.0
 40
1.000036753616183
100
AcDbArc
 50
150.1121952728
 51
175.0
  0
ARC
  5
313
330
1F
100
AcDbEntity
  8
PROFILES_INSIDE
100
AcDbCircle
 10
406.2416973726
 20
763.0667599723
 30
0.0
 40
5.170000000000001
100
AcDbArc
 50
330.1121952728
 51
157.399543816
  0
ARC
  5
314
330
1F
100
AcDbEntity
  8
PROFILES_INSIDE
100
AcDbCircle
 10
400.5455092117
 20
765.4379074657
 30
0.0
 40
1.000000000000049
100
AcDbArc
 50
265.0000509005
 51
337.399543816
  0
ARC
  5
315
330
1F
100
AcDbEntity
  8
PROFILES_INSIDE
100
AcDbCircle
 10
396.5172594366
 20
765.7903300489
 30
0.0
 40
1.000000743696208
100
AcDbArc
 50
192.6004773877
 51
265.0000509005
  0
ARC
  5
316
330
1F
100
AcDbEntity
  8
PROFILES_INSIDE
100
AcDbCircle
 10
390.4958642301
 20
764.4443360792
 30
0.0
 40
5.169999256303735
100
AcDbArc
 50
12.6004773877
 51
199.8878356916
  0
ARC
  5
317
330
1F
100
AcDbEntity
  8
PROFILES_INSIDE
100
AcDbCircle
 10
384.6938439515
 20
762.3454271797
 30
0.0
 40
0.999998446051293
100
AcDbArc
 50
355.0
 51
19.8878356916
  0
ARC
  5
318
330
1F
100
AcDbEntity
  8
PROFILES_INSIDE
100
AcDbCircle
 10
383.6989218108
 20
750.973415075
 30
0.0
 40
1.000000000000133
100
AcDbArc
 50
330.1121199588
 51
355.0
  0
ARC
  5
319
330
1F
100
AcDbEntity
  8
PROFILES_INSIDE
100
AcDbCircle
 10
389.0483252382
 20
747.8988772283
 30
0.0
 40
5.170000000000107
100
AcDbArc
 50
150.1121199588
 51
337.399543816
  0
ARC
  5
31A
330
1F
100
AcDbEntity
  8
PROFILES_INSIDE
100
AcDbCircle
 10
394.7445133991
 20
745.5277297348
 30
0.0
 40
0.999999999999924
100
AcDbArc
 50
85.0000509005
 51
157.399543816
  0
ARC
  5
31B
330
1F
100
AcDbEntity
  8
PROFILES_INSIDE
100
AcDbCircle
 10
398.7727631742
 20
745.1753071517
 30
0.0
 40
1.000000000000014
100
AcDbArc
 50
12.6004773877
 51
85.0000509005
  0
ARC
  5
31C
330
1F
100
AcDbEntity
  8
PROFILES_INSIDE
100
AcDbCircle
 10
404.7941583807
 20
746.5213011213
 30
0.0
 40
5.169999999999932
100
AcDbArc
 50
192.6004773877
 51
19.8879040116
  0
ARC
  5
31D
330
1F
100
AcDbEntity
  8
PROFILES_INSIDE
100
AcDbCircle
 10
410.5961793662
 20
748.6202181003
 30
0.0
 40
0.9999999999999765
100
AcDbArc
 50
175.0
 51
199.8879040116
  0
ARC
  5
31E
330
1F
100
AcDbEntity
  8
PROFILES_INSIDE
100
AcDbCircle
 10
602.7892387946
 20
69.7802523471
 30
0.0
 40
5.170000000000034
100
AcDbArc
 50
202.6004773877
 51
29.8879040116
  0
ARC
  5
31F
330
1F
100
AcDbEntity
  8
PROFILES_INSIDE
100
AcDbCircle
 10
608.1386409357
 20
72.8547924318
 30
0.0
 40
1.000000000000184
100
AcDbArc
 50
185.0
 51
209.8879040116
  0
ARC
  5
320
330
1F
100
AcDbEntity
  8
PROFILES_INSIDE
100
AcDbCircle
 10
607.1437568225
 20
84.2267915809
 30
0.0
 40
1.000036753616095
100
AcDbArc
 50
160.1121952728
 51
185.0
  0
ARC
  5
321
330
1F
100
AcDbEntity
  8
PROFILES_INSIDE
100
AcDbCircle
 10
601.3416976384
 20
86.3257110087
 30
0.0
 40
5.170000000000113
100
AcDbArc
 50
340.1121952728
 51
167.399543816
  0
ARC
  5
322
330
1F
100
AcDbEntity
  8
PROFILES_INSIDE
100
AcDbCircle
 10
595.3203019337
 20
87.67170275
 30
0.0
 40
0.9999999999999942
100
AcDbArc
 50
275.0000509005
 51
347.399543816
  0
ARC
  5
323
330
1F
100
AcDbEntity
  8
PROFILES_INSIDE
100
AcDbCircle
 10
591.2920527848
 20
87.3192730096
 30
0.0
 40
1.000000619746952
100
AcDbArc
 50
202.6004773877
 51
275.0000509005
  0
ARC
  5
324
330
1F
100
AcDbEntity
  8
PROFILES_INSIDE
100
AcDbCircle
 10
585.5958655014
 20
84.9481234081
 30
0.0
 40
5.169999380253118
100
AcDbArc
 50
22.6004773877
 51
209.8878356916
  0
ARC
  5
325
330
1F
100
AcDbEntity
  8
PROFILES_INSIDE
100
AcDbCircle
 10
580.2464626534
 20
81.8735914029
 30
0.0
 40
0.9999983221017968
100
AcDbArc
 50
5.0
 51
29.8878356916
  0
ARC
  5
326
330
1F
100
AcDbEntity
  8
PROFILES_INSIDE
100
AcDbCircle
 10
581.2413847941
 20
70.5015792982
 30
0.0
 40
1.000000000000012
100
AcDbArc
 50
340.1121199588
 51
5.0
  0
ARC
  5
327
330
1F
100
AcDbEntity
  8
PROFILES_INSIDE
100
AcDbCircle
 10
587.0434066576
 20
68.4026647465
 30
0.0
 40
5.170000000000046
100
AcDbArc
 50
160.1121199588
 51
347.399543816
  0
ARC
  5
328
330
1F
100
AcDbEntity
  8
PROFILES_INSIDE
100
AcDbCircle
 10
593.0648023623
 20
67.0566730053
 30
0.0
 40
0.9999999999999744
100
AcDbArc
 50
95.0000509005
 51
167.399543816
  0
ARC
  5
329
330
1F
100
AcDbEntity
  8
PROFILES_INSIDE
100
AcDbCircle
 10
597.0930515112
 20
67.4091027457
 30
0.0
 40
1.000000000000008
100
AcDbArc
 50
22.6004773877
 51
95.0000509005
  0
ARC
  5
32A
330
1F
100
AcDbEntity
  8
PROFILES_INSIDE
100
AcDbCircle
 10
384.6938439515
 20
53.3058976305
 30
0.0
 40
0.999999999999944
100
AcDbArc
 50
340.1121199588
 51
5.0
  0
ARC
  5
32B
330
1F
100
AcDbEntity
  8
PROFILES_INSIDE
100
AcDbCircle
 10
390.495865815
 20
51.2069830789
 30
0.0
 40
5.170000000000046
100
AcDbArc
 50
160.1121199588
 51
347.399543816
  0
ARC
  5
32C
330
1F
100
AcDbEntity
  8
PROFILES_INSIDE
100
AcDbCircle
 10
396.5172615197
 20
49.8609913376
 30
0.0
 40
0.9999999999999843
100
AcDbArc
 50
95.0000509005
 51
167.399543816
  0
ARC
  5
32D
330
1F
100
AcDbEntity
  8
PROFILES_INSIDE
100
AcDbCircle
 10
400.5455106686
 20
50.213421078
 30
0.0
 40
1.000000000000071
100
AcDbArc
 50
22.6004773877
 51
95.0000509005
  0
ARC
  5
32E
330
1F
100
AcDbEntity
  8
PROFILES_INSIDE
100
AcDbCircle
 10
406.241697952
 20
52.5845706795
 30
0.0
 40
5.169999999999957
100
AcDbArc
 50
202.6004773877
 51
29.8879040116
  0
ARC
  5
32F
330
1F
100
AcDbEntity
  8
PROFILES_INSIDE
100
AcDbCircle
 10
411.5911000931
 20
55.6591107642
 30
0.0
 40
1.000000000000134
100
AcDbArc
 50
185.0
 51
209.8879040116
  0
ARC
  5
330
330
1F
100
AcDbEntity
  8
PROFILES_INSIDE
100
AcDbCircle
 10
410.5962159799
 20
67.0311099133
 30
0.0
 40
1.000036753616189
100
AcDbArc
 50
160.1121952728
 51
185.0
  0
ARC
  5
331
330
1F
100
AcDbEntity
  8
PROFILES_INSIDE
100
AcDbCircle
 10
404.7941567958
 20
69.1300293411
 30
0.0
 40
5.170000000000059
100
AcDbArc
 50
340.1121952728
 51
167.399543816
  0
ARC
  5
332
330
1F
100
AcDbEntity
  8
PROFILES_INSIDE
100
AcDbCircle
 10
398.7727610911
 20
70.4760210824
 30
0.0
 40
0.9999999999999793
100
AcDbArc
 50
275.0000509005
 51
347.399543816
  0
ARC
  5
333
330
1F
100
AcDbEntity
  8
PROFILES_INSIDE
100
AcDbCircle
 10
394.7445119422
 20
70.123591342
 30
0.0
 40
1.00000012394938
100
AcDbArc
 50
202.6004773877
 51
275.0000509005
  0
ARC
  5
334
330
1F
100
AcDbEntity
  8
PROFILES_INSIDE
100
AcDbCircle
 10
389.0483246588
 20
67.7524417405
 30
0.0
 40
5.169999876050689
100
AcDbArc
 50
22.6004773877
 51
209.8878356916
  0
ARC
  5
335
330
1F
100
AcDbEntity
  8
PROFILES_INSIDE
100
AcDbCircle
 10
383.6989218108
 20
64.6779097353
 30
0.0
 40
0.999998570000623
100
AcDbArc
 50
5.0
 51
29.8878356916
  0
ARC
  5
336
330
1F
100
AcDbEntity
  8
PROFILES_OUTSIDE
100
AcDbCircle
 10
351.4282800697
 20
777.5950157244
 30
0.0
 40
6.000000000000066
100
AcDbArc
 50
85.0
 51
180.0
  0
ARC
  5
337
330
1F
100
AcDbEntity
  8
PROFILES_OUTSIDE
100
AcDbCircle
 10
627.4282800697
 20
753.4481445912
 30
0.0
 40
6.0
100
AcDbArc
 50
360.0
 51
85.0
  0
ARC
  5
338
330
1F
100
AcDbEntity
  8
PROFILES_OUTSIDE
100
AcDbCircle
 10
627.4282800697
 20
683.9807294224
 30
0.0
 40
5.999999999999978
100
AcDbArc
 50
280.0
 51
0.0
  0
ARC
  5
339
330
1F
100
AcDbEntity
  8
PROFILES_OUTSIDE
100
AcDbCircle
 10
619.4282800697
 20
670.3849942341
 30
0.0
 40
6.0
100
AcDbArc
 50
100.0
 51
180.0
  0
ARC
  5
33A
330
1F
100
AcDbEntity
  8
PROFILES_OUTSIDE
100
AcDbCircle
 10
619.4282800697
 20
145.2663305762
 30
0.0
 40
6.0
100
AcDbArc
 50
180.0
 51
260.0
  0
ARC
  5
33B
330
1F
100
AcDbEntity
  8
PROFILES_OUTSIDE
100
AcDbCircle
 10
627.4282800697
 20
131.6705953879
 30
0.0
 40
6.0
100
AcDbArc
 50
0.0
 51
80.0
  0
ARC
  5
33C
330
1F
100
AcDbEntity
  8
PROFILES_OUTSIDE
100
AcDbCircle
 10
627.4282800697
 20
62.203180219
 30
0.0
 40
6.00000000000006
100
AcDbArc
 50
275.0
 51
0.0
  0
ARC
  5
33D
330
1F
100
AcDbEntity
  8
PROFILES_OUTSIDE
100
AcDbCircle
 10
351.4282800697
 20
38.0563090859
 30
0.0
 40
6.0
100
AcDbArc
 50
180.0
 51
275.0
  0
ARC
  5
33E
330
1F
100
AcDbEntity
  8
PROFILES_OUTSIDE
100
AcDbCircle
 10
1205.3932800697
 20
240.5161827908
 30
0.0
 40
12.00000000000003
100
AcDbArc
 50
90.0
 51
180.0
  0
ARC
  5
33F
330
1F
100
AcDbEntity
  8
PROFILES_OUTSIDE
100
AcDbCircle
 10
1205.3932800697
 20
67.0732622726
 30
0.0
 40
12.00000000000006
100
AcDbArc
 50
180.0
 51
270.0
  0
ARC
  5
340
330
1F
100
AcDbEntity
  8
PROFILES_OUTSIDE
100
AcDbCircle
 10
1262.8682800697
 20
37.3232622726
 30
0.0
 40
1.0
100
AcDbArc
 50
270.0
 51
0.0
  0
ARC
  5
341
330
1F
100
AcDbEntity
  8
PROFILES_OUTSIDE
100
AcDbCircle
 10
1071.4663259768
 20
266.0161827908
 30
0.0
 40
1.0
100
AcDbArc
 50
183.6619355755
 51
270.0
  0
ARC
  5
342
330
1F
100
AcDbEntity
  8
PROFILES_OUTSIDE
100
AcDbCircle
 10
1085.4060016863
 20
264.0161827908
 30
0.0
 40
1.0
100
AcDbArc
 50
65.1121079736
 51
90.0
  0
ARC
  5
343
330
1F
100
AcDbEntity
  8
PROFILES_OUTSIDE
100
AcDbCircle
 10
1088.0026099301
 20
269.6131932096
 30
0.0
 40
5.17000000000008
100
AcDbArc
 50
245.1121079736
 51
72.3995332141
  0
ARC
  5
344
330
1F
100
AcDbEntity
  8
PROFILES_OUTSIDE
100
AcDbCircle
 10
1089.8682800697
 20
275.4943644305
 30
0.0
 40
1.000000000000227
100
AcDbArc
 50
180.0
 51
252.3995332141
  0
ARC
  5
345
330
1F
100
AcDbEntity
  8
PROFILES_OUTSIDE
100
AcDbCircle
 10
1131.8682800697
 20
265.5181827908
 30
0.0
 40
12.0
100
AcDbArc
 50
0.0
 51
90.0
  0
ARC
  5
346
330
1F
100
AcDbEntity
  8
PROFILES_OUTSIDE
100
AcDbCircle
 10
1155.8682800697
 20
203.0358759514
 30
0.0
 40
12.00000000000003
100
AcDbArc
 50
180.0
 51
270.0
  0
ARC
  5
347
330
1F
100
AcDbEntity
  8
PROFILES_OUTSIDE
100
AcDbCircle
 10
1171.8682800697
 20
203.0358759514
 30
0.0
 40
12.00000000000003
100
AcDbArc
 50
270.0
 51
0.0
  0
ARC
  5
348
330
1F
100
AcDbEntity
  8
PROFILES_OUTSIDE
100
AcDbCircle
 10
1195.8682800697
 20
265.5181827908
 30
0.0
 40
12.0
100
AcDbArc
 50
90.0
 51
180.0
  0
ARC
  5
349
330
1F
100
AcDbEntity
  8
PROFILES_OUTSIDE
100
AcDbCircle
 10
1237.8682800697
 20
275.4943644305
 30
0.0
 40
1.000000000000006
100
AcDbArc
 50
287.6004667859
 51
0.0
  0
ARC
  5
34A
330
1F
100
AcDbEntity
  8
PROFILES_OUTSIDE
100
AcDbCircle
 10
1239.7339502093
 20
269.6131932096
 30
0.0
 40
5.17000000000008
100
AcDbArc
 50
107.6004667859
 51
294.8878920264
  0
ARC
  5
34B
330
1F
100
AcDbEntity
  8
PROFILES_OUTSIDE
100
AcDbCircle
 10
1242.3305584531
 20
264.0161827908
 30
0.0
 40
0.9999999999999432
100
AcDbArc
 50
90.0
 51
114.8878920264
  0
ARC
  5
34C
330
1F
100
AcDbEntity
  8
PROFILES_OUTSIDE
100
AcDbCircle
 10
1256.2702341626
 20
266.0161827908
 30
0.0
 40
1.0
100
AcDbArc
 50
270.0
 51
356.3380644245
  0
ARC
  5
34D
330
1F
100
AcDbEntity
  8
PROFILES_OUTSIDE
100
AcDbCircle
 10
1257.8682800697
 20
258.5161827908
 30
0.0
 40
6.000000000000028
100
AcDbArc
 50
270.0
 51
0.0
  0
ARC
  5
34E
330
1F
100
AcDbEntity
  8
PROFILES_OUTSIDE
100
AcDbCircle
 10
1064.8682800697
 20
37.3232622726
 30
0.0
 40
1.0
100
AcDbArc
 50
180.0
 51
270.0
  0
ARC
  5
34F
330
1F
100
AcDbEntity
  8
PROFILES_OUTSIDE
100
AcDbCircle
 10
1183.8682800697
 20
191.0358759514
 30
0.0
 40
9.525000000000091
100
AcDbArc
 50
300.0
 51
0.0
  0
ARC
  5
350
330
1F
100
AcDbEntity
  8
PROFILES_OUTSIDE
100
AcDbCircle
 10
1193.3932800697
 20
174.5380920093
 30
0.0
 40
9.525000000000091
100
AcDbArc
 50
120.0
 51
180.0
  0
ARC
  5
351
330
1F
100
AcDbEntity
  8
PROFILES_OUTSIDE
100
AcDbCircle
 10
1193.3932800697
 20
133.0513530541
 30
0.0
 40
9.525000000000091
100
AcDbArc
 50
180.0
 51
240.0
  0
ARC
  5
352
330
1F
100
AcDbEntity
  8
PROFILES_OUTSIDE
100
AcDbCircle
 10
1183.8682800697
 20
116.553569112
 30
0.0
 40
9.525000000000091
100
AcDbArc
 50
0.0
 51
60.0
  0
ARC
  5
353
330
1F
100
AcDbEntity
  8
PROFILES_OUTSIDE
100
AcDbCircle
 10
1257.8682800697
 20
49.0732622726
 30
0.0
 40
6.000000000000007
100
AcDbArc
 50
0.0
 51
90.0
  0
ARC
  5
354
330
1F
100
AcDbEntity
  8
PROFILES_OUTSIDE
100
AcDbCircle
 10
1122.3432800697
 20
67.0732622726
 30
0.0
 40
12.00000000000001
100
AcDbArc
 50
270.0
 51
0.0
  0
ARC
  5
355
330
1F
100
AcDbEntity
  8
PROFILES_OUTSIDE
100
AcDbCircle
 10
1256.2702341626
 20
41.5732622726
 30
0.0
 40
1.0
100
AcDbArc
 50
3.6619355755
 51
90.0
  0
ARC
  5
356
330
1F
100
AcDbEntity
  8
PROFILES_OUTSIDE
100
AcDbCircle
 10
1242.3305584531
 20
43.5732622726
 30
0.0
 40
1.0
100
AcDbArc
 50
245.1121079736
 51
270.0
  0
ARC
  5
357
330
1F
100
AcDbEntity
  8
PROFILES_OUTSIDE
100
AcDbCircle
 10
1239.7339502093
 20
37.9762518538
 30
0.0
 40
5.170000000000016
100
AcDbArc
 50
65.1121079736
 51
252.3995332141
  0
ARC
  5
358
330
1F
100
AcDbEntity
  8
PROFILES_OUTSIDE
100
AcDbCircle
 10
1237.8682800697
 20
32.0950806329
 30
0.0
 40
1.000000000000141
100
AcDbArc
 50
0.0
 51
72.3995332141
  0
ARC
  5
359
330
1F
100
AcDbEntity
  8
PROFILES_OUTSIDE
100
AcDbCircle
 10
1195.8682800697
 20
42.0712622726
 30
0.0
 40
12.0
100
AcDbArc
 50
180.0
 51
270.0
  0
ARC
  5
35A
330
1F
100
AcDbEntity
  8
PROFILES_OUTSIDE
100
AcDbCircle
 10
1171.8682800697
 20
104.553569112
 30
0.0
 40
12.00000000000001
100
AcDbArc
 50
0.0
 51
90.0
  0
ARC
  5
35B
330
1F
100
AcDbEntity
  8
PROFILES_OUTSIDE
100
AcDbCircle
 10
1155.8682800697
 20
104.553569112
 30
0.0
 40
12.00000000000001
100
AcDbArc
 50
90.0
 51
180.0
  0
ARC
  5
35C
330
1F
100
AcDbEntity
  8
PROFILES_OUTSIDE
100
AcDbCircle
 10
1131.8682800697
 20
42.0712622726
 30
0.0
 40
12.0
100
AcDbArc
 50
270.0
 51
0.0
  0
ARC
  5
35D
330
1F
100
AcDbEntity
  8
PROFILES_OUTSIDE
100
AcDbCircle
 10
1089.8682800697
 20
32.0950806329
 30
0.0
 40
1.000000000000227
100
AcDbArc
 50
107.6004667859
 51
180.0
  0
ARC
  5
35E
330
1F
100
AcDbEntity
  8
PROFILES_OUTSIDE
100
AcDbCircle
 10
1088.0026099301
 20
37.9762518538
 30
0.0
 40
5.170000000000113
100
AcDbArc
 50
287.6004667859
 51
114.8878920264
  0
ARC
  5
35F
330
1F
100
AcDbEntity
  8
PROFILES_OUTSIDE
100
AcDbCircle
 10
1085.4060016863
 20
43.5732622726
 30
0.0
 40
1.0
100
AcDbArc
 50
270.0
 51
294.8878920264
  0
ARC
  5
360
330
1F
100
AcDbEntity
  8
PROFILES_OUTSIDE
100
AcDbCircle
 10
1071.4663259768
 20
41.5732622726
 30
0.0
 40
1.0
100
AcDbArc
 50
90.0
 51
176.3380644245
  0
ARC
  5
361
330
1F
100
AcDbEntity
  8
PROFILES_OUTSIDE
100
AcDbCircle
 10
1069.8682800697
 20
49.0732622726
 30
0.0
 40
6.000000000000227
100
AcDbArc
 50
90.0
 51
180.0
  0
ARC
  5
362
330
1F
100
AcDbEntity
  8
PROFILES_OUTSIDE
100
AcDbCircle
 10
1122.3432800697
 20
240.5161827908
 30
0.0
 40
12.00000000000003
100
AcDbArc
 50
0.0
 51
90.0
  0
ARC
  5
363
330
1F
100
AcDbEntity
  8
PROFILES_OUTSIDE
100
AcDbCircle
 10
1143.8682800697
 20
116.553569112
 30
0.0
 40
9.525000000000091
100
AcDbArc
 50
120.0
 51
180.0
  0
ARC
  5
364
330
1F
100
AcDbEntity
  8
PROFILES_OUTSIDE
100
AcDbCircle
 10
1134.3432800697
 20
133.0513530541
 30
0.0
 40
9.524999999999869
100
AcDbArc
 50
300.0
 51
0.0
  0
ARC
  5
365
330
1F
100
AcDbEntity
  8
PROFILES_OUTSIDE
100
AcDbCircle
 10
1134.3432800697
 20
174.5380920093
 30
0.0
 40
9.524999999999864
100
AcDbArc
 50
0.0
 51
60.0
  0
ARC
  5
366
330
1F
100
AcDbEntity
  8
PROFILES_OUTSIDE
100
AcDbCircle
 10
1143.8682800697
 20
191.0358759514
 30
0.0
 40
9.525000000000091
100
AcDbArc
 50
180.0
 51
240.0
  0
ARC
  5
367
330
1F
100
AcDbEntity
  8
PROFILES_OUTSIDE
100
AcDbCircle
 10
1069.8682800697
 20
258.5161827908
 30
0.0
 40
6.000000000000227
100
AcDbArc
 50
180.0
 51
270.0
  0
ARC
  5
368
330
1F
100
AcDbEntity
  8
PROFILES_OUTSIDE
100
AcDbCircle
 10
1064.8682800697
 20
270.2661827908
 30
0.0
 40
1.0
100
AcDbArc
 50
90.0
 51
180.0
  0
ARC
  5
369
330
1F
100
AcDbEntity
  8
PROFILES_OUTSIDE
100
AcDbCircle
 10
1064.8682800697
 20
316.2461827908
 30
0.0
 40
1.0
100
AcDbArc
 50
180.0
 51
270.0
  0
ARC
  5
36A
330
1F
100
AcDbEntity
  8
PROFILES_OUTSIDE
100
AcDbCircle
 10
1122.3432800697
 20
345.9961827908
 30
0.0
 40
12.0
100
AcDbArc
 50
270.0
 51
0.0
  0
ARC
  5
36B
330
1F
100
AcDbEntity
  8
PROFILES_OUTSIDE
100
AcDbCircle
 10
1122.3432800697
 20
519.4391033089
 30
0.0
 40
12.0
100
AcDbArc
 50
0.0
 51
90.0
  0
ARC
  5
36C
330
1F
100
AcDbEntity
  8
PROFILES_OUTSIDE
100
AcDbCircle
 10
1064.8682800697
 20
549.1891033089
 30
0.0
 40
0.9999999999998863
100
AcDbArc
 50
90.0
 51
180.0
  0
ARC
  5
36D
330
1F
100
AcDbEntity
  8
PROFILES_OUTSIDE
100
AcDbCircle
 10
1256.2702341626
 20
320.4961827908
 30
0.0
 40
1.00000000000016
100
AcDbArc
 50
3.6619355755
 51
90.0
  0
ARC
  5
36E
330
1F
100
AcDbEntity
  8
PROFILES_OUTSIDE
100
AcDbCircle
 10
1242.3305584531
 20
322.4961827908
 30
0.0
 40
1.0
100
AcDbArc
 50
245.1121079736
 51
270.0
  0
ARC
  5
36F
330
1F
100
AcDbEntity
  8
PROFILES_OUTSIDE
100
AcDbCircle
 10
1239.7339502093
 20
316.899172372
 30
0.0
 40
5.169999999999933
100
AcDbArc
 50
65.1121079736
 51
252.3995332141
  0
ARC
  5
370
330
1F
100
AcDbEntity
  8
PROFILES_OUTSIDE
100
AcDbCircle
 10
1237.8682800697
 20
311.018001151
 30
0.0
 40
1.000000000000114
100
AcDbArc
 50
0.0
 51
72.3995332141
  0
ARC
  5
371
330
1F
100
AcDbEntity
  8
PROFILES_OUTSIDE
100
AcDbCircle
 10
1195.8682800697
 20
320.9941827908
 30
0.0
 40
12.0
100
AcDbArc
 50
180.0
 51
270.0
  0
ARC
  5
372
330
1F
100
AcDbEntity
  8
PROFILES_OUTSIDE
100
AcDbCircle
 10
1171.8682800697
 20
383.4764896302
 30
0.0
 40
12.00000000000006
100
AcDbArc
 50
0.0
 51
90.0
  0
ARC
  5
373
330
1F
100
AcDbEntity
  8
PROFILES_OUTSIDE
100
AcDbCircle
 10
1155.8682800697
 20
383.4764896302
 30
0.0
 40
12.0
100
AcDbArc
 50
90.0
 51
180.0
  0
ARC
  5
374
330
1F
100
AcDbEntity
  8
PROFILES_OUTSIDE
100
AcDbCircle
 10
1131.8682800697
 20
320.9941827908
 30
0.0
 40
12.0
100
AcDbArc
 50
270.0
 51
0.0
  0
ARC
  5
375
330
1F
100
AcDbEntity
  8
PROFILES_OUTSIDE
100
AcDbCircle
 10
1089.8682800697
 20
311.018001151
 30
0.0
 40
1.000000000000227
100
AcDbArc
 50
107.6004667859
 51
180.0
  0
ARC
  5
376
330
1F
100
AcDbEntity
  8
PROFILES_OUTSIDE
100
AcDbCircle
 10
1088.0026099301
 20
316.899172372
 30
0.0
 40
5.17000000000003
100
AcDbArc
 50
287.6004667859
 51
114.8878920264
  0
ARC
  5
377
330
1F
100
AcDbEntity
  8
PROFILES_OUTSIDE
100
AcDbCircle
 10
1085.4060016863
 20
322.4961827908
 30
0.0
 40
1.000000000000037
100
AcDbArc
 50
270.0
 51
294.8878920264
  0
ARC
  5
378
330
1F
100
AcDbEntity
  8
PROFILES_OUTSIDE
100
AcDbCircle
 10
1071.4663259768
 20
320.4961827908
 30
0.0
 40
1.0
100
AcDbArc
 50
90.0
 51
176.3380644245
  0
ARC
  5
379
330
1F
100
AcDbEntity
  8
PROFILES_OUTSIDE
100
AcDbCircle
 10
1069.8682800697
 20
327.9961827908
 30
0.0
 40
6.0
100
AcDbArc
 50
90.0
 51
180.0
  0
ARC
  5
37A
330
1F
100
AcDbEntity
  8
PROFILES_OUTSIDE
100
AcDbCircle
 10
1262.8682800697
 20
549.1891033089
 30
0.0
 40
1.0
100
AcDbArc
 50
0.0
 51
90.0
  0
ARC
  5
37B
330
1F
100
AcDbEntity
  8
PROFILES_OUTSIDE
100
AcDbCircle
 10
1143.8682800697
 20
395.4764896302
 30
0.0
 40
9.525000000000091
100
AcDbArc
 50
120.0
 51
180.0
  0
ARC
  5
37C
330
1F
100
AcDbEntity
  8
PROFILES_OUTSIDE
100
AcDbCircle
 10
1134.3432800697
 20
411.9742735723
 30
0.0
 40
9.525000000000007
100
AcDbArc
 50
300.0
 51
0.0
  0
ARC
  5
37D
330
1F
100
AcDbEntity
  8
PROFILES_OUTSIDE
100
AcDbCircle
 10
1134.3432800697
 20
453.4610125275
 30
0.0
 40
9.525000000000007
100
AcDbArc
 50
0.0
 51
60.0
  0
ARC
  5
37E
330
1F
100
AcDbEntity
  8
PROFILES_OUTSIDE
100
AcDbCircle
 10
1143.8682800697
 20
469.9587964695
 30
0.0
 40
9.524999999999894
100
AcDbArc
 50
180.0
 51
240.0
  0
ARC
  5
37F
330
1F
100
AcDbEntity
  8
PROFILES_OUTSIDE
100
AcDbCircle
 10
1069.8682800697
 20
537.4391033089
 30
0.0
 40
6.000000000000114
100
AcDbArc
 50
180.0
 51
270.0
  0
ARC
  5
380
330
1F
100
AcDbEntity
  8
PROFILES_OUTSIDE
100
AcDbCircle
 10
1205.3932800697
 20
519.4391033089
 30
0.0
 40
12.0
100
AcDbArc
 50
90.0
 51
180.0
  0
ARC
  5
381
330
1F
100
AcDbEntity
  8
PROFILES_OUTSIDE
100
AcDbCircle
 10
1071.4663259768
 20
544.9391033089
 30
0.0
 40
1.0
100
AcDbArc
 50
183.6619355755
 51
270.0
  0
ARC
  5
382
330
1F
100
AcDbEntity
  8
PROFILES_OUTSIDE
100
AcDbCircle
 10
1085.4060016863
 20
542.9391033089
 30
0.0
 40
1.000000000000037
100
AcDbArc
 50
65.1121079736
 51
90.0
  0
ARC
  5
383
330
1F
100
AcDbEntity
  8
PROFILES_OUTSIDE
100
AcDbCircle
 10
1088.0026099301
 20
548.5361137277
 30
0.0
 40
5.170000000000036
100
AcDbArc
 50
245.1121079736
 51
72.3995332141
  0
ARC
  5
384
330
1F
100
AcDbEntity
  8
PROFILES_OUTSIDE
100
AcDbCircle
 10
1089.8682800697
 20
554.4172849487
 30
0.0
 40
1.000000000000227
100
AcDbArc
 50
180.0
 51
252.3995332141
  0
ARC
  5
385
330
1F
100
AcDbEntity
  8
PROFILES_OUTSIDE
100
AcDbCircle
 10
1131.8682800697
 20
544.4411033089
 30
0.0
 40
12.0
100
AcDbArc
 50
0.0
 51
90.0
  0
ARC
  5
386
330
1F
100
AcDbEntity
  8
PROFILES_OUTSIDE
100
AcDbCircle
 10
1155.8682800697
 20
481.9587964695
 30
0.0
 40
12.0
100
AcDbArc
 50
180.0
 51
270.0
  0
ARC
  5
387
330
1F
100
AcDbEntity
  8
PROFILES_OUTSIDE
100
AcDbCircle
 10
1171.8682800697
 20
481.9587964695
 30
0.0
 40
12.0
100
AcDbArc
 50
270.0
 51
0.0
  0
ARC
  5
388
330
1F
100
AcDbEntity
  8
PROFILES_OUTSIDE
100
AcDbCircle
 10
1195.8682800697
 20
544.4411033089
 30
0.0
 40
12.0
100
AcDbArc
 50
90.0
 51
180.0
  0
ARC
  5
389
330
1F
100
AcDbEntity
  8
PROFILES_OUTSIDE
100
AcDbCircle
 10
1237.8682800697
 20
554.4172849487
 30
0.0
 40
1.00000000000006
100
AcDbArc
 50
287.6004667859
 51
0.0
  0
ARC
  5
38A
330
1F
100
AcDbEntity
  8
PROFILES_OUTSIDE
100
AcDbCircle
 10
1239.7339502093
 20
548.5361137277
 30
0.0
 40
5.169999999999933
100
AcDbArc
 50
107.6004667859
 51
294.8878920264
  0
ARC
  5
38B
330
1F
100
AcDbEntity
  8
PROFILES_OUTSIDE
100
AcDbCircle
 10
1242.3305584531
 20
542.9391033089
 30
0.0
 40
1.000000000000045
100
AcDbArc
 50
90.0
 51
114.8878920264
  0
ARC
  5
38C
330
1F
100
AcDbEntity
  8
PROFILES_OUTSIDE
100
AcDbCircle
 10
1256.2702341626
 20
544.9391033089
 30
0.0
 40
1.000000000000156
100
AcDbArc
 50
270.0
 51
356.3380644245
  0
ARC
  5
38D
330
1F
100
AcDbEntity
  8
PROFILES_OUTSIDE
100
AcDbCircle
 10
1257.8682800697
 20
537.4391033089
 30
0.0
 40
5.999999999999886
100
AcDbArc
 50
270.0
 51
0.0
  0
ARC
  5
38E
330
1F
100
AcDbEntity
  8
PROFILES_OUTSIDE
100
AcDbCircle
 10
1205.3932800697
 20
345.9961827908
 30
0.0
 40
12.0
100
AcDbArc
 50
180.0
 51
270.0
  0
ARC
  5
38F
330
1F
100
AcDbEntity
  8
PROFILES_OUTSIDE
100
AcDbCircle
 10
1183.8682800697
 20
469.9587964695
 30
0.0
 40
9.525000000000091
100
AcDbArc
 50
300.0
 51
0.0
  0
ARC
  5
390
330
1F
100
AcDbEntity
  8
PROFILES_OUTSIDE
100
AcDbCircle
 10
1193.3932800697
 20
453.4610125275
 30
0.0
 40
9.525000000000091
100
AcDbArc
 50
120.0
 51
180.0
  0
ARC
  5
391
330
1F
100
AcDbEntity
  8
PROFILES_OUTSIDE
100
AcDbCircle
 10
1193.3932800697
 20
411.9742735723
 30
0.0
 40
9.525000000000091
100
AcDbArc
 50
180.0
 51
240.0
  0
ARC
  5
392
330
1F
100
AcDbEntity
  8
PROFILES_OUTSIDE
100
AcDbCircle
 10
1183.8682800697
 20
395.4764896302
 30
0.0
 40
9.525000000000091
100
AcDbArc
 50
0.0
 51
60.0
  0
ARC
  5
393
330
1F
100
AcDbEntity
  8
PROFILES_OUTSIDE
100
AcDbCircle
 10
1257.8682800697
 20
327.9961827908
 30
0.0
 40
6.0
100
AcDbArc
 50
0.0
 51
90.0
  0
ARC
  5
394
330
1F
100
AcDbEntity
  8
PROFILES_OUTSIDE
100
AcDbCircle
 10
1262.8682800697
 20
316.2461827908
 30
0.0
 40
1.000000000000227
100
AcDbArc
 50
270.0
 51
0.0
  0
ENDSEC
  0
SECTION
  2
OBJECTS
  0
DICTIONARY
  5
C
330
0
100
AcDbDictionary
  3
ACAD_GROUP
350
D
  3
ACAD_MLINESTYLE
350
17
  3
ACAD_SCALELIST
350
47
  0
DICTIONARY
  5
D
102
{ACAD_REACTORS
330
C
102
}
330
C
100
AcDbDictionary
  0
DICTIONARY
  5
17
102
{ACAD_REACTORS
330
C
102
}
330
C
100
AcDbDictionary
  3
STANDARD
350
18
  0
DICTIONARY
  5
47
102
{ACAD_REACTORS
330
C
102
}
330
C
100
AcDbDictionary
  0
MLINESTYLE
  5
18
102
{ACAD_REACTORS
330
17
102
}
330
17
100
AcDbMlineStyle
  2
Standard
 70
     0
  3

 62
   256
 51
90.0
 52
90.0
 71
     2
 49
0.5
 62
   256
  6
BYLAYER
 49
-0.5
 62
   256
  6
BYLAYER
  0
ENDSEC
  0
EOF
