  0
SECTION
  2
HEADER
  9
$ACADVER
  1
AC1014
  9
$ACADMAINTVER
 70
     9
  9
$DWGCODEPAGE
  3
ANSI_1252
  9
$INSBASE
 10
0.0
 20
0.0
 30
0.0
  9
$EXTMIN
 10
0.0
 20
0.0
 30
0.0
  9
$EXTMAX
 10
96.062992126
 20
48.031496063
 30
0.0
  9
$LIMMIN
 10
0.0
 20
0.0
  9
$LIMMAX
 10
96.062992126
 20
48.031496063
  9
$ORTHOMODE
 70
     0
  9
$REGENMODE
 70
     1
  9
$FILLMODE
 70
     1
  9
$QTEXTMODE
 70
     0
  9
$MIRRTEXT
 70
     1
  9
$DRAGMODE
 70
     2
  9
$LTSCALE
 40
1.0
  9
$OSMODE
 70
    37
  9
$ATTMODE
 70
     1
  9
$TEXTSIZE
 40
0.1377952756
  9
$TRACEWID
 40
0.05
  9
$TEXTSTYLE
  7
STANDARD
  9
$CLAYER
  8
0
  9
$CELTYPE
  6
BYLAYER
  9
$CECOLOR
 62
   256
  9
$CELTSCALE
 40
1.0
  9
$DELOBJ
 70
     1
  9
$DISPSILH
 70
     0
  9
$DIMSCALE
 40
1.0
  9
$DIMASZ
 40
0.13
  9
$DIMEXO
 40
0.0393700787
  9
$DIMDLI
 40
0.38
  9
$DIMRND
 40
0.0
  9
$DIMDLE
 40
0.0
  9
$DIMEXE
 40
0.0393700787
  9
$DIMTP
 40
0.0
  9
$DIMTM
 40
0.0
  9
$DIMTXT
 40
0.1805555556
  9
$DIMCEN
 40
0.09
  9
$DIMTSZ
 40
0.0
  9
$DIMTOL
 70
     0
  9
$DIMLIM
 70
     0
  9
$DIMTIH
 70
     1
  9
$DIMTOH
 70
     1
  9
$DIMSE1
 70
     0
  9
$DIMSE2
 70
     0
  9
$DIMTAD
 70
     1
  9
$DIMZIN
 70
     0
  9
$DIMBLK
  1

  9
$DIMASO
 70
     1
  9
$DIMSHO
 70
     1
  9
$DIMPOST
  1

  9
$DIMAPOST
  1

  9
$DIMALT
 70
     0
  9
$DIMALTD
 70
     2
  9
$DIMALTF
 40
25.4
  9
$DIMLFAC
 40
1.0
  9
$DIMTOFL
 70
     0
  9
$DIMTVP
 40
0.0
  9
$DIMTIX
 70
     0
  9
$DIMSOXD
 70
     0
  9
$DIMSAH
 70
     0
  9
$DIMBLK1
  1

  9
$DIMBLK2
  1

  9
$DIMSTYLE
  2
STANDARD
  9
$DIMCLRD
 70
     0
  9
$DIMCLRE
 70
     0
  9
$DIMCLRT
 70
     0
  9
$DIMTFAC
 40
1.0
  9
$DIMGAP
 40
0.06
  9
$DIMJUST
 70
     0
  9
$DIMSD1
 70
     0
  9
$DIMSD2
 70
     0
  9
$DIMTOLJ
 70
     1
  9
$DIMTZIN
 70
     0
  9
$DIMALTZ
 70
     0
  9
$DIMALTTZ
 70
     0
  9
$DIMFIT
 70
     3
  9
$DIMUPT
 70
     0
  9
$DIMUNIT
 70
     2
  9
$DIMDEC
 70
     2
  9
$DIMTDEC
 70
     2
  9
$DIMALTU
 70
     2
  9
$DIMALTTD
 70
     2
  9
$DIMTXSTY
  7
STANDARD
  9
$DIMAUNIT
 70
     0
  9
$LUNITS
 70
     2
  9
$LUPREC
 70
     2
  9
$SKETCHINC
 40
0.1
  9
$FILLETRAD
 40
0.5
  9
$AUNITS
 70
     0
  9
$AUPREC
 70
     2
  9
$MENU
  1
.
  9
$ELEVATION
 40
0.0
  9
$PELEVATION
 40
0.0
  9
$THICKNESS
 40
0.0
  9
$LIMCHECK
 70
     0
  9
$CHAMFERA
 40
0.0
  9
$CHAMFERB
 40
0.0
  9
$CHAMFERC
 40
0.0
  9
$CHAMFERD
 40
0.0
  9
$SKPOLY
 70
     0
  9
$TDCREATE
 40
2457722.41504029
  9
$TDUPDATE
 40
2457722.415040636
  9
$TDINDWG
 40
0.0000000116
  9
$TDUSRTIMER
 40
0.0000000116
  9
$USRTIMER
 70
     1
  9
$ANGBASE
 50
0.0
  9
$ANGDIR
 70
     0
  9
$PDMODE
 70
     0
  9
$PDSIZE
 40
-1.0
  9
$PLINEWID
 40
0.0
  9
$COORDS
 70
     1
  9
$SPLFRAME
 70
     0
  9
$SPLINETYPE
 70
     6
  9
$SPLINESEGS
 70
     8
  9
$ATTDIA
 70
     0
  9
$ATTREQ
 70
     1
  9
$HANDLING
 70
     1
  9
$HANDSEED
  5
395
  9
$SURFTAB1
 70
     6
  9
$SURFTAB2
 70
     6
  9
$SURFTYPE
 70
     6
  9
$SURFU
 70
     6
  9
$SURFV
 70
     6
  9
$UCSNAME
  2

  9
$UCSORG
 10
0.0
 20
0.0
 30
0.0
  9
$UCSXDIR
 10
1.0
 20
0.0
 30
0.0
  9
$UCSYDIR
 10
0.0
 20
1.0
 30
0.0
  9
$PUCSNAME
  2

  9
$PUCSORG
 10
0.0
 20
0.0
 30
0.0
  9
$PUCSXDIR
 10
1.0
 20
0.0
 30
0.0
  9
$PUCSYDIR
 10
0.0
 20
1.0
 30
0.0
  9
$USERI1
 70
     0
  9
$USERI2
 70
     0
  9
$USERI3
 70
     0
  9
$USERI4
 70
     0
  9
$USERI5
 70
     0
  9
$USERR1
 40
0.0
  9
$USERR2
 40
0.0
  9
$USERR3
 40
0.0
  9
$USERR4
 40
0.0
  9
$USERR5
 40
0.0
  9
$WORLDVIEW
 70
     1
  9
$SHADEDGE
 70
     3
  9
$SHADEDIF
 70
    70
  9
$TILEMODE
 70
     1
  9
$MAXACTVP
 70
    64
  9
$PINSBASE
 10
0.0
 20
0.0
 30
0.0
  9
$PLIMCHECK
 70
     0
  9
$PEXTMIN
 10
1.0000000000E+20
 20
1.0000000000E+20
 30
1.0000000000E+20
  9
$PEXTMAX
 10
-1.0000000000E+20
 20
-1.0000000000E+20
 30
-1.0000000000E+20
  9
$PLIMMIN
 10
0.0
 20
0.0
  9
$PLIMMAX
 10
12.0
 20
9.0
  9
$UNITMODE
 70
     0
  9
$VISRETAIN
 70
     1
  9
$PLINEGEN
 70
     0
  9
$PSLTSCALE
 70
     1
  9
$TREEDEPTH
 70
  3020
  9
$PICKSTYLE
 70
     1
  9
$CMLSTYLE
  2
STANDARD
  9
$CMLJUST
 70
     0
  9
$CMLSCALE
 40
1.0
  9
$PROXYGRAPHICS
 70
     1
  9
$MEASUREMENT
 70
     0
  0
ENDSEC
  0
SECTION
  2
CLASSES
  0
CLASS
  1
ACDBDICTIONARYWDFLT
  2
AcDbDictionaryWithDefault
  3
ObjectDBX Classes
 90
        0
280
     0
281
     0
  0
CLASS
  1
VISUALSTYLE
  2
AcDbVisualStyle
  3
ObjectDBX Classes
 90
     4095
280
     0
281
     0
  0
CLASS
  1
MATERIAL
  2
AcDbMaterial
  3
ObjectDBX Classes
 90
     1153
280
     0
281
     0
  0
CLASS
  1
SCALE
  2
AcDbScale
  3
ObjectDBX Classes
 90
     1153
280
     0
281
     0
  0
CLASS
  1
TABLESTYLE
  2
AcDbTableStyle
  3
ObjectDBX Classes
 90
     4095
280
     0
281
     0
  0
CLASS
  1
MLEADERSTYLE
  2
AcDbMLeaderStyle
  3
ACDB_MLEADERSTYLE_CLASS
 90
     4095
280
     0
281
     0
  0
CLASS
  1
SUN
  2
AcDbSun
  3
SCENEOE
 90
     1153
280
     0
281
     0
  0
CLASS
  1
XRECORD
  2
AcDbXrecord
  3
ObjectDBX Classes
 90
        0
280
     0
281
     0
  0
CLASS
  1
LWPOLYLINE
  2
AcDbPolyline
  3
ObjectDBX Classes
 90
        0
280
     0
281
     1
  0
CLASS
  1
HATCH
  2
AcDbHatch
  3
ObjectDBX Classes
 90
        0
280
     0
281
     1
  0
ENDSEC
  0
SECTION
  2
TABLES
  0
TABLE
  2
VPORT
  5
8
330
0
100
AcDbSymbolTable
 70
     1
  0
VPORT
  5
29
330
8
100
AcDbSymbolTableRecord
100
AcDbViewportTableRecord
  2
*ACTIVE
 70
     0
 10
0.0
 20
0.0
 11
1.0
 21
1.0
 12
48.031496063
 22
24.0157480315
 13
0.0
 23
0.0
 14
0.5
 24
0.5
 15
0.5
 25
0.5
 16
0.0
 26
0.0
 36
1.0
 17
0.0
 27
0.0
 37
0.0
 40
48.031496063
 41
2.0
 42
50.0
 43
0.0
 44
0.0
 50
0.0
 51
0.0
 71
     0
 72
  2000
 73
     1
 74
     3
 75
     0
 76
     0
 77
     0
 78
     0
  0
ENDTAB
  0
TABLE
  2
LTYPE
  5
5
330
0
100
AcDbSymbolTable
 70
     6
  0
LTYPE
  5
14
330
5
100
AcDbSymbolTableRecord
100
AcDbLinetypeTableRecord
  2
BYBLOCK
 70
     0
  3

 72
    65
 73
     0
 40
0.0
  0
LTYPE
  5
15
330
5
100
AcDbSymbolTableRecord
100
AcDbLinetypeTableRecord
  2
BYLAYER
 70
     0
  3

 72
    65
 73
     0
 40
0.0
  0
LTYPE
  5
16
330
5
100
AcDbSymbolTableRecord
100
AcDbLinetypeTableRecord
  2
CONTINUOUS
 70
     0
  3
Solid line
 72
    65
 73
     0
 40
0.0
  0
LTYPE
  5
6E
330
5
100
AcDbSymbolTableRecord
100
AcDbLinetypeTableRecord
  2
HIDDEN
 70
     0
  3
Hidden __ __ __ __ __ __ __ __ __ __ __ __ __ __
 72
    65
 73
     2
 40
0.075
 49
0.05
 74
     0
 49
-0.025
 74
     0
  0
LTYPE
  5
6F
330
5
100
AcDbSymbolTableRecord
100
AcDbLinetypeTableRecord
  2
PHANTOM
 70
     0
  3
Phantom ______  __  __  ______  __  __  ______
 72
    65
 73
     6
 40
0.5
 49
0.25
 74
     0
 49
-0.05
 74
     0
 49
0.05
 74
     0
 49
-0.05
 74
     0
 49
0.05
 74
     0
 49
-0.05
 74
     0
  0
LTYPE
  5
70
330
5
100
AcDbSymbolTableRecord
100
AcDbLinetypeTableRecord
  2
CENTER
 70
     0
  3
Center ____ _ ____ _ ____ _ ____ _ ____ _ ____
 72
    65
 73
     4
 40
0.4
 49
0.25
 74
     0
 49
-0.05
 74
     0
 49
0.05
 74
     0
 49
-0.05
 74
     0
  0
LTYPE
  5
71
330
5
100
AcDbSymbolTableRecord
100
AcDbLinetypeTableRecord
  2
CENTERX2
 70
     0
  3
Center (2x) ________  __  ________  __  _____
 72
    65
 73
     4
 40
0.8
 49
0.5
 74
     0
 49
-0.1
 74
     0
 49
0.1
 74
     0
 49
-0.1
 74
     0
  0
LTYPE
  5
72
330
5
100
AcDbSymbolTableRecord
100
AcDbLinetypeTableRecord
  2
DOT2
 70
     0
  3
Dot (.5x) ........................................
 72
    65
 73
     2
 40
0.025
 49
0.0
 74
     0
 49
-0.025
 74
     0
  0
ENDTAB
  0
TABLE
  2
LAYER
  5
2
330
0
100
AcDbSymbolTable
 70
     6
  0
LAYER
  5
10
330
2
100
AcDbSymbolTableRecord
100
AcDbLayerTableRecord
  2
0
 70
     0
 62
     7
  6
CONTINUOUS
  0
LAYER
  5
73
330
2
100
AcDbSymbolTableRecord
100
AcDbLayerTableRecord
  2
BOX_STOCK
 70
     0
 62
     1
  6
CONTINUOUS
  0
LAYER
  5
74
330
2
100
AcDbSymbolTableRecord
100
AcDbLayerTableRecord
  2
HOLES
 70
     0
 62
    30
  6
CONTINUOUS
  0
LAYER
  5
75
330
2
100
AcDbSymbolTableRecord
100
AcDbLayerTableRecord
  2
POCKETS
 70
     0
 62
   171
  6
CONTINUOUS
  0
LAYER
  5
76
330
2
100
AcDbSymbolTableRecord
100
AcDbLayerTableRecord
  2
PROFILES_OUTSIDE
 70
     0
 62
     6
  6
CONTINUOUS
  0
LAYER
  5
77
330
2
100
AcDbSymbolTableRecord
100
AcDbLayerTableRecord
  2
PROFILES_INSIDE
 70
     0
 62
     4
  6
CONTINUOUS
  0
ENDTAB
  0
TABLE
  2
STYLE
  5
3
330
0
100
AcDbSymbolTable
 70
     1
  0
STYLE
  5
11
330
3
100
AcDbSymbolTableRecord
100
AcDbTextStyleTableRecord
  2
STANDARD
 70
     0
 40
0.0
 41
1.0
 50
0.0
 71
     0
 42
0.1377952756
  3
txt
  4

  0
ENDTAB
  0
TABLE
  2
VIEW
  5
6
330
0
100
AcDbSymbolTable
 70
     0
  0
ENDTAB
  0
TABLE
  2
UCS
  5
7
330
0
100
AcDbSymbolTable
 70
     0
  0
ENDTAB
  0
TABLE
  2
APPID
  5
9
330
0
100
AcDbSymbolTable
 70
     1
  0
APPID
  5
12
330
9
100
AcDbSymbolTableRecord
100
AcDbRegAppTableRecord
  2
ACAD
 70
     0
  0
ENDTAB
  0
TABLE
  2
DIMSTYLE
  5
A
330
0
100
AcDbSymbolTable
 70
     1
  0
DIMSTYLE
105
27
330
A
100
AcDbSymbolTableRecord
100
AcDbDimStyleTableRecord
  2
STANDARD
 70
     0
  3

  4

  5

  6

  7

 40
1.0
 41
0.18
 42
0.0625
 43
0.38
 44
0.18
 45
0.0
 46
0.0
 47
0.0
 48
0.0
140
0.18
141
0.09
142
0.0
143
25.4
144
1.0
145
0.0
146
1.0
147
0.09
 71
     0
 72
     0
 73
     1
 74
     1
 75
     0
 76
     0
 77
     0
 78
     0
170
     0
171
     2
172
     0
173
     0
174
     0
175
     0
176
     0
177
     0
178
     0
270
     2
271
     4
272
     4
273
     2
274
     2
340
11
275
     0
280
     0
281
     0
282
     0
283
     1
284
     0
285
     0
286
     0
287
     3
288
     0
  0
ENDTAB
  0
TABLE
  2
BLOCK_RECORD
  5
1
330
0
100
AcDbSymbolTable
 70
     1
  0
BLOCK_RECORD
  5
1F
330
1
100
AcDbSymbolTableRecord
100
AcDbBlockTableRecord
  2
*MODEL_SPACE
  0
BLOCK_RECORD
  5
1B
330
1
100
AcDbSymbolTableRecord
100
AcDbBlockTableRecord
  2
*PAPER_SPACE
  0
BLOCK_RECORD
  5
23
330
1
100
AcDbSymbolTableRecord
100
AcDbBlockTableRecord
  2
*PAPER_SPACE0
  0
ENDTAB
  0
ENDSEC
  0
SECTION
  2
BLOCKS
  0
BLOCK
  5
20
330
1F
100
AcDbEntity
  8
0
100
AcDbBlockBegin
  2
*MODEL_SPACE
 70
     0
 10
0.0
 20
0.0
 30
0.0
  3
*MODEL_SPACE
  1

  0
ENDBLK
  5
21
330
1F
100
AcDbEntity
  8
0
100
AcDbBlockEnd
  0
BLOCK
  5
1C
330
1B
100
AcDbEntity
 67
     1
  8
0
100
AcDbBlockBegin
  2
*PAPER_SPACE
 70
     0
 10
0.0
 20
0.0
 30
0.0
  3
*PAPER_SPACE
  1

  0
ENDBLK
  5
1D
330
1B
100
AcDbEntity
 67
     1
  8
0
100
AcDbBlockEnd
  0
BLOCK
  5
24
330
23
100
AcDbEntity
  8
0
100
AcDbBlockBegin
  2
*PAPER_SPACE0
 70
     0
 10
0.0
 20
0.0
 30
0.0
  3
*PAPER_SPACE0
  1

  0
ENDBLK
  5
25
330
23
100
AcDbEntity
  8
0
100
AcDbBlockEnd
  0
ENDSEC
  0
SECTION
  2
ENTITIES
  0
LINE
  5
78
330
1F
100
AcDbEntity
  8
0
  6
CONTINUOUS
 62
     7
100
AcDbLine
 10
33.4050508928
 20
2.7209823003
 30
0.0
 11
33.4050508928
 21
1.1839079433
 31
0.0
  0
LINE
  5
79
330
1F
100
AcDbEntity
  8
0
  6
CONTINUOUS
 62
     7
100
AcDbLine
 10
39.8105626025
 20
2.7209823003
 30
0.0
 11
33.4050508928
 21
2.7209823003
 31
0.0
  0
LINE
  5
7A
330
1F
100
AcDbEntity
  8
0
  6
CONTINUOUS
 62
     7
100
AcDbLine
 10
39.8105626025
 20
1.1839079433
 30
0.0
 11
39.8105626025
 21
2.7209823003
 31
0.0
  0
LINE
  5
7B
330
1F
100
AcDbEntity
  8
0
  6
CONTINUOUS
 62
     7
100
AcDbLine
 10
33.4050508928
 20
1.1839079433
 30
0.0
 11
39.8105626025
 21
1.1839079433
 31
0.0
  0
LINE
  5
7C
330
1F
100
AcDbEntity
  8
0
  6
CONTINUOUS
 62
     7
100
AcDbLine
 10
39.8105626025
 20
12.3125995771
 30
0.0
 11
33.4050508928
 21
12.3125995771
 31
0.0
  0
LINE
  5
7D
330
1F
100
AcDbEntity
  8
0
  6
CONTINUOUS
 62
     7
100
AcDbLine
 10
33.4050508928
 20
3.2295850382
 30
0.0
 11
39.8105626025
 21
3.2295850382
 31
0.0
  0
LINE
  5
7E
330
1F
100
AcDbEntity
  8
0
  6
CONTINUOUS
 62
     7
100
AcDbLine
 10
33.4050508928
 20
12.3125995771
 30
0.0
 11
33.4050508928
 21
3.2295850382
 31
0.0
  0
LINE
  5
7F
330
1F
100
AcDbEntity
  8
0
  6
CONTINUOUS
 62
     7
100
AcDbLine
 10
39.8105626025
 20
3.2295850382
 30
0.0
 11
39.8105626025
 21
12.3125995771
 31
0.0
  0
LINE
  5
80
330
1F
100
AcDbEntity
  8
0
  6
CONTINUOUS
 62
     7
100
AcDbLine
 10
33.4050508928
 20
2.7209823003
 30
0.0
 11
33.4050508928
 21
3.2295850382
 31
0.0
  0
LINE
  5
81
330
1F
100
AcDbEntity
  8
0
  6
CONTINUOUS
 62
     7
100
AcDbLine
 10
39.8105626025
 20
3.2295850382
 30
0.0
 11
39.8105626025
 21
2.7209823003
 31
0.0
  0
ARC
  5
82
330
1F
100
AcDbEntity
  8
0
  6
CONTINUOUS
 62
     7
100
AcDbCircle
 10
11.9152866169
 20
2.4306885946
 30
0.0
 40
0.2362204724409445
100
AcDbArc
 50
275.0
 51
0.0
  0
LINE
  5
83
330
1F
100
AcDbEntity
  8
0
  6
CONTINUOUS
 62
     7
100
AcDbLine
 10
11.9358743732
 20
2.1953670122
 30
0.0
 11
1.2783943427
 21
1.2629583101
 31
0.0
  0
ARC
  5
84
330
1F
100
AcDbEntity
  8
0
  6
CONTINUOUS
 62
     7
100
AcDbCircle
 10
1.257806302
 20
1.4982798853
 30
0.0
 40
0.2362204724409538
100
AcDbArc
 50
180.0
 51
275.0
  0
LINE
  5
85
330
1F
100
AcDbEntity
  8
0
  6
CONTINUOUS
 62
     7
100
AcDbLine
 10
1.0215858094
 20
1.4982798383
 30
0.0
 11
1.0215858094
 21
2.3217703653
 31
0.0
  0
LINE
  5
86
330
1F
100
AcDbEntity
  8
0
  6
CONTINUOUS
 62
     7
100
AcDbLine
 10
2.5115443372
 20
2.4521248728
 30
0.0
 11
1.0215858094
 21
2.3217703653
 31
0.0
  0
ARC
  5
87
330
1F
100
AcDbEntity
  8
0
  6
CONTINUOUS
 62
     7
100
AcDbCircle
 10
2.715053126
 20
2.4558732265
 30
0.0
 40
0.2035432588250848
100
AcDbArc
 50
181.0551806233
 51
209.8878223834
  0
ARC
  5
88
330
1F
100
AcDbEntity
  8
0
  6
CONTINUOUS
 62
     7
100
AcDbCircle
 10
2.5044467141
 20
2.3348287241
 30
0.0
 40
0.0393700091412033
100
AcDbArc
 50
5.0
 51
29.8878223834
  0
LINE
  5
89
330
1F
100
AcDbEntity
  8
0
  6
CONTINUOUS
 62
     7
100
AcDbLine
 10
2.5646511371
 20
2.0984103189
 30
0.0
 11
2.5436668995
 21
2.3382600548
 31
0.0
  0
ARC
  5
8A
330
1F
100
AcDbEntity
  8
0
  6
CONTINUOUS
 62
     7
100
AcDbCircle
 10
2.5254308429
 20
2.0949790346
 30
0.0
 40
0.0393700787401549
100
AcDbArc
 50
340.1121227901
 51
5.0
  0
ARC
  5
8B
330
1F
100
AcDbEntity
  8
0
  6
CONTINUOUS
 62
     7
100
AcDbCircle
 10
2.7538569046
 20
2.0123446147
 30
0.0
 40
0.2035433070866173
100
AcDbArc
 50
160.1121227901
 51
347.3995463205
  0
ARC
  5
8C
330
1F
100
AcDbEntity
  8
0
  6
CONTINUOUS
 62
     7
100
AcDbCircle
 10
2.9909197299
 20
1.9593528242
 30
0.0
 40
0.0393700787401599
100
AcDbArc
 50
95.0000629249
 51
167.3995463205
  0
LINE
  5
8D
330
1F
100
AcDbEntity
  8
0
  6
CONTINUOUS
 62
     7
100
AcDbLine
 10
3.1460809537
 20
2.0124483653
 30
0.0
 11
2.9874883058
 21
1.9985731256
 31
0.0
  0
ARC
  5
8E
330
1F
100
AcDbEntity
  8
0
  6
CONTINUOUS
 62
     7
100
AcDbCircle
 10
3.1495122132
 20
1.9732280441
 30
0.0
 40
0.0393700787401597
100
AcDbArc
 50
22.6004798922
 51
95.0000629249
  0
ARC
  5
8F
330
1F
100
AcDbEntity
  8
0
  6
CONTINUOUS
 62
     7
100
AcDbCircle
 10
3.3737715509
 20
2.0665804004
 30
0.0
 40
0.2035433070866164
100
AcDbArc
 50
202.6004798922
 51
29.8879068429
  0
ARC
  5
90
330
1F
100
AcDbEntity
  8
0
  6
CONTINUOUS
 62
     7
100
AcDbCircle
 10
3.5843779285
 20
2.1876252961
 30
0.0
 40
0.0393700787401579
100
AcDbArc
 50
185.0
 51
209.8879068429
  0
LINE
  5
91
330
1F
100
AcDbEntity
  8
0
  6
CONTINUOUS
 62
     7
100
AcDbLine
 10
3.5241735726
 20
2.4240429305
 30
0.0
 11
3.5451578102
 21
2.1841939279
 31
0.0
  0
ARC
  5
92
330
1F
100
AcDbEntity
  8
0
  6
CONTINUOUS
 62
     7
100
AcDbCircle
 10
3.5633956505
 20
2.427474355
 30
0.0
 40
0.0393718675624491
100
AcDbArc
 50
160.1122158958
 51
185.0
  0
ARC
  5
93
330
1F
100
AcDbEntity
  8
0
  6
CONTINUOUS
 62
     7
100
AcDbCircle
 10
3.3349677724
 20
2.5101090122
 30
0.0
 40
0.2035433070866132
100
AcDbArc
 50
340.1122158958
 51
8.9447392179
  0
LINE
  5
94
330
1F
100
AcDbEntity
  8
0
  6
CONTINUOUS
 62
     7
100
AcDbLine
 10
10.0648329477
 20
3.1129520655
 30
0.0
 11
3.5360358356
 21
2.5417562374
 31
0.0
  0
ARC
  5
95
330
1F
100
AcDbEntity
  8
0
  6
CONTINUOUS
 62
     7
100
AcDbCircle
 10
10.2683411588
 20
3.1167003017
 30
0.0
 40
0.2035432588250871
100
AcDbArc
 50
181.0551806234
 51
209.8878223834
  0
ARC
  5
96
330
1F
100
AcDbEntity
  8
0
  6
CONTINUOUS
 62
     7
100
AcDbCircle
 10
10.0577347468
 20
2.9956557993
 30
0.0
 40
0.0393700091412038
100
AcDbArc
 50
5.0
 51
29.8878223834
  0
LINE
  5
97
330
1F
100
AcDbEntity
  8
0
  6
CONTINUOUS
 62
     7
100
AcDbLine
 10
10.1179385742
 20
2.7592375117
 30
0.0
 11
10.0969549233
 21
2.9990872476
 31
0.0
  0
ARC
  5
98
330
1F
100
AcDbEntity
  8
0
  6
CONTINUOUS
 62
     7
100
AcDbCircle
 10
10.0787188756
 20
2.7558061098
 30
0.0
 40
0.039370078740156
100
AcDbArc
 50
340.1121227901
 51
5.0
  0
ARC
  5
99
330
1F
100
AcDbEntity
  8
0
  6
CONTINUOUS
 62
     7
100
AcDbCircle
 10
10.3071449373
 20
2.6731716899
 30
0.0
 40
0.2035433070866166
100
AcDbArc
 50
160.1121227901
 51
347.3995463205
  0
ARC
  5
9A
330
1F
100
AcDbEntity
  8
0
  6
CONTINUOUS
 62
     7
100
AcDbCircle
 10
10.5442077627
 20
2.6201798994
 30
0.0
 40
0.0393700787401558
100
AcDbArc
 50
95.0000629249
 51
167.3995463205
  0
LINE
  5
9B
330
1F
100
AcDbEntity
  8
0
  6
CONTINUOUS
 62
     7
100
AcDbLine
 10
10.6993689774
 20
2.6732754114
 30
0.0
 11
10.5407760362
 21
2.659400025
 31
0.0
  0
ARC
  5
9C
330
1F
100
AcDbEntity
  8
0
  6
CONTINUOUS
 62
     7
100
AcDbCircle
 10
10.7028002459
 20
2.6340551193
 30
0.0
 40
0.0393700787401596
100
AcDbArc
 50
22.6004798922
 51
95.0000629249
  0
ARC
  5
9D
330
1F
100
AcDbEntity
  8
0
  6
CONTINUOUS
 62
     7
100
AcDbCircle
 10
10.9270595837
 20
2.7274074756
 30
0.0
 40
0.2035433070866167
100
AcDbArc
 50
202.6004798922
 51
29.8879068429
  0
ARC
  5
9E
330
1F
100
AcDbEntity
  8
0
  6
CONTINUOUS
 62
     7
100
AcDbCircle
 10
11.1376659612
 20
2.8484523713
 30
0.0
 40
0.0393700787401605
100
AcDbArc
 50
185.0
 51
209.8879068429
  0
LINE
  5
9F
330
1F
100
AcDbEntity
  8
0
  6
CONTINUOUS
 62
     7
100
AcDbLine
 10
11.0774618897
 20
3.0848698299
 30
0.0
 11
11.0984455406
 21
2.845020974
 31
0.0
  0
ARC
  5
A0
330
1F
100
AcDbEntity
  8
0
  6
CONTINUOUS
 62
     7
100
AcDbCircle
 10
11.1166836833
 20
3.0883014302
 30
0.0
 40
0.039371867562445
100
AcDbArc
 50
160.1122158958
 51
185.0
  0
ARC
  5
A1
330
1F
100
AcDbEntity
  8
0
  6
CONTINUOUS
 62
     7
100
AcDbCircle
 10
10.8882558052
 20
3.1709360874
 30
0.0
 40
0.2035433070866098
100
AcDbArc
 50
340.1122158958
 51
8.9447392178
  0
LINE
  5
A2
330
1F
100
AcDbEntity
  8
0
  6
CONTINUOUS
 62
     7
100
AcDbLine
 10
12.1515070822
 20
3.2955124099
 30
0.0
 11
12.1515070822
 21
2.4306886137
 31
0.0
  0
LINE
  5
A3
330
1F
100
AcDbEntity
  8
0
  6
CONTINUOUS
 62
     7
100
AcDbLine
 10
12.1515070822
 20
3.2955124099
 30
0.0
 11
11.0893241527
 21
3.2025834301
 31
0.0
  0
ARC
  5
A4
330
1F
100
AcDbEntity
  8
0
  6
CONTINUOUS
 62
     7
100
AcDbCircle
 10
1.257806302
 20
29.7761431169
 30
0.0
 40
0.2362204724409451
100
AcDbArc
 50
85.0
 51
180.0
  0
LINE
  5
A5
330
1F
100
AcDbEntity
  8
0
  6
CONTINUOUS
 62
     7
100
AcDbLine
 10
1.2783943427
 20
30.0114655183
 30
0.0
 11
11.9358743732
 21
29.0790564495
 31
0.0
  0
LINE
  5
A6
330
1F
100
AcDbEntity
  8
0
  6
CONTINUOUS
 62
     7
100
AcDbLine
 10
12.1515070822
 20
28.8437354346
 30
0.0
 11
12.1515070822
 21
27.9789095852
 31
0.0
  0
LINE
  5
A7
330
1F
100
AcDbEntity
  8
0
  6
CONTINUOUS
 62
     7
100
AcDbLine
 10
11.0893241527
 20
28.0718388583
 30
0.0
 11
12.1515070822
 21
27.9789095852
 31
0.0
  0
ARC
  5
A8
330
1F
100
AcDbEntity
  8
0
  6
CONTINUOUS
 62
     7
100
AcDbCircle
 10
10.8882558823
 20
28.1034871898
 30
0.0
 40
0.2035433070866181
100
AcDbArc
 50
351.0551815601
 51
19.8879068429
  0
ARC
  5
A9
330
1F
100
AcDbEntity
  8
0
  6
CONTINUOUS
 62
     7
100
AcDbCircle
 10
11.1166819013
 20
28.1861217278
 30
0.0
 40
0.0393700787401627
100
AcDbArc
 50
175.0
 51
199.8879068429
  0
LINE
  5
AA
330
1F
100
AcDbEntity
  8
0
  6
CONTINUOUS
 62
     7
100
AcDbLine
 10
11.0984455406
 20
28.4294010211
 30
0.0
 11
11.0774618897
 21
28.1895533385
 31
0.0
  0
ARC
  5
AB
330
1F
100
AcDbEntity
  8
0
  6
CONTINUOUS
 62
     7
100
AcDbCircle
 10
11.1376677433
 20
28.425970475
 30
0.0
 40
0.0393718675624497
100
AcDbArc
 50
150.1122158958
 51
175.0
  0
ARC
  5
AC
330
1F
100
AcDbEntity
  8
0
  6
CONTINUOUS
 62
     7
100
AcDbCircle
 10
10.9270595555
 20
28.5470158108
 30
0.0
 40
0.2035433070866161
100
AcDbArc
 50
330.1122158958
 51
157.3995463205
  0
ARC
  5
AD
330
1F
100
AcDbEntity
  8
0
  6
CONTINUOUS
 62
     7
100
AcDbCircle
 10
10.702800175
 20
28.6403680645
 30
0.0
 40
0.0393700787401568
100
AcDbArc
 50
265.0000629249
 51
337.3995463205
  0
LINE
  5
AE
330
1F
100
AcDbEntity
  8
0
  6
CONTINUOUS
 62
     7
100
AcDbLine
 10
10.5407760362
 20
28.6150225568
 30
0.0
 11
10.6993689774
 21
28.601146877
 31
0.0
  0
ARC
  5
AF
330
1F
100
AcDbEntity
  8
0
  6
CONTINUOUS
 62
     7
100
AcDbCircle
 10
10.5442076613
 20
28.6542429361
 30
0.0
 40
0.03937012700169
100
AcDbArc
 50
192.6004798922
 51
265.0000629249
  0
ARC
  5
B0
330
1F
100
AcDbEntity
  8
0
  6
CONTINUOUS
 62
     7
100
AcDbCircle
 10
10.3071448602
 20
28.6012510372
 30
0.0
 40
0.2035432588250826
100
AcDbArc
 50
12.6004798922
 51
199.8878223834
  0
ARC
  5
B1
330
1F
100
AcDbEntity
  8
0
  6
CONTINUOUS
 62
     7
100
AcDbCircle
 10
10.0787188756
 20
28.5186168924
 30
0.0
 40
0.0393700091412075
100
AcDbArc
 50
355.0
 51
19.8878223834
  0
LINE
  5
B2
330
1F
100
AcDbEntity
  8
0
  6
CONTINUOUS
 62
     7
100
AcDbLine
 10
10.0969549233
 20
28.2753347475
 30
0.0
 11
10.1179385742
 21
28.5151847768
 31
0.0
  0
ARC
  5
B3
330
1F
100
AcDbEntity
  8
0
  6
CONTINUOUS
 62
     7
100
AcDbCircle
 10
10.0577347468
 20
28.2787672029
 30
0.0
 40
0.0393700787401604
100
AcDbArc
 50
330.1121227901
 51
355.0
  0
ARC
  5
B4
330
1F
100
AcDbEntity
  8
0
  6
CONTINUOUS
 62
     7
100
AcDbCircle
 10
10.268341187
 20
28.1577224162
 30
0.0
 40
0.2035433070866096
100
AcDbArc
 50
150.1121227901
 51
178.9447392179
  0
LINE
  5
B5
330
1F
100
AcDbEntity
  8
0
  6
CONTINUOUS
 62
     7
100
AcDbLine
 10
3.5360358356
 20
28.7326666377
 30
0.0
 11
10.0648329477
 21
28.1614711029
 31
0.0
  0
ARC
  5
B6
330
1F
100
AcDbEntity
  8
0
  6
CONTINUOUS
 62
     7
100
AcDbCircle
 10
3.3349678495
 20
28.764314265
 30
0.0
 40
0.2035433070866179
100
AcDbArc
 50
351.0551815602
 51
19.8879068429
  0
ARC
  5
B7
330
1F
100
AcDbEntity
  8
0
  6
CONTINUOUS
 62
     7
100
AcDbCircle
 10
3.5633938685
 20
28.846948803
 30
0.0
 40
0.0393700787401535
100
AcDbArc
 50
175.0
 51
199.8879068429
  0
LINE
  5
B8
330
1F
100
AcDbEntity
  8
0
  6
CONTINUOUS
 62
     7
100
AcDbLine
 10
3.5451578102
 20
29.0902288005
 30
0.0
 11
3.5241735726
 21
28.8503811179
 31
0.0
  0
ARC
  5
B9
330
1F
100
AcDbEntity
  8
0
  6
CONTINUOUS
 62
     7
100
AcDbCircle
 10
3.5843797105
 20
29.0867975502
 30
0.0
 40
0.0393718675624457
100
AcDbArc
 50
150.1122158958
 51
175.0
  0
ARC
  5
BA
330
1F
100
AcDbEntity
  8
0
  6
CONTINUOUS
 62
     7
100
AcDbCircle
 10
3.3737715227
 20
29.207842886
 30
0.0
 40
0.2035433070866146
100
AcDbArc
 50
330.1122158958
 51
157.3995463205
  0
ARC
  5
BB
330
1F
100
AcDbEntity
  8
0
  6
CONTINUOUS
 62
     7
100
AcDbCircle
 10
3.1495121422
 20
29.3011951397
 30
0.0
 40
0.0393700787401589
100
AcDbArc
 50
265.0000629249
 51
337.3995463205
  0
LINE
  5
BC
330
1F
100
AcDbEntity
  8
0
  6
CONTINUOUS
 62
     7
100
AcDbLine
 10
2.9874883058
 20
29.2758503361
 30
0.0
 11
3.1460809537
 21
29.2619746564
 31
0.0
  0
ARC
  5
BD
330
1F
100
AcDbEntity
  8
0
  6
CONTINUOUS
 62
     7
100
AcDbCircle
 10
2.9909196285
 20
29.3150700113
 30
0.0
 40
0.0393701270016905
100
AcDbArc
 50
192.6004798922
 51
265.0000629249
  0
ARC
  5
BE
330
1F
100
AcDbEntity
  8
0
  6
CONTINUOUS
 62
     7
100
AcDbCircle
 10
2.7538568274
 20
29.2620781124
 30
0.0
 40
0.2035432588250803
100
AcDbArc
 50
12.6004798922
 51
199.8878223834
  0
ARC
  5
BF
330
1F
100
AcDbEntity
  8
0
  6
CONTINUOUS
 62
     7
100
AcDbCircle
 10
2.5254308429
 20
29.1794439676
 30
0.0
 40
0.0393700091412031
100
AcDbArc
 50
355.0
 51
19.8878223834
  0
LINE
  5
C0
330
1F
100
AcDbEntity
  8
0
  6
CONTINUOUS
 62
     7
100
AcDbLine
 10
2.5436668995
 20
28.9361625269
 30
0.0
 11
2.5646511371
 21
29.1760125562
 31
0.0
  0
ARC
  5
C1
330
1F
100
AcDbEntity
  8
0
  6
CONTINUOUS
 62
     7
100
AcDbCircle
 10
2.5044467141
 20
28.9395942781
 30
0.0
 40
0.0393700787401608
100
AcDbArc
 50
330.1121227901
 51
355.0
  0
ARC
  5
C2
330
1F
100
AcDbEntity
  8
0
  6
CONTINUOUS
 62
     7
100
AcDbCircle
 10
2.7150531542
 20
28.8185494914
 30
0.0
 40
0.2035433070866143
100
AcDbArc
 50
150.1121227901
 51
178.9447392179
  0
LINE
  5
C3
330
1F
100
AcDbEntity
  8
0
  6
CONTINUOUS
 62
     7
100
AcDbLine
 10
1.0215858094
 20
28.9526523631
 30
0.0
 11
2.5115443372
 21
28.8222988823
 31
0.0
  0
LINE
  5
C4
330
1F
100
AcDbEntity
  8
0
  6
CONTINUOUS
 62
     7
100
AcDbLine
 10
1.0215858094
 20
28.9526523631
 30
0.0
 11
1.0215858094
 21
29.7761421567
 31
0.0
  0
ARC
  5
C5
330
1F
100
AcDbEntity
  8
0
  6
CONTINUOUS
 62
     7
100
AcDbCircle
 10
11.9152866169
 20
28.8437344076
 30
0.0
 40
0.2362204724409409
100
AcDbArc
 50
360.0
 51
85.0
  0
ARC
  5
C6
330
1F
100
AcDbEntity
  8
0
  6
CONTINUOUS
 62
     7
100
AcDbCircle
 10
11.9152866169
 20
26.1087968025
 30
0.0
 40
0.2362204724409484
100
AcDbArc
 50
280.0
 51
360.0
  0
LINE
  5
C7
330
1F
100
AcDbEntity
  8
0
  6
CONTINUOUS
 62
     7
100
AcDbLine
 10
11.5593067767
 20
25.8061630583
 30
0.0
 11
11.9563053905
 21
25.8761656629
 31
0.0
  0
ARC
  5
C8
330
1F
100
AcDbEntity
  8
0
  6
CONTINUOUS
 62
     7
100
AcDbCircle
 10
11.600325987
 20
25.5735316376
 30
0.0
 40
0.2362204724409519
100
AcDbArc
 50
100.0
 51
180.0
  0
LINE
  5
C9
330
1F
100
AcDbEntity
  8
0
  6
CONTINUOUS
 62
     7
100
AcDbLine
 10
11.364105085
 20
5.7008915828
 30
0.0
 11
11.364105085
 21
25.5735312923
 31
0.0
  0
ARC
  5
CA
330
1F
100
AcDbEntity
  8
0
  6
CONTINUOUS
 62
     7
100
AcDbCircle
 10
11.600325987
 20
5.7008913645
 30
0.0
 40
0.2362204724409462
100
AcDbArc
 50
180.0
 51
260.0
  0
LINE
  5
CB
330
1F
100
AcDbEntity
  8
0
  6
CONTINUOUS
 62
     7
100
AcDbLine
 10
11.9563053905
 20
5.3982577988
 30
0.0
 11
11.5593067767
 21
5.4682598168
 31
0.0
  0
ARC
  5
CC
330
1F
100
AcDbEntity
  8
0
  6
CONTINUOUS
 62
     7
100
AcDbCircle
 10
11.9152866169
 20
5.1656261997
 30
0.0
 40
0.2362204724409475
100
AcDbArc
 50
0.0
 51
80.0
  0
LINE
  5
CD
330
1F
100
AcDbEntity
  8
0
  6
CONTINUOUS
 62
     7
100
AcDbLine
 10
12.1515070822
 20
5.1656260329
 30
0.0
 11
12.1515070822
 21
3.824296248
 31
0.0
  0
LINE
  5
CE
330
1F
100
AcDbEntity
  8
0
  6
CONTINUOUS
 62
     7
100
AcDbLine
 10
10.5767042611
 20
3.6865188796
 30
0.0
 11
12.1515070822
 21
3.824296248
 31
0.0
  0
LINE
  5
CF
330
1F
100
AcDbEntity
  8
0
  6
CONTINUOUS
 62
     7
100
AcDbLine
 10
10.5767042611
 20
27.5879031155
 30
0.0
 11
10.5767042611
 21
3.6865188796
 31
0.0
  0
LINE
  5
D0
330
1F
100
AcDbEntity
  8
0
  6
CONTINUOUS
 62
     7
100
AcDbLine
 10
12.1515070822
 20
27.4501272137
 30
0.0
 11
10.5767042611
 21
27.5879031155
 31
0.0
  0
LINE
  5
D1
330
1F
100
AcDbEntity
  8
0
  6
CONTINUOUS
 62
     7
100
AcDbLine
 10
12.1515070822
 20
27.4501272137
 30
0.0
 11
12.1515070822
 21
26.1087974289
 31
0.0
  0
LINE
  5
D2
330
1F
100
AcDbEntity
  8
0
  6
CONTINUOUS
 62
     7
100
AcDbLine
 10
1.0215858094
 20
2.8505543501
 30
0.0
 11
1.0215858094
 21
28.423867645
 31
0.0
  0
LINE
  5
D3
330
1F
100
AcDbEntity
  8
0
  6
CONTINUOUS
 62
     7
100
AcDbLine
 10
10.0633181918
 20
3.6416033185
 30
0.0
 11
10.0633181918
 21
27.6328201432
 31
0.0
  0
LINE
  5
D4
330
1F
100
AcDbEntity
  8
0
  6
CONTINUOUS
 62
     7
100
AcDbLine
 10
10.0633181918
 20
27.6328201432
 30
0.0
 11
1.0215858094
 21
28.423867645
 31
0.0
  0
LINE
  5
D5
330
1F
100
AcDbEntity
  8
0
  6
CONTINUOUS
 62
     7
100
AcDbLine
 10
1.0215858094
 20
2.8505543501
 30
0.0
 11
10.0633181918
 21
3.6416033185
 31
0.0
  0
ARC
  5
D6
330
1F
100
AcDbEntity
  8
0
  6
CONTINUOUS
 62
     7
100
AcDbCircle
 10
10.6511929798
 20
3.2239278779
 30
0.0
 40
0.0393700787401596
100
AcDbArc
 50
275.0000629249
 51
347.3995463205
  0
LINE
  5
D7
330
1F
100
AcDbEntity
  8
0
  6
CONTINUOUS
 62
     7
100
AcDbLine
 10
10.6546244277
 20
3.1847076099
 30
0.0
 11
10.4960314864
 21
3.1708325169
 31
0.0
  0
ARC
  5
D8
330
1F
100
AcDbEntity
  8
0
  6
CONTINUOUS
 62
     7
100
AcDbCircle
 10
10.4926004966
 20
3.210052658
 30
0.0
 40
0.039370078740156
100
AcDbArc
 50
202.6004798922
 51
275.0000629249
  0
ARC
  5
D9
330
1F
100
AcDbEntity
  8
0
  6
CONTINUOUS
 62
     7
100
AcDbCircle
 10
3.0979049471
 20
2.5631008027
 30
0.0
 40
0.0393700787401601
100
AcDbArc
 50
275.0000629249
 51
347.3995463205
  0
LINE
  5
DA
330
1F
100
AcDbEntity
  8
0
  6
CONTINUOUS
 62
     7
100
AcDbLine
 10
3.1013364039
 20
2.5238805639
 30
0.0
 11
2.942743756
 21
2.5100053241
 31
0.0
  0
ARC
  5
DB
330
1F
100
AcDbEntity
  8
0
  6
CONTINUOUS
 62
     7
100
AcDbCircle
 10
2.9393124638
 20
2.5492255828
 30
0.0
 40
0.0393700787401556
100
AcDbArc
 50
202.6004798922
 51
275.0000629249
  0
ARC
  5
DC
330
1F
100
AcDbEntity
  8
0
  6
CONTINUOUS
 62
     7
100
AcDbCircle
 10
2.9393125347
 20
28.7251972377
 30
0.0
 40
0.0393700787401563
100
AcDbArc
 50
85.0000629249
 51
157.3995463205
  0
LINE
  5
DD
330
1F
100
AcDbEntity
  8
0
  6
CONTINUOUS
 62
     7
100
AcDbLine
 10
2.942743756
 20
28.7644166709
 30
0.0
 11
3.1013364039
 21
28.7505433379
 31
0.0
  0
ARC
  5
DE
330
1F
100
AcDbEntity
  8
0
  6
CONTINUOUS
 62
     7
100
AcDbCircle
 10
3.0979050484
 20
28.7113223661
 30
0.0
 40
0.0393700787401565
100
AcDbArc
 50
12.6004798922
 51
85.0000629249
  0
ARC
  5
DF
330
1F
100
AcDbEntity
  8
0
  6
CONTINUOUS
 62
     7
100
AcDbCircle
 10
10.4926005675
 20
28.0643701624
 30
0.0
 40
0.0393700787401634
100
AcDbArc
 50
85.0000629249
 51
157.3995463205
  0
LINE
  5
E0
330
1F
100
AcDbEntity
  8
0
  6
CONTINUOUS
 62
     7
100
AcDbLine
 10
10.4960314864
 20
28.1035912382
 30
0.0
 11
10.6546244277
 21
28.0897155585
 31
0.0
  0
ARC
  5
E1
330
1F
100
AcDbEntity
  8
0
  6
CONTINUOUS
 62
     7
100
AcDbCircle
 10
10.6511930812
 20
28.0504952909
 30
0.0
 40
0.0393700787401603
100
AcDbArc
 50
12.6004798922
 51
85.0000629249
  0
LINE
  5
E2
330
1F
100
AcDbEntity
  8
0
  6
CONTINUOUS
 62
     7
100
AcDbLine
 10
1.0215858094
 20
2.8505543501
 30
0.0
 11
1.0215858094
 21
2.3217703653
 31
0.0
  0
LINE
  5
E3
330
1F
100
AcDbEntity
  8
0
  6
CONTINUOUS
 62
     7
100
AcDbLine
 10
1.0215858094
 20
28.9526523631
 30
0.0
 11
1.0215858094
 21
28.423867645
 31
0.0
  0
ARC
  5
E4
330
1F
100
AcDbEntity
  8
0
  6
CONTINUOUS
 62
     7
100
AcDbCircle
 10
3.3349677724
 20
2.5101090122
 30
0.0
 40
0.2035433070866171
100
AcDbArc
 50
8.9447392179
 51
167.3995463205
  0
ARC
  5
E5
330
1F
100
AcDbEntity
  8
0
  6
CONTINUOUS
 62
     7
100
AcDbCircle
 10
2.7150531542
 20
28.8185494914
 30
0.0
 40
0.203543307086616
100
AcDbArc
 50
178.9447392179
 51
337.3995463205
  0
ARC
  5
E6
330
1F
100
AcDbEntity
  8
0
  6
CONTINUOUS
 62
     7
100
AcDbCircle
 10
3.3349678495
 20
28.764314265
 30
0.0
 40
0.2035433070866173
100
AcDbArc
 50
192.6004798922
 51
351.0551815601
  0
ARC
  5
E7
330
1F
100
AcDbEntity
  8
0
  6
CONTINUOUS
 62
     7
100
AcDbCircle
 10
2.715053126
 20
2.4558732265
 30
0.0
 40
0.2035433070866122
100
AcDbArc
 50
22.6004798922
 51
181.0551806233
  0
ARC
  5
E8
330
1F
100
AcDbEntity
  8
0
  6
CONTINUOUS
 62
     7
100
AcDbCircle
 10
10.2683411588
 20
3.1167003017
 30
0.0
 40
0.2035433070866119
100
AcDbArc
 50
22.6004798922
 51
181.0551806233
  0
ARC
  5
E9
330
1F
100
AcDbEntity
  8
0
  6
CONTINUOUS
 62
     7
100
AcDbCircle
 10
10.268341187
 20
28.1577224162
 30
0.0
 40
0.203543307086615
100
AcDbArc
 50
178.9447392179
 51
337.3995463205
  0
ARC
  5
EA
330
1F
100
AcDbEntity
  8
0
  6
CONTINUOUS
 62
     7
100
AcDbCircle
 10
10.8882558823
 20
28.1034871898
 30
0.0
 40
0.2035433070866157
100
AcDbArc
 50
192.6004798922
 51
351.0551815601
  0
ARC
  5
EB
330
1F
100
AcDbEntity
  8
0
  6
CONTINUOUS
 62
     7
100
AcDbCircle
 10
10.8882558052
 20
3.1709360874
 30
0.0
 40
0.2035433070866179
100
AcDbArc
 50
8.9447392179
 51
167.3995463205
  0
LINE
  5
EC
330
1F
100
AcDbEntity
  8
0
  6
CONTINUOUS
 62
     7
100
AcDbLine
 10
12.1515070822
 20
3.2955124099
 30
0.0
 11
12.1515070822
 21
3.824296248
 31
0.0
  0
LINE
  5
ED
330
1F
100
AcDbEntity
  8
0
  6
CONTINUOUS
 62
     7
100
AcDbLine
 10
12.1515070822
 20
27.4501272137
 30
0.0
 11
12.1515070822
 21
27.9789095852
 31
0.0
  0
LINE
  5
EE
330
1F
100
AcDbEntity
  8
0
  6
CONTINUOUS
 62
     7
100
AcDbLine
 10
25.7601685405
 20
1.1839079433
 30
0.0
 11
32.1656802501
 21
1.1839079433
 31
0.0
  0
LINE
  5
EF
330
1F
100
AcDbEntity
  8
0
  6
CONTINUOUS
 62
     7
100
AcDbLine
 10
25.7601685405
 20
25.6996561287
 30
0.0
 11
25.7601685405
 21
1.1839079433
 31
0.0
  0
LINE
  5
F0
330
1F
100
AcDbEntity
  8
0
  6
CONTINUOUS
 62
     7
100
AcDbLine
 10
32.1656802501
 20
25.6996561287
 30
0.0
 11
25.7601685405
 21
25.6996561287
 31
0.0
  0
LINE
  5
F1
330
1F
100
AcDbEntity
  8
0
  6
CONTINUOUS
 62
     7
100
AcDbLine
 10
32.1656802501
 20
1.1839079433
 30
0.0
 11
32.1656802501
 21
25.6996561287
 31
0.0
  0
ARC
  5
F2
330
1F
100
AcDbEntity
  8
0
  6
CONTINUOUS
 62
     7
100
AcDbCircle
 10
41.2861527586
 20
1.9320181997
 30
0.0
 40
0.2362204724409449
100
AcDbArc
 50
90.0
 51
180.0
  0
LINE
  5
F3
330
1F
100
AcDbEntity
  8
0
  6
CONTINUOUS
 62
     7
100
AcDbLine
 10
43.3520969437
 20
2.1682386856
 30
0.0
 11
41.286153023
 21
2.1682386856
 31
0.0
  0
ARC
  5
F4
330
1F
100
AcDbEntity
  8
0
  6
CONTINUOUS
 62
     7
100
AcDbCircle
 10
43.3520976405
 20
2.640679617
 30
0.0
 40
0.472440944881896
100
AcDbArc
 50
270.0
 51
0.0
  0
LINE
  5
F5
330
1F
100
AcDbEntity
  8
0
  6
CONTINUOUS
 62
     7
100
AcDbLine
 10
43.8245364994
 20
4.5249887402
 30
0.0
 11
43.8245364994
 21
2.6406797079
 31
0.0
  0
ARC
  5
F6
330
1F
100
AcDbEntity
  8
0
  6
CONTINUOUS
 62
     7
100
AcDbCircle
 10
44.1995385854
 20
4.5249888729
 30
0.0
 40
0.3749999999999913
100
AcDbArc
 50
120.0
 51
180.0
  0
ARC
  5
F7
330
1F
100
AcDbEntity
  8
0
  6
CONTINUOUS
 62
     7
100
AcDbCircle
 10
43.8245385854
 20
5.1745079257
 30
0.0
 40
0.3749999999999977
100
AcDbArc
 50
300.0
 51
0.0
  0
LINE
  5
F8
330
1F
100
AcDbEntity
  8
0
  6
CONTINUOUS
 62
     7
100
AcDbLine
 10
44.1995388873
 20
6.7441095581
 30
0.0
 11
44.1995388873
 21
5.1745080636
 31
0.0
  0
ARC
  5
F9
330
1F
100
AcDbEntity
  8
0
  6
CONTINUOUS
 62
     7
100
AcDbCircle
 10
43.8245385854
 20
6.7441097846
 30
0.0
 40
0.375
100
AcDbArc
 50
0.0
 51
60.0
  0
ARC
  5
FA
330
1F
100
AcDbEntity
  8
0
  6
CONTINUOUS
 62
     7
100
AcDbCircle
 10
44.1995385854
 20
7.3936288374
 30
0.0
 40
0.3749999999999913
100
AcDbArc
 50
180.0
 51
240.0
  0
LINE
  5
FB
330
1F
100
AcDbEntity
  8
0
  6
CONTINUOUS
 62
     7
100
AcDbLine
 10
43.8245364994
 20
9.2779382071
 30
0.0
 11
43.8245364994
 21
7.3936288814
 31
0.0
  0
ARC
  5
FC
330
1F
100
AcDbEntity
  8
0
  6
CONTINUOUS
 62
     7
100
AcDbCircle
 10
43.3520976405
 20
9.2779380932
 30
0.0
 40
0.472440944881896
100
AcDbArc
 50
0.0
 51
90.0
  0
LINE
  5
FD
330
1F
100
AcDbEntity
  8
0
  6
CONTINUOUS
 62
     7
100
AcDbLine
 10
41.286153023
 20
9.7503789361
 30
0.0
 11
43.3520969437
 21
9.7503789361
 31
0.0
  0
ARC
  5
FE
330
1F
100
AcDbEntity
  8
0
  6
CONTINUOUS
 62
     7
100
AcDbCircle
 10
41.2861527586
 20
9.9865995106
 30
0.0
 40
0.236220472440948
100
AcDbArc
 50
180.0
 51
270.0
  0
LINE
  5
FF
330
1F
100
AcDbEntity
  8
0
  6
CONTINUOUS
 62
     7
100
AcDbLine
 10
41.0499308985
 20
10.4491976366
 30
0.0
 11
41.0499308985
 21
9.9865993006
 31
0.0
  0
ARC
  5
100
330
1F
100
AcDbEntity
  8
0
  6
CONTINUOUS
 62
     7
100
AcDbCircle
 10
41.0893023649
 20
10.4491979358
 30
0.0
 40
0.0393700787401627
100
AcDbArc
 50
90.0
 51
180.0
  0
LINE
  5
101
330
1F
100
AcDbEntity
  8
0
  6
CONTINUOUS
 62
     7
100
AcDbLine
 10
41.089302817
 20
10.4885683818
 30
0.0
 11
41.5050522542
 21
10.4885683818
 31
0.0
  0
LINE
  5
102
330
1F
100
AcDbEntity
  8
0
  6
CONTINUOUS
 62
     7
100
AcDbLine
 10
41.5050522542
 20
10.4885683818
 30
0.0
 11
41.5184374863
 21
10.2793607719
 31
0.0
  0
ARC
  5
103
330
1F
100
AcDbEntity
  8
0
  6
CONTINUOUS
 62
     7
100
AcDbCircle
 10
41.5577293692
 20
10.2818751011
 30
0.0
 40
0.039370078740159
100
AcDbArc
 50
183.6619355755
 51
270.0
  0
LINE
  5
104
330
1F
100
AcDbEntity
  8
0
  6
CONTINUOUS
 62
     7
100
AcDbLine
 10
41.557729619
 20
10.242504451
 30
0.0
 11
41.897875023
 21
10.242504451
 31
0.0
  0
ARC
  5
105
330
1F
100
AcDbEntity
  8
0
  6
CONTINUOUS
 62
     7
100
AcDbCircle
 10
41.8978740821
 20
10.2031349436
 30
0.0
 40
0.0393700787401556
100
AcDbArc
 50
65.1121079736
 51
90.0
  0
ARC
  5
106
330
1F
100
AcDbEntity
  8
0
  6
CONTINUOUS
 62
     7
100
AcDbCircle
 10
42.0001027532
 20
10.4234896845
 30
0.0
 40
0.2035433070866188
100
AcDbArc
 50
245.1121079736
 51
72.3995332141
  0
ARC
  5
107
330
1F
100
AcDbEntity
  8
0
  6
CONTINUOUS
 62
     7
100
AcDbCircle
 10
42.0735543335
 20
10.6550318586
 30
0.0
 40
0.039370078740159
100
AcDbArc
 50
180.0
 51
252.3995332141
  0
LINE
  5
108
330
1F
100
AcDbEntity
  8
0
  6
CONTINUOUS
 62
     7
100
AcDbLine
 10
42.0341819283
 20
10.7347097517
 30
0.0
 11
42.0341819283
 21
10.6550319521
 31
0.0
  0
LINE
  5
109
330
1F
100
AcDbEntity
  8
0
  6
CONTINUOUS
 62
     7
100
AcDbLine
 10
43.7270993316
 20
10.7347097517
 30
0.0
 11
42.0341819283
 21
10.7347097517
 31
0.0
  0
ARC
  5
10A
330
1F
100
AcDbEntity
  8
0
  6
CONTINUOUS
 62
     7
100
AcDbCircle
 10
43.7270976405
 20
10.2622688019
 30
0.0
 40
0.4724409448818889
100
AcDbArc
 50
0.0
 51
90.0
  0
LINE
  5
10B
330
1F
100
AcDbEntity
  8
0
  6
CONTINUOUS
 62
     7
100
AcDbLine
 10
44.1995388873
 20
7.8660696104
 30
0.0
 11
44.1995388873
 21
10.2622690227
 31
0.0
  0
ARC
  5
10C
330
1F
100
AcDbEntity
  8
0
  6
CONTINUOUS
 62
     7
100
AcDbCircle
 10
44.6719795303
 20
7.8660697823
 30
0.0
 40
0.472440944881896
100
AcDbArc
 50
180.0
 51
270.0
  0
LINE
  5
10D
330
1F
100
AcDbEntity
  8
0
  6
CONTINUOUS
 62
     7
100
AcDbLine
 10
45.3019009794
 20
7.3936288814
 30
0.0
 11
44.671978443
 21
7.3936288814
 31
0.0
  0
ARC
  5
10E
330
1F
100
AcDbEntity
  8
0
  6
CONTINUOUS
 62
     7
100
AcDbCircle
 10
45.3019007901
 20
7.8660697823
 30
0.0
 40
0.4724409448818907
100
AcDbArc
 50
270.0
 51
0.0
  0
LINE
  5
10F
330
1F
100
AcDbEntity
  8
0
  6
CONTINUOUS
 62
     7
100
AcDbLine
 10
45.7743405351
 20
10.2622690227
 30
0.0
 11
45.7743405351
 21
7.8660696104
 31
0.0
  0
ARC
  5
110
330
1F
100
AcDbEntity
  8
0
  6
CONTINUOUS
 62
     7
100
AcDbCircle
 10
46.2467826799
 20
10.2622688019
 30
0.0
 40
0.4724409448818889
100
AcDbArc
 50
90.0
 51
180.0
  0
LINE
  5
111
330
1F
100
AcDbEntity
  8
0
  6
CONTINUOUS
 62
     7
100
AcDbLine
 10
47.939697494
 20
10.7347097517
 30
0.0
 11
46.246784784
 21
10.7347097517
 31
0.0
  0
LINE
  5
112
330
1F
100
AcDbEntity
  8
0
  6
CONTINUOUS
 62
     7
100
AcDbLine
 10
47.939697494
 20
10.6550319521
 30
0.0
 11
47.939697494
 21
10.7347097517
 31
0.0
  0
ARC
  5
113
330
1F
100
AcDbEntity
  8
0
  6
CONTINUOUS
 62
     7
100
AcDbCircle
 10
47.900325987
 20
10.6550318586
 30
0.0
 40
0.0393700787401627
100
AcDbArc
 50
287.6004667859
 51
0.0
  0
ARC
  5
114
330
1F
100
AcDbEntity
  8
0
  6
CONTINUOUS
 62
     7
100
AcDbCircle
 10
47.9737775673
 20
10.4234896845
 30
0.0
 40
0.2035433070866174
100
AcDbArc
 50
107.6004667859
 51
294.8878920264
  0
ARC
  5
115
330
1F
100
AcDbEntity
  8
0
  6
CONTINUOUS
 62
     7
100
AcDbCircle
 10
48.0760062383
 20
10.2031349436
 30
0.0
 40
0.0393700787401546
100
AcDbArc
 50
90.0
 51
114.8878920264
  0
LINE
  5
116
330
1F
100
AcDbEntity
  8
0
  6
CONTINUOUS
 62
     7
100
AcDbLine
 10
48.0760043994
 20
10.242504451
 30
0.0
 11
48.4161498033
 21
10.242504451
 31
0.0
  0
ARC
  5
117
330
1F
100
AcDbEntity
  8
0
  6
CONTINUOUS
 62
     7
100
AcDbCircle
 10
48.4161509513
 20
10.2818751011
 30
0.0
 40
0.039370078740159
100
AcDbArc
 50
270.0
 51
356.3380644245
  0
LINE
  5
118
330
1F
100
AcDbEntity
  8
0
  6
CONTINUOUS
 62
     7
100
AcDbLine
 10
48.4554419361
 20
10.2793607719
 30
0.0
 11
48.4688318614
 21
10.4885683818
 31
0.0
  0
LINE
  5
119
330
1F
100
AcDbEntity
  8
0
  6
CONTINUOUS
 62
     7
100
AcDbLine
 10
48.4688318614
 20
10.4885683818
 30
0.0
 11
48.8845766053
 21
10.4885683818
 31
0.0
  0
ARC
  5
11A
330
1F
100
AcDbEntity
  8
0
  6
CONTINUOUS
 62
     7
100
AcDbCircle
 10
48.8845779555
 20
10.4491979358
 30
0.0
 40
0.0393700787401574
100
AcDbArc
 50
0.0
 51
90.0
  0
LINE
  5
11B
330
1F
100
AcDbEntity
  8
0
  6
CONTINUOUS
 62
     7
100
AcDbLine
 10
48.9239485238
 20
9.9865993006
 30
0.0
 11
48.9239485238
 21
10.4491976366
 31
0.0
  0
ARC
  5
11C
330
1F
100
AcDbEntity
  8
0
  6
CONTINUOUS
 62
     7
100
AcDbCircle
 10
48.6877275618
 20
9.9865995106
 30
0.0
 40
0.236220472440948
100
AcDbArc
 50
270.0
 51
0.0
  0
LINE
  5
11D
330
1F
100
AcDbEntity
  8
0
  6
CONTINUOUS
 62
     7
100
AcDbLine
 10
46.6217824787
 20
9.7503789361
 30
0.0
 11
48.6877263994
 21
9.7503789361
 31
0.0
  0
ARC
  5
11E
330
1F
100
AcDbEntity
  8
0
  6
CONTINUOUS
 62
     7
100
AcDbCircle
 10
46.6217826799
 20
9.2779380932
 30
0.0
 40
0.4724409448818907
100
AcDbArc
 50
90.0
 51
180.0
  0
LINE
  5
11F
330
1F
100
AcDbEntity
  8
0
  6
CONTINUOUS
 62
     7
100
AcDbLine
 10
46.149342923
 20
7.3936288814
 30
0.0
 11
46.149342923
 21
9.2779382071
 31
0.0
  0
ARC
  5
120
330
1F
100
AcDbEntity
  8
0
  6
CONTINUOUS
 62
     7
100
AcDbCircle
 10
45.774341735
 20
7.3936288374
 30
0.0
 40
0.375
100
AcDbArc
 50
300.0
 51
0.0
  0
ARC
  5
121
330
1F
100
AcDbEntity
  8
0
  6
CONTINUOUS
 62
     7
100
AcDbCircle
 10
46.149341735
 20
6.7441097846
 30
0.0
 40
0.375
100
AcDbArc
 50
120.0
 51
180.0
  0
LINE
  5
122
330
1F
100
AcDbEntity
  8
0
  6
CONTINUOUS
 62
     7
100
AcDbLine
 10
45.7743405351
 20
5.1745080636
 30
0.0
 11
45.7743405351
 21
6.7441095581
 31
0.0
  0
ARC
  5
123
330
1F
100
AcDbEntity
  8
0
  6
CONTINUOUS
 62
     7
100
AcDbCircle
 10
46.149341735
 20
5.1745079257
 30
0.0
 40
0.375
100
AcDbArc
 50
180.0
 51
240.0
  0
ARC
  5
124
330
1F
100
AcDbEntity
  8
0
  6
CONTINUOUS
 62
     7
100
AcDbCircle
 10
45.774341735
 20
4.5249888729
 30
0.0
 40
0.375
100
AcDbArc
 50
0.0
 51
60.0
  0
LINE
  5
125
330
1F
100
AcDbEntity
  8
0
  6
CONTINUOUS
 62
     7
100
AcDbLine
 10
46.149342923
 20
2.6406797079
 30
0.0
 11
46.149342923
 21
4.5249887402
 31
0.0
  0
ARC
  5
126
330
1F
100
AcDbEntity
  8
0
  6
CONTINUOUS
 62
     7
100
AcDbCircle
 10
46.6217826799
 20
2.640679617
 30
0.0
 40
0.4724409448818943
100
AcDbArc
 50
180.0
 51
270.0
  0
LINE
  5
127
330
1F
100
AcDbEntity
  8
0
  6
CONTINUOUS
 62
     7
100
AcDbLine
 10
48.6877263994
 20
2.1682386856
 30
0.0
 11
46.6217824787
 21
2.1682386856
 31
0.0
  0
ARC
  5
128
330
1F
100
AcDbEntity
  8
0
  6
CONTINUOUS
 62
     7
100
AcDbCircle
 10
48.6877275618
 20
1.9320181997
 30
0.0
 40
0.236220472440948
100
AcDbArc
 50
0.0
 51
90.0
  0
LINE
  5
129
330
1F
100
AcDbEntity
  8
0
  6
CONTINUOUS
 62
     7
100
AcDbLine
 10
48.9239485238
 20
1.4694198384
 30
0.0
 11
48.9239485238
 21
1.9320181744
 31
0.0
  0
ARC
  5
12A
330
1F
100
AcDbEntity
  8
0
  6
CONTINUOUS
 62
     7
100
AcDbCircle
 10
48.8845779555
 20
1.4694197745
 30
0.0
 40
0.0393700787401574
100
AcDbArc
 50
270.0
 51
0.0
  0
LINE
  5
12B
330
1F
100
AcDbEntity
  8
0
  6
CONTINUOUS
 62
     7
100
AcDbLine
 10
48.8845766053
 20
1.4300496799
 30
0.0
 11
48.4688318614
 21
1.4300496799
 31
0.0
  0
LINE
  5
12C
330
1F
100
AcDbEntity
  8
0
  6
CONTINUOUS
 62
     7
100
AcDbLine
 10
48.4688318614
 20
1.4300496799
 30
0.0
 11
48.4554419361
 21
1.6392571431
 31
0.0
  0
ARC
  5
12D
330
1F
100
AcDbEntity
  8
0
  6
CONTINUOUS
 62
     7
100
AcDbCircle
 10
48.4161509513
 20
1.6367426092
 30
0.0
 40
0.039370078740159
100
AcDbArc
 50
3.6619355755
 51
90.0
  0
LINE
  5
12E
330
1F
100
AcDbEntity
  8
0
  6
CONTINUOUS
 62
     7
100
AcDbLine
 10
48.4161498033
 20
1.6761127307
 30
0.0
 11
48.0760043994
 21
1.6761127307
 31
0.0
  0
ARC
  5
12F
330
1F
100
AcDbEntity
  8
0
  6
CONTINUOUS
 62
     7
100
AcDbCircle
 10
48.0760062383
 20
1.7154827666
 30
0.0
 40
0.039370078740161
100
AcDbArc
 50
245.1121079736
 51
270.0
  0
ARC
  5
130
330
1F
100
AcDbEntity
  8
0
  6
CONTINUOUS
 62
     7
100
AcDbCircle
 10
47.9737775673
 20
1.4951280257
 30
0.0
 40
0.2035433070866164
100
AcDbArc
 50
65.1121079736
 51
252.3995332141
  0
LINE
  5
131
330
1F
100
AcDbEntity
  8
0
  6
CONTINUOUS
 62
     7
100
AcDbLine
 10
46.246784784
 20
1.1839079433
 30
0.0
 11
47.939697494
 21
1.1839079433
 31
0.0
  0
LINE
  5
132
330
1F
100
AcDbEntity
  8
0
  6
CONTINUOUS
 62
     7
100
AcDbLine
 10
45.7743405351
 20
4.0525480112
 30
0.0
 11
45.7743405351
 21
1.6563488923
 31
0.0
  0
ARC
  5
133
330
1F
100
AcDbEntity
  8
0
  6
CONTINUOUS
 62
     7
100
AcDbCircle
 10
45.3019007901
 20
4.052547928
 30
0.0
 40
0.4724409448818898
100
AcDbArc
 50
0.0
 51
90.0
  0
LINE
  5
134
330
1F
100
AcDbEntity
  8
0
  6
CONTINUOUS
 62
     7
100
AcDbLine
 10
44.671978443
 20
4.5249887402
 30
0.0
 11
45.3019009794
 21
4.5249887402
 31
0.0
  0
ARC
  5
135
330
1F
100
AcDbEntity
  8
0
  6
CONTINUOUS
 62
     7
100
AcDbCircle
 10
44.6719795303
 20
4.052547928
 30
0.0
 40
0.472440944881896
100
AcDbArc
 50
90.0
 51
180.0
  0
LINE
  5
136
330
1F
100
AcDbEntity
  8
0
  6
CONTINUOUS
 62
     7
100
AcDbLine
 10
44.1995388873
 20
1.6563488923
 30
0.0
 11
44.1995388873
 21
4.0525480112
 31
0.0
  0
ARC
  5
137
330
1F
100
AcDbEntity
  8
0
  6
CONTINUOUS
 62
     7
100
AcDbCircle
 10
43.7270976405
 20
1.6563489084
 30
0.0
 40
0.4724409448818903
100
AcDbArc
 50
270.0
 51
0.0
  0
LINE
  5
138
330
1F
100
AcDbEntity
  8
0
  6
CONTINUOUS
 62
     7
100
AcDbLine
 10
42.0341819283
 20
1.1839079433
 30
0.0
 11
43.7270993316
 21
1.1839079433
 31
0.0
  0
LINE
  5
139
330
1F
100
AcDbEntity
  8
0
  6
CONTINUOUS
 62
     7
100
AcDbLine
 10
42.0341819283
 20
1.2635858162
 30
0.0
 11
42.0341819283
 21
1.1839079433
 31
0.0
  0
ARC
  5
13A
330
1F
100
AcDbEntity
  8
0
  6
CONTINUOUS
 62
     7
100
AcDbCircle
 10
42.0001027532
 20
1.4951280257
 30
0.0
 40
0.2035433070866159
100
AcDbArc
 50
287.6004667859
 51
114.8878920264
  0
ARC
  5
13B
330
1F
100
AcDbEntity
  8
0
  6
CONTINUOUS
 62
     7
100
AcDbCircle
 10
41.8978740821
 20
1.7154827666
 30
0.0
 40
0.0393700787401542
100
AcDbArc
 50
270.0
 51
294.8878920264
  0
LINE
  5
13C
330
1F
100
AcDbEntity
  8
0
  6
CONTINUOUS
 62
     7
100
AcDbLine
 10
41.897875023
 20
1.6761127307
 30
0.0
 11
41.557729619
 21
1.6761127307
 31
0.0
  0
ARC
  5
13D
330
1F
100
AcDbEntity
  8
0
  6
CONTINUOUS
 62
     7
100
AcDbCircle
 10
41.5577293692
 20
1.6367426092
 30
0.0
 40
0.039370078740159
100
AcDbArc
 50
90.0
 51
176.3380644245
  0
LINE
  5
13E
330
1F
100
AcDbEntity
  8
0
  6
CONTINUOUS
 62
     7
100
AcDbLine
 10
41.5184374863
 20
1.6392571431
 30
0.0
 11
41.5050522542
 21
1.4300496799
 31
0.0
  0
LINE
  5
13F
330
1F
100
AcDbEntity
  8
0
  6
CONTINUOUS
 62
     7
100
AcDbLine
 10
41.5050522542
 20
1.4300496799
 30
0.0
 11
41.089302817
 21
1.4300496799
 31
0.0
  0
ARC
  5
140
330
1F
100
AcDbEntity
  8
0
  6
CONTINUOUS
 62
     7
100
AcDbCircle
 10
41.0893023649
 20
1.4694197745
 30
0.0
 40
0.0393700787401574
100
AcDbArc
 50
180.0
 51
270.0
  0
LINE
  5
141
330
1F
100
AcDbEntity
  8
0
  6
CONTINUOUS
 62
     7
100
AcDbLine
 10
41.0499308985
 20
1.9320181744
 30
0.0
 11
41.0499308985
 21
1.4694198384
 31
0.0
  0
ARC
  5
142
330
1F
100
AcDbEntity
  8
0
  6
CONTINUOUS
 62
     7
100
AcDbCircle
 10
47.900325987
 20
1.2635858517
 30
0.0
 40
0.0393700787401562
100
AcDbArc
 50
0.0
 51
72.3995332141
  0
ARC
  5
143
330
1F
100
AcDbEntity
  8
0
  6
CONTINUOUS
 62
     7
100
AcDbCircle
 10
42.0735543335
 20
1.2635858517
 30
0.0
 40
0.0393700787401584
100
AcDbArc
 50
107.6004667859
 51
180.0
  0
LINE
  5
144
330
1F
100
AcDbEntity
  8
0
  6
CONTINUOUS
 62
     7
100
AcDbLine
 10
47.939697494
 20
1.1839079433
 30
0.0
 11
47.939697494
 21
1.2635858162
 31
0.0
  0
ARC
  5
145
330
1F
100
AcDbEntity
  8
0
  6
CONTINUOUS
 62
     7
100
AcDbCircle
 10
46.2467826799
 20
1.6563489084
 30
0.0
 40
0.4724409448818903
100
AcDbArc
 50
180.0
 51
270.0
  0
ARC
  5
146
330
1F
100
AcDbEntity
  8
0
  6
CONTINUOUS
 62
     7
100
AcDbCircle
 10
48.6877275618
 20
20.7766138923
 30
0.0
 40
0.236220472440948
100
AcDbArc
 50
270.0
 51
0.0
  0
LINE
  5
147
330
1F
100
AcDbEntity
  8
0
  6
CONTINUOUS
 62
     7
100
AcDbLine
 10
46.6217824787
 20
20.5403930622
 30
0.0
 11
48.6877263994
 21
20.5403930622
 31
0.0
  0
ARC
  5
148
330
1F
100
AcDbEntity
  8
0
  6
CONTINUOUS
 62
     7
100
AcDbCircle
 10
46.6217826799
 20
20.067952475
 30
0.0
 40
0.4724409448818889
100
AcDbArc
 50
90.0
 51
180.0
  0
LINE
  5
149
330
1F
100
AcDbEntity
  8
0
  6
CONTINUOUS
 62
     7
100
AcDbLine
 10
46.149342923
 20
18.1836430076
 30
0.0
 11
46.149342923
 21
20.0679535066
 31
0.0
  0
ARC
  5
14A
330
1F
100
AcDbEntity
  8
0
  6
CONTINUOUS
 62
     7
100
AcDbCircle
 10
45.774341735
 20
18.1836432191
 30
0.0
 40
0.375
100
AcDbArc
 50
300.0
 51
0.0
  0
ARC
  5
14B
330
1F
100
AcDbEntity
  8
0
  6
CONTINUOUS
 62
     7
100
AcDbCircle
 10
46.149341735
 20
17.5341241663
 30
0.0
 40
0.375
100
AcDbArc
 50
120.0
 51
180.0
  0
LINE
  5
14C
330
1F
100
AcDbEntity
  8
0
  6
CONTINUOUS
 62
     7
100
AcDbLine
 10
45.7743405351
 20
15.9645221897
 30
0.0
 11
45.7743405351
 21
17.5341236842
 31
0.0
  0
ARC
  5
14D
330
1F
100
AcDbEntity
  8
0
  6
CONTINUOUS
 62
     7
100
AcDbCircle
 10
46.149341735
 20
15.9645223074
 30
0.0
 40
0.375
100
AcDbArc
 50
180.0
 51
240.0
  0
ARC
  5
14E
330
1F
100
AcDbEntity
  8
0
  6
CONTINUOUS
 62
     7
100
AcDbCircle
 10
45.774341735
 20
15.3150032546
 30
0.0
 40
0.3749999999999964
100
AcDbArc
 50
0.0
 51
60.0
  0
LINE
  5
14F
330
1F
100
AcDbEntity
  8
0
  6
CONTINUOUS
 62
     7
100
AcDbLine
 10
46.149342923
 20
13.4306935408
 30
0.0
 11
46.149342923
 21
15.3150028664
 31
0.0
  0
ARC
  5
150
330
1F
100
AcDbEntity
  8
0
  6
CONTINUOUS
 62
     7
100
AcDbCircle
 10
46.6217826799
 20
13.4306939988
 30
0.0
 40
0.4724409448818907
100
AcDbArc
 50
180.0
 51
270.0
  0
LINE
  5
151
330
1F
100
AcDbEntity
  8
0
  6
CONTINUOUS
 62
     7
100
AcDbLine
 10
48.6877263994
 20
12.9582528118
 30
0.0
 11
46.6217824787
 21
12.9582528118
 31
0.0
  0
ARC
  5
152
330
1F
100
AcDbEntity
  8
0
  6
CONTINUOUS
 62
     7
100
AcDbCircle
 10
48.6877275618
 20
12.7220325814
 30
0.0
 40
0.2362204724409445
100
AcDbArc
 50
0.0
 51
90.0
  0
LINE
  5
153
330
1F
100
AcDbEntity
  8
0
  6
CONTINUOUS
 62
     7
100
AcDbLine
 10
48.9239485238
 20
12.2594341112
 30
0.0
 11
48.9239485238
 21
12.7220330339
 31
0.0
  0
ARC
  5
154
330
1F
100
AcDbEntity
  8
0
  6
CONTINUOUS
 62
     7
100
AcDbCircle
 10
48.8845779555
 20
12.2594341562
 30
0.0
 40
0.0393700787401627
100
AcDbArc
 50
270.0
 51
0.0
  0
LINE
  5
155
330
1F
100
AcDbEntity
  8
0
  6
CONTINUOUS
 62
     7
100
AcDbLine
 10
48.8845766053
 20
12.2200645394
 30
0.0
 11
48.4688318614
 21
12.2200645394
 31
0.0
  0
LINE
  5
156
330
1F
100
AcDbEntity
  8
0
  6
CONTINUOUS
 62
     7
100
AcDbLine
 10
48.4688318614
 20
12.2200645394
 30
0.0
 11
48.4554419361
 21
12.4292709759
 31
0.0
  0
ARC
  5
157
330
1F
100
AcDbEntity
  8
0
  6
CONTINUOUS
 62
     7
100
AcDbCircle
 10
48.4161509513
 20
12.4267569909
 30
0.0
 40
0.0393700787401574
100
AcDbArc
 50
3.6619355755
 51
90.0
  0
LINE
  5
158
330
1F
100
AcDbEntity
  8
0
  6
CONTINUOUS
 62
     7
100
AcDbLine
 10
48.4161498033
 20
12.4661272968
 30
0.0
 11
48.0760043994
 21
12.4661272968
 31
0.0
  0
ARC
  5
159
330
1F
100
AcDbEntity
  8
0
  6
CONTINUOUS
 62
     7
100
AcDbCircle
 10
48.0760062383
 20
12.5054971484
 30
0.0
 40
0.0393700787401592
100
AcDbArc
 50
245.1121079736
 51
270.0
  0
ARC
  5
15A
330
1F
100
AcDbEntity
  8
0
  6
CONTINUOUS
 62
     7
100
AcDbCircle
 10
47.9737775673
 20
12.2851424075
 30
0.0
 40
0.203543307086619
100
AcDbArc
 50
65.1121079736
 51
252.3995332141
  0
LINE
  5
15B
330
1F
100
AcDbEntity
  8
0
  6
CONTINUOUS
 62
     7
100
AcDbLine
 10
46.246784784
 20
11.9739219962
 30
0.0
 11
47.939697494
 21
11.9739219962
 31
0.0
  0
LINE
  5
15C
330
1F
100
AcDbEntity
  8
0
  6
CONTINUOUS
 62
     7
100
AcDbLine
 10
45.7743405351
 20
14.8425621374
 30
0.0
 11
45.7743405351
 21
12.4463627252
 31
0.0
  0
ARC
  5
15D
330
1F
100
AcDbEntity
  8
0
  6
CONTINUOUS
 62
     7
100
AcDbCircle
 10
45.3019007901
 20
14.8425623097
 30
0.0
 40
0.4724409448818907
100
AcDbArc
 50
0.0
 51
90.0
  0
LINE
  5
15E
330
1F
100
AcDbEntity
  8
0
  6
CONTINUOUS
 62
     7
100
AcDbLine
 10
44.671978443
 20
15.3150028664
 30
0.0
 11
45.3019009794
 21
15.3150028664
 31
0.0
  0
ARC
  5
15F
330
1F
100
AcDbEntity
  8
0
  6
CONTINUOUS
 62
     7
100
AcDbCircle
 10
44.6719795303
 20
14.8425623097
 30
0.0
 40
0.4724409448818907
100
AcDbArc
 50
90.0
 51
180.0
  0
LINE
  5
160
330
1F
100
AcDbEntity
  8
0
  6
CONTINUOUS
 62
     7
100
AcDbLine
 10
44.1995388873
 20
12.4463627252
 30
0.0
 11
44.1995388873
 21
14.8425621374
 31
0.0
  0
ARC
  5
161
330
1F
100
AcDbEntity
  8
0
  6
CONTINUOUS
 62
     7
100
AcDbCircle
 10
41.8978740821
 20
12.5054971484
 30
0.0
 40
0.0393700787401556
100
AcDbArc
 50
270.0
 51
294.8878920264
  0
LINE
  5
162
330
1F
100
AcDbEntity
  8
0
  6
CONTINUOUS
 62
     7
100
AcDbLine
 10
41.897875023
 20
12.4661272968
 30
0.0
 11
41.557729619
 21
12.4661272968
 31
0.0
  0
ARC
  5
163
330
1F
100
AcDbEntity
  8
0
  6
CONTINUOUS
 62
     7
100
AcDbCircle
 10
41.5577293692
 20
12.4267569909
 30
0.0
 40
0.039370078740159
100
AcDbArc
 50
90.0
 51
176.3380644245
  0
LINE
  5
164
330
1F
100
AcDbEntity
  8
0
  6
CONTINUOUS
 62
     7
100
AcDbLine
 10
41.5184374863
 20
12.4292709759
 30
0.0
 11
41.5050522542
 21
12.2200645394
 31
0.0
  0
LINE
  5
165
330
1F
100
AcDbEntity
  8
0
  6
CONTINUOUS
 62
     7
100
AcDbLine
 10
41.5050522542
 20
12.2200645394
 30
0.0
 11
41.089302817
 21
12.2200645394
 31
0.0
  0
ARC
  5
166
330
1F
100
AcDbEntity
  8
0
  6
CONTINUOUS
 62
     7
100
AcDbCircle
 10
41.0893023649
 20
12.2594341562
 30
0.0
 40
0.0393700787401574
100
AcDbArc
 50
180.0
 51
270.0
  0
LINE
  5
167
330
1F
100
AcDbEntity
  8
0
  6
CONTINUOUS
 62
     7
100
AcDbLine
 10
41.0499308985
 20
12.7220330339
 30
0.0
 11
41.0499308985
 21
12.2594341112
 31
0.0
  0
ARC
  5
168
330
1F
100
AcDbEntity
  8
0
  6
CONTINUOUS
 62
     7
100
AcDbCircle
 10
41.2861527586
 20
12.7220325814
 30
0.0
 40
0.2362204724409445
100
AcDbArc
 50
90.0
 51
180.0
  0
LINE
  5
169
330
1F
100
AcDbEntity
  8
0
  6
CONTINUOUS
 62
     7
100
AcDbLine
 10
43.3520969437
 20
12.9582528118
 30
0.0
 11
41.286153023
 21
12.9582528118
 31
0.0
  0
ARC
  5
16A
330
1F
100
AcDbEntity
  8
0
  6
CONTINUOUS
 62
     7
100
AcDbCircle
 10
43.3520976405
 20
13.4306939988
 30
0.0
 40
0.472440944881896
100
AcDbArc
 50
270.0
 51
0.0
  0
LINE
  5
16B
330
1F
100
AcDbEntity
  8
0
  6
CONTINUOUS
 62
     7
100
AcDbLine
 10
43.8245364994
 20
15.3150028664
 30
0.0
 11
43.8245364994
 21
13.4306935408
 31
0.0
  0
ARC
  5
16C
330
1F
100
AcDbEntity
  8
0
  6
CONTINUOUS
 62
     7
100
AcDbCircle
 10
44.1995385854
 20
15.3150032546
 30
0.0
 40
0.375
100
AcDbArc
 50
120.0
 51
180.0
  0
ARC
  5
16D
330
1F
100
AcDbEntity
  8
0
  6
CONTINUOUS
 62
     7
100
AcDbCircle
 10
43.8245385854
 20
15.9645223074
 30
0.0
 40
0.375
100
AcDbArc
 50
300.0
 51
0.0
  0
LINE
  5
16E
330
1F
100
AcDbEntity
  8
0
  6
CONTINUOUS
 62
     7
100
AcDbLine
 10
44.1995388873
 20
17.5341236842
 30
0.0
 11
44.1995388873
 21
15.9645221897
 31
0.0
  0
ARC
  5
16F
330
1F
100
AcDbEntity
  8
0
  6
CONTINUOUS
 62
     7
100
AcDbCircle
 10
43.8245385854
 20
17.5341241663
 30
0.0
 40
0.375
100
AcDbArc
 50
0.0
 51
60.0
  0
ARC
  5
170
330
1F
100
AcDbEntity
  8
0
  6
CONTINUOUS
 62
     7
100
AcDbCircle
 10
44.1995385854
 20
18.1836432191
 30
0.0
 40
0.375
100
AcDbArc
 50
180.0
 51
240.0
  0
LINE
  5
171
330
1F
100
AcDbEntity
  8
0
  6
CONTINUOUS
 62
     7
100
AcDbLine
 10
43.8245364994
 20
20.0679535066
 30
0.0
 11
43.8245364994
 21
18.1836430076
 31
0.0
  0
ARC
  5
172
330
1F
100
AcDbEntity
  8
0
  6
CONTINUOUS
 62
     7
100
AcDbCircle
 10
43.3520976405
 20
20.067952475
 30
0.0
 40
0.472440944881896
100
AcDbArc
 50
0.0
 51
90.0
  0
LINE
  5
173
330
1F
100
AcDbEntity
  8
0
  6
CONTINUOUS
 62
     7
100
AcDbLine
 10
41.286153023
 20
20.5403930622
 30
0.0
 11
43.3520969437
 21
20.5403930622
 31
0.0
  0
ARC
  5
174
330
1F
100
AcDbEntity
  8
0
  6
CONTINUOUS
 62
     7
100
AcDbCircle
 10
41.2861527586
 20
20.7766138923
 30
0.0
 40
0.2362204724409516
100
AcDbArc
 50
180.0
 51
270.0
  0
LINE
  5
175
330
1F
100
AcDbEntity
  8
0
  6
CONTINUOUS
 62
     7
100
AcDbLine
 10
41.0499308985
 20
21.2392129361
 30
0.0
 11
41.0499308985
 21
20.7766128401
 31
0.0
  0
ARC
  5
176
330
1F
100
AcDbEntity
  8
0
  6
CONTINUOUS
 62
     7
100
AcDbCircle
 10
41.0893023649
 20
21.2392123175
 30
0.0
 40
0.0393700787401592
100
AcDbArc
 50
90.0
 51
180.0
  0
LINE
  5
177
330
1F
100
AcDbEntity
  8
0
  6
CONTINUOUS
 62
     7
100
AcDbLine
 10
41.089302817
 20
21.2785825079
 30
0.0
 11
41.5050522542
 21
21.2785825079
 31
0.0
  0
LINE
  5
178
330
1F
100
AcDbEntity
  8
0
  6
CONTINUOUS
 62
     7
100
AcDbLine
 10
41.5050522542
 20
21.2785825079
 30
0.0
 11
41.5184374863
 21
21.0693748981
 31
0.0
  0
ARC
  5
179
330
1F
100
AcDbEntity
  8
0
  6
CONTINUOUS
 62
     7
100
AcDbCircle
 10
41.5577293692
 20
21.0718894828
 30
0.0
 40
0.0393700787401592
100
AcDbArc
 50
183.6619355755
 51
270.0
  0
LINE
  5
17A
330
1F
100
AcDbEntity
  8
0
  6
CONTINUOUS
 62
     7
100
AcDbLine
 10
41.557729619
 20
21.0325185772
 30
0.0
 11
41.897875023
 21
21.0325185772
 31
0.0
  0
ARC
  5
17B
330
1F
100
AcDbEntity
  8
0
  6
CONTINUOUS
 62
     7
100
AcDbCircle
 10
41.8978740821
 20
20.9931493254
 30
0.0
 40
0.0393700787401592
100
AcDbArc
 50
65.1121079736
 51
90.0
  0
ARC
  5
17C
330
1F
100
AcDbEntity
  8
0
  6
CONTINUOUS
 62
     7
100
AcDbCircle
 10
42.0001027532
 20
21.2135040663
 30
0.0
 40
0.2035433070866139
100
AcDbArc
 50
245.1121079736
 51
72.3995332141
  0
ARC
  5
17D
330
1F
100
AcDbEntity
  8
0
  6
CONTINUOUS
 62
     7
100
AcDbCircle
 10
42.0735543335
 20
21.4450462403
 30
0.0
 40
0.039370078740159
100
AcDbArc
 50
180.0
 51
252.3995332141
  0
LINE
  5
17E
330
1F
100
AcDbEntity
  8
0
  6
CONTINUOUS
 62
     7
100
AcDbLine
 10
42.0341819283
 20
21.5247238778
 30
0.0
 11
42.0341819283
 21
21.4450460783
 31
0.0
  0
LINE
  5
17F
330
1F
100
AcDbEntity
  8
0
  6
CONTINUOUS
 62
     7
100
AcDbLine
 10
43.7270993316
 20
21.5247238778
 30
0.0
 11
42.0341819283
 21
21.5247238778
 31
0.0
  0
ARC
  5
180
330
1F
100
AcDbEntity
  8
0
  6
CONTINUOUS
 62
     7
100
AcDbCircle
 10
43.7270976405
 20
21.0522831836
 30
0.0
 40
0.472440944881896
100
AcDbArc
 50
0.0
 51
90.0
  0
LINE
  5
181
330
1F
100
AcDbEntity
  8
0
  6
CONTINUOUS
 62
     7
100
AcDbLine
 10
44.1995388873
 20
18.6560837366
 30
0.0
 11
44.1995388873
 21
21.0522843222
 31
0.0
  0
ARC
  5
182
330
1F
100
AcDbEntity
  8
0
  6
CONTINUOUS
 62
     7
100
AcDbCircle
 10
44.6719795303
 20
18.656084164
 30
0.0
 40
0.4724409448818925
100
AcDbArc
 50
180.0
 51
270.0
  0
LINE
  5
183
330
1F
100
AcDbEntity
  8
0
  6
CONTINUOUS
 62
     7
100
AcDbLine
 10
45.3019009794
 20
18.1836430076
 30
0.0
 11
44.671978443
 21
18.1836430076
 31
0.0
  0
ARC
  5
184
330
1F
100
AcDbEntity
  8
0
  6
CONTINUOUS
 62
     7
100
AcDbCircle
 10
45.3019007901
 20
18.656084164
 30
0.0
 40
0.4724409448818925
100
AcDbArc
 50
270.0
 51
0.0
  0
LINE
  5
185
330
1F
100
AcDbEntity
  8
0
  6
CONTINUOUS
 62
     7
100
AcDbLine
 10
45.7743405351
 20
21.0522843222
 30
0.0
 11
45.7743405351
 21
18.6560837366
 31
0.0
  0
ARC
  5
186
330
1F
100
AcDbEntity
  8
0
  6
CONTINUOUS
 62
     7
100
AcDbCircle
 10
46.2467826799
 20
21.0522831836
 30
0.0
 40
0.4724409448818889
100
AcDbArc
 50
90.0
 51
180.0
  0
LINE
  5
187
330
1F
100
AcDbEntity
  8
0
  6
CONTINUOUS
 62
     7
100
AcDbLine
 10
47.939697494
 20
21.5247238778
 30
0.0
 11
46.246784784
 21
21.5247238778
 31
0.0
  0
LINE
  5
188
330
1F
100
AcDbEntity
  8
0
  6
CONTINUOUS
 62
     7
100
AcDbLine
 10
47.939697494
 20
21.4450460783
 30
0.0
 11
47.939697494
 21
21.5247238778
 31
0.0
  0
ARC
  5
189
330
1F
100
AcDbEntity
  8
0
  6
CONTINUOUS
 62
     7
100
AcDbCircle
 10
47.900325987
 20
21.4450462403
 30
0.0
 40
0.0393700787401569
100
AcDbArc
 50
287.6004667859
 51
0.0
  0
ARC
  5
18A
330
1F
100
AcDbEntity
  8
0
  6
CONTINUOUS
 62
     7
100
AcDbCircle
 10
47.9737775673
 20
21.2135040663
 30
0.0
 40
0.2035433070866174
100
AcDbArc
 50
107.6004667859
 51
294.8878920264
  0
ARC
  5
18B
330
1F
100
AcDbEntity
  8
0
  6
CONTINUOUS
 62
     7
100
AcDbCircle
 10
48.0760062383
 20
20.9931493254
 30
0.0
 40
0.0393700787401556
100
AcDbArc
 50
90.0
 51
114.8878920264
  0
LINE
  5
18C
330
1F
100
AcDbEntity
  8
0
  6
CONTINUOUS
 62
     7
100
AcDbLine
 10
48.0760043994
 20
21.0325185772
 30
0.0
 11
48.4161498033
 21
21.0325185772
 31
0.0
  0
ARC
  5
18D
330
1F
100
AcDbEntity
  8
0
  6
CONTINUOUS
 62
     7
100
AcDbCircle
 10
48.4161509513
 20
21.0718894828
 30
0.0
 40
0.0393700787401592
100
AcDbArc
 50
270.0
 51
356.3380644245
  0
LINE
  5
18E
330
1F
100
AcDbEntity
  8
0
  6
CONTINUOUS
 62
     7
100
AcDbLine
 10
48.4554419361
 20
21.0693748981
 30
0.0
 11
48.4688318614
 21
21.2785825079
 31
0.0
  0
LINE
  5
18F
330
1F
100
AcDbEntity
  8
0
  6
CONTINUOUS
 62
     7
100
AcDbLine
 10
48.4688318614
 20
21.2785825079
 30
0.0
 11
48.8845766053
 21
21.2785825079
 31
0.0
  0
ARC
  5
190
330
1F
100
AcDbEntity
  8
0
  6
CONTINUOUS
 62
     7
100
AcDbCircle
 10
48.8845779555
 20
21.2392123175
 30
0.0
 40
0.0393700787401592
100
AcDbArc
 50
0.0
 51
90.0
  0
LINE
  5
191
330
1F
100
AcDbEntity
  8
0
  6
CONTINUOUS
 62
     7
100
AcDbLine
 10
48.9239485238
 20
20.7766128401
 30
0.0
 11
48.9239485238
 21
21.2392129361
 31
0.0
  0
ARC
  5
192
330
1F
100
AcDbEntity
  8
0
  6
CONTINUOUS
 62
     7
100
AcDbCircle
 10
42.0735543335
 20
12.0536002334
 30
0.0
 40
0.0393700787401627
100
AcDbArc
 50
107.6004667859
 51
180.0
  0
ARC
  5
193
330
1F
100
AcDbEntity
  8
0
  6
CONTINUOUS
 62
     7
100
AcDbCircle
 10
47.900325987
 20
12.0536002334
 30
0.0
 40
0.0393700787401556
100
AcDbArc
 50
0.0
 51
72.3995332141
  0
ARC
  5
194
330
1F
100
AcDbEntity
  8
0
  6
CONTINUOUS
 62
     7
100
AcDbCircle
 10
43.7270976405
 20
12.4463632901
 30
0.0
 40
0.472440944881896
100
AcDbArc
 50
270.0
 51
0.0
  0
LINE
  5
195
330
1F
100
AcDbEntity
  8
0
  6
CONTINUOUS
 62
     7
100
AcDbLine
 10
42.0341819283
 20
11.9739219962
 30
0.0
 11
43.7270993316
 21
11.9739219962
 31
0.0
  0
ARC
  5
196
330
1F
100
AcDbEntity
  8
0
  6
CONTINUOUS
 62
     7
100
AcDbCircle
 10
42.0001027532
 20
12.2851424075
 30
0.0
 40
0.2035433070866172
100
AcDbArc
 50
287.6004667859
 51
114.8878920264
  0
LINE
  5
197
330
1F
100
AcDbEntity
  8
0
  6
CONTINUOUS
 62
     7
100
AcDbLine
 10
42.0341819283
 20
12.0535997957
 30
0.0
 11
42.0341819283
 21
11.9739219962
 31
0.0
  0
LINE
  5
198
330
1F
100
AcDbEntity
  8
0
  6
CONTINUOUS
 62
     7
100
AcDbLine
 10
47.939697494
 20
11.9739219962
 30
0.0
 11
47.939697494
 21
12.0535997957
 31
0.0
  0
ARC
  5
199
330
1F
100
AcDbEntity
  8
0
  6
CONTINUOUS
 62
     7
100
AcDbCircle
 10
46.2467826799
 20
12.4463632901
 30
0.0
 40
0.4724409448818907
100
AcDbArc
 50
180.0
 51
270.0
  0
ARC
  5
19A
330
1F
100
AcDbEntity
  8
0
  6
CONTINUOUS
 62
     7
100
AcDbCircle
 10
23.2575472209
 20
28.1034871898
 30
0.0
 40
0.203543307086615
100
AcDbArc
 50
351.0551815601
 51
19.8879068429
  0
ARC
  5
19B
330
1F
100
AcDbEntity
  8
0
  6
CONTINUOUS
 62
     7
100
AcDbCircle
 10
23.4859732399
 20
28.1861217278
 30
0.0
 40
0.0393700787401623
100
AcDbArc
 50
175.0
 51
199.8879068429
  0
LINE
  5
19C
330
1F
100
AcDbEntity
  8
0
  6
CONTINUOUS
 62
     7
100
AcDbLine
 10
23.4677363562
 20
28.4294010211
 30
0.0
 11
23.4467527052
 21
28.1895533385
 31
0.0
  0
ARC
  5
19D
330
1F
100
AcDbEntity
  8
0
  6
CONTINUOUS
 62
     7
100
AcDbCircle
 10
23.5069590818
 20
28.425970475
 30
0.0
 40
0.039371867562445
100
AcDbArc
 50
150.1122158958
 51
175.0
  0
ARC
  5
19E
330
1F
100
AcDbEntity
  8
0
  6
CONTINUOUS
 62
     7
100
AcDbCircle
 10
23.2963508941
 20
28.5470158108
 30
0.0
 40
0.2035433070866136
100
AcDbArc
 50
330.1122158958
 51
157.3995463205
  0
ARC
  5
19F
330
1F
100
AcDbEntity
  8
0
  6
CONTINUOUS
 62
     7
100
AcDbCircle
 10
23.0720915136
 20
28.6403680645
 30
0.0
 40
0.0393700787401601
100
AcDbArc
 50
265.0000629249
 51
337.3995463205
  0
LINE
  5
1A0
330
1F
100
AcDbEntity
  8
0
  6
CONTINUOUS
 62
     7
100
AcDbLine
 10
22.9100668518
 20
28.6150225568
 30
0.0
 11
23.068659793
 21
28.601146877
 31
0.0
  0
ARC
  5
1A1
330
1F
100
AcDbEntity
  8
0
  6
CONTINUOUS
 62
     7
100
AcDbCircle
 10
22.9134989999
 20
28.6542429361
 30
0.0
 40
0.0393701270016977
100
AcDbArc
 50
192.6004798922
 51
265.0000629249
  0
ARC
  5
1A2
330
1F
100
AcDbEntity
  8
0
  6
CONTINUOUS
 62
     7
100
AcDbCircle
 10
22.6764361988
 20
28.6012510372
 30
0.0
 40
0.2035432588250772
100
AcDbArc
 50
12.6004798922
 51
199.8878223834
  0
ARC
  5
1A3
330
1F
100
AcDbEntity
  8
0
  6
CONTINUOUS
 62
     7
100
AcDbCircle
 10
22.4480102142
 20
28.5186168924
 30
0.0
 40
0.0393700091412043
100
AcDbArc
 50
355.0
 51
19.8878223834
  0
LINE
  5
1A4
330
1F
100
AcDbEntity
  8
0
  6
CONTINUOUS
 62
     7
100
AcDbLine
 10
22.4662469121
 20
28.2753347475
 30
0.0
 11
22.4872305631
 21
28.5151847768
 31
0.0
  0
ARC
  5
1A5
330
1F
100
AcDbEntity
  8
0
  6
CONTINUOUS
 62
     7
100
AcDbCircle
 10
22.4270260854
 20
28.2787672029
 30
0.0
 40
0.0393700787401588
100
AcDbArc
 50
330.1121227901
 51
355.0
  0
ARC
  5
1A6
330
1F
100
AcDbEntity
  8
0
  6
CONTINUOUS
 62
     7
100
AcDbCircle
 10
22.6376325256
 20
28.1577224162
 30
0.0
 40
0.2035433070866169
100
AcDbArc
 50
150.1121227901
 51
178.9447392179
  0
LINE
  5
1A7
330
1F
100
AcDbEntity
  8
0
  6
CONTINUOUS
 62
     7
100
AcDbLine
 10
22.4341237632
 20
28.1614711029
 30
0.0
 11
15.9109984789
 21
28.7321714968
 31
0.0
  0
ARC
  5
1A8
330
1F
100
AcDbEntity
  8
0
  6
CONTINUOUS
 62
     7
100
AcDbCircle
 10
15.7099304382
 20
28.7638180949
 30
0.0
 40
0.2035433070866129
100
AcDbArc
 50
351.0551815602
 51
19.8879068429
  0
ARC
  5
1A9
330
1F
100
AcDbEntity
  8
0
  6
CONTINUOUS
 62
     7
100
AcDbCircle
 10
15.9383564572
 20
28.8464526329
 30
0.0
 40
0.0393700787401606
100
AcDbArc
 50
175.0
 51
199.8879068429
  0
LINE
  5
1AA
330
1F
100
AcDbEntity
  8
0
  6
CONTINUOUS
 62
     7
100
AcDbLine
 10
15.9201198669
 20
29.0897336595
 30
0.0
 11
15.899136216
 21
28.8498836303
 31
0.0
  0
ARC
  5
1AB
330
1F
100
AcDbEntity
  8
0
  6
CONTINUOUS
 62
     7
100
AcDbCircle
 10
15.9593422992
 20
29.0863013801
 30
0.0
 40
0.0393718675624497
100
AcDbArc
 50
150.1122158958
 51
175.0
  0
ARC
  5
1AC
330
1F
100
AcDbEntity
  8
0
  6
CONTINUOUS
 62
     7
100
AcDbCircle
 10
15.7487341115
 20
29.2073467159
 30
0.0
 40
0.203543307086617
100
AcDbArc
 50
330.1122158958
 51
157.3995463205
  0
ARC
  5
1AD
330
1F
100
AcDbEntity
  8
0
  6
CONTINUOUS
 62
     7
100
AcDbCircle
 10
15.524474731
 20
29.3006989696
 30
0.0
 40
0.0393700787401588
100
AcDbArc
 50
265.0000629249
 51
337.3995463205
  0
LINE
  5
1AE
330
1F
100
AcDbEntity
  8
0
  6
CONTINUOUS
 62
     7
100
AcDbLine
 10
15.3624503625
 20
29.2753528486
 30
0.0
 11
15.5210433037
 21
29.2614795155
 31
0.0
  0
ARC
  5
1AF
330
1F
100
AcDbEntity
  8
0
  6
CONTINUOUS
 62
     7
100
AcDbCircle
 10
15.3658822172
 20
29.3145738412
 30
0.0
 40
0.0393701270016925
100
AcDbArc
 50
192.6004798922
 51
265.0000629249
  0
ARC
  5
1B0
330
1F
100
AcDbEntity
  8
0
  6
CONTINUOUS
 62
     7
100
AcDbCircle
 10
15.1288194161
 20
29.2615819423
 30
0.0
 40
0.2035432588250782
100
AcDbArc
 50
12.6004798922
 51
199.8878223834
  0
ARC
  5
1B1
330
1F
100
AcDbEntity
  8
0
  6
CONTINUOUS
 62
     7
100
AcDbCircle
 10
14.9003934316
 20
29.1789477975
 30
0.0
 40
0.0393700091412043
100
AcDbArc
 50
355.0
 51
19.8878223834
  0
LINE
  5
1B2
330
1F
100
AcDbEntity
  8
0
  6
CONTINUOUS
 62
     7
100
AcDbLine
 10
14.9186292495
 20
28.935667386
 30
0.0
 11
14.9396140738
 21
29.1755174152
 31
0.0
  0
ARC
  5
1B3
330
1F
100
AcDbEntity
  8
0
  6
CONTINUOUS
 62
     7
100
AcDbCircle
 10
14.8794093028
 20
28.939098108
 30
0.0
 40
0.0393700787401588
100
AcDbArc
 50
330.1121227901
 51
355.0
  0
ARC
  5
1B4
330
1F
100
AcDbEntity
  8
0
  6
CONTINUOUS
 62
     7
100
AcDbCircle
 10
15.0900157429
 20
28.8180533213
 30
0.0
 40
0.203543307086616
100
AcDbArc
 50
150.1121227901
 51
178.9447392179
  0
LINE
  5
1B5
330
1F
100
AcDbEntity
  8
0
  6
CONTINUOUS
 62
     7
100
AcDbLine
 10
14.8865072739
 20
28.8218013947
 30
0.0
 11
13.3908777249
 21
28.9526523631
 31
0.0
  0
LINE
  5
1B6
330
1F
100
AcDbEntity
  8
0
  6
CONTINUOUS
 62
     7
100
AcDbLine
 10
13.3908777249
 20
29.7761421567
 30
0.0
 11
13.3908777249
 21
28.9526523631
 31
0.0
  0
ARC
  5
1B7
330
1F
100
AcDbEntity
  8
0
  6
CONTINUOUS
 62
     7
100
AcDbCircle
 10
13.6270976405
 20
29.7761431169
 30
0.0
 40
0.2362204724409445
100
AcDbArc
 50
85.0
 51
180.0
  0
LINE
  5
1B8
330
1F
100
AcDbEntity
  8
0
  6
CONTINUOUS
 62
     7
100
AcDbLine
 10
24.3051651888
 20
29.0790564495
 30
0.0
 11
13.6476857449
 21
30.0114655183
 31
0.0
  0
ARC
  5
1B9
330
1F
100
AcDbEntity
  8
0
  6
CONTINUOUS
 62
     7
100
AcDbCircle
 10
24.2845779555
 20
28.8437344076
 30
0.0
 40
0.2362204724409445
100
AcDbArc
 50
360.0
 51
85.0
  0
LINE
  5
1BA
330
1F
100
AcDbEntity
  8
0
  6
CONTINUOUS
 62
     7
100
AcDbLine
 10
24.5207978978
 20
27.9789095852
 30
0.0
 11
24.5207978978
 21
28.8437354346
 31
0.0
  0
LINE
  5
1BB
330
1F
100
AcDbEntity
  8
0
  6
CONTINUOUS
 62
     7
100
AcDbLine
 10
24.5207978978
 20
27.9789095852
 30
0.0
 11
23.4586149682
 21
28.0718388583
 31
0.0
  0
ARC
  5
1BC
330
1F
100
AcDbEntity
  8
0
  6
CONTINUOUS
 62
     7
100
AcDbCircle
 10
15.0900157147
 20
2.4563693966
 30
0.0
 40
0.2035432588250814
100
AcDbArc
 50
181.0551806233
 51
209.8878223834
  0
ARC
  5
1BD
330
1F
100
AcDbEntity
  8
0
  6
CONTINUOUS
 62
     7
100
AcDbCircle
 10
14.8794093028
 20
2.3353248942
 30
0.0
 40
0.0393700091412033
100
AcDbArc
 50
5.0
 51
29.8878223834
  0
LINE
  5
1BE
330
1F
100
AcDbEntity
  8
0
  6
CONTINUOUS
 62
     7
100
AcDbLine
 10
14.9396140738
 20
2.0989064865
 30
0.0
 11
14.9186292495
 21
2.3387562224
 31
0.0
  0
ARC
  5
1BF
330
1F
100
AcDbEntity
  8
0
  6
CONTINUOUS
 62
     7
100
AcDbCircle
 10
14.9003934316
 20
2.0954752046
 30
0.0
 40
0.0393700787401588
100
AcDbArc
 50
340.1121227901
 51
5.0
  0
ARC
  5
1C0
330
1F
100
AcDbEntity
  8
0
  6
CONTINUOUS
 62
     7
100
AcDbCircle
 10
15.1288194933
 20
2.0128407848
 30
0.0
 40
0.2035433070866165
100
AcDbArc
 50
160.1121227901
 51
347.3995463205
  0
ARC
  5
1C1
330
1F
100
AcDbEntity
  8
0
  6
CONTINUOUS
 62
     7
100
AcDbCircle
 10
15.3658823186
 20
1.9598489943
 30
0.0
 40
0.0393700787401554
100
AcDbArc
 50
95.0000629249
 51
167.3995463205
  0
LINE
  5
1C2
330
1F
100
AcDbEntity
  8
0
  6
CONTINUOUS
 62
     7
100
AcDbLine
 10
15.5210433037
 20
2.0129445329
 30
0.0
 11
15.3624503625
 21
1.9990692932
 31
0.0
  0
ARC
  5
1C3
330
1F
100
AcDbEntity
  8
0
  6
CONTINUOUS
 62
     7
100
AcDbCircle
 10
15.5244748019
 20
1.9737242142
 30
0.0
 40
0.0393700787401561
100
AcDbArc
 50
22.6004798922
 51
95.0000629249
  0
ARC
  5
1C4
330
1F
100
AcDbEntity
  8
0
  6
CONTINUOUS
 62
     7
100
AcDbCircle
 10
15.7487341397
 20
2.0670765705
 30
0.0
 40
0.2035433070866179
100
AcDbArc
 50
202.6004798922
 51
29.8879068429
  0
ARC
  5
1C5
330
1F
100
AcDbEntity
  8
0
  6
CONTINUOUS
 62
     7
100
AcDbCircle
 10
15.9593405172
 20
2.1881214662
 30
0.0
 40
0.0393700787401588
100
AcDbArc
 50
185.0
 51
209.8879068429
  0
LINE
  5
1C6
330
1F
100
AcDbEntity
  8
0
  6
CONTINUOUS
 62
     7
100
AcDbLine
 10
15.899136216
 20
2.4245390981
 30
0.0
 11
15.9201198669
 21
2.1846900955
 31
0.0
  0
ARC
  5
1C7
330
1F
100
AcDbEntity
  8
0
  6
CONTINUOUS
 62
     7
100
AcDbCircle
 10
15.9383582392
 20
2.4279705251
 30
0.0
 40
0.0393718675624516
100
AcDbArc
 50
160.1122158958
 51
185.0
  0
ARC
  5
1C8
330
1F
100
AcDbEntity
  8
0
  6
CONTINUOUS
 62
     7
100
AcDbCircle
 10
15.7099303611
 20
2.5106051823
 30
0.0
 40
0.2035433070866165
100
AcDbArc
 50
340.1122158958
 51
8.9447392179
  0
LINE
  5
1C9
330
1F
100
AcDbEntity
  8
0
  6
CONTINUOUS
 62
     7
100
AcDbLine
 10
15.9109984789
 20
2.542252405
 30
0.0
 11
22.4341237632
 21
3.1129520655
 31
0.0
  0
ARC
  5
1CA
330
1F
100
AcDbEntity
  8
0
  6
CONTINUOUS
 62
     7
100
AcDbCircle
 10
22.6376324974
 20
3.1167003017
 30
0.0
 40
0.2035432588250793
100
AcDbArc
 50
181.0551806233
 51
209.8878223834
  0
ARC
  5
1CB
330
1F
100
AcDbEntity
  8
0
  6
CONTINUOUS
 62
     7
100
AcDbCircle
 10
22.4270260854
 20
2.9956557993
 30
0.0
 40
0.0393700091412044
100
AcDbArc
 50
5.0
 51
29.8878223834
  0
LINE
  5
1CC
330
1F
100
AcDbEntity
  8
0
  6
CONTINUOUS
 62
     7
100
AcDbLine
 10
22.4872305631
 20
2.7592375117
 30
0.0
 11
22.4662469121
 21
2.9990872476
 31
0.0
  0
ARC
  5
1CD
330
1F
100
AcDbEntity
  8
0
  6
CONTINUOUS
 62
     7
100
AcDbCircle
 10
22.4480102142
 20
2.7558061098
 30
0.0
 40
0.039370078740157
100
AcDbArc
 50
340.1121227901
 51
5.0
  0
ARC
  5
1CE
330
1F
100
AcDbEntity
  8
0
  6
CONTINUOUS
 62
     7
100
AcDbCircle
 10
22.6764362759
 20
2.6731716899
 30
0.0
 40
0.2035433070866167
100
AcDbArc
 50
160.1121227901
 51
347.3995463205
  0
ARC
  5
1CF
330
1F
100
AcDbEntity
  8
0
  6
CONTINUOUS
 62
     7
100
AcDbCircle
 10
22.9134991013
 20
2.6201798994
 30
0.0
 40
0.0393700787401552
100
AcDbArc
 50
95.0000629249
 51
167.3995463205
  0
LINE
  5
1D0
330
1F
100
AcDbEntity
  8
0
  6
CONTINUOUS
 62
     7
100
AcDbLine
 10
23.068659793
 20
2.6732754114
 30
0.0
 11
22.9100668518
 21
2.659400025
 31
0.0
  0
ARC
  5
1D1
330
1F
100
AcDbEntity
  8
0
  6
CONTINUOUS
 62
     7
100
AcDbCircle
 10
23.0720915845
 20
2.6340551193
 30
0.0
 40
0.0393700787401578
100
AcDbArc
 50
22.6004798922
 51
95.0000629249
  0
ARC
  5
1D2
330
1F
100
AcDbEntity
  8
0
  6
CONTINUOUS
 62
     7
100
AcDbCircle
 10
23.2963509223
 20
2.7274074756
 30
0.0
 40
0.2035433070866152
100
AcDbArc
 50
202.6004798922
 51
29.8879068429
  0
ARC
  5
1D3
330
1F
100
AcDbEntity
  8
0
  6
CONTINUOUS
 62
     7
100
AcDbCircle
 10
23.5069572998
 20
2.8484523713
 30
0.0
 40
0.0393700787401588
100
AcDbArc
 50
185.0
 51
209.8879068429
  0
LINE
  5
1D4
330
1F
100
AcDbEntity
  8
0
  6
CONTINUOUS
 62
     7
100
AcDbLine
 10
23.4467527052
 20
3.0848698299
 30
0.0
 11
23.4677363562
 21
2.845020974
 31
0.0
  0
ARC
  5
1D5
330
1F
100
AcDbEntity
  8
0
  6
CONTINUOUS
 62
     7
100
AcDbCircle
 10
23.4859750219
 20
3.0883014302
 30
0.0
 40
0.0393718675624462
100
AcDbArc
 50
160.1122158958
 51
185.0
  0
ARC
  5
1D6
330
1F
100
AcDbEntity
  8
0
  6
CONTINUOUS
 62
     7
100
AcDbCircle
 10
23.2575471437
 20
3.1709360874
 30
0.0
 40
0.2035433070866144
100
AcDbArc
 50
340.1122158958
 51
8.9447392179
  0
LINE
  5
1D7
330
1F
100
AcDbEntity
  8
0
  6
CONTINUOUS
 62
     7
100
AcDbLine
 10
23.4586149682
 20
3.2025834301
 30
0.0
 11
24.5207978978
 21
3.2955124099
 31
0.0
  0
LINE
  5
1D8
330
1F
100
AcDbEntity
  8
0
  6
CONTINUOUS
 62
     7
100
AcDbLine
 10
24.5207978978
 20
2.4306886137
 30
0.0
 11
24.5207978978
 21
3.2955124099
 31
0.0
  0
ARC
  5
1D9
330
1F
100
AcDbEntity
  8
0
  6
CONTINUOUS
 62
     7
100
AcDbCircle
 10
24.2845779555
 20
2.4306885946
 30
0.0
 40
0.236220472440948
100
AcDbArc
 50
275.0
 51
0.0
  0
LINE
  5
1DA
330
1F
100
AcDbEntity
  8
0
  6
CONTINUOUS
 62
     7
100
AcDbLine
 10
13.6476857449
 20
1.2629583101
 30
0.0
 11
24.3051651888
 21
2.1953670122
 31
0.0
  0
ARC
  5
1DB
330
1F
100
AcDbEntity
  8
0
  6
CONTINUOUS
 62
     7
100
AcDbCircle
 10
13.6270976405
 20
1.4982798853
 30
0.0
 40
0.2362204724409473
100
AcDbArc
 50
180.0
 51
275.0
  0
LINE
  5
1DC
330
1F
100
AcDbEntity
  8
0
  6
CONTINUOUS
 62
     7
100
AcDbLine
 10
13.3908777249
 20
2.3217703653
 30
0.0
 11
13.3908777249
 21
1.4982798383
 31
0.0
  0
LINE
  5
1DD
330
1F
100
AcDbEntity
  8
0
  6
CONTINUOUS
 62
     7
100
AcDbLine
 10
13.3908777249
 20
2.3217703653
 30
0.0
 11
14.8865072739
 21
2.4526210404
 31
0.0
  0
LINE
  5
1DE
330
1F
100
AcDbEntity
  8
0
  6
CONTINUOUS
 62
     7
100
AcDbLine
 10
24.5207978978
 20
26.1087974289
 30
0.0
 11
24.5207978978
 21
27.4501272137
 31
0.0
  0
ARC
  5
1DF
330
1F
100
AcDbEntity
  8
0
  6
CONTINUOUS
 62
     7
100
AcDbCircle
 10
24.2845779555
 20
26.1087968025
 30
0.0
 40
0.2362204724409449
100
AcDbArc
 50
280.0
 51
360.0
  0
LINE
  5
1E0
330
1F
100
AcDbEntity
  8
0
  6
CONTINUOUS
 62
     7
100
AcDbLine
 10
24.3255973794
 20
25.8761656629
 30
0.0
 11
23.9285975923
 21
25.8061630583
 31
0.0
  0
ARC
  5
1E1
330
1F
100
AcDbEntity
  8
0
  6
CONTINUOUS
 62
     7
100
AcDbCircle
 10
23.9696173256
 20
25.5735316376
 30
0.0
 40
0.2362204724409449
100
AcDbArc
 50
100.0
 51
180.0
  0
LINE
  5
1E2
330
1F
100
AcDbEntity
  8
0
  6
CONTINUOUS
 62
     7
100
AcDbLine
 10
23.7333970739
 20
25.5735312923
 30
0.0
 11
23.7333970739
 21
5.7008915828
 31
0.0
  0
ARC
  5
1E3
330
1F
100
AcDbEntity
  8
0
  6
CONTINUOUS
 62
     7
100
AcDbCircle
 10
23.9696173256
 20
5.7008913645
 30
0.0
 40
0.2362204724409458
100
AcDbArc
 50
180.0
 51
260.0
  0
LINE
  5
1E4
330
1F
100
AcDbEntity
  8
0
  6
CONTINUOUS
 62
     7
100
AcDbLine
 10
23.9285975923
 20
5.4682598168
 30
0.0
 11
24.3255973794
 21
5.3982577988
 31
0.0
  0
ARC
  5
1E5
330
1F
100
AcDbEntity
  8
0
  6
CONTINUOUS
 62
     7
100
AcDbCircle
 10
24.2845779555
 20
5.1656261997
 30
0.0
 40
0.236220472440947
100
AcDbArc
 50
0.0
 51
80.0
  0
LINE
  5
1E6
330
1F
100
AcDbEntity
  8
0
  6
CONTINUOUS
 62
     7
100
AcDbLine
 10
24.5207978978
 20
3.824296248
 30
0.0
 11
24.5207978978
 21
5.1656260329
 31
0.0
  0
LINE
  5
1E7
330
1F
100
AcDbEntity
  8
0
  6
CONTINUOUS
 62
     7
100
AcDbLine
 10
24.5207978978
 20
3.824296248
 30
0.0
 11
22.94599625
 21
3.6865188796
 31
0.0
  0
LINE
  5
1E8
330
1F
100
AcDbEntity
  8
0
  6
CONTINUOUS
 62
     7
100
AcDbLine
 10
22.94599625
 20
3.6865188796
 30
0.0
 11
22.94599625
 21
27.5879031155
 31
0.0
  0
LINE
  5
1E9
330
1F
100
AcDbEntity
  8
0
  6
CONTINUOUS
 62
     7
100
AcDbLine
 10
22.94599625
 20
27.5879031155
 30
0.0
 11
24.5207978978
 21
27.4501272137
 31
0.0
  0
LINE
  5
1EA
330
1F
100
AcDbEntity
  8
0
  6
CONTINUOUS
 62
     7
100
AcDbLine
 10
13.3908777249
 20
28.423867645
 30
0.0
 11
13.3908777249
 21
2.8505543501
 31
0.0
  0
LINE
  5
1EB
330
1F
100
AcDbEntity
  8
0
  6
CONTINUOUS
 62
     7
100
AcDbLine
 10
13.3908777249
 20
28.423867645
 30
0.0
 11
22.4326101807
 21
27.6328201432
 31
0.0
  0
LINE
  5
1EC
330
1F
100
AcDbEntity
  8
0
  6
CONTINUOUS
 62
     7
100
AcDbLine
 10
22.4326101807
 20
27.6328201432
 30
0.0
 11
22.4326101807
 21
3.6416033185
 31
0.0
  0
LINE
  5
1ED
330
1F
100
AcDbEntity
  8
0
  6
CONTINUOUS
 62
     7
100
AcDbLine
 10
22.4326101807
 20
3.6416033185
 30
0.0
 11
13.3908777249
 21
2.8505543501
 31
0.0
  0
ARC
  5
1EE
330
1F
100
AcDbEntity
  8
0
  6
CONTINUOUS
 62
     7
100
AcDbCircle
 10
23.0204843184
 20
3.2239278779
 30
0.0
 40
0.0393700787401546
100
AcDbArc
 50
275.0000629249
 51
347.3995463205
  0
LINE
  5
1EF
330
1F
100
AcDbEntity
  8
0
  6
CONTINUOUS
 62
     7
100
AcDbLine
 10
23.0239164166
 20
3.1847076099
 30
0.0
 11
22.8653234753
 21
3.1708325169
 31
0.0
  0
ARC
  5
1F0
330
1F
100
AcDbEntity
  8
0
  6
CONTINUOUS
 62
     7
100
AcDbCircle
 10
22.8618918351
 20
3.210052658
 30
0.0
 40
0.0393700787401578
100
AcDbArc
 50
202.6004798922
 51
275.0000629249
  0
ARC
  5
1F1
330
1F
100
AcDbEntity
  8
0
  6
CONTINUOUS
 62
     7
100
AcDbCircle
 10
15.4728675358
 20
2.5635969728
 30
0.0
 40
0.0393700787401571
100
AcDbArc
 50
275.0000629249
 51
347.3995463205
  0
LINE
  5
1F2
330
1F
100
AcDbEntity
  8
0
  6
CONTINUOUS
 62
     7
100
AcDbLine
 10
15.4762987539
 20
2.5243767315
 30
0.0
 11
15.317706986
 21
2.5105014917
 31
0.0
  0
ARC
  5
1F3
330
1F
100
AcDbEntity
  8
0
  6
CONTINUOUS
 62
     7
100
AcDbCircle
 10
15.3142750525
 20
2.5497217529
 30
0.0
 40
0.0393700787401593
100
AcDbArc
 50
202.6004798922
 51
275.0000629249
  0
ARC
  5
1F4
330
1F
100
AcDbEntity
  8
0
  6
CONTINUOUS
 62
     7
100
AcDbCircle
 10
15.3142751234
 20
28.7247010676
 30
0.0
 40
0.039370078740162
100
AcDbArc
 50
85.0000629249
 51
157.3995463205
  0
LINE
  5
1F5
330
1F
100
AcDbEntity
  8
0
  6
CONTINUOUS
 62
     7
100
AcDbLine
 10
15.317706986
 20
28.76392153
 30
0.0
 11
15.4762987539
 21
28.7500458503
 31
0.0
  0
ARC
  5
1F6
330
1F
100
AcDbEntity
  8
0
  6
CONTINUOUS
 62
     7
100
AcDbCircle
 10
15.4728676372
 20
28.710826196
 30
0.0
 40
0.0393700787401601
100
AcDbArc
 50
12.6004798922
 51
85.0000629249
  0
ARC
  5
1F7
330
1F
100
AcDbEntity
  8
0
  6
CONTINUOUS
 62
     7
100
AcDbCircle
 10
22.8618919061
 20
28.0643701624
 30
0.0
 40
0.0393700787401601
100
AcDbArc
 50
85.0000629249
 51
157.3995463205
  0
LINE
  5
1F8
330
1F
100
AcDbEntity
  8
0
  6
CONTINUOUS
 62
     7
100
AcDbLine
 10
22.8653234753
 20
28.1035912382
 30
0.0
 11
23.0239164166
 21
28.0897155585
 31
0.0
  0
ARC
  5
1F9
330
1F
100
AcDbEntity
  8
0
  6
CONTINUOUS
 62
     7
100
AcDbCircle
 10
23.0204844198
 20
28.0504952909
 30
0.0
 40
0.0393700787401618
100
AcDbArc
 50
12.6004798922
 51
85.0000629249
  0
LINE
  5
1FA
330
1F
100
AcDbEntity
  8
0
  6
CONTINUOUS
 62
     7
100
AcDbLine
 10
13.3908777249
 20
28.423867645
 30
0.0
 11
13.3908777249
 21
28.9526523631
 31
0.0
  0
LINE
  5
1FB
330
1F
100
AcDbEntity
  8
0
  6
CONTINUOUS
 62
     7
100
AcDbLine
 10
13.3908777249
 20
2.3217703653
 30
0.0
 11
13.3908777249
 21
2.8505543501
 31
0.0
  0
ARC
  5
1FC
330
1F
100
AcDbEntity
  8
0
  6
CONTINUOUS
 62
     7
100
AcDbCircle
 10
22.6376324974
 20
3.1167003017
 30
0.0
 40
0.2035433070866152
100
AcDbArc
 50
22.6004798922
 51
181.0551806233
  0
ARC
  5
1FD
330
1F
100
AcDbEntity
  8
0
  6
CONTINUOUS
 62
     7
100
AcDbCircle
 10
22.6376325256
 20
28.1577224162
 30
0.0
 40
0.2035433070866136
100
AcDbArc
 50
178.9447392179
 51
337.3995463205
  0
ARC
  5
1FE
330
1F
100
AcDbEntity
  8
0
  6
CONTINUOUS
 62
     7
100
AcDbCircle
 10
23.2575471437
 20
3.1709360874
 30
0.0
 40
0.2035433070866202
100
AcDbArc
 50
8.9447392179
 51
167.3995463205
  0
ARC
  5
1FF
330
1F
100
AcDbEntity
  8
0
  6
CONTINUOUS
 62
     7
100
AcDbCircle
 10
23.2575472209
 20
28.1034871898
 30
0.0
 40
0.2035433070866127
100
AcDbArc
 50
192.6004798922
 51
351.0551815601
  0
LINE
  5
200
330
1F
100
AcDbEntity
  8
0
  6
CONTINUOUS
 62
     7
100
AcDbLine
 10
24.5207978978
 20
3.824296248
 30
0.0
 11
24.5207978978
 21
3.2955124099
 31
0.0
  0
LINE
  5
201
330
1F
100
AcDbEntity
  8
0
  6
CONTINUOUS
 62
     7
100
AcDbLine
 10
24.5207978978
 20
27.9789095852
 30
0.0
 11
24.5207978978
 21
27.4501272137
 31
0.0
  0
ARC
  5
202
330
1F
100
AcDbEntity
  8
0
  6
CONTINUOUS
 62
     7
100
AcDbCircle
 10
15.7099303611
 20
2.5106051823
 30
0.0
 40
0.2035433070866169
100
AcDbArc
 50
8.9447392179
 51
167.3995463205
  0
ARC
  5
203
330
1F
100
AcDbEntity
  8
0
  6
CONTINUOUS
 62
     7
100
AcDbCircle
 10
15.7099304382
 20
28.7638180949
 30
0.0
 40
0.203543307086617
100
AcDbArc
 50
192.6004798922
 51
351.0551815602
  0
ARC
  5
204
330
1F
100
AcDbEntity
  8
0
  6
CONTINUOUS
 62
     7
100
AcDbCircle
 10
15.0900157147
 20
2.4563693966
 30
0.0
 40
0.2035433070866142
100
AcDbArc
 50
22.6004798922
 51
181.0551806233
  0
ARC
  5
205
330
1F
100
AcDbEntity
  8
0
  6
CONTINUOUS
 62
     7
100
AcDbCircle
 10
15.0900157429
 20
28.8180533213
 30
0.0
 40
0.203543307086616
100
AcDbArc
 50
178.9447392179
 51
337.3995463205
  0
LINE
  5
206
330
1F
100
AcDbEntity
  8
0
  6
CONTINUOUS
 62
     7
100
AcDbLine
 10
39.8105626025
 20
13.5519690464
 30
0.0
 11
39.8105626025
 21
15.08904377
 31
0.0
  0
LINE
  5
207
330
1F
100
AcDbEntity
  8
0
  6
CONTINUOUS
 62
     7
100
AcDbLine
 10
33.4050508928
 20
15.08904377
 30
0.0
 11
33.4050508928
 21
13.5519690464
 31
0.0
  0
LINE
  5
208
330
1F
100
AcDbEntity
  8
0
  6
CONTINUOUS
 62
     7
100
AcDbLine
 10
33.4050508928
 20
15.08904377
 30
0.0
 11
39.8105626025
 21
15.08904377
 31
0.0
  0
LINE
  5
209
330
1F
100
AcDbEntity
  8
0
  6
CONTINUOUS
 62
     7
100
AcDbLine
 10
33.4050508928
 20
13.5519690464
 30
0.0
 11
39.8105626025
 21
13.5519690464
 31
0.0
  0
LINE
  5
20A
330
1F
100
AcDbEntity
  8
0
  6
CONTINUOUS
 62
     7
100
AcDbLine
 10
39.8105626025
 20
24.6806607535
 30
0.0
 11
33.4050508928
 21
24.6806607535
 31
0.0
  0
LINE
  5
20B
330
1F
100
AcDbEntity
  8
0
  6
CONTINUOUS
 62
     7
100
AcDbLine
 10
39.8105626025
 20
15.5976462146
 30
0.0
 11
33.4050508928
 21
15.5976462146
 31
0.0
  0
LINE
  5
20C
330
1F
100
AcDbEntity
  8
0
  6
CONTINUOUS
 62
     7
100
AcDbLine
 10
33.4050508928
 20
24.6806607535
 30
0.0
 11
33.4050508928
 21
15.5976462146
 31
0.0
  0
LINE
  5
20D
330
1F
100
AcDbEntity
  8
0
  6
CONTINUOUS
 62
     7
100
AcDbLine
 10
39.8105626025
 20
15.5976462146
 30
0.0
 11
39.8105626025
 21
24.6806607535
 31
0.0
  0
LINE
  5
20E
330
1F
100
AcDbEntity
  8
0
  6
CONTINUOUS
 62
     7
100
AcDbLine
 10
33.4050508928
 20
15.08904377
 30
0.0
 11
33.4050508928
 21
15.5976462146
 31
0.0
  0
LINE
  5
20F
330
1F
100
AcDbEntity
  8
0
  6
CONTINUOUS
 62
     7
100
AcDbLine
 10
39.8105626025
 20
15.5976462146
 30
0.0
 11
39.8105626025
 21
15.08904377
 31
0.0
  0
LINE
  5
210
330
1F
100
AcDbEntity
  8
POCKETS
100
AcDbLine
 10
40.2042629949
 20
3.2295851057
 30
0.0
 11
33.011349609
 21
3.2295851057
 31
0.0
  0
LINE
  5
211
330
1F
100
AcDbEntity
  8
POCKETS
100
AcDbLine
 10
33.011349609
 20
3.2295851057
 30
0.0
 11
33.011349609
 21
2.7209822735
 31
0.0
  0
LINE
  5
212
330
1F
100
AcDbEntity
  8
POCKETS
100
AcDbLine
 10
33.011349609
 20
2.7209822735
 30
0.0
 11
40.2042629949
 21
2.7209822735
 31
0.0
  0
LINE
  5
213
330
1F
100
AcDbEntity
  8
PROFILES_OUTSIDE
100
AcDbLine
 10
12.1515070894
 20
26.1087968025
 30
0.0
 11
12.1515070894
 21
29.0601905904
 31
0.0
  0
LINE
  5
214
330
1F
100
AcDbEntity
  8
PROFILES_OUTSIDE
100
AcDbLine
 10
12.1515070894
 20
29.0601905904
 30
0.0
 11
1.0215858295
 21
30.0339325266
 31
0.0
  0
LINE
  5
215
330
1F
100
AcDbEntity
  8
PROFILES_OUTSIDE
100
AcDbLine
 10
1.0215858295
 20
30.0339325266
 30
0.0
 11
1.0215858295
 21
1.2404904756
 31
0.0
  0
LINE
  5
216
330
1F
100
AcDbEntity
  8
PROFILES_OUTSIDE
100
AcDbLine
 10
1.0215858295
 20
1.2404904756
 30
0.0
 11
12.1515070894
 21
2.2142324117
 31
0.0
  0
LINE
  5
217
330
1F
100
AcDbEntity
  8
POCKETS
100
AcDbLine
 10
40.2042629949
 20
2.7209822735
 30
0.0
 11
40.2042629949
 21
3.2295851057
 31
0.0
  0
LINE
  5
218
330
1F
100
AcDbEntity
  8
PROFILES_OUTSIDE
100
AcDbLine
 10
12.1515070894
 20
2.2142324117
 30
0.0
 11
12.1515070894
 21
5.1656261997
 31
0.0
  0
LINE
  5
219
330
1F
100
AcDbEntity
  8
PROFILES_OUTSIDE
100
AcDbLine
 10
11.9563058715
 20
5.3982579523
 30
0.0
 11
11.5593067324
 21
5.4682596119
 31
0.0
  0
LINE
  5
21A
330
1F
100
AcDbEntity
  8
PROFILES_OUTSIDE
100
AcDbLine
 10
11.3641055146
 20
5.7008913645
 30
0.0
 11
11.3641055146
 21
25.5735316376
 31
0.0
  0
LINE
  5
21B
330
1F
100
AcDbEntity
  8
PROFILES_OUTSIDE
100
AcDbLine
 10
11.5593067324
 20
25.8061633903
 30
0.0
 11
11.9563058715
 21
25.8761650498
 31
0.0
  0
LINE
  5
21C
330
1F
100
AcDbEntity
  8
PROFILES_INSIDE
100
AcDbLine
 10
11.0774616376
 20
28.1895530563
 30
0.0
 11
11.0984456975
 21
28.4294019593
 31
0.0
  0
LINE
  5
21D
330
1F
100
AcDbEntity
  8
PROFILES_INSIDE
100
AcDbLine
 10
10.4960318529
 20
28.1035904299
 30
0.0
 11
10.6546243666
 21
28.0897155583
 31
0.0
  0
LINE
  5
21E
330
1F
100
AcDbEntity
  8
PROFILES_INSIDE
100
AcDbLine
 10
10.11793907
 20
28.51518557
 30
0.0
 11
10.0969550106
 21
28.2753358744
 31
0.0
  0
LINE
  5
21F
330
1F
100
AcDbEntity
  8
PROFILES_INSIDE
100
AcDbLine
 10
10.6993688896
 20
28.6011477971
 30
0.0
 11
10.5407763701
 21
28.6150226025
 31
0.0
  0
LINE
  5
220
330
1F
100
AcDbEntity
  8
PROFILES_OUTSIDE
100
AcDbLine
 10
32.1656803177
 20
1.1839079635
 30
0.0
 11
32.1656803177
 21
25.699655995
 31
0.0
  0
LINE
  5
221
330
1F
100
AcDbEntity
  8
PROFILES_OUTSIDE
100
AcDbLine
 10
32.1656803177
 20
25.699655995
 30
0.0
 11
25.7601685067
 21
25.699655995
 31
0.0
  0
LINE
  5
222
330
1F
100
AcDbEntity
  8
PROFILES_OUTSIDE
100
AcDbLine
 10
25.7601685067
 20
25.699655995
 30
0.0
 11
25.7601685067
 21
1.1839079635
 31
0.0
  0
LINE
  5
223
330
1F
100
AcDbEntity
  8
PROFILES_OUTSIDE
100
AcDbLine
 10
25.7601685067
 20
1.1839079635
 30
0.0
 11
32.1656803177
 21
1.1839079635
 31
0.0
  0
LINE
  5
224
330
1F
100
AcDbEntity
  8
PROFILES_OUTSIDE
100
AcDbLine
 10
39.8105622075
 20
12.3125993827
 30
0.0
 11
33.4050503964
 21
12.3125993827
 31
0.0
  0
LINE
  5
225
330
1F
100
AcDbEntity
  8
PROFILES_OUTSIDE
100
AcDbLine
 10
33.4050503964
 20
12.3125993827
 30
0.0
 11
33.4050503964
 21
1.1839079635
 31
0.0
  0
LINE
  5
226
330
1F
100
AcDbEntity
  8
PROFILES_OUTSIDE
100
AcDbLine
 10
33.4050503964
 20
1.1839079635
 30
0.0
 11
39.8105622075
 21
1.1839079635
 31
0.0
  0
LINE
  5
227
330
1F
100
AcDbEntity
  8
PROFILES_OUTSIDE
100
AcDbLine
 10
39.8105622075
 20
1.1839079635
 30
0.0
 11
39.8105622075
 21
12.3125993827
 31
0.0
  0
LINE
  5
228
330
1F
100
AcDbEntity
  8
PROFILES_OUTSIDE
100
AcDbLine
 10
33.4050503964
 20
24.6806608806
 30
0.0
 11
33.4050503964
 21
13.5519694614
 31
0.0
  0
LINE
  5
229
330
1F
100
AcDbEntity
  8
PROFILES_OUTSIDE
100
AcDbLine
 10
33.4050503964
 20
13.5519694614
 30
0.0
 11
39.8105622075
 21
13.5519694614
 31
0.0
  0
LINE
  5
22A
330
1F
100
AcDbEntity
  8
BOX_STOCK
100
AcDbLine
 10
0.0082000027
 20
0.1705221367
 30
0.0
 11
96.0711921287
 21
0.1705221367
 31
0.0
  0
LINE
  5
22B
330
1F
100
AcDbEntity
  8
BOX_STOCK
100
AcDbLine
 10
96.0711921287
 20
0.1705221367
 30
0.0
 11
96.0711921287
 21
48.2020181997
 31
0.0
  0
LINE
  5
22C
330
1F
100
AcDbEntity
  8
BOX_STOCK
100
AcDbLine
 10
96.0711921287
 20
48.2020181997
 30
0.0
 11
0.0082000027
 21
48.2020181997
 31
0.0
  0
LINE
  5
22D
330
1F
100
AcDbEntity
  8
BOX_STOCK
100
AcDbLine
 10
0.0082000027
 20
48.2020181997
 30
0.0
 11
0.0082000027
 21
0.1705221367
 31
0.0
  0
LINE
  5
22E
330
1F
100
AcDbEntity
  8
POCKETS
100
AcDbLine
 10
40.2042629949
 20
15.5976466036
 30
0.0
 11
33.011349609
 21
15.5976466036
 31
0.0
  0
LINE
  5
22F
330
1F
100
AcDbEntity
  8
PROFILES_OUTSIDE
100
AcDbLine
 10
39.8105622075
 20
13.5519694614
 30
0.0
 11
39.8105622075
 21
24.6806608806
 31
0.0
  0
LINE
  5
230
330
1F
100
AcDbEntity
  8
POCKETS
100
AcDbLine
 10
33.011349609
 20
15.5976466036
 30
0.0
 11
33.011349609
 21
15.0890437714
 31
0.0
  0
LINE
  5
231
330
1F
100
AcDbEntity
  8
POCKETS
100
AcDbLine
 10
33.011349609
 20
15.0890437714
 30
0.0
 11
40.2042629949
 21
15.0890437714
 31
0.0
  0
LINE
  5
232
330
1F
100
AcDbEntity
  8
POCKETS
100
AcDbLine
 10
40.2042629949
 20
15.0890437714
 30
0.0
 11
40.2042629949
 21
15.5976466036
 31
0.0
  0
LINE
  5
233
330
1F
100
AcDbEntity
  8
PROFILES_OUTSIDE
100
AcDbLine
 10
39.8105622075
 20
24.6806608806
 30
0.0
 11
33.4050503964
 21
24.6806608806
 31
0.0
  0
LINE
  5
234
330
1F
100
AcDbEntity
  8
PROFILES_INSIDE
100
AcDbLine
 10
3.5241736048
 20
28.8503801315
 30
0.0
 11
3.5451576648
 21
29.0902290345
 31
0.0
  0
LINE
  5
235
330
1F
100
AcDbEntity
  8
PROFILES_INSIDE
100
AcDbLine
 10
3.1460808569
 20
29.2619748723
 30
0.0
 11
2.987488341
 21
29.2758497198
 31
0.0
  0
LINE
  5
236
330
1F
100
AcDbEntity
  8
PROFILES_INSIDE
100
AcDbLine
 10
2.5646510312
 20
29.1760126457
 30
0.0
 11
2.5436669778
 21
28.9361629496
 31
0.0
  0
LINE
  5
237
330
1F
100
AcDbEntity
  8
PROFILES_INSIDE
100
AcDbLine
 10
2.9427438201
 20
28.7644175051
 30
0.0
 11
3.1013363338
 21
28.7505426336
 31
0.0
  0
LINE
  5
238
330
1F
100
AcDbEntity
  8
PROFILES_INSIDE
100
AcDbLine
 10
11.0984456975
 20
2.8450210428
 30
0.0
 11
11.0774616376
 21
3.0848699459
 31
0.0
  0
LINE
  5
239
330
1F
100
AcDbEntity
  8
PROFILES_INSIDE
100
AcDbLine
 10
10.6546243514
 20
3.184707618
 30
0.0
 11
10.4960318686
 21
3.170832392
 31
0.0
  0
LINE
  5
23A
330
1F
100
AcDbEntity
  8
PROFILES_INSIDE
100
AcDbLine
 10
10.0969549292
 20
2.9990871206
 30
0.0
 11
10.1179391393
 21
2.7592374382
 31
0.0
  0
LINE
  5
23B
330
1F
100
AcDbEntity
  8
PROFILES_INSIDE
100
AcDbLine
 10
10.5407763911
 20
2.6594001593
 30
0.0
 11
10.6993688744
 21
2.6732753793
 31
0.0
  0
LINE
  5
23C
330
1F
100
AcDbEntity
  8
PROFILES_INSIDE
100
AcDbLine
 10
2.5436669084
 20
2.3382600464
 30
0.0
 11
2.5646511066
 21
2.098410363
 31
0.0
  0
LINE
  5
23D
330
1F
100
AcDbEntity
  8
PROFILES_INSIDE
100
AcDbLine
 10
2.9874883584
 20
1.9985730841
 30
0.0
 11
3.1460808416
 21
2.012448304
 31
0.0
  0
LINE
  5
23E
330
1F
100
AcDbEntity
  8
PROFILES_INSIDE
100
AcDbLine
 10
3.5451576648
 20
2.1841939676
 30
0.0
 11
3.5241736048
 21
2.4240428706
 31
0.0
  0
LINE
  5
23F
330
1F
100
AcDbEntity
  8
PROFILES_INSIDE
100
AcDbLine
 10
3.1013363186
 20
2.5238805428
 30
0.0
 11
2.9427438353
 21
2.5100053228
 31
0.0
  0
LINE
  5
240
330
1F
100
AcDbEntity
  8
PROFILES_OUTSIDE
100
AcDbLine
 10
41.5050503964
 20
10.4885680145
 30
0.0
 11
41.0893023649
 21
10.4885680145
 31
0.0
  0
LINE
  5
241
330
1F
100
AcDbEntity
  8
PROFILES_OUTSIDE
100
AcDbLine
 10
41.5184396735
 20
10.2793605606
 30
0.0
 11
41.5050503964
 21
10.4885680145
 31
0.0
  0
LINE
  5
242
330
1F
100
AcDbEntity
  8
PROFILES_OUTSIDE
100
AcDbLine
 10
41.8978740821
 20
10.2425050224
 30
0.0
 11
41.5577293692
 21
10.2425050224
 31
0.0
  0
LINE
  5
243
330
1F
100
AcDbEntity
  8
PROFILES_OUTSIDE
100
AcDbLine
 10
42.0341842547
 20
10.7347097468
 30
0.0
 11
42.0341842547
 21
10.6550318586
 31
0.0
  0
LINE
  5
244
330
1F
100
AcDbEntity
  8
PROFILES_OUTSIDE
100
AcDbLine
 10
43.7270976405
 20
10.7347097468
 30
0.0
 11
42.0341842547
 21
10.7347097468
 31
0.0
  0
LINE
  5
245
330
1F
100
AcDbEntity
  8
PROFILES_OUTSIDE
100
AcDbLine
 10
44.1995385854
 20
7.8660697823
 30
0.0
 11
44.1995385854
 21
10.2622688019
 31
0.0
  0
LINE
  5
246
330
1F
100
AcDbEntity
  8
PROFILES_OUTSIDE
100
AcDbLine
 10
45.3019007901
 20
7.3936288374
 30
0.0
 11
44.6719795303
 21
7.3936288374
 31
0.0
  0
LINE
  5
247
330
1F
100
AcDbEntity
  8
PROFILES_OUTSIDE
100
AcDbLine
 10
45.774341735
 20
10.2622688019
 30
0.0
 11
45.774341735
 21
7.8660697823
 31
0.0
  0
LINE
  5
248
330
1F
100
AcDbEntity
  8
PROFILES_INSIDE
100
AcDbLine
 10
23.4467529761
 20
28.1895530563
 30
0.0
 11
23.4677370361
 21
28.4294019593
 31
0.0
  0
LINE
  5
249
330
1F
100
AcDbEntity
  8
PROFILES_INSIDE
100
AcDbLine
 10
22.8653231914
 20
28.1035904299
 30
0.0
 11
23.0239157052
 21
28.0897155583
 31
0.0
  0
LINE
  5
24A
330
1F
100
AcDbEntity
  8
PROFILES_INSIDE
100
AcDbLine
 10
22.4872304086
 20
28.51518557
 30
0.0
 11
22.4662463491
 21
28.2753358744
 31
0.0
  0
LINE
  5
24B
330
1F
100
AcDbEntity
  8
PROFILES_INSIDE
100
AcDbLine
 10
23.0686602282
 20
28.6011477971
 30
0.0
 11
22.9100677087
 21
28.6150226025
 31
0.0
  0
LINE
  5
24C
330
1F
100
AcDbEntity
  8
PROFILES_INSIDE
100
AcDbLine
 10
15.8991361935
 20
28.8498839614
 30
0.0
 11
15.9201202535
 21
29.0897328644
 31
0.0
  0
LINE
  5
24D
330
1F
100
AcDbEntity
  8
PROFILES_INSIDE
100
AcDbLine
 10
15.5210434456
 20
29.2614787022
 30
0.0
 11
15.3624509297
 21
29.2753535497
 31
0.0
  0
LINE
  5
24E
330
1F
100
AcDbEntity
  8
PROFILES_INSIDE
100
AcDbLine
 10
14.9396136199
 20
29.1755164756
 30
0.0
 11
14.9186295665
 21
28.9356667795
 31
0.0
  0
LINE
  5
24F
330
1F
100
AcDbEntity
  8
PROFILES_INSIDE
100
AcDbLine
 10
15.3177064088
 20
28.763921335
 30
0.0
 11
15.4762989225
 21
28.7500464635
 31
0.0
  0
LINE
  5
250
330
1F
100
AcDbEntity
  8
PROFILES_INSIDE
100
AcDbLine
 10
23.4677370361
 20
2.8450210428
 30
0.0
 11
23.4467529761
 21
3.0848699459
 31
0.0
  0
LINE
  5
251
330
1F
100
AcDbEntity
  8
PROFILES_INSIDE
100
AcDbLine
 10
23.0239156899
 20
3.184707618
 30
0.0
 11
22.8653232072
 21
3.170832392
 31
0.0
  0
LINE
  5
252
330
1F
100
AcDbEntity
  8
PROFILES_INSIDE
100
AcDbLine
 10
22.4662462678
 20
2.9990871206
 30
0.0
 11
22.4872304779
 21
2.7592374382
 31
0.0
  0
LINE
  5
253
330
1F
100
AcDbEntity
  8
PROFILES_INSIDE
100
AcDbLine
 10
22.9100677297
 20
2.6594001593
 30
0.0
 11
23.068660213
 21
2.6732753793
 31
0.0
  0
LINE
  5
254
330
1F
100
AcDbEntity
  8
PROFILES_OUTSIDE
100
AcDbLine
 10
47.9396960657
 20
10.7347097468
 30
0.0
 11
46.2467826799
 21
10.7347097468
 31
0.0
  0
LINE
  5
255
330
1F
100
AcDbEntity
  8
PROFILES_OUTSIDE
100
AcDbLine
 10
47.9396960657
 20
10.6550318586
 30
0.0
 11
47.9396960657
 21
10.7347097468
 31
0.0
  0
LINE
  5
256
330
1F
100
AcDbEntity
  8
PROFILES_OUTSIDE
100
AcDbLine
 10
48.4161509513
 20
10.2425050224
 30
0.0
 11
48.0760062383
 21
10.2425050224
 31
0.0
  0
LINE
  5
257
330
1F
100
AcDbEntity
  8
PROFILES_OUTSIDE
100
AcDbLine
 10
48.468829924
 20
10.4885680145
 30
0.0
 11
48.455440647
 21
10.2793605606
 31
0.0
  0
LINE
  5
258
330
1F
100
AcDbEntity
  8
PROFILES_OUTSIDE
100
AcDbLine
 10
48.8845779555
 20
10.4885680145
 30
0.0
 11
48.468829924
 21
10.4885680145
 31
0.0
  0
LINE
  5
259
330
1F
100
AcDbEntity
  8
PROFILES_INSIDE
100
AcDbLine
 10
14.9186294972
 20
2.3387562165
 30
0.0
 11
14.9396136953
 21
2.0989065331
 31
0.0
  0
LINE
  5
25A
330
1F
100
AcDbEntity
  8
PROFILES_INSIDE
100
AcDbLine
 10
15.3624509471
 20
1.9990692542
 30
0.0
 11
15.5210434303
 21
2.0129444741
 31
0.0
  0
LINE
  5
25B
330
1F
100
AcDbEntity
  8
PROFILES_INSIDE
100
AcDbLine
 10
15.9201202535
 20
2.1846901377
 30
0.0
 11
15.8991361935
 21
2.4245390407
 31
0.0
  0
LINE
  5
25C
330
1F
100
AcDbEntity
  8
PROFILES_INSIDE
100
AcDbLine
 10
15.4762989073
 20
2.5243767128
 30
0.0
 11
15.317706424
 21
2.5105014929
 31
0.0
  0
LINE
  5
25D
330
1F
100
AcDbEntity
  8
PROFILES_OUTSIDE
100
AcDbLine
 10
13.3908771681
 20
29.7761431169
 30
0.0
 11
13.3908771681
 21
1.4982798853
 31
0.0
  0
LINE
  5
25E
330
1F
100
AcDbEntity
  8
PROFILES_OUTSIDE
100
AcDbLine
 10
24.3051659262
 20
29.0790559898
 30
0.0
 11
13.6476856113
 21
30.0114646991
 31
0.0
  0
LINE
  5
25F
330
1F
100
AcDbEntity
  8
PROFILES_OUTSIDE
100
AcDbLine
 10
24.5207984279
 20
26.1087968025
 30
0.0
 11
24.5207984279
 21
28.8437344076
 31
0.0
  0
LINE
  5
260
330
1F
100
AcDbEntity
  8
PROFILES_OUTSIDE
100
AcDbLine
 10
23.928598071
 20
25.8061633903
 30
0.0
 11
24.3255972101
 21
25.8761650498
 31
0.0
  0
LINE
  5
261
330
1F
100
AcDbEntity
  8
POCKETS
100
AcDbLine
 10
12.5558779644
 20
3.8596740658
 30
0.0
 11
12.1636753273
 21
3.8253607813
 31
0.0
  0
LINE
  5
262
330
1F
100
AcDbEntity
  8
PROFILES_OUTSIDE
100
AcDbLine
 10
48.9239480342
 20
9.9865995106
 30
0.0
 11
48.9239480342
 21
10.4491979358
 31
0.0
  0
LINE
  5
263
330
1F
100
AcDbEntity
  8
PROFILES_OUTSIDE
100
AcDbLine
 10
46.6217826799
 20
9.7503790381
 30
0.0
 11
48.6877275618
 21
9.7503790381
 31
0.0
  0
LINE
  5
264
330
1F
100
AcDbEntity
  8
PROFILES_OUTSIDE
100
AcDbLine
 10
46.149341735
 20
7.3936288374
 30
0.0
 11
46.149341735
 21
9.2779380932
 31
0.0
  0
LINE
  5
265
330
1F
100
AcDbEntity
  8
PROFILES_OUTSIDE
100
AcDbLine
 10
45.774341735
 20
5.1745079257
 30
0.0
 11
45.774341735
 21
6.7441097846
 31
0.0
  0
LINE
  5
266
330
1F
100
AcDbEntity
  8
PROFILES_OUTSIDE
100
AcDbLine
 10
46.149341735
 20
2.640679617
 30
0.0
 11
46.149341735
 21
4.5249888729
 31
0.0
  0
LINE
  5
267
330
1F
100
AcDbEntity
  8
PROFILES_OUTSIDE
100
AcDbLine
 10
48.6877275618
 20
2.1682386722
 30
0.0
 11
46.6217826799
 21
2.1682386722
 31
0.0
  0
LINE
  5
268
330
1F
100
AcDbEntity
  8
PROFILES_OUTSIDE
100
AcDbLine
 10
48.9239480342
 20
1.4694197745
 30
0.0
 11
48.9239480342
 21
1.9320181997
 31
0.0
  0
LINE
  5
269
330
1F
100
AcDbEntity
  8
PROFILES_OUTSIDE
100
AcDbLine
 10
48.468829924
 20
1.4300496958
 30
0.0
 11
48.8845779555
 21
1.4300496958
 31
0.0
  0
LINE
  5
26A
330
1F
100
AcDbEntity
  8
PROFILES_OUTSIDE
100
AcDbLine
 10
48.455440647
 20
1.6392571497
 30
0.0
 11
48.468829924
 21
1.4300496958
 31
0.0
  0
LINE
  5
26B
330
1F
100
AcDbEntity
  8
PROFILES_OUTSIDE
100
AcDbLine
 10
48.0760062383
 20
1.6761126879
 30
0.0
 11
48.4161509513
 21
1.6761126879
 31
0.0
  0
LINE
  5
26C
330
1F
100
AcDbEntity
  8
PROFILES_OUTSIDE
100
AcDbLine
 10
47.9396960657
 20
1.1839079635
 30
0.0
 11
47.9396960657
 21
1.2635858517
 31
0.0
  0
LINE
  5
26D
330
1F
100
AcDbEntity
  8
PROFILES_OUTSIDE
100
AcDbLine
 10
46.2467826799
 20
1.1839079635
 30
0.0
 11
47.9396960657
 21
1.1839079635
 31
0.0
  0
LINE
  5
26E
330
1F
100
AcDbEntity
  8
PROFILES_OUTSIDE
100
AcDbLine
 10
45.774341735
 20
4.052547928
 30
0.0
 11
45.774341735
 21
1.6563489084
 31
0.0
  0
LINE
  5
26F
330
1F
100
AcDbEntity
  8
PROFILES_OUTSIDE
100
AcDbLine
 10
44.6719795303
 20
4.5249888729
 30
0.0
 11
45.3019007901
 21
4.5249888729
 31
0.0
  0
LINE
  5
270
330
1F
100
AcDbEntity
  8
PROFILES_OUTSIDE
100
AcDbLine
 10
44.1995385854
 20
1.6563489084
 30
0.0
 11
44.1995385854
 21
4.052547928
 31
0.0
  0
LINE
  5
271
330
1F
100
AcDbEntity
  8
PROFILES_OUTSIDE
100
AcDbLine
 10
42.0341842547
 20
1.1839079635
 30
0.0
 11
43.7270976405
 21
1.1839079635
 31
0.0
  0
LINE
  5
272
330
1F
100
AcDbEntity
  8
PROFILES_OUTSIDE
100
AcDbLine
 10
23.7333968531
 20
5.7008913645
 30
0.0
 11
23.7333968531
 21
25.5735316376
 31
0.0
  0
LINE
  5
273
330
1F
100
AcDbEntity
  8
POCKETS
100
AcDbLine
 10
12.6017891391
 20
3.3349069375
 30
0.0
 11
12.5558779644
 21
3.8596740658
 31
0.0
  0
LINE
  5
274
330
1F
100
AcDbEntity
  8
PROFILES_OUTSIDE
100
AcDbLine
 10
24.3255972101
 20
5.3982579523
 30
0.0
 11
23.928598071
 21
5.4682596119
 31
0.0
  0
LINE
  5
275
330
1F
100
AcDbEntity
  8
POCKETS
100
AcDbLine
 10
12.2095865021
 20
3.3005936529
 30
0.0
 11
12.6017891391
 21
3.3349069375
 31
0.0
  0
LINE
  5
276
330
1F
100
AcDbEntity
  8
POCKETS
100
AcDbLine
 10
1.0094175915
 20
2.3207058437
 30
0.0
 11
12.2095865021
 21
3.3005936529
 31
0.0
  0
LINE
  5
277
330
1F
100
AcDbEntity
  8
POCKETS
100
AcDbLine
 10
0.6172149545
 20
2.2863925591
 30
0.0
 11
1.0094175915
 21
2.3207058437
 31
0.0
  0
LINE
  5
278
330
1F
100
AcDbEntity
  8
POCKETS
100
AcDbLine
 10
0.5713037798
 20
2.8111596875
 30
0.0
 11
0.6172149545
 21
2.2863925591
 31
0.0
  0
LINE
  5
279
330
1F
100
AcDbEntity
  8
POCKETS
100
AcDbLine
 10
0.9635064168
 20
2.845472972
 30
0.0
 11
0.5713037798
 21
2.8111596875
 31
0.0
  0
LINE
  5
27A
330
1F
100
AcDbEntity
  8
POCKETS
100
AcDbLine
 10
10.063318113
 20
3.6416033357
 30
0.0
 11
0.9635064168
 21
2.845472972
 31
0.0
  0
LINE
  5
27B
330
1F
100
AcDbEntity
  8
POCKETS
100
AcDbLine
 10
10.063318113
 20
27.6328196665
 30
0.0
 11
10.063318113
 21
3.6416033357
 31
0.0
  0
LINE
  5
27C
330
1F
100
AcDbEntity
  8
POCKETS
100
AcDbLine
 10
0.9635064168
 20
28.4289500301
 30
0.0
 11
10.063318113
 21
27.6328196665
 31
0.0
  0
LINE
  5
27D
330
1F
100
AcDbEntity
  8
POCKETS
100
AcDbLine
 10
0.5713037798
 20
28.4632633146
 30
0.0
 11
0.9635064168
 21
28.4289500301
 31
0.0
  0
LINE
  5
27E
330
1F
100
AcDbEntity
  8
POCKETS
100
AcDbLine
 10
0.6172149545
 20
28.988030443
 30
0.0
 11
0.5713037798
 21
28.4632633146
 31
0.0
  0
LINE
  5
27F
330
1F
100
AcDbEntity
  8
POCKETS
100
AcDbLine
 10
1.0094175915
 20
28.9537171585
 30
0.0
 11
0.6172149545
 21
28.988030443
 31
0.0
  0
LINE
  5
280
330
1F
100
AcDbEntity
  8
POCKETS
100
AcDbLine
 10
12.2095865021
 20
27.9738293492
 30
0.0
 11
1.0094175915
 21
28.9537171585
 31
0.0
  0
LINE
  5
281
330
1F
100
AcDbEntity
  8
POCKETS
100
AcDbLine
 10
12.6017891391
 20
27.9395160647
 30
0.0
 11
12.2095865021
 21
27.9738293492
 31
0.0
  0
LINE
  5
282
330
1F
100
AcDbEntity
  8
POCKETS
100
AcDbLine
 10
12.5558779644
 20
27.4147489363
 30
0.0
 11
12.6017891391
 21
27.9395160647
 31
0.0
  0
LINE
  5
283
330
1F
100
AcDbEntity
  8
POCKETS
100
AcDbLine
 10
12.1636753273
 20
27.4490622208
 30
0.0
 11
12.5558779644
 21
27.4147489363
 31
0.0
  0
LINE
  5
284
330
1F
100
AcDbEntity
  8
POCKETS
100
AcDbLine
 10
10.5767039398
 20
27.5879042266
 30
0.0
 11
12.1636753273
 21
27.4490622208
 31
0.0
  0
LINE
  5
285
330
1F
100
AcDbEntity
  8
PROFILES_OUTSIDE
100
AcDbLine
 10
42.0341842547
 20
1.2635858517
 30
0.0
 11
42.0341842547
 21
1.1839079635
 31
0.0
  0
LINE
  5
286
330
1F
100
AcDbEntity
  8
PROFILES_OUTSIDE
100
AcDbLine
 10
41.5577293692
 20
1.6761126879
 30
0.0
 11
41.8978740821
 21
1.6761126879
 31
0.0
  0
LINE
  5
287
330
1F
100
AcDbEntity
  8
PROFILES_OUTSIDE
100
AcDbLine
 10
41.5050503964
 20
1.4300496958
 30
0.0
 11
41.5184396735
 21
1.6392571497
 31
0.0
  0
LINE
  5
288
330
1F
100
AcDbEntity
  8
PROFILES_OUTSIDE
100
AcDbLine
 10
41.0893023649
 20
1.4300496958
 30
0.0
 11
41.5050503964
 21
1.4300496958
 31
0.0
  0
LINE
  5
289
330
1F
100
AcDbEntity
  8
PROFILES_OUTSIDE
100
AcDbLine
 10
41.0499322862
 20
1.9320181997
 30
0.0
 11
41.0499322862
 21
1.4694197745
 31
0.0
  0
LINE
  5
28A
330
1F
100
AcDbEntity
  8
PROFILES_OUTSIDE
100
AcDbLine
 10
43.3520976405
 20
2.1682386722
 30
0.0
 11
41.2861527586
 21
2.1682386722
 31
0.0
  0
LINE
  5
28B
330
1F
100
AcDbEntity
  8
PROFILES_OUTSIDE
100
AcDbLine
 10
43.8245385854
 20
4.5249888729
 30
0.0
 11
43.8245385854
 21
2.640679617
 31
0.0
  0
LINE
  5
28C
330
1F
100
AcDbEntity
  8
PROFILES_OUTSIDE
100
AcDbLine
 10
44.1995385854
 20
6.7441097846
 30
0.0
 11
44.1995385854
 21
5.1745079257
 31
0.0
  0
LINE
  5
28D
330
1F
100
AcDbEntity
  8
PROFILES_OUTSIDE
100
AcDbLine
 10
43.8245385854
 20
9.2779380932
 30
0.0
 11
43.8245385854
 21
7.3936288374
 31
0.0
  0
LINE
  5
28E
330
1F
100
AcDbEntity
  8
PROFILES_OUTSIDE
100
AcDbLine
 10
41.2861527586
 20
9.7503790381
 30
0.0
 11
43.3520976405
 21
9.7503790381
 31
0.0
  0
LINE
  5
28F
330
1F
100
AcDbEntity
  8
PROFILES_OUTSIDE
100
AcDbLine
 10
41.0499322862
 20
10.4491979358
 30
0.0
 11
41.0499322862
 21
9.9865995106
 31
0.0
  0
LINE
  5
290
330
1F
100
AcDbEntity
  8
POCKETS
100
AcDbLine
 10
10.5767039398
 20
3.6865187755
 30
0.0
 11
10.5767039398
 21
27.5879042266
 31
0.0
  0
LINE
  5
291
330
1F
100
AcDbEntity
  8
PROFILES_OUTSIDE
100
AcDbLine
 10
48.468829924
 20
12.2200640775
 30
0.0
 11
48.8845779555
 21
12.2200640775
 31
0.0
  0
LINE
  5
292
330
1F
100
AcDbEntity
  8
PROFILES_OUTSIDE
100
AcDbLine
 10
48.455440647
 20
12.4292715314
 30
0.0
 11
48.468829924
 21
12.2200640775
 31
0.0
  0
LINE
  5
293
330
1F
100
AcDbEntity
  8
PROFILES_OUTSIDE
100
AcDbLine
 10
48.0760062383
 20
12.4661270696
 30
0.0
 11
48.4161509513
 21
12.4661270696
 31
0.0
  0
LINE
  5
294
330
1F
100
AcDbEntity
  8
PROFILES_OUTSIDE
100
AcDbLine
 10
47.9396960657
 20
11.9739223452
 30
0.0
 11
47.9396960657
 21
12.0536002334
 31
0.0
  0
LINE
  5
295
330
1F
100
AcDbEntity
  8
PROFILES_OUTSIDE
100
AcDbLine
 10
46.2467826799
 20
11.9739223452
 30
0.0
 11
47.9396960657
 21
11.9739223452
 31
0.0
  0
LINE
  5
296
330
1F
100
AcDbEntity
  8
PROFILES_OUTSIDE
100
AcDbLine
 10
45.774341735
 20
14.8425623097
 30
0.0
 11
45.774341735
 21
12.4463632901
 31
0.0
  0
LINE
  5
297
330
1F
100
AcDbEntity
  8
PROFILES_OUTSIDE
100
AcDbLine
 10
44.6719795303
 20
15.3150032546
 30
0.0
 11
45.3019007901
 21
15.3150032546
 31
0.0
  0
LINE
  5
298
330
1F
100
AcDbEntity
  8
PROFILES_OUTSIDE
100
AcDbLine
 10
44.1995385854
 20
12.4463632901
 30
0.0
 11
44.1995385854
 21
14.8425623097
 31
0.0
  0
LINE
  5
299
330
1F
100
AcDbEntity
  8
PROFILES_OUTSIDE
100
AcDbLine
 10
42.0341842547
 20
11.9739223452
 30
0.0
 11
43.7270976405
 21
11.9739223452
 31
0.0
  0
LINE
  5
29A
330
1F
100
AcDbEntity
  8
PROFILES_OUTSIDE
100
AcDbLine
 10
42.0341842547
 20
12.0536002334
 30
0.0
 11
42.0341842547
 21
11.9739223452
 31
0.0
  0
LINE
  5
29B
330
1F
100
AcDbEntity
  8
PROFILES_OUTSIDE
100
AcDbLine
 10
41.5577293692
 20
12.4661270696
 30
0.0
 11
41.8978740821
 21
12.4661270696
 31
0.0
  0
LINE
  5
29C
330
1F
100
AcDbEntity
  8
PROFILES_OUTSIDE
100
AcDbLine
 10
41.5050503964
 20
12.2200640775
 30
0.0
 11
41.5184396735
 21
12.4292715314
 31
0.0
  0
LINE
  5
29D
330
1F
100
AcDbEntity
  8
PROFILES_OUTSIDE
100
AcDbLine
 10
41.0893023649
 20
12.2200640775
 30
0.0
 11
41.5050503964
 21
12.2200640775
 31
0.0
  0
LINE
  5
29E
330
1F
100
AcDbEntity
  8
PROFILES_OUTSIDE
100
AcDbLine
 10
41.0499322862
 20
12.7220325814
 30
0.0
 11
41.0499322862
 21
12.2594341562
 31
0.0
  0
LINE
  5
29F
330
1F
100
AcDbEntity
  8
PROFILES_OUTSIDE
100
AcDbLine
 10
43.3520976405
 20
12.9582530539
 30
0.0
 11
41.2861527586
 21
12.9582530539
 31
0.0
  0
LINE
  5
2A0
330
1F
100
AcDbEntity
  8
PROFILES_OUTSIDE
100
AcDbLine
 10
43.8245385854
 20
15.3150032546
 30
0.0
 11
43.8245385854
 21
13.4306939988
 31
0.0
  0
LINE
  5
2A1
330
1F
100
AcDbEntity
  8
PROFILES_OUTSIDE
100
AcDbLine
 10
44.1995385854
 20
17.5341241663
 30
0.0
 11
44.1995385854
 21
15.9645223074
 31
0.0
  0
LINE
  5
2A2
330
1F
100
AcDbEntity
  8
PROFILES_OUTSIDE
100
AcDbLine
 10
43.8245385854
 20
20.067952475
 30
0.0
 11
43.8245385854
 21
18.1836432191
 31
0.0
  0
LINE
  5
2A3
330
1F
100
AcDbEntity
  8
PROFILES_OUTSIDE
100
AcDbLine
 10
41.2861527586
 20
20.5403934199
 30
0.0
 11
43.3520976405
 21
20.5403934199
 31
0.0
  0
LINE
  5
2A4
330
1F
100
AcDbEntity
  8
PROFILES_OUTSIDE
100
AcDbLine
 10
41.0499322862
 20
21.2392123175
 30
0.0
 11
41.0499322862
 21
20.7766138923
 31
0.0
  0
LINE
  5
2A5
330
1F
100
AcDbEntity
  8
PROFILES_OUTSIDE
100
AcDbLine
 10
41.5050503964
 20
21.2785823962
 30
0.0
 11
41.0893023649
 21
21.2785823962
 31
0.0
  0
LINE
  5
2A6
330
1F
100
AcDbEntity
  8
PROFILES_OUTSIDE
100
AcDbLine
 10
41.5184396735
 20
21.0693749423
 30
0.0
 11
41.5050503964
 21
21.2785823962
 31
0.0
  0
LINE
  5
2A7
330
1F
100
AcDbEntity
  8
PROFILES_OUTSIDE
100
AcDbLine
 10
41.8978740821
 20
21.0325194041
 30
0.0
 11
41.5577293692
 21
21.0325194041
 31
0.0
  0
LINE
  5
2A8
330
1F
100
AcDbEntity
  8
PROFILES_OUTSIDE
100
AcDbLine
 10
42.0341842547
 20
21.5247241285
 30
0.0
 11
42.0341842547
 21
21.4450462403
 31
0.0
  0
LINE
  5
2A9
330
1F
100
AcDbEntity
  8
PROFILES_OUTSIDE
100
AcDbLine
 10
43.7270976405
 20
21.5247241285
 30
0.0
 11
42.0341842547
 21
21.5247241285
 31
0.0
  0
LINE
  5
2AA
330
1F
100
AcDbEntity
  8
PROFILES_OUTSIDE
100
AcDbLine
 10
44.1995385854
 20
18.656084164
 30
0.0
 11
44.1995385854
 21
21.0522831836
 31
0.0
  0
LINE
  5
2AB
330
1F
100
AcDbEntity
  8
PROFILES_OUTSIDE
100
AcDbLine
 10
45.3019007901
 20
18.1836432191
 30
0.0
 11
44.6719795303
 21
18.1836432191
 31
0.0
  0
LINE
  5
2AC
330
1F
100
AcDbEntity
  8
PROFILES_OUTSIDE
100
AcDbLine
 10
45.774341735
 20
21.0522831836
 30
0.0
 11
45.774341735
 21
18.656084164
 31
0.0
  0
LINE
  5
2AD
330
1F
100
AcDbEntity
  8
PROFILES_OUTSIDE
100
AcDbLine
 10
47.9396960657
 20
21.5247241285
 30
0.0
 11
46.2467826799
 21
21.5247241285
 31
0.0
  0
LINE
  5
2AE
330
1F
100
AcDbEntity
  8
PROFILES_OUTSIDE
100
AcDbLine
 10
47.9396960657
 20
21.4450462403
 30
0.0
 11
47.9396960657
 21
21.5247241285
 31
0.0
  0
LINE
  5
2AF
330
1F
100
AcDbEntity
  8
PROFILES_OUTSIDE
100
AcDbLine
 10
48.4161509513
 20
21.0325194041
 30
0.0
 11
48.0760062383
 21
21.0325194041
 31
0.0
  0
LINE
  5
2B0
330
1F
100
AcDbEntity
  8
PROFILES_OUTSIDE
100
AcDbLine
 10
48.468829924
 20
21.2785823962
 30
0.0
 11
48.455440647
 21
21.0693749423
 31
0.0
  0
LINE
  5
2B1
330
1F
100
AcDbEntity
  8
PROFILES_OUTSIDE
100
AcDbLine
 10
48.8845779555
 20
21.2785823962
 30
0.0
 11
48.468829924
 21
21.2785823962
 31
0.0
  0
LINE
  5
2B2
330
1F
100
AcDbEntity
  8
PROFILES_OUTSIDE
100
AcDbLine
 10
48.9239480342
 20
20.7766138923
 30
0.0
 11
48.9239480342
 21
21.2392123175
 31
0.0
  0
LINE
  5
2B3
330
1F
100
AcDbEntity
  8
PROFILES_OUTSIDE
100
AcDbLine
 10
46.6217826799
 20
20.5403934199
 30
0.0
 11
48.6877275618
 21
20.5403934199
 31
0.0
  0
LINE
  5
2B4
330
1F
100
AcDbEntity
  8
PROFILES_OUTSIDE
100
AcDbLine
 10
46.149341735
 20
18.1836432191
 30
0.0
 11
46.149341735
 21
20.067952475
 31
0.0
  0
LINE
  5
2B5
330
1F
100
AcDbEntity
  8
PROFILES_OUTSIDE
100
AcDbLine
 10
45.774341735
 20
15.9645223074
 30
0.0
 11
45.774341735
 21
17.5341241663
 31
0.0
  0
LINE
  5
2B6
330
1F
100
AcDbEntity
  8
PROFILES_OUTSIDE
100
AcDbLine
 10
46.149341735
 20
13.4306939988
 30
0.0
 11
46.149341735
 21
15.3150032546
 31
0.0
  0
LINE
  5
2B7
330
1F
100
AcDbEntity
  8
PROFILES_OUTSIDE
100
AcDbLine
 10
48.6877275618
 20
12.9582530539
 30
0.0
 11
46.6217826799
 21
12.9582530539
 31
0.0
  0
LINE
  5
2B8
330
1F
100
AcDbEntity
  8
PROFILES_OUTSIDE
100
AcDbLine
 10
48.9239480342
 20
12.2594341562
 30
0.0
 11
48.9239480342
 21
12.7220325814
 31
0.0
  0
LINE
  5
2B9
330
1F
100
AcDbEntity
  8
POCKETS
100
AcDbLine
 10
12.1636753273
 20
3.8253607813
 30
0.0
 11
10.5767039398
 21
3.6865187755
 31
0.0
  0
LINE
  5
2BA
330
1F
100
AcDbEntity
  8
POCKETS
100
AcDbLine
 10
22.9459952783
 20
27.5879042266
 30
0.0
 11
24.5329666659
 21
27.4490622208
 31
0.0
  0
LINE
  5
2BB
330
1F
100
AcDbEntity
  8
POCKETS
100
AcDbLine
 10
24.5329666659
 20
27.4490622208
 30
0.0
 11
24.925169303
 21
27.4147489363
 31
0.0
  0
LINE
  5
2BC
330
1F
100
AcDbEntity
  8
POCKETS
100
AcDbLine
 10
24.925169303
 20
27.4147489363
 30
0.0
 11
24.9710804777
 21
27.9395160647
 31
0.0
  0
LINE
  5
2BD
330
1F
100
AcDbEntity
  8
POCKETS
100
AcDbLine
 10
24.9710804777
 20
27.9395160647
 30
0.0
 11
24.5788778406
 21
27.9738293492
 31
0.0
  0
LINE
  5
2BE
330
1F
100
AcDbEntity
  8
POCKETS
100
AcDbLine
 10
24.5788778406
 20
27.9738293492
 30
0.0
 11
13.4222868015
 21
28.9499045887
 31
0.0
  0
LINE
  5
2BF
330
1F
100
AcDbEntity
  8
POCKETS
100
AcDbLine
 10
13.4222868015
 20
28.9499045887
 30
0.0
 11
13.0300841644
 21
28.9842178733
 31
0.0
  0
LINE
  5
2C0
330
1F
100
AcDbEntity
  8
POCKETS
100
AcDbLine
 10
13.0300841644
 20
28.9842178733
 30
0.0
 11
12.9841729897
 21
28.4594507449
 31
0.0
  0
LINE
  5
2C1
330
1F
100
AcDbEntity
  8
POCKETS
100
AcDbLine
 10
12.9841729897
 20
28.4594507449
 30
0.0
 11
13.3763756268
 21
28.4251374604
 31
0.0
  0
LINE
  5
2C2
330
1F
100
AcDbEntity
  8
POCKETS
100
AcDbLine
 10
13.3763756268
 20
28.4251374604
 30
0.0
 11
22.4326094516
 21
27.6328196665
 31
0.0
  0
LINE
  5
2C3
330
1F
100
AcDbEntity
  8
POCKETS
100
AcDbLine
 10
22.4326094516
 20
27.6328196665
 30
0.0
 11
22.4326094516
 21
3.6416033357
 31
0.0
  0
LINE
  5
2C4
330
1F
100
AcDbEntity
  8
POCKETS
100
AcDbLine
 10
22.4326094516
 20
3.6416033357
 30
0.0
 11
13.3763756268
 21
2.8492855418
 31
0.0
  0
LINE
  5
2C5
330
1F
100
AcDbEntity
  8
POCKETS
100
AcDbLine
 10
13.3763756268
 20
2.8492855418
 30
0.0
 11
12.9841729897
 21
2.8149722572
 31
0.0
  0
LINE
  5
2C6
330
1F
100
AcDbEntity
  8
POCKETS
100
AcDbLine
 10
12.9841729897
 20
2.8149722572
 30
0.0
 11
13.0300841644
 21
2.2902051289
 31
0.0
  0
LINE
  5
2C7
330
1F
100
AcDbEntity
  8
POCKETS
100
AcDbLine
 10
13.0300841644
 20
2.2902051289
 30
0.0
 11
13.4222868015
 21
2.3245184134
 31
0.0
  0
LINE
  5
2C8
330
1F
100
AcDbEntity
  8
POCKETS
100
AcDbLine
 10
13.4222868015
 20
2.3245184134
 30
0.0
 11
24.5788778406
 21
3.3005936529
 31
0.0
  0
LINE
  5
2C9
330
1F
100
AcDbEntity
  8
POCKETS
100
AcDbLine
 10
24.5788778406
 20
3.3005936529
 30
0.0
 11
24.9710804777
 21
3.3349069375
 31
0.0
  0
LINE
  5
2CA
330
1F
100
AcDbEntity
  8
POCKETS
100
AcDbLine
 10
24.9710804777
 20
3.3349069375
 30
0.0
 11
24.925169303
 21
3.8596740658
 31
0.0
  0
LINE
  5
2CB
330
1F
100
AcDbEntity
  8
POCKETS
100
AcDbLine
 10
24.925169303
 20
3.8596740658
 30
0.0
 11
24.5329666659
 21
3.8253607813
 31
0.0
  0
LINE
  5
2CC
330
1F
100
AcDbEntity
  8
POCKETS
100
AcDbLine
 10
24.5329666659
 20
3.8253607813
 30
0.0
 11
22.9459952783
 21
3.6865187755
 31
0.0
  0
LINE
  5
2CD
330
1F
100
AcDbEntity
  8
POCKETS
100
AcDbLine
 10
22.9459952783
 20
3.6865187755
 30
0.0
 11
22.9459952783
 21
27.5879042266
 31
0.0
  0
LINE
  5
2CE
330
1F
100
AcDbEntity
  8
PROFILES_OUTSIDE
100
AcDbLine
 10
24.5207984279
 20
2.4306885946
 30
0.0
 11
24.5207984279
 21
5.1656261997
 31
0.0
  0
LINE
  5
2CF
330
1F
100
AcDbEntity
  8
PROFILES_OUTSIDE
100
AcDbLine
 10
13.6476856113
 20
1.262958303
 30
0.0
 11
24.3051659262
 21
2.1953670124
 31
0.0
  0
ARC
  5
2D0
330
1F
100
AcDbEntity
  8
PROFILES_OUTSIDE
100
AcDbCircle
 10
11.9152866169
 20
5.1656261997
 30
0.0
 40
0.2362204724409475
100
AcDbArc
 50
0.0
 51
80.0
  0
ARC
  5
2D1
330
1F
100
AcDbEntity
  8
PROFILES_OUTSIDE
100
AcDbCircle
 10
11.600325987
 20
5.7008913645
 30
0.0
 40
0.2362204724409445
100
AcDbArc
 50
180.0
 51
260.0
  0
ARC
  5
2D2
330
1F
100
AcDbEntity
  8
PROFILES_OUTSIDE
100
AcDbCircle
 10
11.600325987
 20
25.5735316376
 30
0.0
 40
0.2362204724409484
100
AcDbArc
 50
100.0
 51
180.0
  0
ARC
  5
2D3
330
1F
100
AcDbEntity
  8
PROFILES_OUTSIDE
100
AcDbCircle
 10
11.9152866169
 20
26.1087968025
 30
0.0
 40
0.2362204724409449
100
AcDbArc
 50
280.0
 51
360.0
  0
ARC
  5
2D4
330
1F
100
AcDbEntity
  8
PROFILES_INSIDE
100
AcDbCircle
 10
11.8877275618
 20
18.7711470491
 30
0.0
 40
0.2362204724409484
100
AcDbArc
 50
280.0
 51
0.0
  0
ARC
  5
2D5
330
1F
100
AcDbEntity
  8
PROFILES_OUTSIDE
100
AcDbCircle
 10
48.8845779555
 20
10.4491979358
 30
0.0
 40
0.0393700787401627
100
AcDbArc
 50
0.0
 51
90.0
  0
ARC
  5
2D6
330
1F
100
AcDbEntity
  8
PROFILES_INSIDE
100
AcDbCircle
 10
10.702800175
 20
28.6403680645
 30
0.0
 40
0.0393700787401585
100
AcDbArc
 50
265.0000629249
 51
337.3995463205
  0
ARC
  5
2D7
330
1F
100
AcDbEntity
  8
PROFILES_INSIDE
100
AcDbCircle
 10
10.9270595555
 20
28.5470158108
 30
0.0
 40
0.2035433070866161
100
AcDbArc
 50
330.1122158958
 51
157.3995463205
  0
ARC
  5
2D8
330
1F
100
AcDbEntity
  8
PROFILES_INSIDE
100
AcDbCircle
 10
11.1376677433
 20
28.425970475
 30
0.0
 40
0.0393718675624462
100
AcDbArc
 50
150.1122158958
 51
175.0
  0
ARC
  5
2D9
330
1F
100
AcDbEntity
  8
PROFILES_INSIDE
100
AcDbCircle
 10
11.1166819013
 20
28.1861217278
 30
0.0
 40
0.0393700787401591
100
AcDbArc
 50
175.0
 51
199.8879068429
  0
ARC
  5
2DA
330
1F
100
AcDbEntity
  8
PROFILES_INSIDE
100
AcDbCircle
 10
10.8882558823
 20
28.1034871898
 30
0.0
 40
0.2035433070866157
100
AcDbArc
 50
192.6004798922
 51
19.8879068429
  0
ARC
  5
2DB
330
1F
100
AcDbEntity
  8
PROFILES_INSIDE
100
AcDbCircle
 10
10.6511930812
 20
28.0504952909
 30
0.0
 40
0.0393700787401598
100
AcDbArc
 50
12.6004798922
 51
85.0000629249
  0
ARC
  5
2DC
330
1F
100
AcDbEntity
  8
PROFILES_INSIDE
100
AcDbCircle
 10
10.4926005675
 20
28.0643701624
 30
0.0
 40
0.0393700787401598
100
AcDbArc
 50
85.0000629249
 51
157.3995463205
  0
ARC
  5
2DD
330
1F
100
AcDbEntity
  8
PROFILES_INSIDE
100
AcDbCircle
 10
10.268341187
 20
28.1577224162
 30
0.0
 40
0.2035433070866136
100
AcDbArc
 50
150.1121227901
 51
337.3995463205
  0
ARC
  5
2DE
330
1F
100
AcDbEntity
  8
PROFILES_INSIDE
100
AcDbCircle
 10
10.0577347468
 20
28.2787672029
 30
0.0
 40
0.0393700787401604
100
AcDbArc
 50
330.1121227901
 51
355.0
  0
ARC
  5
2DF
330
1F
100
AcDbEntity
  8
PROFILES_INSIDE
100
AcDbCircle
 10
10.0787188756
 20
28.5186168924
 30
0.0
 40
0.039370009141204
100
AcDbArc
 50
355.0
 51
19.8878223834
  0
ARC
  5
2E0
330
1F
100
AcDbEntity
  8
PROFILES_INSIDE
100
AcDbCircle
 10
10.3071448602
 20
28.6012510372
 30
0.0
 40
0.2035432407270022
100
AcDbArc
 50
12.6004798922
 51
199.8878223834
  0
ARC
  5
2E1
330
1F
100
AcDbEntity
  8
PROFILES_INSIDE
100
AcDbCircle
 10
10.5442076613
 20
28.6542429361
 30
0.0
 40
0.0393701450997684
100
AcDbArc
 50
192.6004798922
 51
265.0000629249
  0
ARC
  5
2E2
330
1F
100
AcDbEntity
  8
PROFILES_INSIDE
100
AcDbCircle
 10
3.5843797105
 20
29.0867975502
 30
0.0
 40
0.0393718675624457
100
AcDbArc
 50
150.1122158958
 51
175.0
  0
ARC
  5
2E3
330
1F
100
AcDbEntity
  8
PROFILES_INSIDE
100
AcDbCircle
 10
3.3737715227
 20
29.207842886
 30
0.0
 40
0.2035433070866133
100
AcDbArc
 50
330.1122158958
 51
157.3995463205
  0
ARC
  5
2E4
330
1F
100
AcDbEntity
  8
PROFILES_INSIDE
100
AcDbCircle
 10
3.1495121422
 20
29.3011951397
 30
0.0
 40
0.0393700787401603
100
AcDbArc
 50
265.0000629249
 51
337.3995463205
  0
ARC
  5
2E5
330
1F
100
AcDbEntity
  8
PROFILES_INSIDE
100
AcDbCircle
 10
2.9909196285
 20
29.3150700113
 30
0.0
 40
0.0393701149363115
100
AcDbArc
 50
192.6004798922
 51
265.0000629249
  0
ARC
  5
2E6
330
1F
100
AcDbEntity
  8
PROFILES_INSIDE
100
AcDbCircle
 10
2.7538568274
 20
29.2620781124
 30
0.0
 40
0.2035432708904584
100
AcDbArc
 50
12.6004798922
 51
199.8878223834
  0
ARC
  5
2E7
330
1F
100
AcDbEntity
  8
PROFILES_INSIDE
100
AcDbCircle
 10
2.5254308429
 20
29.1794439676
 30
0.0
 40
0.039370003108509
100
AcDbArc
 50
355.0
 51
19.8878223834
  0
ARC
  5
2E8
330
1F
100
AcDbEntity
  8
PROFILES_INSIDE
100
AcDbCircle
 10
2.5044467141
 20
28.9395942781
 30
0.0
 40
0.0393700787401608
100
AcDbArc
 50
330.1121227901
 51
355.0
  0
ARC
  5
2E9
330
1F
100
AcDbEntity
  8
PROFILES_INSIDE
100
AcDbCircle
 10
2.7150531542
 20
28.8185494914
 30
0.0
 40
0.203543307086616
100
AcDbArc
 50
150.1121227901
 51
337.3995463205
  0
ARC
  5
2EA
330
1F
100
AcDbEntity
  8
PROFILES_INSIDE
100
AcDbCircle
 10
2.9393125347
 20
28.7251972377
 30
0.0
 40
0.0393700787401563
100
AcDbArc
 50
85.0000629249
 51
157.3995463205
  0
ARC
  5
2EB
330
1F
100
AcDbEntity
  8
PROFILES_INSIDE
100
AcDbCircle
 10
3.0979050484
 20
28.7113223661
 30
0.0
 40
0.0393700787401565
100
AcDbArc
 50
12.6004798922
 51
85.0000629249
  0
ARC
  5
2EC
330
1F
100
AcDbEntity
  8
PROFILES_INSIDE
100
AcDbCircle
 10
3.3349678495
 20
28.764314265
 30
0.0
 40
0.2035433070866162
100
AcDbArc
 50
192.6004798922
 51
19.8879068429
  0
ARC
  5
2ED
330
1F
100
AcDbEntity
  8
PROFILES_INSIDE
100
AcDbCircle
 10
3.5633938685
 20
28.846948803
 30
0.0
 40
0.0393700787401535
100
AcDbArc
 50
175.0
 51
199.8879068429
  0
ARC
  5
2EE
330
1F
100
AcDbEntity
  8
PROFILES_INSIDE
100
AcDbCircle
 10
10.9270595837
 20
2.7274074756
 30
0.0
 40
0.2035433070866148
100
AcDbArc
 50
202.6004798922
 51
29.8879068429
  0
ARC
  5
2EF
330
1F
100
AcDbEntity
  8
PROFILES_INSIDE
100
AcDbCircle
 10
11.1376659612
 20
2.8484523713
 30
0.0
 40
0.0393700787401605
100
AcDbArc
 50
185.0
 51
209.8879068429
  0
ARC
  5
2F0
330
1F
100
AcDbEntity
  8
PROFILES_INSIDE
100
AcDbCircle
 10
11.1166836833
 20
3.0883014302
 30
0.0
 40
0.0393718675624498
100
AcDbArc
 50
160.1122158958
 51
185.0
  0
ARC
  5
2F1
330
1F
100
AcDbEntity
  8
PROFILES_INSIDE
100
AcDbCircle
 10
10.8882558052
 20
3.1709360874
 30
0.0
 40
0.2035433070866148
100
AcDbArc
 50
340.1122158958
 51
167.3995463205
  0
ARC
  5
2F2
330
1F
100
AcDbEntity
  8
PROFILES_INSIDE
100
AcDbCircle
 10
10.6511929798
 20
3.2239278779
 30
0.0
 40
0.0393700787401596
100
AcDbArc
 50
275.0000629249
 51
347.3995463205
  0
ARC
  5
2F3
330
1F
100
AcDbEntity
  8
PROFILES_INSIDE
100
AcDbCircle
 10
10.4926004966
 20
3.210052658
 30
0.0
 40
0.0393701089036157
100
AcDbArc
 50
202.6004798922
 51
275.0000629249
  0
ARC
  5
2F4
330
1F
100
AcDbEntity
  8
PROFILES_INSIDE
100
AcDbCircle
 10
10.2683411588
 20
3.1167003017
 30
0.0
 40
0.2035432769231571
100
AcDbArc
 50
22.6004798922
 51
209.8878223834
  0
ARC
  5
2F5
330
1F
100
AcDbEntity
  8
PROFILES_INSIDE
100
AcDbCircle
 10
10.0577347468
 20
2.9956557993
 30
0.0
 40
0.0393699970758196
100
AcDbArc
 50
5.0
 51
29.8878223834
  0
ARC
  5
2F6
330
1F
100
AcDbEntity
  8
PROFILES_INSIDE
100
AcDbCircle
 10
10.0787188756
 20
2.7558061098
 30
0.0
 40
0.0393700787401594
100
AcDbArc
 50
340.1121227901
 51
5.0
  0
ARC
  5
2F7
330
1F
100
AcDbEntity
  8
PROFILES_INSIDE
100
AcDbCircle
 10
10.3071449373
 20
2.6731716899
 30
0.0
 40
0.203543307086617
100
AcDbArc
 50
160.1121227901
 51
347.3995463205
  0
ARC
  5
2F8
330
1F
100
AcDbEntity
  8
PROFILES_INSIDE
100
AcDbCircle
 10
10.5442077627
 20
2.6201798994
 30
0.0
 40
0.0393700787401593
100
AcDbArc
 50
95.0000629249
 51
167.3995463205
  0
ARC
  5
2F9
330
1F
100
AcDbEntity
  8
PROFILES_INSIDE
100
AcDbCircle
 10
10.7028002459
 20
2.6340551193
 30
0.0
 40
0.0393700787401596
100
AcDbArc
 50
22.6004798922
 51
95.0000629249
  0
ARC
  5
2FA
330
1F
100
AcDbEntity
  8
PROFILES_INSIDE
100
AcDbCircle
 10
2.5254308429
 20
2.0949790346
 30
0.0
 40
0.0393700787401549
100
AcDbArc
 50
340.1121227901
 51
5.0
  0
ARC
  5
2FB
330
1F
100
AcDbEntity
  8
PROFILES_INSIDE
100
AcDbCircle
 10
2.7538569046
 20
2.0123446147
 30
0.0
 40
0.2035433070866173
100
AcDbArc
 50
160.1121227901
 51
347.3995463205
  0
ARC
  5
2FC
330
1F
100
AcDbEntity
  8
PROFILES_INSIDE
100
AcDbCircle
 10
2.9909197299
 20
1.9593528242
 30
0.0
 40
0.0393700787401599
100
AcDbArc
 50
95.0000629249
 51
167.3995463205
  0
ARC
  5
2FD
330
1F
100
AcDbEntity
  8
PROFILES_INSIDE
100
AcDbCircle
 10
3.1495122132
 20
1.9732280441
 30
0.0
 40
0.0393700787401597
100
AcDbArc
 50
22.6004798922
 51
95.0000629249
  0
ARC
  5
2FE
330
1F
100
AcDbEntity
  8
PROFILES_INSIDE
100
AcDbCircle
 10
3.3737715509
 20
2.0665804004
 30
0.0
 40
0.2035433070866164
100
AcDbArc
 50
202.6004798922
 51
29.8879068429
  0
ARC
  5
2FF
330
1F
100
AcDbEntity
  8
PROFILES_INSIDE
100
AcDbCircle
 10
3.5843779285
 20
2.1876252961
 30
0.0
 40
0.0393700787401579
100
AcDbArc
 50
185.0
 51
209.8879068429
  0
ARC
  5
300
330
1F
100
AcDbEntity
  8
PROFILES_INSIDE
100
AcDbCircle
 10
3.5633956505
 20
2.427474355
 30
0.0
 40
0.0393718675624491
100
AcDbArc
 50
160.1122158958
 51
185.0
  0
ARC
  5
301
330
1F
100
AcDbEntity
  8
PROFILES_INSIDE
100
AcDbCircle
 10
3.3349677724
 20
2.5101090122
 30
0.0
 40
0.2035433070866128
100
AcDbArc
 50
340.1122158958
 51
167.3995463205
  0
ARC
  5
302
330
1F
100
AcDbEntity
  8
PROFILES_INSIDE
100
AcDbCircle
 10
3.0979049471
 20
2.5631008027
 30
0.0
 40
0.0393700787401641
100
AcDbArc
 50
275.0000629249
 51
347.3995463205
  0
ARC
  5
303
330
1F
100
AcDbEntity
  8
PROFILES_INSIDE
100
AcDbCircle
 10
2.9393124638
 20
2.5492255828
 30
0.0
 40
0.039370084772845
100
AcDbArc
 50
202.6004798922
 51
275.0000629249
  0
ARC
  5
304
330
1F
100
AcDbEntity
  8
PROFILES_INSIDE
100
AcDbCircle
 10
2.715053126
 20
2.4558732265
 30
0.0
 40
0.2035433010539227
100
AcDbArc
 50
22.6004798922
 51
209.8878223834
  0
ARC
  5
305
330
1F
100
AcDbEntity
  8
PROFILES_INSIDE
100
AcDbCircle
 10
2.5044467141
 20
2.3348287241
 30
0.0
 40
0.0393700091412033
100
AcDbArc
 50
5.0
 51
29.8878223834
  0
ARC
  5
306
330
1F
100
AcDbEntity
  8
PROFILES_INSIDE
100
AcDbCircle
 10
23.0720915136
 20
28.6403680645
 30
0.0
 40
0.039370078740156
100
AcDbArc
 50
265.0000629249
 51
337.3995463205
  0
ARC
  5
307
330
1F
100
AcDbEntity
  8
PROFILES_INSIDE
100
AcDbCircle
 10
23.2963508941
 20
28.5470158108
 30
0.0
 40
0.2035433070866202
100
AcDbArc
 50
330.1122158958
 51
157.3995463205
  0
ARC
  5
308
330
1F
100
AcDbEntity
  8
PROFILES_INSIDE
100
AcDbCircle
 10
23.5069590818
 20
28.425970475
 30
0.0
 40
0.0393718675624494
100
AcDbArc
 50
150.1122158958
 51
175.0
  0
ARC
  5
309
330
1F
100
AcDbEntity
  8
PROFILES_INSIDE
100
AcDbCircle
 10
23.4859732399
 20
28.1861217278
 30
0.0
 40
0.0393700787401623
100
AcDbArc
 50
175.0
 51
199.8879068429
  0
ARC
  5
30A
330
1F
100
AcDbEntity
  8
PROFILES_INSIDE
100
AcDbCircle
 10
23.2575472209
 20
28.1034871898
 30
0.0
 40
0.2035433070866157
100
AcDbArc
 50
192.6004798922
 51
19.8879068429
  0
ARC
  5
30B
330
1F
100
AcDbEntity
  8
PROFILES_INSIDE
100
AcDbCircle
 10
23.0204844198
 20
28.0504952909
 30
0.0
 40
0.0393700787401602
100
AcDbArc
 50
12.6004798922
 51
85.0000629249
  0
ARC
  5
30C
330
1F
100
AcDbEntity
  8
PROFILES_INSIDE
100
AcDbCircle
 10
22.8618919061
 20
28.0643701624
 30
0.0
 40
0.0393700787401601
100
AcDbArc
 50
85.0000629249
 51
157.3995463205
  0
ARC
  5
30D
330
1F
100
AcDbEntity
  8
PROFILES_INSIDE
100
AcDbCircle
 10
22.6376325256
 20
28.1577224162
 30
0.0
 40
0.2035433070866136
100
AcDbArc
 50
150.1121227901
 51
337.3995463205
  0
ARC
  5
30E
330
1F
100
AcDbEntity
  8
PROFILES_INSIDE
100
AcDbCircle
 10
22.4270260854
 20
28.2787672029
 30
0.0
 40
0.0393700787401604
100
AcDbArc
 50
330.1121227901
 51
355.0
  0
ARC
  5
30F
330
1F
100
AcDbEntity
  8
PROFILES_INSIDE
100
AcDbCircle
 10
22.4480102142
 20
28.5186168924
 30
0.0
 40
0.0393700091412001
100
AcDbArc
 50
355.0
 51
19.8878223834
  0
ARC
  5
310
330
1F
100
AcDbEntity
  8
PROFILES_INSIDE
100
AcDbCircle
 10
22.6764361988
 20
28.6012510372
 30
0.0
 40
0.2035432407270022
100
AcDbArc
 50
12.6004798922
 51
199.8878223834
  0
ARC
  5
311
330
1F
100
AcDbEntity
  8
PROFILES_INSIDE
100
AcDbCircle
 10
22.9134989999
 20
28.6542429361
 30
0.0
 40
0.0393701450997702
100
AcDbArc
 50
192.6004798923
 51
265.0000629249
  0
ARC
  5
312
330
1F
100
AcDbEntity
  8
PROFILES_INSIDE
100
AcDbCircle
 10
15.9593422992
 20
29.0863013801
 30
0.0
 40
0.0393718675624497
100
AcDbArc
 50
150.1122158958
 51
175.0
  0
ARC
  5
313
330
1F
100
AcDbEntity
  8
PROFILES_INSIDE
100
AcDbCircle
 10
15.7487341115
 20
29.2073467159
 30
0.0
 40
0.203543307086617
100
AcDbArc
 50
330.1122158958
 51
157.3995463205
  0
ARC
  5
314
330
1F
100
AcDbEntity
  8
PROFILES_INSIDE
100
AcDbCircle
 10
15.524474731
 20
29.3006989696
 30
0.0
 40
0.0393700787401588
100
AcDbArc
 50
265.0000629249
 51
337.3995463205
  0
ARC
  5
315
330
1F
100
AcDbEntity
  8
PROFILES_INSIDE
100
AcDbCircle
 10
15.3658822172
 20
29.3145738412
 30
0.0
 40
0.0393701149363059
100
AcDbArc
 50
192.6004798922
 51
265.0000629249
  0
ARC
  5
316
330
1F
100
AcDbEntity
  8
PROFILES_INSIDE
100
AcDbCircle
 10
15.1288194161
 20
29.2615819423
 30
0.0
 40
0.2035432708904647
100
AcDbArc
 50
12.6004798922
 51
199.8878223834
  0
ARC
  5
317
330
1F
100
AcDbEntity
  8
PROFILES_INSIDE
100
AcDbCircle
 10
14.9003934316
 20
29.1789477975
 30
0.0
 40
0.039370003108511
100
AcDbArc
 50
355.0
 51
19.8878223834
  0
ARC
  5
318
330
1F
100
AcDbEntity
  8
PROFILES_INSIDE
100
AcDbCircle
 10
14.8794093028
 20
28.939098108
 30
0.0
 40
0.0393700787401588
100
AcDbArc
 50
330.1121227901
 51
355.0
  0
ARC
  5
319
330
1F
100
AcDbEntity
  8
PROFILES_INSIDE
100
AcDbCircle
 10
15.0900157429
 20
28.8180533213
 30
0.0
 40
0.2035433070866164
100
AcDbArc
 50
150.1121227901
 51
337.3995463205
  0
ARC
  5
31A
330
1F
100
AcDbEntity
  8
PROFILES_INSIDE
100
AcDbCircle
 10
15.3142751234
 20
28.7247010676
 30
0.0
 40
0.0393700787401598
100
AcDbArc
 50
85.0000629249
 51
157.3995463205
  0
ARC
  5
31B
330
1F
100
AcDbEntity
  8
PROFILES_INSIDE
100
AcDbCircle
 10
15.4728676372
 20
28.710826196
 30
0.0
 40
0.0393700787401594
100
AcDbArc
 50
12.6004798922
 51
85.0000629249
  0
ARC
  5
31C
330
1F
100
AcDbEntity
  8
PROFILES_INSIDE
100
AcDbCircle
 10
15.7099304382
 20
28.7638180949
 30
0.0
 40
0.203543307086615
100
AcDbArc
 50
192.6004798922
 51
19.8879068429
  0
ARC
  5
31D
330
1F
100
AcDbEntity
  8
PROFILES_INSIDE
100
AcDbCircle
 10
15.9383564572
 20
28.8464526329
 30
0.0
 40
0.0393700787401606
100
AcDbArc
 50
175.0
 51
199.8879068429
  0
ARC
  5
31E
330
1F
100
AcDbEntity
  8
PROFILES_INSIDE
100
AcDbCircle
 10
23.2963509223
 20
2.7274074756
 30
0.0
 40
0.2035433070866152
100
AcDbArc
 50
202.6004798922
 51
29.8879068429
  0
ARC
  5
31F
330
1F
100
AcDbEntity
  8
PROFILES_INSIDE
100
AcDbCircle
 10
23.5069572998
 20
2.8484523713
 30
0.0
 40
0.0393700787401588
100
AcDbArc
 50
185.0
 51
209.8879068429
  0
ARC
  5
320
330
1F
100
AcDbEntity
  8
PROFILES_INSIDE
100
AcDbCircle
 10
23.4859750219
 20
3.0883014302
 30
0.0
 40
0.0393718675624462
100
AcDbArc
 50
160.1122158958
 51
185.0
  0
ARC
  5
321
330
1F
100
AcDbEntity
  8
PROFILES_INSIDE
100
AcDbCircle
 10
23.2575471437
 20
3.1709360874
 30
0.0
 40
0.203543307086613
100
AcDbArc
 50
340.1122158958
 51
167.3995463205
  0
ARC
  5
322
330
1F
100
AcDbEntity
  8
PROFILES_INSIDE
100
AcDbCircle
 10
23.0204843184
 20
3.2239278779
 30
0.0
 40
0.0393700787401588
100
AcDbArc
 50
275.0000629249
 51
347.3995463205
  0
ARC
  5
323
330
1F
100
AcDbEntity
  8
PROFILES_INSIDE
100
AcDbCircle
 10
22.8618918351
 20
3.210052658
 30
0.0
 40
0.0393701089036141
100
AcDbArc
 50
202.6004798922
 51
275.0000629249
  0
ARC
  5
324
330
1F
100
AcDbEntity
  8
PROFILES_INSIDE
100
AcDbCircle
 10
22.6376324974
 20
3.1167003017
 30
0.0
 40
0.2035432769231604
100
AcDbArc
 50
22.6004798922
 51
209.8878223834
  0
ARC
  5
325
330
1F
100
AcDbEntity
  8
PROFILES_INSIDE
100
AcDbCircle
 10
22.4270260854
 20
2.9956557993
 30
0.0
 40
0.0393699970758215
100
AcDbArc
 50
5.0
 51
29.8878223834
  0
ARC
  5
326
330
1F
100
AcDbEntity
  8
PROFILES_INSIDE
100
AcDbCircle
 10
22.4480102142
 20
2.7558061098
 30
0.0
 40
0.0393700787401625
100
AcDbArc
 50
340.1121227901
 51
5.0
  0
ARC
  5
327
330
1F
100
AcDbEntity
  8
PROFILES_INSIDE
100
AcDbCircle
 10
22.6764362759
 20
2.6731716899
 30
0.0
 40
0.2035433070866162
100
AcDbArc
 50
160.1121227901
 51
347.3995463205
  0
ARC
  5
328
330
1F
100
AcDbEntity
  8
PROFILES_INSIDE
100
AcDbCircle
 10
22.9134991013
 20
2.6201798994
 30
0.0
 40
0.0393700787401588
100
AcDbArc
 50
95.0000629249
 51
167.3995463205
  0
ARC
  5
329
330
1F
100
AcDbEntity
  8
PROFILES_INSIDE
100
AcDbCircle
 10
23.0720915845
 20
2.6340551193
 30
0.0
 40
0.0393700787401601
100
AcDbArc
 50
22.6004798922
 51
95.0000629249
  0
ARC
  5
32A
330
1F
100
AcDbEntity
  8
PROFILES_INSIDE
100
AcDbCircle
 10
14.9003934316
 20
2.0954752046
 30
0.0
 40
0.0393700787401588
100
AcDbArc
 50
340.1121227901
 51
5.0
  0
ARC
  5
32B
330
1F
100
AcDbEntity
  8
PROFILES_INSIDE
100
AcDbCircle
 10
15.1288194933
 20
2.0128407848
 30
0.0
 40
0.203543307086618
100
AcDbArc
 50
160.1121227901
 51
347.3995463205
  0
ARC
  5
32C
330
1F
100
AcDbEntity
  8
PROFILES_INSIDE
100
AcDbCircle
 10
15.3658823186
 20
1.9598489943
 30
0.0
 40
0.0393700787401554
100
AcDbArc
 50
95.0000629249
 51
167.3995463205
  0
ARC
  5
32D
330
1F
100
AcDbEntity
  8
PROFILES_INSIDE
100
AcDbCircle
 10
15.5244748019
 20
1.9737242142
 30
0.0
 40
0.0393700787401601
100
AcDbArc
 50
22.6004798922
 51
95.0000629249
  0
ARC
  5
32E
330
1F
100
AcDbEntity
  8
PROFILES_INSIDE
100
AcDbCircle
 10
15.7487341397
 20
2.0670765705
 30
0.0
 40
0.2035433070866148
100
AcDbArc
 50
202.6004798922
 51
29.8879068429
  0
ARC
  5
32F
330
1F
100
AcDbEntity
  8
PROFILES_INSIDE
100
AcDbCircle
 10
15.9593405172
 20
2.1881214662
 30
0.0
 40
0.0393700787401605
100
AcDbArc
 50
185.0
 51
209.8879068429
  0
ARC
  5
330
330
1F
100
AcDbEntity
  8
PROFILES_INSIDE
100
AcDbCircle
 10
15.9383582392
 20
2.4279705251
 30
0.0
 40
0.0393718675624516
100
AcDbArc
 50
160.1122158958
 51
185.0
  0
ARC
  5
331
330
1F
100
AcDbEntity
  8
PROFILES_INSIDE
100
AcDbCircle
 10
15.7099303611
 20
2.5106051823
 30
0.0
 40
0.2035433070866128
100
AcDbArc
 50
340.1122158958
 51
167.3995463205
  0
ARC
  5
332
330
1F
100
AcDbEntity
  8
PROFILES_INSIDE
100
AcDbCircle
 10
15.4728675358
 20
2.5635969728
 30
0.0
 40
0.0393700787401593
100
AcDbArc
 50
275.0000629249
 51
347.3995463205
  0
ARC
  5
333
330
1F
100
AcDbEntity
  8
PROFILES_INSIDE
100
AcDbCircle
 10
15.3142750525
 20
2.5497217529
 30
0.0
 40
0.0393700847728492
100
AcDbArc
 50
202.6004798922
 51
275.0000629249
  0
ARC
  5
334
330
1F
100
AcDbEntity
  8
PROFILES_INSIDE
100
AcDbCircle
 10
15.0900157147
 20
2.4563693966
 30
0.0
 40
0.2035433010539218
100
AcDbArc
 50
22.6004798922
 51
209.8878223834
  0
ARC
  5
335
330
1F
100
AcDbEntity
  8
PROFILES_INSIDE
100
AcDbCircle
 10
14.8794093028
 20
2.3353248942
 30
0.0
 40
0.039370009141202
100
AcDbArc
 50
5.0
 51
29.8878223834
  0
ARC
  5
336
330
1F
100
AcDbEntity
  8
PROFILES_OUTSIDE
100
AcDbCircle
 10
13.6270976405
 20
29.7761431169
 30
0.0
 40
0.2362204724409445
100
AcDbArc
 50
85.0
 51
180.0
  0
ARC
  5
337
330
1F
100
AcDbEntity
  8
PROFILES_OUTSIDE
100
AcDbCircle
 10
24.2845779555
 20
28.8437344076
 30
0.0
 40
0.2362204724409445
100
AcDbArc
 50
360.0
 51
85.0
  0
ARC
  5
338
330
1F
100
AcDbEntity
  8
PROFILES_OUTSIDE
100
AcDbCircle
 10
24.2845779555
 20
26.1087968025
 30
0.0
 40
0.2362204724409449
100
AcDbArc
 50
280.0
 51
0.0
  0
ARC
  5
339
330
1F
100
AcDbEntity
  8
PROFILES_OUTSIDE
100
AcDbCircle
 10
23.9696173256
 20
25.5735316376
 30
0.0
 40
0.2362204724409449
100
AcDbArc
 50
100.0
 51
180.0
  0
ARC
  5
33A
330
1F
100
AcDbEntity
  8
PROFILES_OUTSIDE
100
AcDbCircle
 10
23.9696173256
 20
5.7008913645
 30
0.0
 40
0.2362204724409458
100
AcDbArc
 50
180.0
 51
260.0
  0
ARC
  5
33B
330
1F
100
AcDbEntity
  8
PROFILES_OUTSIDE
100
AcDbCircle
 10
24.2845779555
 20
5.1656261997
 30
0.0
 40
0.236220472440947
100
AcDbArc
 50
0.0
 51
80.0
  0
ARC
  5
33C
330
1F
100
AcDbEntity
  8
PROFILES_OUTSIDE
100
AcDbCircle
 10
24.2845779555
 20
2.4306885946
 30
0.0
 40
0.2362204724409472
100
AcDbArc
 50
275.0
 51
0.0
  0
ARC
  5
33D
330
1F
100
AcDbEntity
  8
PROFILES_OUTSIDE
100
AcDbCircle
 10
13.6270976405
 20
1.4982798853
 30
0.0
 40
0.2362204724409473
100
AcDbArc
 50
180.0
 51
275.0
  0
ARC
  5
33E
330
1F
100
AcDbEntity
  8
PROFILES_OUTSIDE
100
AcDbCircle
 10
46.6217826799
 20
9.2779380932
 30
0.0
 40
0.4724409448818907
100
AcDbArc
 50
90.0
 51
180.0
  0
ARC
  5
33F
330
1F
100
AcDbEntity
  8
PROFILES_OUTSIDE
100
AcDbCircle
 10
46.6217826799
 20
2.640679617
 30
0.0
 40
0.472440944881896
100
AcDbArc
 50
180.0
 51
270.0
  0
ARC
  5
340
330
1F
100
AcDbEntity
  8
PROFILES_OUTSIDE
100
AcDbCircle
 10
48.8845779555
 20
1.4694197745
 30
0.0
 40
0.0393700787401627
100
AcDbArc
 50
270.0
 51
0.0
  0
ARC
  5
341
330
1F
100
AcDbEntity
  8
PROFILES_OUTSIDE
100
AcDbCircle
 10
41.5577293692
 20
10.2818751011
 30
0.0
 40
0.0393700787401574
100
AcDbArc
 50
183.6619355755
 51
270.0
  0
ARC
  5
342
330
1F
100
AcDbEntity
  8
PROFILES_OUTSIDE
100
AcDbCircle
 10
41.8978740821
 20
10.2031349436
 30
0.0
 40
0.0393700787401556
100
AcDbArc
 50
65.1121079736
 51
90.0
  0
ARC
  5
343
330
1F
100
AcDbEntity
  8
PROFILES_OUTSIDE
100
AcDbCircle
 10
42.0001027532
 20
10.4234896845
 30
0.0
 40
0.2035433070866169
100
AcDbArc
 50
245.1121079736
 51
72.3995332141
  0
ARC
  5
344
330
1F
100
AcDbEntity
  8
PROFILES_OUTSIDE
100
AcDbCircle
 10
42.0735543335
 20
10.6550318586
 30
0.0
 40
0.0393700787401556
100
AcDbArc
 50
180.0
 51
252.3995332141
  0
ARC
  5
345
330
1F
100
AcDbEntity
  8
PROFILES_OUTSIDE
100
AcDbCircle
 10
43.7270976405
 20
10.2622688019
 30
0.0
 40
0.472440944881896
100
AcDbArc
 50
0.0
 51
90.0
  0
ARC
  5
346
330
1F
100
AcDbEntity
  8
PROFILES_OUTSIDE
100
AcDbCircle
 10
44.6719795303
 20
7.8660697823
 30
0.0
 40
0.4724409448818898
100
AcDbArc
 50
180.0
 51
270.0
  0
ARC
  5
347
330
1F
100
AcDbEntity
  8
PROFILES_OUTSIDE
100
AcDbCircle
 10
45.3019007901
 20
7.8660697823
 30
0.0
 40
0.4724409448818898
100
AcDbArc
 50
270.0
 51
0.0
  0
ARC
  5
348
330
1F
100
AcDbEntity
  8
PROFILES_OUTSIDE
100
AcDbCircle
 10
46.2467826799
 20
10.2622688019
 30
0.0
 40
0.4724409448818907
100
AcDbArc
 50
90.0
 51
180.0
  0
ARC
  5
349
330
1F
100
AcDbEntity
  8
PROFILES_OUTSIDE
100
AcDbCircle
 10
47.900325987
 20
10.6550318586
 30
0.0
 40
0.0393700787401627
100
AcDbArc
 50
287.6004667859
 51
0.0
  0
ARC
  5
34A
330
1F
100
AcDbEntity
  8
PROFILES_OUTSIDE
100
AcDbCircle
 10
47.9737775673
 20
10.4234896845
 30
0.0
 40
0.2035433070866156
100
AcDbArc
 50
107.6004667859
 51
294.8878920264
  0
ARC
  5
34B
330
1F
100
AcDbEntity
  8
PROFILES_OUTSIDE
100
AcDbCircle
 10
48.0760062383
 20
10.2031349436
 30
0.0
 40
0.0393700787401592
100
AcDbArc
 50
90.0
 51
114.8878920264
  0
ARC
  5
34C
330
1F
100
AcDbEntity
  8
PROFILES_OUTSIDE
100
AcDbCircle
 10
48.4161509513
 20
10.2818751011
 30
0.0
 40
0.039370078740159
100
AcDbArc
 50
270.0
 51
356.3380644245
  0
ARC
  5
34D
330
1F
100
AcDbEntity
  8
PROFILES_OUTSIDE
100
AcDbCircle
 10
48.6877275618
 20
9.9865995106
 30
0.0
 40
0.2362204724409551
100
AcDbArc
 50
270.0
 51
0.0
  0
ARC
  5
34E
330
1F
100
AcDbEntity
  8
PROFILES_OUTSIDE
100
AcDbCircle
 10
41.0893023649
 20
1.4694197745
 30
0.0
 40
0.0393700787401574
100
AcDbArc
 50
180.0
 51
270.0
  0
ARC
  5
34F
330
1F
100
AcDbEntity
  8
PROFILES_OUTSIDE
100
AcDbCircle
 10
45.774341735
 20
7.3936288374
 30
0.0
 40
0.3749999999999964
100
AcDbArc
 50
300.0
 51
0.0
  0
ARC
  5
350
330
1F
100
AcDbEntity
  8
PROFILES_OUTSIDE
100
AcDbCircle
 10
46.149341735
 20
6.7441097846
 30
0.0
 40
0.3749999999999984
100
AcDbArc
 50
120.0
 51
180.0
  0
ARC
  5
351
330
1F
100
AcDbEntity
  8
PROFILES_OUTSIDE
100
AcDbCircle
 10
46.149341735
 20
5.1745079257
 30
0.0
 40
0.375
100
AcDbArc
 50
180.0
 51
240.0
  0
ARC
  5
352
330
1F
100
AcDbEntity
  8
PROFILES_OUTSIDE
100
AcDbCircle
 10
45.774341735
 20
4.5249888729
 30
0.0
 40
0.3749999999999977
100
AcDbArc
 50
0.0
 51
60.0
  0
ARC
  5
353
330
1F
100
AcDbEntity
  8
PROFILES_OUTSIDE
100
AcDbCircle
 10
48.6877275618
 20
1.9320181997
 30
0.0
 40
0.2362204724409493
100
AcDbArc
 50
0.0
 51
90.0
  0
ARC
  5
354
330
1F
100
AcDbEntity
  8
PROFILES_OUTSIDE
100
AcDbCircle
 10
43.3520976405
 20
2.640679617
 30
0.0
 40
0.472440944881896
100
AcDbArc
 50
270.0
 51
0.0
  0
ARC
  5
355
330
1F
100
AcDbEntity
  8
PROFILES_OUTSIDE
100
AcDbCircle
 10
48.4161509513
 20
1.6367426092
 30
0.0
 40
0.039370078740159
100
AcDbArc
 50
3.6619355755
 51
90.0
  0
ARC
  5
356
330
1F
100
AcDbEntity
  8
PROFILES_OUTSIDE
100
AcDbCircle
 10
48.0760062383
 20
1.7154827666
 30
0.0
 40
0.039370078740161
100
AcDbArc
 50
245.1121079736
 51
270.0
  0
ARC
  5
357
330
1F
100
AcDbEntity
  8
PROFILES_OUTSIDE
100
AcDbCircle
 10
47.9737775673
 20
1.4951280257
 30
0.0
 40
0.2035433070866144
100
AcDbArc
 50
65.1121079736
 51
252.3995332141
  0
ARC
  5
358
330
1F
100
AcDbEntity
  8
PROFILES_OUTSIDE
100
AcDbCircle
 10
47.900325987
 20
1.2635858517
 30
0.0
 40
0.0393700787401627
100
AcDbArc
 50
0.0
 51
72.3995332141
  0
ARC
  5
359
330
1F
100
AcDbEntity
  8
PROFILES_OUTSIDE
100
AcDbCircle
 10
46.2467826799
 20
1.6563489084
 30
0.0
 40
0.4724409448818903
100
AcDbArc
 50
180.0
 51
270.0
  0
ARC
  5
35A
330
1F
100
AcDbEntity
  8
PROFILES_OUTSIDE
100
AcDbCircle
 10
45.3019007901
 20
4.052547928
 30
0.0
 40
0.4724409448818907
100
AcDbArc
 50
0.0
 51
90.0
  0
ARC
  5
35B
330
1F
100
AcDbEntity
  8
PROFILES_OUTSIDE
100
AcDbCircle
 10
44.6719795303
 20
4.052547928
 30
0.0
 40
0.4724409448818907
100
AcDbArc
 50
90.0
 51
180.0
  0
ARC
  5
35C
330
1F
100
AcDbEntity
  8
PROFILES_OUTSIDE
100
AcDbCircle
 10
43.7270976405
 20
1.6563489084
 30
0.0
 40
0.472440944881896
100
AcDbArc
 50
270.0
 51
0.0
  0
ARC
  5
35D
330
1F
100
AcDbEntity
  8
PROFILES_OUTSIDE
100
AcDbCircle
 10
42.0735543335
 20
1.2635858517
 30
0.0
 40
0.0393700787401556
100
AcDbArc
 50
107.6004667859
 51
180.0
  0
ARC
  5
35E
330
1F
100
AcDbEntity
  8
PROFILES_OUTSIDE
100
AcDbCircle
 10
42.0001027532
 20
1.4951280257
 30
0.0
 40
0.203543307086617
100
AcDbArc
 50
287.6004667859
 51
114.8878920264
  0
ARC
  5
35F
330
1F
100
AcDbEntity
  8
PROFILES_OUTSIDE
100
AcDbCircle
 10
41.8978740821
 20
1.7154827666
 30
0.0
 40
0.0393700787401532
100
AcDbArc
 50
270.0
 51
294.8878920264
  0
ARC
  5
360
330
1F
100
AcDbEntity
  8
PROFILES_OUTSIDE
100
AcDbCircle
 10
41.5577293692
 20
1.6367426092
 30
0.0
 40
0.0393700787401576
100
AcDbArc
 50
90.0
 51
176.3380644245
  0
ARC
  5
361
330
1F
100
AcDbEntity
  8
PROFILES_OUTSIDE
100
AcDbCircle
 10
41.2861527586
 20
1.9320181997
 30
0.0
 40
0.2362204724409449
100
AcDbArc
 50
90.0
 51
180.0
  0
ARC
  5
362
330
1F
100
AcDbEntity
  8
PROFILES_OUTSIDE
100
AcDbCircle
 10
43.3520976405
 20
9.2779380932
 30
0.0
 40
0.472440944881896
100
AcDbArc
 50
0.0
 51
90.0
  0
ARC
  5
363
330
1F
100
AcDbEntity
  8
PROFILES_OUTSIDE
100
AcDbCircle
 10
44.1995385854
 20
4.5249888729
 30
0.0
 40
0.375
100
AcDbArc
 50
120.0
 51
180.0
  0
ARC
  5
364
330
1F
100
AcDbEntity
  8
PROFILES_OUTSIDE
100
AcDbCircle
 10
43.8245385854
 20
5.1745079257
 30
0.0
 40
0.375
100
AcDbArc
 50
300.0
 51
0.0
  0
ARC
  5
365
330
1F
100
AcDbEntity
  8
PROFILES_OUTSIDE
100
AcDbCircle
 10
43.8245385854
 20
6.7441097846
 30
0.0
 40
0.375
100
AcDbArc
 50
0.0
 51
60.0
  0
ARC
  5
366
330
1F
100
AcDbEntity
  8
PROFILES_OUTSIDE
100
AcDbCircle
 10
44.1995385854
 20
7.3936288374
 30
0.0
 40
0.375
100
AcDbArc
 50
180.0
 51
240.0
  0
ARC
  5
367
330
1F
100
AcDbEntity
  8
PROFILES_OUTSIDE
100
AcDbCircle
 10
41.2861527586
 20
9.9865995106
 30
0.0
 40
0.2362204724409445
100
AcDbArc
 50
180.0
 51
270.0
  0
ARC
  5
368
330
1F
100
AcDbEntity
  8
PROFILES_OUTSIDE
100
AcDbCircle
 10
41.0893023649
 20
10.4491979358
 30
0.0
 40
0.0393700787401574
100
AcDbArc
 50
90.0
 51
180.0
  0
ARC
  5
369
330
1F
100
AcDbEntity
  8
PROFILES_OUTSIDE
100
AcDbCircle
 10
41.0893023649
 20
12.2594341562
 30
0.0
 40
0.0393700787401574
100
AcDbArc
 50
180.0
 51
270.0
  0
ARC
  5
36A
330
1F
100
AcDbEntity
  8
PROFILES_OUTSIDE
100
AcDbCircle
 10
43.3520976405
 20
13.4306939988
 30
0.0
 40
0.472440944881896
100
AcDbArc
 50
270.0
 51
0.0
  0
ARC
  5
36B
330
1F
100
AcDbEntity
  8
PROFILES_OUTSIDE
100
AcDbCircle
 10
43.3520976405
 20
20.067952475
 30
0.0
 40
0.472440944881896
100
AcDbArc
 50
0.0
 51
90.0
  0
ARC
  5
36C
330
1F
100
AcDbEntity
  8
PROFILES_OUTSIDE
100
AcDbCircle
 10
41.0893023649
 20
21.2392123175
 30
0.0
 40
0.0393700787401556
100
AcDbArc
 50
90.0
 51
180.0
  0
ARC
  5
36D
330
1F
100
AcDbEntity
  8
PROFILES_OUTSIDE
100
AcDbCircle
 10
48.4161509513
 20
12.4267569909
 30
0.0
 40
0.039370078740159
100
AcDbArc
 50
3.6619355755
 51
90.0
  0
ARC
  5
36E
330
1F
100
AcDbEntity
  8
PROFILES_OUTSIDE
100
AcDbCircle
 10
48.0760062383
 20
12.5054971484
 30
0.0
 40
0.0393700787401592
100
AcDbArc
 50
245.1121079736
 51
270.0
  0
ARC
  5
36F
330
1F
100
AcDbEntity
  8
PROFILES_OUTSIDE
100
AcDbCircle
 10
47.9737775673
 20
12.2851424075
 30
0.0
 40
0.2035433070866152
100
AcDbArc
 50
65.1121079736
 51
252.3995332141
  0
ARC
  5
370
330
1F
100
AcDbEntity
  8
PROFILES_OUTSIDE
100
AcDbCircle
 10
47.900325987
 20
12.0536002334
 30
0.0
 40
0.0393700787401556
100
AcDbArc
 50
0.0
 51
72.3995332141
  0
ARC
  5
371
330
1F
100
AcDbEntity
  8
PROFILES_OUTSIDE
100
AcDbCircle
 10
46.2467826799
 20
12.4463632901
 30
0.0
 40
0.4724409448818907
100
AcDbArc
 50
180.0
 51
270.0
  0
ARC
  5
372
330
1F
100
AcDbEntity
  8
PROFILES_OUTSIDE
100
AcDbCircle
 10
45.3019007901
 20
14.8425623097
 30
0.0
 40
0.4724409448818925
100
AcDbArc
 50
0.0
 51
90.0
  0
ARC
  5
373
330
1F
100
AcDbEntity
  8
PROFILES_OUTSIDE
100
AcDbCircle
 10
44.6719795303
 20
14.8425623097
 30
0.0
 40
0.4724409448818907
100
AcDbArc
 50
90.0
 51
180.0
  0
ARC
  5
374
330
1F
100
AcDbEntity
  8
PROFILES_OUTSIDE
100
AcDbCircle
 10
43.7270976405
 20
12.4463632901
 30
0.0
 40
0.472440944881896
100
AcDbArc
 50
270.0
 51
0.0
  0
ARC
  5
375
330
1F
100
AcDbEntity
  8
PROFILES_OUTSIDE
100
AcDbCircle
 10
42.0735543335
 20
12.0536002334
 30
0.0
 40
0.039370078740159
100
AcDbArc
 50
107.6004667859
 51
180.0
  0
ARC
  5
376
330
1F
100
AcDbEntity
  8
PROFILES_OUTSIDE
100
AcDbCircle
 10
42.0001027532
 20
12.2851424075
 30
0.0
 40
0.2035433070866172
100
AcDbArc
 50
287.6004667859
 51
114.8878920264
  0
ARC
  5
377
330
1F
100
AcDbEntity
  8
PROFILES_OUTSIDE
100
AcDbCircle
 10
41.8978740821
 20
12.5054971484
 30
0.0
 40
0.0393700787401556
100
AcDbArc
 50
270.0
 51
294.8878920264
  0
ARC
  5
378
330
1F
100
AcDbEntity
  8
PROFILES_OUTSIDE
100
AcDbCircle
 10
41.5577293692
 20
12.4267569909
 30
0.0
 40
0.039370078740159
100
AcDbArc
 50
90.0
 51
176.3380644245
  0
ARC
  5
379
330
1F
100
AcDbEntity
  8
PROFILES_OUTSIDE
100
AcDbCircle
 10
41.2861527586
 20
12.7220325814
 30
0.0
 40
0.2362204724409445
100
AcDbArc
 50
90.0
 51
180.0
  0
ARC
  5
37A
330
1F
100
AcDbEntity
  8
PROFILES_OUTSIDE
100
AcDbCircle
 10
48.8845779555
 20
21.2392123175
 30
0.0
 40
0.0393700787401627
100
AcDbArc
 50
0.0
 51
90.0
  0
ARC
  5
37B
330
1F
100
AcDbEntity
  8
PROFILES_OUTSIDE
100
AcDbCircle
 10
44.1995385854
 20
15.3150032546
 30
0.0
 40
0.375
100
AcDbArc
 50
120.0
 51
180.0
  0
ARC
  5
37C
330
1F
100
AcDbEntity
  8
PROFILES_OUTSIDE
100
AcDbCircle
 10
43.8245385854
 20
15.9645223074
 30
0.0
 40
0.375
100
AcDbArc
 50
300.0
 51
0.0
  0
ARC
  5
37D
330
1F
100
AcDbEntity
  8
PROFILES_OUTSIDE
100
AcDbCircle
 10
43.8245385854
 20
17.5341241663
 30
0.0
 40
0.3750000000000031
100
AcDbArc
 50
0.0
 51
60.0
  0
ARC
  5
37E
330
1F
100
AcDbEntity
  8
PROFILES_OUTSIDE
100
AcDbCircle
 10
44.1995385854
 20
18.1836432191
 30
0.0
 40
0.375
100
AcDbArc
 50
180.0
 51
240.0
  0
ARC
  5
37F
330
1F
100
AcDbEntity
  8
PROFILES_OUTSIDE
100
AcDbCircle
 10
41.2861527586
 20
20.7766138923
 30
0.0
 40
0.236220472440948
100
AcDbArc
 50
180.0
 51
270.0
  0
ARC
  5
380
330
1F
100
AcDbEntity
  8
PROFILES_OUTSIDE
100
AcDbCircle
 10
46.6217826799
 20
20.067952475
 30
0.0
 40
0.4724409448818889
100
AcDbArc
 50
90.0
 51
180.0
  0
ARC
  5
381
330
1F
100
AcDbEntity
  8
PROFILES_OUTSIDE
100
AcDbCircle
 10
41.5577293692
 20
21.0718894828
 30
0.0
 40
0.0393700787401592
100
AcDbArc
 50
183.6619355755
 51
270.0
  0
ARC
  5
382
330
1F
100
AcDbEntity
  8
PROFILES_OUTSIDE
100
AcDbCircle
 10
41.8978740821
 20
20.9931493254
 30
0.0
 40
0.0393700787401592
100
AcDbArc
 50
65.1121079736
 51
90.0
  0
ARC
  5
383
330
1F
100
AcDbEntity
  8
PROFILES_OUTSIDE
100
AcDbCircle
 10
42.0001027532
 20
21.2135040663
 30
0.0
 40
0.2035433070866139
100
AcDbArc
 50
245.1121079736
 51
72.3995332141
  0
ARC
  5
384
330
1F
100
AcDbEntity
  8
PROFILES_OUTSIDE
100
AcDbCircle
 10
42.0735543335
 20
21.4450462403
 30
0.0
 40
0.039370078740159
100
AcDbArc
 50
180.0
 51
252.3995332141
  0
ARC
  5
385
330
1F
100
AcDbEntity
  8
PROFILES_OUTSIDE
100
AcDbCircle
 10
43.7270976405
 20
21.0522831836
 30
0.0
 40
0.472440944881896
100
AcDbArc
 50
0.0
 51
90.0
  0
ARC
  5
386
330
1F
100
AcDbEntity
  8
PROFILES_OUTSIDE
100
AcDbCircle
 10
44.6719795303
 20
18.656084164
 30
0.0
 40
0.4724409448818925
100
AcDbArc
 50
180.0
 51
270.0
  0
ARC
  5
387
330
1F
100
AcDbEntity
  8
PROFILES_OUTSIDE
100
AcDbCircle
 10
45.3019007901
 20
18.656084164
 30
0.0
 40
0.4724409448818925
100
AcDbArc
 50
270.0
 51
0.0
  0
ARC
  5
388
330
1F
100
AcDbEntity
  8
PROFILES_OUTSIDE
100
AcDbCircle
 10
46.2467826799
 20
21.0522831836
 30
0.0
 40
0.4724409448818889
100
AcDbArc
 50
90.0
 51
180.0
  0
ARC
  5
389
330
1F
100
AcDbEntity
  8
PROFILES_OUTSIDE
100
AcDbCircle
 10
47.900325987
 20
21.4450462403
 30
0.0
 40
0.0393700787401627
100
AcDbArc
 50
287.6004667859
 51
0.0
  0
ARC
  5
38A
330
1F
100
AcDbEntity
  8
PROFILES_OUTSIDE
100
AcDbCircle
 10
47.9737775673
 20
21.2135040663
 30
0.0
 40
0.2035433070866174
100
AcDbArc
 50
107.6004667859
 51
294.8878920264
  0
ARC
  5
38B
330
1F
100
AcDbEntity
  8
PROFILES_OUTSIDE
100
AcDbCircle
 10
48.0760062383
 20
20.9931493254
 30
0.0
 40
0.0393700787401544
100
AcDbArc
 50
90.0
 51
114.8878920264
  0
ARC
  5
38C
330
1F
100
AcDbEntity
  8
PROFILES_OUTSIDE
100
AcDbCircle
 10
48.4161509513
 20
21.0718894828
 30
0.0
 40
0.0393700787401592
100
AcDbArc
 50
270.0
 51
356.3380644245
  0
ARC
  5
38D
330
1F
100
AcDbEntity
  8
PROFILES_OUTSIDE
100
AcDbCircle
 10
48.6877275618
 20
20.7766138923
 30
0.0
 40
0.2362204724409551
100
AcDbArc
 50
270.0
 51
0.0
  0
ARC
  5
38E
330
1F
100
AcDbEntity
  8
PROFILES_OUTSIDE
100
AcDbCircle
 10
46.6217826799
 20
13.4306939988
 30
0.0
 40
0.4724409448818907
100
AcDbArc
 50
180.0
 51
270.0
  0
ARC
  5
38F
330
1F
100
AcDbEntity
  8
PROFILES_OUTSIDE
100
AcDbCircle
 10
45.774341735
 20
18.1836432191
 30
0.0
 40
0.375
100
AcDbArc
 50
300.0
 51
0.0
  0
ARC
  5
390
330
1F
100
AcDbEntity
  8
PROFILES_OUTSIDE
100
AcDbCircle
 10
46.149341735
 20
17.5341241663
 30
0.0
 40
0.375
100
AcDbArc
 50
120.0
 51
180.0
  0
ARC
  5
391
330
1F
100
AcDbEntity
  8
PROFILES_OUTSIDE
100
AcDbCircle
 10
46.149341735
 20
15.9645223074
 30
0.0
 40
0.375
100
AcDbArc
 50
180.0
 51
240.0
  0
ARC
  5
392
330
1F
100
AcDbEntity
  8
PROFILES_OUTSIDE
100
AcDbCircle
 10
45.774341735
 20
15.3150032546
 30
0.0
 40
0.375
100
AcDbArc
 50
0.0
 51
60.0
  0
ARC
  5
393
330
1F
100
AcDbEntity
  8
PROFILES_OUTSIDE
100
AcDbCircle
 10
48.6877275618
 20
12.7220325814
 30
0.0
 40
0.2362204724409551
100
AcDbArc
 50
0.0
 51
90.0
  0
ARC
  5
394
330
1F
100
AcDbEntity
  8
PROFILES_OUTSIDE
100
AcDbCircle
 10
48.8845779555
 20
12.2594341562
 30
0.0
 40
0.0393700787401627
100
AcDbArc
 50
270.0
 51
0.0
  0
ENDSEC
  0
SECTION
  2
OBJECTS
  0
DICTIONARY
  5
C
330
0
100
AcDbDictionary
  3
ACAD_GROUP
350
D
  3
ACAD_MLINESTYLE
350
17
  3
ACAD_SCALELIST
350
47
  0
DICTIONARY
  5
D
102
{ACAD_REACTORS
330
C
102
}
330
C
100
AcDbDictionary
  0
DICTIONARY
  5
17
102
{ACAD_REACTORS
330
C
102
}
330
C
100
AcDbDictionary
  3
STANDARD
350
18
  0
DICTIONARY
  5
47
102
{ACAD_REACTORS
330
C
102
}
330
C
100
AcDbDictionary
  0
MLINESTYLE
  5
18
102
{ACAD_REACTORS
330
17
102
}
330
17
100
AcDbMlineStyle
  2
Standard
 70
     0
  3

 62
   256
 51
90.0
 52
90.0
 71
     2
 49
0.5
 62
   256
  6
BYLAYER
 49
-0.5
 62
   256
  6
BYLAYER
  0
ENDSEC
  0
EOF
